<svg width="16" height="16" viewBox="0 0 16 16" fill="none" xmlns="http://www.w3.org/2000/svg">
<g id="APPLE">
<g id="Apple_logo_black">
<path id="path4" fill-rule="evenodd" clip-rule="evenodd" d="M10.0959 2.5211C10.67 1.83979 10.958 1.10371 10.958 0.315358V0.315348C10.958 0.210787 10.9532 0.10539 10.9415 0C10.5416 0.0207479 10.1164 0.141907 9.66683 0.360992C9.21633 0.583396 8.84483 0.862196 8.55273 1.1975C7.96765 1.85974 7.63818 2.66968 7.63818 3.42649C7.63818 3.53109 7.6449 3.63063 7.65648 3.72521C8.56518 3.79906 9.40315 3.33104 10.0959 2.5211ZM13.1521 13.8075C13.479 13.3414 13.7612 12.8345 13.9996 12.2838C14.0978 12.0502 14.1903 11.807 14.2778 11.553C13.874 11.3837 13.5111 11.1453 13.1861 10.8369C12.469 10.1723 12.1041 9.33531 12.0934 8.3295C12.0817 7.03821 12.6685 6.03162 13.8546 5.31294C13.1919 4.37106 12.1956 3.84825 10.8693 3.74122C10.3799 3.69967 9.78249 3.80515 9.07461 4.05989C8.32607 4.33457 7.88451 4.47235 7.75422 4.47235C7.57996 4.47235 7.18248 4.35452 6.56344 4.12216C5.94265 3.89058 5.4431 3.77275 5.06217 3.77275C4.36597 3.78433 3.7195 3.96531 3.12118 4.32046C2.52287 4.67561 2.04483 5.1594 1.68549 5.77269C1.22827 6.53622 1 7.44736 1 8.50377C1 9.426 1.16931 10.3786 1.50704 11.3623C1.8224 12.2731 2.22494 13.0719 2.71456 13.7608C3.17091 14.4059 3.55184 14.8613 3.8564 15.1269C4.33357 15.5706 4.81161 15.7818 5.29122 15.7613C5.60657 15.7506 6.01904 15.6426 6.53104 15.4354C7.04226 15.2291 7.52021 15.1269 7.96586 15.1269C8.39077 15.1269 8.85549 15.2291 9.36117 15.4354C9.86519 15.6426 10.2982 15.7448 10.6572 15.7448C11.1574 15.7331 11.6244 15.5278 12.0603 15.1269C12.3415 14.8827 12.7064 14.4429 13.1521 13.8075Z" fill="black"/>
</g>
</g>
</svg>
