<svg width="229" height="138" viewBox="0 0 229 138" fill="none" xmlns="http://www.w3.org/2000/svg">
<g filter="url(#filter0_f_2597_24055)">
<path d="M224.458 121.55L147.323 133.879L148.647 121.55L224.458 121.55Z" fill="url(#paint0_linear_2597_24055)"/>
</g>
<mask id="mask0_2597_24055" style="mask-type:alpha" maskUnits="userSpaceOnUse" x="-34" y="-136" width="208" height="258">
<path fill-rule="evenodd" clip-rule="evenodd" d="M-11.8632 -3.91328L-33.557 -29.6662L92.002 -135.512L148.333 -68.641C147.901 -61.5714 148.156 -54.7411 150.749 -48.6402C152.009 -45.6771 153.791 -42.9881 155.568 -40.3079C158.255 -36.2552 160.928 -32.2228 161.761 -27.2936C162.74 -21.4926 161.031 -15.3219 159.318 -9.13609C157.718 -3.3557 156.113 2.43779 156.695 7.95485C157.351 14.1754 160.728 19.3556 164.003 24.3565C165.026 25.9225 166.054 27.512 166.999 29.1484H169.808C172.017 29.1484 173.808 30.9393 173.808 33.1484V117.877C173.808 120.086 172.017 121.877 169.808 121.877H114.246C112.037 121.877 110.246 120.086 110.246 117.877V89.925C108.257 89.0683 106.537 87.9112 105.374 86.1077C103.342 82.9619 103.548 78.5783 103.748 74.3077C103.998 68.9818 104.24 63.8316 100.124 61.4766C97.4954 59.9716 94.1136 60.401 90.7005 60.8344C87.7075 61.2144 84.6905 61.5974 82.136 60.6817C77.5579 59.0428 76.2801 54.2541 74.9783 49.3753C74.3149 46.8893 73.6452 44.3799 72.5296 42.2519C68.5456 34.6432 59.3925 32.6309 50.1513 30.5993C41.5869 28.7165 32.9467 26.817 28.2749 20.4308C27.1472 18.8845 26.3148 17.138 25.4814 15.3895C24.8889 14.1463 24.2958 12.902 23.5958 11.728C17.4978 1.47514 4.25417 -2.18163 -8.46535 -3.57494C-9.58804 -3.69835 -10.7249 -3.80981 -11.8632 -3.91328Z" fill="#2C2A26"/>
</mask>
<g mask="url(#mask0_2597_24055)">
<g filter="url(#filter1_f_2597_24055)">
<path d="M-157.443 124.055C-157.228 105.155 -156.808 86.2106 -156.696 67.333C-156.496 49.3473 -145.049 43.9048 -108.194 36.3683C-23.3978 19.1189 61.5299 0.110492 146.449 -18.3952C161.133 -21.5793 172.955 -18.8604 172.845 -12.3245C172.065 34.1581 171.284 80.6864 170.71 127.124L-157.443 124.055Z" fill="#FFB9F8"/>
</g>
<g filter="url(#filter2_f_2597_24055)">
<path d="M-171.313 -42.3355C-171.322 -42.3393 -171.327 -42.3269 -171.319 -42.3203C-134.347 -11.5639 -84.6677 21.2043 -27.712 51.8982C-26.0466 52.7946 -24.3761 53.6886 -22.7008 54.5805C-7.0306 62.923 2.3024 82.1744 -1.48525 99.1908C-6.17469 120.259 -28.3276 127.798 -46.5696 114.648L-161.748 31.6221C-174.687 22.2948 -181.475 5.25532 -178.268 -9.73791C-175.946 -20.5976 -173.636 -31.4617 -171.306 -42.3237C-171.305 -42.3284 -171.308 -42.3337 -171.313 -42.3355Z" fill="#FFE665"/>
</g>
<g filter="url(#filter3_f_2597_24055)">
<path d="M-67.5132 78.6167C-87.7696 54.0516 -108.045 29.5044 -128.33 4.92463C-106.143 20.0789 -83.2641 38.0655 -61.1508 56.5711C-41.2989 73.194 -21.0892 90.7796 -1.78186 102.243C14.5308 111.934 29.0224 116.631 42.7386 119.249C66.9349 135.349 89.5739 145.572 110.427 149.338C126.017 152.147 122.04 142.915 132.226 137.919C112.685 124.358 135.717 121.433 155.392 134.315C163.449 139.591 159.699 139.535 167.391 143.309C172.765 145.927 178.561 154.68 183.272 155.7C204.758 160.293 243.159 200.677 262.985 202.057C259.097 224.31 200.05 181.65 185.677 191.94C139.756 161.633 132.04 172.063 93.2876 162.937C90.0981 162.191 86.9482 161.533 83.8083 160.908L-49.3936 99.4139C-55.6124 92.6381 -61.6619 85.7008 -67.5132 78.6167Z" fill="#71BBFF"/>
</g>
<g filter="url(#filter4_f_2597_24055)">
<path d="M169.205 82.7988C168.434 81.4407 167.381 81.0471 166.128 79.5476C163.146 78.8351 165.206 76.5959 167.644 76.2874C171.078 75.8531 171.143 77.572 173.002 78.7753C176.263 80.885 178.103 82.545 182.191 84.2314C185.195 85.4705 193.422 85.6283 196.958 85.4655C202.224 85.2229 204.242 90.8815 206.429 93.2431C209.581 96.6461 210.525 100.099 215.636 102.608C220.7 105.094 226.894 106.092 232.642 107.557C239.001 109.177 243.707 110.445 247.63 114.681C250.959 118.275 246.549 121.353 244.349 123.959C242.183 126.526 234.81 126.745 230.901 127.085C225.843 127.526 222.549 126.395 217.911 125.088C212.748 123.634 209.833 119.023 204.859 117.623C200.908 116.51 192.924 116.002 190.872 112.932C186.824 106.873 185.697 101.221 176.472 97.4155C172.954 95.9643 172.089 90.6808 171.489 88.0741C171.019 86.0281 170.258 84.6519 169.205 82.7988Z" fill="#71BBFF"/>
</g>
<g filter="url(#filter5_f_2597_24055)">
<path d="M-95.5756 72.0716C-65.04 80.2418 -17.3321 98.2897 -0.336834 122.445C-19.246 141.073 -29.9684 97.0746 -48.8775 115.703L-94.6162 98.7499C-104.315 85.8199 -112.027 88.2793 -95.5756 72.0716Z" fill="#0A9F68"/>
</g>
<g filter="url(#filter6_f_2597_24055)">
<path d="M-72.77 -16.4776C-74.1199 -18.1062 -74.0304 -19.495 -75.4274 -21.1988C-76.8243 -22.9026 -80.7886 -27.452 -80.4433 -28.1376C-79.9442 -29.1285 -81.1426 -31.5074 -77.7272 -31.0747C-74.4263 -30.6565 -69.5706 -28.3459 -65.9751 -26.8227C-52.7775 -21.2321 -39.8711 -14.3617 -27.0308 -8.24593C-20.5374 -5.15315 -13.7259 -2.7747 -7.07233 0.221408C-3.83001 1.68144 -2.28206 3.03344 1.32963 4.26485C4.79798 5.44739 8.08302 7.04592 11.4274 8.55192C19.5206 12.1963 27.0173 14.2794 35.3054 16.9642C44.4549 19.928 56.6208 25.9715 65.1468 30.2574C92.3928 43.9538 109.962 60.0083 131.709 75.3112C140.145 81.2474 147.017 87.37 156.148 93.1921C165.766 99.3245 176.534 104.221 187.612 109.209C206.504 117.716 227.414 126.824 244.781 136.744C252.828 141.341 259.844 145.934 264.552 151.136C269.626 156.742 264.514 162.304 257.531 162.939C253.654 163.292 244.204 160.788 239.006 159.393C233.493 157.914 227.953 156.128 222.406 154.287C201.695 147.415 180.911 137.071 163.139 126.53C140.829 113.297 118.283 106.353 93.9639 96.1314C82.297 91.2274 71.0826 85.7314 59.9496 80.3234C52.5702 76.7389 46.9602 71.0781 41.329 66.9695C25.5057 55.4246 16.3545 43.7771 -2.20353 32.8061C-10.8194 27.7126 -19.9179 22.5938 -29.5116 18.198C-34.7297 15.8071 -42.5731 12.311 -46.6771 9.16822C-54.306 3.3261 -64.1184 -3.50857 -67.5182 -9.31695C-68.758 -11.435 -70.9672 -14.3027 -72.77 -16.4776Z" fill="#FFE665"/>
</g>
<g filter="url(#filter7_f_2597_24055)">
<path d="M156.572 98.0158C156.793 98.5652 156.622 99.117 156.849 99.6928C157.076 100.269 157.749 101.79 157.577 102.083C157.329 102.506 157.427 103.36 156.483 103.42C155.571 103.477 154.406 102.895 153.523 102.538C150.285 101.227 147.264 99.394 144.183 97.8529C142.626 97.0735 140.901 96.5963 139.287 95.8657C138.5 95.5097 138.193 95.0823 137.276 94.8409C136.394 94.6091 135.61 94.2015 134.799 93.8343C132.835 92.9456 130.881 92.6305 128.761 92.132C126.42 91.5818 123.528 90.0238 121.506 88.912C115.044 85.3592 111.633 80.2297 106.932 75.6762C105.109 73.9099 103.758 71.9652 101.721 70.2904C99.5755 68.5263 96.968 67.3252 94.2803 66.1088C89.6968 64.0343 84.5914 61.8594 80.5973 59.1274C78.7465 57.8613 77.1943 56.5271 76.374 54.7991C75.4898 52.9366 77.5517 50.4074 79.6406 49.6886C80.8005 49.2895 83.2762 49.6391 84.6362 49.838C86.0786 50.049 87.4966 50.3789 88.9111 50.7298C94.1923 52.0397 99.1321 54.7087 103.179 57.6578C108.259 61.36 114.064 62.5745 120.04 64.9584C122.907 66.1021 125.582 67.5089 128.241 68.8864C130.004 69.7996 131.038 71.6475 132.24 72.884C135.617 76.3584 137.051 80.3214 141.281 83.3866C143.244 84.8097 145.345 86.2103 147.665 87.2935C148.926 87.8827 150.833 88.7298 151.693 89.6893C153.293 91.4729 155.421 93.5 155.799 95.5544C155.937 96.3035 156.277 97.2821 156.572 98.0158Z" fill="#0A9F68"/>
</g>
<g filter="url(#filter8_f_2597_24055)">
<path d="M188.354 82.7834C188.575 83.3328 188.404 83.8846 188.63 84.4604C188.857 85.0362 189.53 86.5578 189.358 86.8505C189.11 87.2735 189.209 88.1279 188.265 88.1873C187.352 88.2446 186.187 87.6626 185.305 87.3055C182.066 85.9948 179.045 84.1616 175.965 82.6205C174.407 81.8411 172.682 81.3639 171.068 80.6333C170.282 80.2772 169.974 79.8499 169.057 79.6085C168.176 79.3767 167.391 78.9691 166.58 78.6019C164.616 77.7132 162.662 77.3981 160.542 76.8996C158.201 76.3493 155.309 74.7914 153.287 73.6796C146.826 70.1268 143.414 64.9973 138.713 60.4438C136.89 58.6775 135.539 56.7328 133.502 55.058C131.357 53.2939 128.749 52.0928 126.062 50.8764C121.478 48.8019 116.373 46.627 112.379 43.8949C110.528 42.6289 108.976 41.2947 108.155 39.5667C107.271 37.7042 109.333 35.175 111.422 34.4562C112.582 34.0571 115.057 34.4067 116.417 34.6056C117.86 34.8166 119.278 35.1465 120.692 35.4973C125.974 36.8072 130.913 39.4762 134.96 42.4253C140.04 46.1276 145.845 47.3421 151.822 49.726C154.689 50.8697 157.363 52.2764 160.023 53.654C161.786 54.5671 162.819 56.4151 164.021 57.6516C167.399 61.126 168.833 65.0889 173.062 68.1542C175.025 69.5773 177.126 70.9779 179.446 72.0611C180.708 72.6503 182.614 73.4974 183.475 74.4569C185.074 76.2405 187.202 78.2675 187.58 80.3219C187.718 81.0711 188.059 82.0497 188.354 82.7834Z" fill="#FFE665"/>
</g>
<g filter="url(#filter9_f_2597_24055)">
<path d="M182.352 113.361C181.58 112.003 180.527 111.61 179.274 110.11C176.292 109.398 178.353 107.158 180.791 106.85C184.224 106.416 184.289 108.135 186.149 109.338C189.409 111.447 191.25 113.107 195.338 114.794C198.342 116.033 206.569 116.191 210.104 116.028C215.371 115.785 217.388 121.444 219.575 123.806C222.727 127.209 223.672 130.661 228.782 133.17C233.846 135.657 240.04 136.655 245.788 138.12C252.147 139.74 256.854 141.008 260.776 145.243C264.105 148.837 259.696 151.916 257.496 154.522C255.329 157.089 247.957 157.308 244.047 157.648C238.99 158.088 235.696 156.957 231.058 155.651C225.895 154.197 222.98 149.586 218.006 148.185C214.055 147.072 206.07 146.565 204.019 143.494C199.97 137.436 198.844 131.784 189.619 127.978C186.101 126.527 185.236 121.243 184.636 118.637C184.165 116.591 183.405 115.214 182.352 113.361Z" fill="#0A9F68"/>
</g>
<g filter="url(#filter10_f_2597_24055)">
<path d="M182.687 46.7286C184.6 49.3531 186.876 49.9086 189.821 52.707C196.173 53.4461 192.41 58.5985 187.42 59.8415C180.394 61.592 179.865 58.0443 175.729 56.0101C168.478 52.4434 164.277 49.4575 155.406 46.9732C148.887 45.1478 131.776 46.8573 124.475 48.0701C113.599 49.8767 108.114 38.6447 103.033 34.2901C95.7111 28.0152 92.9587 21.0911 81.7761 17.1543C70.6955 13.2534 57.6103 12.7169 45.3441 11.1035C31.7741 9.31864 21.715 7.85462 12.6026 0.0452795C4.86869 -6.58262 13.3141 -14.0562 17.2825 -20.004C21.1908 -25.8617 36.442 -28.1406 44.4776 -29.8141C54.8743 -31.9792 61.9699 -30.4496 71.8963 -28.8894C82.9458 -27.1527 90.053 -18.3152 100.698 -16.6421C109.153 -15.3131 125.842 -16.2374 130.805 -10.3799C140.597 1.17812 144.232 12.6178 164.252 18.2239C171.886 20.3617 174.893 31.1014 176.736 36.3572C178.182 40.4823 180.077 43.1473 182.687 46.7286Z" fill="#71BBFF"/>
</g>
</g>
<path opacity="0.5" d="M173.808 33.1465C173.808 30.9373 172.017 29.1465 169.808 29.1465H114.246C112.037 29.1465 110.246 30.9373 110.246 33.1465V117.875C110.246 120.084 112.037 121.875 114.246 121.875H169.808C172.017 121.875 173.808 120.084 173.808 117.875V33.1465Z" fill="url(#paint1_linear_2597_24055)"/>
<path d="M173.808 29.1451L146.661 16.5605V134.458L173.808 121.873V29.1451Z" fill="url(#paint2_linear_2597_24055)"/>
<path d="M144.014 17.2229L146.662 16.5605V134.458L144.014 133.796V17.2229Z" fill="white"/>
<path d="M152.167 89.6304C152.44 89.3533 152.621 88.872 152.621 88.3246C152.621 87.4658 152.176 86.7695 151.628 86.7695C151.079 86.7695 150.635 87.4658 150.635 88.3246C150.635 88.8791 150.82 89.3657 151.099 89.6411L150.635 92.7306L152.621 92.4715L152.167 89.6304Z" fill="#7D7D7D"/>
<ellipse cx="9.1348" cy="5.58362" rx="9.1348" ry="5.58362" transform="matrix(0.897739 0.440528 -0.440269 0.897866 54.9111 37.0918)" fill="#FFE665"/>
<ellipse cx="11.6351" cy="5.09465" rx="11.6351" ry="5.09465" transform="matrix(0.683048 0.730373 -0.730126 0.683313 73.9854 11.9238)" fill="#F5F5F5"/>
<ellipse cx="3.89286" cy="3.41203" rx="3.89286" ry="3.41203" transform="matrix(0.897739 0.440528 -0.440269 0.897866 95.374 62.2617)" fill="#0A9F68"/>
<ellipse cx="3.54821" cy="2.36257" rx="3.54821" ry="2.36257" transform="matrix(-0.897739 -0.440528 -0.440269 0.897866 45.8662 38.8945)" fill="#FFB9F8"/>
<defs>
<filter id="filter0_f_2597_24055" x="143.323" y="117.55" width="85.1348" height="20.3286" filterUnits="userSpaceOnUse" color-interpolation-filters="sRGB">
<feFlood flood-opacity="0" result="BackgroundImageFix"/>
<feBlend mode="normal" in="SourceGraphic" in2="BackgroundImageFix" result="shape"/>
<feGaussianBlur stdDeviation="2" result="effect1_foregroundBlur_2597_24055"/>
</filter>
<filter id="filter1_f_2597_24055" x="-165.443" y="-27.7275" width="346.289" height="162.852" filterUnits="userSpaceOnUse" color-interpolation-filters="sRGB">
<feFlood flood-opacity="0" result="BackgroundImageFix"/>
<feBlend mode="normal" in="SourceGraphic" in2="BackgroundImageFix" result="shape"/>
<feGaussianBlur stdDeviation="4" result="effect1_foregroundBlur_2597_24055"/>
</filter>
<filter id="filter2_f_2597_24055" x="-187.057" y="-50.3364" width="194.413" height="179.504" filterUnits="userSpaceOnUse" color-interpolation-filters="sRGB">
<feFlood flood-opacity="0" result="BackgroundImageFix"/>
<feBlend mode="normal" in="SourceGraphic" in2="BackgroundImageFix" result="shape"/>
<feGaussianBlur stdDeviation="4" result="effect1_foregroundBlur_2597_24055"/>
</filter>
<filter id="filter3_f_2597_24055" x="-136.33" y="-3.0752" width="407.314" height="219.656" filterUnits="userSpaceOnUse" color-interpolation-filters="sRGB">
<feFlood flood-opacity="0" result="BackgroundImageFix"/>
<feBlend mode="normal" in="SourceGraphic" in2="BackgroundImageFix" result="shape"/>
<feGaussianBlur stdDeviation="4" result="effect1_foregroundBlur_2597_24055"/>
</filter>
<filter id="filter4_f_2597_24055" x="156.649" y="68.2188" width="100.183" height="66.9634" filterUnits="userSpaceOnUse" color-interpolation-filters="sRGB">
<feFlood flood-opacity="0" result="BackgroundImageFix"/>
<feBlend mode="normal" in="SourceGraphic" in2="BackgroundImageFix" result="shape"/>
<feGaussianBlur stdDeviation="4" result="effect1_foregroundBlur_2597_24055"/>
</filter>
<filter id="filter5_f_2597_24055" x="-113.16" y="64.0718" width="120.823" height="71.0757" filterUnits="userSpaceOnUse" color-interpolation-filters="sRGB">
<feFlood flood-opacity="0" result="BackgroundImageFix"/>
<feBlend mode="normal" in="SourceGraphic" in2="BackgroundImageFix" result="shape"/>
<feGaussianBlur stdDeviation="4" result="effect1_foregroundBlur_2597_24055"/>
</filter>
<filter id="filter6_f_2597_24055" x="-88.4648" y="-39.127" width="363.065" height="210.1" filterUnits="userSpaceOnUse" color-interpolation-filters="sRGB">
<feFlood flood-opacity="0" result="BackgroundImageFix"/>
<feBlend mode="normal" in="SourceGraphic" in2="BackgroundImageFix" result="shape"/>
<feGaussianBlur stdDeviation="4" result="effect1_foregroundBlur_2597_24055"/>
</filter>
<filter id="filter7_f_2597_24055" x="68.1641" y="41.5059" width="97.4404" height="69.918" filterUnits="userSpaceOnUse" color-interpolation-filters="sRGB">
<feFlood flood-opacity="0" result="BackgroundImageFix"/>
<feBlend mode="normal" in="SourceGraphic" in2="BackgroundImageFix" result="shape"/>
<feGaussianBlur stdDeviation="4" result="effect1_foregroundBlur_2597_24055"/>
</filter>
<filter id="filter8_f_2597_24055" x="99.9453" y="26.2734" width="97.4404" height="69.918" filterUnits="userSpaceOnUse" color-interpolation-filters="sRGB">
<feFlood flood-opacity="0" result="BackgroundImageFix"/>
<feBlend mode="normal" in="SourceGraphic" in2="BackgroundImageFix" result="shape"/>
<feGaussianBlur stdDeviation="4" result="effect1_foregroundBlur_2597_24055"/>
</filter>
<filter id="filter9_f_2597_24055" x="169.796" y="98.7812" width="100.183" height="66.9634" filterUnits="userSpaceOnUse" color-interpolation-filters="sRGB">
<feFlood flood-opacity="0" result="BackgroundImageFix"/>
<feBlend mode="normal" in="SourceGraphic" in2="BackgroundImageFix" result="shape"/>
<feGaussianBlur stdDeviation="4" result="effect1_foregroundBlur_2597_24055"/>
</filter>
<filter id="filter10_f_2597_24055" x="1.45215" y="-38.8872" width="199.716" height="107.2" filterUnits="userSpaceOnUse" color-interpolation-filters="sRGB">
<feFlood flood-opacity="0" result="BackgroundImageFix"/>
<feBlend mode="normal" in="SourceGraphic" in2="BackgroundImageFix" result="shape"/>
<feGaussianBlur stdDeviation="4" result="effect1_foregroundBlur_2597_24055"/>
</filter>
<linearGradient id="paint0_linear_2597_24055" x1="170.828" y1="117.9" x2="213.28" y2="104.666" gradientUnits="userSpaceOnUse">
<stop stop-color="#32302F" stop-opacity="0.23"/>
<stop offset="1" stop-color="#BCBCBC" stop-opacity="0"/>
</linearGradient>
<linearGradient id="paint1_linear_2597_24055" x1="96.3415" y1="5.96442" x2="123.504" y2="63.2496" gradientUnits="userSpaceOnUse">
<stop stop-color="white"/>
<stop offset="1" stop-color="white" stop-opacity="0"/>
</linearGradient>
<linearGradient id="paint2_linear_2597_24055" x1="160.234" y1="16.5605" x2="160.234" y2="134.458" gradientUnits="userSpaceOnUse">
<stop stop-color="#C9C9C9"/>
<stop offset="1" stop-color="#DFDFDF"/>
</linearGradient>
</defs>
</svg>
