<svg width="24" height="24" viewBox="0 0 24 24" fill="none" xmlns="http://www.w3.org/2000/svg">
<path d="M19.7981 5H4.24817C3.65191 5 3.08012 5.22989 2.65851 5.63906C2.23689 6.04823 2 6.60321 2 7.18186V16.8636C2.01225 17.4344 2.2545 17.9776 2.6748 18.377C3.0951 18.7764 3.65994 19.0001 4.24817 19H19.7981C20.382 19 20.9419 18.7749 21.3547 18.3743C21.7676 17.9736 21.9995 17.4302 21.9995 16.8636V7.18186C22.0057 6.8975 21.9534 6.61486 21.8456 6.3504C21.7377 6.08593 21.5766 5.84492 21.3715 5.6417C21.1665 5.43848 20.9217 5.27707 20.6515 5.16687C20.3814 5.05668 20.0912 4.99994 19.7981 5Z" fill="#2A2F33"/>
<path d="M10.5 8C10.5989 8 10.6956 8.05864 10.7778 8.16853C10.86 8.27841 10.9241 8.43459 10.9619 8.61732C10.9998 8.80004 11.0097 9.00097 10.9904 9.19496C10.9711 9.38894 10.9235 9.56713 10.8535 9.70698C10.7836 9.84684 10.6945 9.94221 10.5975 9.9808C10.5005 10.0194 10.4 9.99952 10.3086 9.92383C10.2173 9.84814 10.1392 9.72003 10.0843 9.55558C10.0293 9.39113 10 9.19776 10 8.99998C10 8.73476 10.0527 8.48035 10.1464 8.29281C10.2402 8.10526 10.3674 8 10.5 8Z" fill="#2A2F33"/>
<path d="M13.5 8C13.6326 8 13.7597 8.10527 13.8535 8.29281C13.9473 8.48036 14 8.73477 14 9C14 9.26523 13.9473 9.51948 13.8535 9.70702C13.7597 9.89456 13.6326 10 13.5 10C13.3674 10 13.2402 9.89456 13.1464 9.70702C13.0527 9.51948 13 9.26523 13 9C13 8.73477 13.0527 8.48036 13.1464 8.29281C13.2402 8.10527 13.3674 8 13.5 8Z" fill="#2A2F33"/>
<path d="M12.0001 10C12.5001 10 13 9.99998 13 10.5C13 11 12.5001 11 12.0001 11C11.5001 11 11 11 11 10.5C11 9.99998 11.4167 10 12.0001 10Z" fill="#2A2F33"/>
<path d="M18.6263 15.9267C18.4887 15.8838 18.3387 15.8915 18.2072 15.9484C18.0757 16.0053 17.9728 16.1069 17.9199 16.2322L14.1051 14.9224L17.9199 13.6562C17.9728 13.7815 18.0757 13.8831 18.2072 13.94C18.3387 13.9969 18.4887 14.0048 18.6263 13.9619C18.6972 13.9428 18.7629 13.9099 18.8189 13.8654C18.875 13.8209 18.9202 13.7658 18.9514 13.7038C18.9826 13.6418 18.9992 13.5742 19 13.5058C19.0008 13.4374 18.9858 13.3696 18.956 13.307C18.8846 13.3495 18.8039 13.3765 18.7197 13.3862C18.6355 13.3958 18.5501 13.3877 18.4698 13.3626C18.3894 13.3374 18.3162 13.2959 18.2555 13.2409C18.1949 13.186 18.1483 13.1192 18.1194 13.0453C18.0904 12.9714 18.0797 12.8924 18.0882 12.8141C18.0966 12.7359 18.1238 12.6605 18.168 12.5934C18.2122 12.5262 18.2721 12.4691 18.3433 12.4264C18.4145 12.3837 18.4951 12.3564 18.5792 12.3465C18.5586 12.2807 18.5232 12.2199 18.4752 12.1679C18.4271 12.1159 18.3676 12.074 18.3007 12.0451C18.2338 12.0161 18.161 12.0008 18.0872 12C18.0134 11.9993 17.9403 12.0132 17.8728 12.0408C17.7376 12.0898 17.628 12.1852 17.5667 12.3072C17.5053 12.4291 17.4968 12.5682 17.5431 12.6957L12.5038 14.3985L7.41742 12.6957C7.43359 12.5778 7.40601 12.4583 7.33923 12.3569C7.27245 12.2554 7.17042 12.1779 7.04991 12.1373C6.92939 12.0966 6.79758 12.0953 6.67608 12.1333C6.55457 12.1713 6.45061 12.2464 6.38129 12.3465C6.48918 12.4107 6.57025 12.5071 6.61125 12.6197C6.65226 12.7324 6.65077 12.8546 6.60694 12.9663C6.56312 13.078 6.47963 13.1726 6.37015 13.2345C6.26068 13.2964 6.13172 13.322 6.00451 13.307C5.98834 13.4249 6.01592 13.5445 6.0827 13.646C6.14948 13.7475 6.25151 13.8248 6.37202 13.8654C6.49254 13.9061 6.62435 13.9076 6.74585 13.8696C6.86736 13.8315 6.97132 13.7563 7.04064 13.6562L10.8554 14.9224L7.04064 16.2322C6.71037 16.8866 6.71034 16.8867 6.381 17.5409C6.39196 17.6201 6.4215 17.6949 6.4676 17.7609C6.5137 17.8269 6.57522 17.8824 6.64762 17.9233C6.72001 17.9643 6.80139 17.9896 6.88577 17.9974C6.97016 18.0052 7.05537 17.9952 7.13507 17.9684C7.21476 17.9415 7.28694 17.8984 7.3462 17.8422C7.40546 17.786 7.45031 17.718 7.47742 17.6435C7.50454 17.569 7.51318 17.4898 7.50279 17.4118C7.4924 17.3338 7.46326 17.2589 7.41742 17.1928L12.5038 15.4901L17.5431 17.1928C17.4968 17.3203 17.5053 17.4595 17.5667 17.5814C17.628 17.7034 17.7376 17.7987 17.8728 17.8478C17.9403 17.8754 18.0134 17.8893 18.0872 17.8886C18.161 17.8878 18.2338 17.8725 18.3007 17.8435C18.3676 17.8146 18.4271 17.7726 18.4752 17.7207C18.5232 17.6687 18.5586 17.6079 18.5792 17.5421C18.4951 17.5322 18.4145 17.5049 18.3433 17.4622C18.2721 17.4194 18.2122 17.3623 18.168 17.2952C18.1238 17.2281 18.0966 17.1527 18.0882 17.0744C18.0797 16.9962 18.0904 16.9172 18.1194 16.8433C18.1483 16.7694 18.1949 16.7025 18.2555 16.6475C18.3162 16.5926 18.3894 16.551 18.4698 16.5259C18.5501 16.5007 18.6355 16.4928 18.7197 16.5024C18.8039 16.5121 18.8846 16.5391 18.956 16.5816C18.9858 16.519 19.0008 16.4512 19 16.3828C18.9992 16.3144 18.9826 16.2468 18.9514 16.1848C18.9202 16.1228 18.875 16.0677 18.8189 16.0232C18.7629 15.9786 18.6972 15.9458 18.6263 15.9267Z" fill="#E7E8E9"/>
<path d="M12.0005 6.00147C11.6035 5.98784 11.2082 6.06899 10.8391 6.24002C10.4699 6.41105 10.1346 6.66828 9.85371 6.99598C9.57284 7.32367 9.35237 7.71483 9.20578 8.14555C9.05919 8.57627 8.98958 9.0375 9.00126 9.50074C9.00292 9.87339 9.09506 10.2378 9.26702 10.5518C9.43898 10.8658 9.6837 11.1166 9.97282 11.275V12.4086C9.97282 12.5654 10.0263 12.7158 10.1213 12.8267C10.2164 12.9376 10.3453 13 10.4798 13C10.6142 13 10.7432 12.9376 10.8382 12.8267C10.9333 12.7158 10.9867 12.5654 10.9867 12.4086V11.7185H11.4936V12.3101C11.4936 12.4669 11.547 12.6173 11.6421 12.7282C11.7371 12.8391 11.8661 12.9015 12.0005 12.9015C12.135 12.9015 12.2639 12.8391 12.359 12.7282C12.454 12.6173 12.5074 12.4669 12.5074 12.3101V11.7185H12.9721V12.4086C12.9721 12.5654 13.0255 12.7158 13.1205 12.8267C13.2156 12.9376 13.3445 13 13.479 13C13.6134 13 13.7423 12.9376 13.8374 12.8267C13.9325 12.7158 13.9859 12.5654 13.9859 12.4086V11.275C14.2799 11.1189 14.5306 10.8701 14.7097 10.5566C14.8889 10.2431 14.9893 9.87736 14.9997 9.50074C15.0054 9.03937 14.9317 8.58138 14.783 8.15382C14.6343 7.72627 14.4136 7.33774 14.1339 7.01147C13.8543 6.6852 13.5214 6.42782 13.1549 6.25431C12.7885 6.0808 12.3959 5.99483 12.0005 6.00147ZM10.7332 10.0921C10.3108 10.0921 9.97282 10.0922 9.97282 9.20503C9.97282 8.96975 10.0529 8.74405 10.1955 8.57768C10.3381 8.4113 10.5316 8.31792 10.7332 8.31792C11.4936 8.31792 11.4936 8.71217 11.4936 9.20503C11.4936 9.44032 11.4135 9.66587 11.2709 9.83224C11.1283 9.99861 10.9349 10.0921 10.7332 10.0921ZM12.0005 11.275C11.7048 11.275 11.4936 11.275 11.4936 10.9793C11.4936 10.6835 11.7048 10.6836 12.0005 10.6836C12.2962 10.6836 12.5074 10.6835 12.5074 10.9793C12.5074 11.275 12.254 11.275 12.0005 11.275ZM13.2255 10.0921C13.0313 10.0795 12.8485 9.98057 12.715 9.81554C12.5814 9.65052 12.5071 9.43202 12.5074 9.20503C12.5074 8.71217 12.5074 8.31792 13.2255 8.31792C13.4272 8.31792 13.6206 8.4113 13.7632 8.57768C13.9057 8.74405 13.9859 8.96975 13.9859 9.20503C13.9859 10.0922 13.6479 10.0921 13.2255 10.0921Z" fill="#E7E8E9"/>
</svg>
