<svg width="24" height="24" viewBox="0 0 24 24" fill="none" xmlns="http://www.w3.org/2000/svg">
<path d="M16.4131 18.8279H18.6666V21.017H16.4131V18.8279ZM5.23944 18.8279H7.49286V21.017H5.23944V18.8279ZM18.6666 7.47126H17.5399V6.23988H16.4131V5.14532H14.7231V3.00171H13.6431V5.14532H10.2629V3.00171H9.13623V5.14532H7.49286V6.23988H6.36615V7.33444H5.23944V11.12H3.03272V12.2146H5.23944V16.0002H7.49286V18.6911H10.2629V16.0002H13.6431V18.6911H16.4131V16.0002H18.6666V12.2146H20.7793V11.12H18.5729L18.6666 7.47126ZM10.8263 13.4005H8.61958V9.06759H10.8263V13.4005ZM13.0797 13.4005V9.06759H15.2864V13.4005H13.0797ZM20.8733 5.28214H22V11.2569H20.7793L20.8733 5.28214ZM2.09399 5.28214H3.2207V11.2569H2L2.09399 5.28214Z" fill="#553986"/>
</svg>
