<svg width="24" height="24" viewBox="0 0 24 24" fill="none" xmlns="http://www.w3.org/2000/svg">
<path d="M20.9995 9.97889C21.0052 10.2423 20.958 10.5042 20.8607 10.7492C20.7634 10.9942 20.6181 11.2173 20.4331 11.4056C20.2481 11.5938 20.0274 11.7433 19.7836 11.8454C19.5399 11.9475 19.2781 12.0001 19.0137 12H4.98615C4.72178 12.0001 4.4601 11.9475 4.21637 11.8454C3.97264 11.7433 3.75186 11.5938 3.56689 11.4056C3.38193 11.2173 3.23647 10.9942 3.13919 10.7492C3.04192 10.5042 2.99483 10.2423 3.00045 9.97889V6.02098C3.00034 5.49217 3.20815 4.98446 3.5794 4.60663C3.95065 4.22879 4.45563 4.01102 4.98615 4H19.0137C19.5442 4.01102 20.0494 4.22879 20.4206 4.60663C20.7918 4.98446 20.9997 5.49217 20.9995 6.02098V9.97889Z" fill="#FCCB4F"/>
<path d="M6.00032 4H4.9862C4.45568 4.01102 3.9507 4.22879 3.57945 4.60663C3.2082 4.98446 3.00039 5.49217 3.0005 6.02098V6.98945L6.00032 4ZM9.00014 4L3.0005 9.97889C2.99316 10.3011 3.06647 10.62 3.21403 10.9068C3.36158 11.1935 3.57864 11.439 3.84545 11.6211L11.493 4H9.00014ZM6.50732 12H9.00014L17.0279 4H14.4928L6.50732 12ZM14.4928 12L20.9574 5.55788C20.8878 5.25937 20.748 4.98156 20.5497 4.74733C20.3514 4.5131 20.1001 4.3291 19.8165 4.21048L12 12H14.4928ZM20.9996 9.97889V8.50518L17.4927 12H19.0137C19.2781 12.0001 19.5399 11.9475 19.7836 11.8454C20.0274 11.7433 20.2481 11.5938 20.4331 11.4056C20.6181 11.2173 20.7634 10.9942 20.8607 10.7492C20.958 10.5042 21.0052 10.2423 20.9996 9.97889Z" fill="#2A2F33"/>
<path d="M4 12H6.8435V20H4V12ZM17.1566 12H20V20H17.1566V12Z" fill="#9AABB6"/>
</svg>
