<svg width="24" height="24" viewBox="0 0 24 24" fill="none" xmlns="http://www.w3.org/2000/svg">
<path d="M17.2127 8.42344C17.2127 14.9754 13.0212 14.8634 13.9348 15.0874C18.395 16.4314 19.3086 10.0473 19.9534 10.0473C21.5118 10.0473 23.5 9.76744 23.5 8.42344C23.355 7.46418 22.8734 6.59513 22.1487 5.98472C21.4239 5.3743 20.5077 5.06618 19.5772 5.11963C18.0725 5.11963 17.2127 7.02344 17.2127 8.42344ZM0.500174 14.0234C0.500174 14.7514 2.75705 13.5194 3.72434 14.0234C4.69163 14.5274 4.96022 13.4635 4.96022 12.6795C4.96022 11.8955 4.10053 12.0636 3.07951 12.0636C2.05848 12.0636 0.500174 13.4636 0.500174 14.1916V14.0234Z" fill="#77B356"/>
<path d="M12.8047 17.2153C12.8047 19.0633 13.6643 19.1195 14.6316 19.1195C15.5989 19.1195 16.4588 19.1193 16.4588 17.2153C16.4825 16.8611 16.4825 16.5056 16.4588 16.1513C15.9752 14.4153 14.6855 12.4555 13.8257 12.4555C12.9659 12.4555 12.8047 15.3673 12.8047 17.2153ZM7.43084 17.2153C7.43084 19.0633 6.62468 19.1195 5.65739 19.1195C4.6901 19.1195 3.83047 19.1193 3.83047 17.2153C3.80684 16.8611 3.80684 16.5056 3.83047 16.1513C4.31411 14.4153 5.60373 12.4555 6.4098 12.4555C7.21588 12.4555 7.43084 15.2003 7.43084 17.0483V17.2153Z" fill="#77B356"/>
<path d="M3.08002 13.1271C3.08002 15.7591 6.35798 15.7589 10.3883 15.7589C14.4187 15.7589 17.7505 15.7591 17.7505 13.1271C17.8375 12.0682 17.7126 11.002 17.3834 9.9962C17.0543 8.99036 16.5282 8.06655 15.8386 7.2837C15.149 6.50084 14.3109 5.87615 13.3773 5.44859C12.4437 5.02103 11.435 4.8002 10.4152 4.8002C9.39546 4.8002 8.38674 5.02103 7.45314 5.44859C6.51954 5.87615 5.68152 6.50084 4.99189 7.2837C4.30225 8.06655 3.77614 8.99036 3.44704 9.9962C3.11794 11.002 2.99297 12.0682 3.08002 13.1271Z" fill="#3E7221"/>
<path d="M20.1677 6.46329C19.9966 6.46329 19.8327 6.53414 19.7118 6.66016C19.5908 6.78619 19.5228 6.95703 19.5228 7.13526C19.5228 7.31349 19.5908 7.48433 19.7118 7.61036C19.8327 7.73638 19.9966 7.80723 20.1677 7.80723C20.3346 7.7943 20.4915 7.71933 20.6098 7.596C20.7282 7.47267 20.8001 7.3092 20.8125 7.13526C20.8125 6.95703 20.7445 6.78619 20.6236 6.66016C20.5026 6.53414 20.3387 6.46329 20.1677 6.46329Z" fill="#2A2F33"/>
<path d="M8.40042 11.8392C8.40042 14.2472 9.31395 14.4713 10.3887 14.4713C11.4635 14.4713 12.4308 14.4712 12.4308 11.8392C12.4308 9.20717 11.5172 6.23917 10.3887 6.23917C9.26021 6.23917 8.40042 9.43117 8.40042 11.8392ZM4.31626 11.1111C3.77888 13.4071 4.85363 13.7994 5.98213 13.7994C7.11064 13.7994 7.59422 14.2472 7.59422 11.8392C7.59422 9.43117 8.29305 7.5274 7.16455 7.5274C6.03604 7.5274 5.41453 7.98705 4.50098 10.619L4.31626 11.1111ZM13.237 11.8392C13.237 14.2472 13.7206 13.7994 14.8491 13.7994C15.9776 13.7994 17.0523 13.4071 16.4612 11.1111C15.8701 8.81514 14.419 7.5274 13.2905 7.5274C12.162 7.5274 13.237 9.43117 13.237 11.8392Z" fill="#5C913B"/>
</svg>
