<svg width="16" height="16" viewBox="0 0 16 16" fill="none" xmlns="http://www.w3.org/2000/svg">
<g id="icon/social" clip-path="url(#clip0_2597_24316)">
<path id="Vector" d="M3.45437 8.00016C3.45437 7.49107 3.5271 6.98198 3.70891 6.50925L1.018 4.43652C0.508913 5.49107 0.181641 6.69107 0.181641 7.9638C0.181641 9.23652 0.47255 10.4365 1.018 11.4911L3.70891 9.41834C3.5271 9.01834 3.45437 8.50925 3.45437 8.00016Z" fill="#FBBC05"/>
<path id="Vector_2" d="M1.01855 4.47273L3.70946 6.54545C4.32765 4.65455 6.10946 3.30909 8.18219 3.30909C9.30946 3.30909 10.3276 3.70909 11.1276 4.36364L13.4549 2C12.0367 0.763636 10.2186 0 8.18219 0C5.01855 0 2.29128 1.81818 1.01855 4.47273Z" fill="#EA4335"/>
<path id="Vector_3" d="M8.18219 6.54541V9.63632H12.4731C12.0731 11.6 10.4004 12.7272 8.18219 12.7272C6.0731 12.7272 4.32765 11.3818 3.70946 9.49086L1.01855 11.5636C2.29128 14.1818 5.01856 16 8.18219 16C12.1822 16 15.8186 13.0909 15.8186 7.99996C15.8186 7.52723 15.7458 7.01814 15.6367 6.54541H8.18219Z" fill="#34A853"/>
<path id="Vector_4" d="M8.18164 6.54541V9.63632H12.4725C12.2544 10.6909 11.6725 11.4909 10.8362 12.0363L13.3816 14C14.8362 12.6181 15.818 10.6181 15.818 7.99996C15.818 7.52723 15.7453 7.01814 15.6362 6.54541H8.18164Z" fill="#4285F4"/>
</g>
<defs>
<clipPath id="clip0_2597_24316">
<rect width="16" height="16" fill="white"/>
</clipPath>
</defs>
</svg>
