<svg width="16" height="16" viewBox="0 0 16 16" fill="none" xmlns="http://www.w3.org/2000/svg">
<path fill-rule="evenodd" clip-rule="evenodd" d="M8 15.5C12.1421 15.5 15.5 12.1421 15.5 8C15.5 3.85786 12.1421 0.5 8 0.5C3.85786 0.5 0.5 3.85786 0.5 8C0.5 12.1421 3.85786 15.5 8 15.5ZM11.95 4.81001C11.95 4.81001 11.3949 5.715 11.6049 6.38C11.8889 7.28124 12.0355 8.2201 12.0399 9.165C12.0565 9.70181 11.9632 10.2363 11.7656 10.7358C11.5681 11.2352 11.2706 11.6889 10.8913 12.0692C10.512 12.4494 10.059 12.7481 9.56003 12.9468C9.0611 13.1456 8.52681 13.2402 7.98996 13.225C5.35996 13.225 3.94995 11.415 3.94995 9.18501C3.97424 8.49813 4.15554 7.82592 4.47995 7.21999C4.95995 6.28999 4.31496 4.79999 4.04996 4.71999C4.51645 4.84036 4.94168 5.08471 5.28058 5.42713C5.61948 5.76955 5.85941 6.19729 5.97495 6.665C6.65119 6.17595 6.75143 5.42189 6.85732 4.62524C6.97771 3.71962 7.1054 2.75895 8.09494 2.07C7.78334 2.87804 8.22624 3.42669 8.80935 4.14902C9.33033 4.7944 9.96324 5.57843 10.27 6.81001C10.3552 6.36066 10.5545 5.94075 10.8487 5.59054C11.1429 5.24033 11.5221 4.97157 11.95 4.81001Z" fill="#D478FF"/>
</svg>
