<svg width="20" height="20" viewBox="0 0 20 20" fill="none" xmlns="http://www.w3.org/2000/svg">
<path fill-rule="evenodd" clip-rule="evenodd" d="M1.5 10C1.5 7.77386 3.27386 6 5.5 6C6.66399 6 7.59129 6.51498 8.36838 7.22451C8.96803 7.77201 9.50052 8.45654 10 9.14311C10.4995 8.45654 11.032 7.77201 11.6316 7.22451C12.4087 6.51498 13.336 6 14.5 6C16.7261 6 18.5 7.77386 18.5 10C18.5 12.2261 16.7261 14 14.5 14C13.336 14 12.4087 13.485 11.6316 12.7755C11.032 12.228 10.4995 11.5435 10 10.8569C9.50052 11.5435 8.96803 12.228 8.36838 12.7755C7.59129 13.485 6.66399 14 5.5 14C3.27386 14 1.5 12.2261 1.5 10ZM9.38515 10C8.82861 9.22502 8.29229 8.50915 7.69412 7.96299C7.03371 7.36002 6.33601 7 5.5 7C3.82614 7 2.5 8.32614 2.5 10C2.5 11.6739 3.82614 13 5.5 13C6.33601 13 7.03371 12.64 7.69412 12.037C8.29229 11.4908 8.82861 10.775 9.38515 10ZM10.6149 10C11.1714 10.775 11.7077 11.4908 12.3059 12.037C12.9663 12.64 13.664 13 14.5 13C16.1739 13 17.5 11.6739 17.5 10C17.5 8.32614 16.1739 7 14.5 7C13.664 7 12.9663 7.36002 12.3059 7.96299C11.7077 8.50915 11.1714 9.22502 10.6149 10Z" fill="#FF6400"/>
</svg>
