<svg width="20" height="20" viewBox="0 0 20 20" fill="none" xmlns="http://www.w3.org/2000/svg">
<path fill-rule="evenodd" clip-rule="evenodd" d="M3 10C3 8.76348 3.32062 7.60183 3.88326 6.59366C3.88782 6.60742 3.89265 6.62111 3.89775 6.63474L4.79547 9.0307C4.86165 9.20731 4.97115 9.36444 5.11393 9.48766C5.25671 9.61088 5.42817 9.69623 5.61256 9.73586L6.0268 9.8249C6.03349 9.82648 6.04019 9.82792 6.04689 9.82922L7.28677 10.0957C7.30534 10.0997 7.32277 10.1079 7.33771 10.1196C7.35266 10.1314 7.36473 10.1463 7.37301 10.1635L7.67033 10.7777C7.76242 10.9679 7.90626 11.1284 8.08535 11.2407C8.26445 11.353 8.47155 11.4125 8.68293 11.4125H8.9622L8.28261 12.9374C8.19302 13.1385 8.16436 13.3613 8.20018 13.5785C8.236 13.7956 8.33472 13.9975 8.48412 14.1591L9.95287 15.7477C9.96619 15.7621 9.97593 15.7795 9.9813 15.7983C9.98667 15.8172 9.98753 15.8371 9.98381 15.8563L9.76333 16.9961C6.00691 16.8713 3 13.7868 3 10ZM6.83642 8.97607L7.4969 9.11803C7.66412 9.15397 7.82094 9.22757 7.95544 9.33322C8.08994 9.43887 8.19858 9.57381 8.2731 9.72775L8.57042 10.342C8.58065 10.3631 8.59663 10.3809 8.61653 10.3934C8.63643 10.4059 8.65944 10.4125 8.68293 10.4125H9.4173C9.51802 10.2457 9.66081 10.1072 9.83239 10.0115C10.0447 9.89302 10.2897 9.84656 10.5307 9.87904L12.3134 10.1194C12.4691 10.1403 12.6187 10.1937 12.7525 10.276L16.5071 12.5853C16.8252 11.7855 17 10.9132 17 10C17 7.20835 15.3658 4.79837 13.0019 3.67452L13.0766 3.8084C13.2007 4.03065 13.2457 4.28841 13.2044 4.53958C13.163 4.79074 13.0377 5.02045 12.8489 5.19119L10.7465 7.09257C10.6823 7.15065 10.6116 7.20113 10.5358 7.24299L9.57937 7.77115C9.41285 7.8631 9.22574 7.91134 9.03552 7.91134H7.36791C7.34332 7.91134 7.31927 7.91859 7.29878 7.9322C7.27829 7.9458 7.26226 7.96515 7.25272 7.98781L6.83642 8.97607ZM11.58 3.17904C11.0722 3.0619 10.5433 3 10 3C8.28141 3 6.70748 3.61933 5.48921 4.64698L4.83611 6.19133C4.82364 6.22079 4.82295 6.25392 4.83418 6.28388L5.7319 8.67984C5.73925 8.69946 5.75142 8.71692 5.76729 8.73061C5.78315 8.74431 5.8022 8.75379 5.82269 8.75819L5.84141 8.76221L6.33114 7.59961C6.41707 7.39561 6.56128 7.2215 6.7457 7.09907C6.93011 6.97664 7.14655 6.91134 7.36791 6.91134H9.03552C9.05666 6.91134 9.07745 6.90598 9.09595 6.89576L10.0523 6.36761C10.0608 6.36296 10.0686 6.35735 10.0758 6.35089L12.1782 4.44951C12.1991 4.43054 12.2131 4.40502 12.2177 4.37711C12.2223 4.3492 12.2173 4.32056 12.2035 4.29586L11.58 3.17904ZM10.1918 11.11L10.1866 11.1217L9.19601 13.3445C9.18605 13.3668 9.18287 13.3916 9.18685 13.4157C9.19083 13.4399 9.2018 13.4623 9.2184 13.4802L10.6871 15.0689C10.807 15.1985 10.8946 15.3545 10.943 15.5243C10.9914 15.6941 10.9991 15.8729 10.9656 16.0462L10.7896 16.956C13.05 16.7022 14.9848 15.372 16.0693 13.49L12.2286 11.1278C12.2137 11.1187 12.1971 11.1127 12.1798 11.1104L10.3971 10.8701C10.3703 10.8665 10.3431 10.8716 10.3195 10.8848C10.2959 10.898 10.2772 10.9184 10.2662 10.9431L10.1918 11.11ZM10 2C5.58172 2 2 5.58173 2 10C2 14.4183 5.58172 18 10 18C14.4183 18 18 14.4183 18 10C18 5.58173 14.4183 2 10 2Z" fill="#FF6400"/>
</svg>
