<svg width="20" height="20" viewBox="0 0 20 20" fill="none" xmlns="http://www.w3.org/2000/svg">
<path fill-rule="evenodd" clip-rule="evenodd" d="M11.6089 5.59823C13.4792 3.72792 15.3261 3.6322 16.1137 3.72995C16.1367 3.74772 16.1657 3.77305 16.1963 3.80371C16.227 3.83437 16.2523 3.8634 16.2701 3.88632C16.3679 4.67394 16.2721 6.52081 14.4018 8.39112L9.25537 13.5376L6.46248 10.7447L6.84532 10.3618C6.85111 10.3563 6.85676 10.3507 6.86229 10.3449L11.3474 5.85972C11.3515 5.85575 11.3556 5.8517 11.3596 5.84759L11.6089 5.59823ZM10.7928 5.00015L10.9018 4.89112C13.0859 2.70704 15.321 2.59976 16.3291 2.75015C16.4904 2.77421 16.6212 2.86309 16.6798 2.90493C16.759 2.96139 16.8362 3.02931 16.9034 3.09661C16.9707 3.1639 17.0387 3.24109 17.0951 3.32023C17.137 3.37887 17.2258 3.50965 17.2499 3.67096C17.4003 4.67904 17.293 6.91414 15.1089 9.09822L15.0001 9.20706V14.4239C15.0001 14.5727 14.9695 14.7195 14.9106 14.8557C14.8518 14.9919 14.7662 15.1142 14.6597 15.2162L12.0869 17.6825C11.9403 17.823 11.7588 17.9209 11.5626 17.9681C11.3665 18.0152 11.1609 18.0105 10.9671 17.9542C10.7733 17.898 10.5964 17.7916 10.4567 17.644C10.3167 17.4962 10.2193 17.3126 10.1774 17.1119L9.68528 14.5219L9.60892 14.5982C9.41366 14.7935 9.09708 14.7935 8.90182 14.5982L5.40182 11.0982C5.30805 11.0045 5.25537 10.8773 5.25537 10.7447C5.25537 10.6121 5.30805 10.4849 5.40182 10.3911L5.47801 10.3149L2.88828 9.82284C2.68758 9.78097 2.50397 9.68352 2.35621 9.54359C2.20861 9.40381 2.10225 9.22698 2.04599 9.03313C1.98975 8.83935 1.98503 8.6338 2.03217 8.43768C2.07933 8.2415 2.17718 8.05996 2.31773 7.91334L4.78397 5.34055C4.88603 5.23408 5.00834 5.14845 5.1445 5.08961C5.28072 5.03075 5.42751 5.00015 5.57629 5.00015H10.7928ZM9.79279 6.00015H5.57629C5.55334 6.00015 5.52829 6.00916 5.50587 6.03255L3.03963 8.60534C3.02402 8.62162 3.01103 8.64413 3.00447 8.67141C2.99135 8.72601 3.01194 8.78732 3.04381 8.8175C3.05875 8.83165 3.07494 8.83976 3.09009 8.84338L6.33336 9.45958L9.79279 6.00015ZM10.5406 13.6665L14.0001 10.2071V14.4239C14.0001 14.4469 13.9911 14.4719 13.9677 14.4943L11.3949 16.9606C11.3786 16.9762 11.3561 16.9892 11.3289 16.9957C11.3015 17.0023 11.2726 17.0016 11.2459 16.9939C11.2192 16.9861 11.1978 16.9723 11.1828 16.9564C11.1686 16.9415 11.1605 16.9253 11.1569 16.9101L10.5406 13.6665ZM5.85811 12.9745C6.12008 12.8872 6.26167 12.604 6.17434 12.3421C6.08702 12.0801 5.80386 11.9385 5.54189 12.0258C3.97924 12.5467 3.22463 13.8451 2.86316 14.9295C2.68093 15.4762 2.59074 15.9891 2.54575 16.364C2.52317 16.5522 2.51175 16.7075 2.50596 16.8174C2.50307 16.8724 2.50158 16.9162 2.50081 16.9471L2.50012 16.9838L2.50002 16.9946L2.5 16.998C2.4992 17.4142 2.89473 17.5001 3.0009 17.5001L3.00213 17.5001L3.01638 17.5L3.05304 17.4993C3.08399 17.4986 3.12773 17.4971 3.18272 17.4942C3.29261 17.4884 3.44795 17.477 3.63613 17.4544C4.01105 17.4094 4.52391 17.3192 5.07061 17.137C6.15504 16.7755 7.45346 16.0209 7.97434 14.4583C8.06167 14.1963 7.92009 13.9131 7.65811 13.8258C7.39614 13.7385 7.11298 13.8801 7.02566 14.1421C6.64654 15.2794 5.69496 15.8748 4.75439 16.1883C4.30014 16.3397 3.86722 16.4182 3.54163 16.4585C3.58196 16.1329 3.66043 15.7 3.81184 15.2458C4.12537 14.3052 4.72076 13.3536 5.85811 12.9745Z" fill="#FF6400"/>
</svg>
