<svg width="32" height="32" viewBox="0 0 32 32" fill="none" xmlns="http://www.w3.org/2000/svg">
<path d="M16 32C24.8366 32 32 24.8366 32 16C32 7.16344 24.8366 0 16 0C7.16344 0 0 7.16344 0 16C0 24.8366 7.16344 32 16 32Z" fill="#F9DA38"/>
<path d="M15.9995 18.6167C13.3128 18.5962 10.6341 18.3209 7.99947 17.7943C7.40134 17.7943 6.20508 17.7943 6.20508 19.5139C6.57014 21.8175 7.7703 23.9062 9.57669 25.3817C11.3831 26.8571 13.6693 27.6161 15.9995 27.5139C18.325 27.6309 20.6104 26.8755 22.4082 25.3958C24.2061 23.9161 25.3867 21.8185 25.7191 19.5139C25.7191 17.7943 24.5976 17.6447 23.9995 17.7943C21.3642 18.3169 18.6859 18.5923 15.9995 18.6167Z" fill="#565656"/>
<path d="M10.6903 8.89697C11.8865 8.89697 12.8585 10.2428 12.8585 11.9624C12.8585 13.682 11.8865 14.953 10.6903 14.953C9.49399 14.953 8.44727 13.5325 8.44727 11.8129C8.44727 10.0932 9.41923 8.89697 10.6903 8.89697Z" fill="#565656"/>
<path d="M21.3074 8.89697C22.5037 8.89697 23.5504 10.2428 23.5504 11.9624C23.5504 13.682 22.4289 14.953 21.3074 14.953C20.1859 14.953 19.0645 13.5325 19.0645 11.8129C19.0645 10.0932 20.1112 8.89697 21.3074 8.89697Z" fill="#565656"/>
</svg>
