<svg width="32" height="32" viewBox="0 0 32 32" fill="none" xmlns="http://www.w3.org/2000/svg">
<path d="M31.7886 18.577C33.2119 9.85717 27.2968 1.6346 18.577 0.211356C9.85717 -1.21188 1.6346 4.70317 0.211356 13.423C-1.21188 22.1428 4.70317 30.3654 13.423 31.7886C22.1428 33.2119 30.3654 27.2968 31.7886 18.577Z" fill="#F9DA38"/>
<path d="M9.36997 21.0631C9.36997 21.0631 10.4165 24.9503 16.0232 24.9503C21.6298 24.9503 22.4521 21.2126 22.4521 21.0631C22.4918 20.9816 22.5124 20.8921 22.5124 20.8014C22.5124 20.7108 22.4918 20.6213 22.4521 20.5398C22.3758 20.485 22.2843 20.4556 22.1905 20.4556C22.0966 20.4556 22.0051 20.485 21.9288 20.5398C20.2647 21.8891 18.1633 22.5807 16.0232 22.4834C13.9207 22.6656 11.8232 22.0815 10.1175 20.8388C10.0878 20.7397 10.0199 20.6564 9.92876 20.6073C9.83763 20.5583 9.73075 20.5474 9.63162 20.5772C9.53248 20.6069 9.44923 20.6748 9.40016 20.7659C9.35109 20.8571 9.34023 20.9639 9.36997 21.0631Z" fill="#565656"/>
<path d="M10.7173 8.95312C11.9133 8.95312 12.8852 10.2987 12.8852 12.0181C12.8852 13.7374 11.9133 15.0083 10.7173 15.0083C9.52118 15.0083 8.47461 13.5879 8.47461 11.8686C8.47461 10.1492 9.44642 8.95312 10.7173 8.95312Z" fill="#565656"/>
<path d="M21.3305 8.95312C22.5266 8.95312 23.5732 10.2987 23.5732 12.0181C23.5732 13.7374 22.4519 15.0083 21.3305 15.0083C20.2092 15.0083 19.0879 13.5879 19.0879 11.8686C19.0879 10.1492 20.1345 8.95312 21.3305 8.95312Z" fill="#565656"/>
</svg>
