<svg width="32" height="32" viewBox="0 0 32 32" fill="none" xmlns="http://www.w3.org/2000/svg">
<path d="M32 15.7162C32 18.8245 31.0616 21.8631 29.3035 24.4476C27.5454 27.0321 25.0466 29.0465 22.1229 30.236C19.1993 31.4255 15.9823 31.7368 12.8786 31.1303C9.77486 30.5239 6.92394 29.0271 4.6863 26.8292C2.44866 24.6312 0.924806 21.8309 0.307443 18.7822C-0.309921 15.7336 0.00693252 12.5736 1.21793 9.70185C2.42894 6.83009 4.4797 4.37557 7.11088 2.64865C9.74207 0.921737 12.8355 0 16 0C20.2435 0 24.3131 1.65581 27.3137 4.60316C30.3143 7.55051 32 11.548 32 15.7162Z" fill="#F9DA38"/>
<path d="M10.243 11.7505C11.4393 11.7505 12.4112 13.1458 12.4112 14.835C12.4112 16.5241 11.4393 17.846 10.243 17.846C9.04673 17.846 8 16.5241 8 14.835C8 13.1458 8.97196 11.7505 10.243 11.7505Z" fill="#565656"/>
<path d="M21.7567 11.7505C22.9529 11.7505 23.9997 13.1458 23.9997 14.835C23.9997 16.5241 22.9529 17.846 21.7567 17.846C20.5604 17.846 19.5137 16.5241 19.5137 14.835C19.5137 13.1458 20.5604 11.7505 21.7567 11.7505Z" fill="#565656"/>
<path d="M5.30873 11.7509C5.13998 11.8128 4.95413 11.8128 4.78537 11.7509C4.70173 11.669 4.63536 11.5717 4.59008 11.4646C4.54479 11.3575 4.52148 11.2426 4.52148 11.1266C4.52148 11.0106 4.54479 10.8958 4.59008 10.7887C4.63536 10.6815 4.70173 10.5843 4.78537 10.5024C5.54352 9.39826 6.539 8.47091 7.70162 7.78571C8.86425 7.10051 10.1657 6.67413 11.5143 6.53663C11.7399 6.53586 11.9575 6.61856 12.1237 6.76826C12.29 6.91797 12.3927 7.12369 12.4115 7.34447C12.4115 7.4602 12.3883 7.5748 12.3432 7.68172C12.2982 7.78864 12.2321 7.88579 12.1488 7.96763C12.0654 8.04946 11.9665 8.11438 11.8577 8.15866C11.7488 8.20295 11.6322 8.22575 11.5143 8.22575C10.4247 8.32761 9.37116 8.66323 8.42807 9.20889C7.48498 9.75456 6.67536 10.497 6.0564 11.3837C5.96743 11.4957 5.85415 11.5867 5.72481 11.6502C5.59546 11.7138 5.45332 11.7481 5.30873 11.7509ZM26.6171 11.7509C26.5113 11.7975 26.3967 11.8216 26.2807 11.8216C26.1647 11.8216 26.0501 11.7975 25.9442 11.7509C25.3174 10.8551 24.496 10.1072 23.5392 9.56113C22.5824 9.01503 21.5142 8.68435 20.4115 8.59295C20.2606 8.58875 20.1128 8.55008 19.9797 8.48C19.8466 8.40991 19.732 8.31034 19.645 8.18918C19.5579 8.06802 19.5008 7.9286 19.4781 7.78198C19.4554 7.63535 19.4678 7.48556 19.5143 7.34447C19.5331 7.12369 19.6359 6.91797 19.8022 6.76826C19.9684 6.61856 20.186 6.53586 20.4115 6.53663C21.783 6.64049 23.115 7.03579 24.3156 7.69516C25.5162 8.35454 26.5566 9.26226 27.3648 10.3555C27.4484 10.4374 27.5148 10.5347 27.5601 10.6418C27.6054 10.7489 27.6287 10.8638 27.6287 10.9797C27.6287 11.0957 27.6054 11.2106 27.5601 11.3177C27.5148 11.4248 27.4484 11.5221 27.3648 11.604C27.277 11.7101 27.1544 11.7828 27.0179 11.8096C26.8814 11.8364 26.7397 11.8156 26.6171 11.7509ZM20.8601 24.7497C20.5624 23.6918 19.9323 22.7531 19.0597 22.0674C18.1871 21.3817 17.1165 20.9839 16.0003 20.9309C14.8775 20.9609 13.7953 21.3501 12.9181 22.0394C12.041 22.7287 11.4168 23.6803 11.1405 24.7497C11.0857 24.8247 11.0563 24.9146 11.0563 25.0068C11.0563 25.099 11.0857 25.1889 11.1405 25.2638C11.1405 25.2638 11.5891 25.2638 11.6639 25.2638C12.9577 24.6261 14.4122 24.3709 15.8508 24.5294C18.991 24.5294 19.9629 25.1904 19.9629 25.2638H20.4863C20.4863 25.2638 20.9349 24.9701 20.8601 24.7497Z" fill="#565656"/>
<path d="M14.2061 27.026C14.2882 27.6474 14.2346 28.2788 14.0486 28.8782C13.8626 29.4776 13.5487 30.0311 13.1277 30.5018C12.7067 30.9726 12.1883 31.3497 11.6071 31.6081C11.026 31.8664 10.3954 32.0001 9.75747 32.0001C9.11955 32.0001 8.48898 31.8664 7.90782 31.6081C7.32666 31.3497 6.80827 30.9726 6.38726 30.5018C5.96624 30.0311 5.65228 29.4776 5.46632 28.8782C5.28037 28.2788 5.22669 27.6474 5.30887 27.026C5.90186 23.7446 7.46155 20.7061 9.79485 18.2866C12.1009 20.7152 13.6342 23.7528 14.2061 27.026Z" fill="#7DC9FF"/>
</svg>
