<svg width="32" height="32" viewBox="0 0 32 32" fill="none" xmlns="http://www.w3.org/2000/svg">
<path d="M32 16C32 19.1645 31.0616 22.2579 29.3035 24.8891C27.5454 27.5203 25.0466 29.5711 22.1229 30.7821C19.1993 31.9931 15.9823 32.3099 12.8786 31.6926C9.77486 31.0752 6.92394 29.5513 4.6863 27.3137C2.44866 25.0761 0.924806 22.2251 0.307443 19.1214C-0.309921 16.0177 0.00693252 12.8007 1.21793 9.87706C2.42894 6.95345 4.4797 4.45459 7.11088 2.69649C9.74207 0.938383 12.8355 0 16 0C20.2435 0 24.3131 1.68571 27.3137 4.68629C30.3143 7.68687 32 11.7565 32 16Z" fill="#F9DA38"/>
<path d="M10.243 11.5142C11.4393 11.5142 12.4112 12.9347 12.4112 14.6543C12.4112 16.374 11.4393 17.7945 10.243 17.7945C9.04673 17.7945 8 16.374 8 14.6543C8 12.9347 8.97196 11.5142 10.243 11.5142Z" fill="#565656"/>
<path d="M21.7567 17.7945C22.9954 17.7945 23.9997 16.3886 23.9997 14.6543C23.9997 12.9201 22.9954 11.5142 21.7567 11.5142C20.5179 11.5142 19.5137 12.9201 19.5137 14.6543C19.5137 16.3886 20.5179 17.7945 21.7567 17.7945Z" fill="#565656"/>
<path d="M22.4292 23.1028H9.79368C9.58993 23.1093 9.39007 23.0461 9.22699 22.9238C9.06391 22.8015 8.94734 22.6273 8.89648 22.4299C8.89648 22.192 8.99101 21.9638 9.15927 21.7955C9.32752 21.6272 9.55573 21.5327 9.79368 21.5327H22.4292C22.6266 21.5836 22.8008 21.7001 22.9231 21.8632C23.0454 22.0263 23.1085 22.2262 23.1021 22.4299C23.057 22.5903 22.9715 22.7365 22.8536 22.8543C22.7358 22.9722 22.5896 23.0577 22.4292 23.1028Z" fill="#565656"/>
</svg>
