<svg width="40" height="40" viewBox="0 0 40 40" fill="none" xmlns="http://www.w3.org/2000/svg">
<path fill-rule="evenodd" clip-rule="evenodd" d="M23.2178 11.1962C26.9585 7.45554 30.6522 7.2641 32.2275 7.4596C32.2733 7.49514 32.3314 7.5458 32.3927 7.60712C32.454 7.66844 32.5047 7.72649 32.5402 7.77233C32.7357 9.34758 32.5443 13.0413 28.8036 16.7819L18.5107 27.0748L12.925 21.489L13.6906 20.7234C13.7022 20.7123 13.7135 20.701 13.7246 20.6894L22.6949 11.7191C22.7031 11.7112 22.7112 11.7031 22.7191 11.6949L23.2178 11.1962ZM21.5856 10L21.8036 9.78194C26.1718 5.41378 30.642 5.19921 32.6582 5.49999C32.9808 5.54812 33.2424 5.72588 33.3597 5.80956C33.5179 5.92248 33.6723 6.05831 33.8069 6.19291C33.9415 6.3275 34.0773 6.48187 34.1902 6.64015C34.2739 6.75744 34.4517 7.01899 34.4998 7.34162C34.8006 9.35777 34.586 13.828 30.2178 18.1961L30.0002 18.4138V28.8475C30.0002 29.1451 29.939 29.4386 29.8213 29.7111C29.7036 29.9834 29.5323 30.228 29.3194 30.4321L24.1739 35.3647C23.8806 35.6458 23.5175 35.8415 23.1252 35.9358C22.7329 36.0301 22.3218 36.0206 21.9343 35.9081C21.5466 35.7956 21.1929 35.5829 20.9133 35.2877C20.6335 34.9922 20.4386 34.625 20.3549 34.2236L19.3706 29.0434L19.2178 29.1961C18.8273 29.5867 18.1942 29.5867 17.8036 29.1961L10.8036 22.1961C10.6161 22.0086 10.5107 21.7543 10.5107 21.489C10.5107 21.2238 10.6161 20.9695 10.8036 20.7819L10.956 20.6296L5.77657 19.6454C5.37517 19.5616 5.00795 19.3667 4.71242 19.0869C4.41722 18.8073 4.20451 18.4537 4.09198 18.0659C3.9795 17.6784 3.97005 17.2673 4.06434 16.8751C4.15865 16.4827 4.35436 16.1196 4.63546 15.8264L9.56794 10.6808C9.77205 10.4679 10.0167 10.2966 10.289 10.1789C10.5614 10.0612 10.855 10 11.1526 10H21.5856ZM19.5856 12H11.1526C11.1067 12 11.0566 12.018 11.0117 12.0648L6.07925 17.2104C6.04804 17.2429 6.02206 17.288 6.00895 17.3425C5.98269 17.4517 6.02387 17.5743 6.08762 17.6347C6.11751 17.663 6.14987 17.6792 6.18018 17.6864L12.6667 18.9188L19.5856 12ZM21.0813 27.3327L28.0002 20.4138V28.8475C28.0002 28.8934 27.9822 28.9435 27.9354 28.9884L22.7898 33.9209C22.7573 33.9521 22.7123 33.9781 22.6577 33.9912C22.603 34.0043 22.5452 34.0029 22.4918 33.9874C22.4385 33.972 22.3957 33.9443 22.3655 33.9125C22.3372 33.8826 22.321 33.8503 22.3138 33.8199L21.0813 27.3327ZM11.7162 25.9487C12.2402 25.7741 12.5233 25.2078 12.3487 24.6838C12.174 24.1599 11.6077 23.8767 11.0838 24.0514C7.95849 25.0931 6.44927 27.6899 5.72632 29.8588C5.36185 30.9522 5.18148 31.9779 5.0915 32.7277C5.04633 33.1041 5.0235 33.4148 5.01193 33.6345C5.00614 33.7445 5.00316 33.832 5.00163 33.8939C5.00086 33.9249 5.00045 33.9494 5.00024 33.9672L5.00004 33.9888L5.00001 33.9957C4.99841 34.8281 5.78946 35 6.0018 35L6.00426 35L6.03276 34.9997C6.05056 34.9995 6.07513 34.9991 6.10608 34.9984C6.16797 34.9968 6.25547 34.9938 6.36545 34.9881C6.58522 34.9765 6.8959 34.9536 7.27227 34.9085C8.0221 34.8185 9.04783 34.6381 10.1412 34.2737C12.3101 33.5507 14.9069 32.0415 15.9487 28.9163C16.1233 28.3923 15.8402 27.826 15.3162 27.6513C14.7923 27.4767 14.226 27.7599 14.0513 28.2838C13.2931 30.5585 11.3899 31.7493 9.50878 32.3763C8.60029 32.6791 7.73443 32.8361 7.08326 32.9167C7.16392 32.2656 7.32085 31.3997 7.62368 30.4912C8.25073 28.6101 9.44151 26.707 11.7162 25.9487Z" fill="url(#paint0_linear_3580_14864)"/>
<defs>
<linearGradient id="paint0_linear_3580_14864" x1="35" y1="36" x2="4" y2="5" gradientUnits="userSpaceOnUse">
<stop stop-color="#FF6400"/>
<stop offset="1" stop-color="#FFC39C"/>
</linearGradient>
</defs>
</svg>
