<svg width="40" height="40" viewBox="0 0 40 40" fill="none" xmlns="http://www.w3.org/2000/svg">
<circle cx="20" cy="20" r="20" fill="#F5F5F5"/>
<path d="M32.1022 12.3724C31.1974 12.7733 30.2255 13.0441 29.2038 13.1666C30.258 12.5358 31.0468 11.5429 31.4228 10.3733C30.4323 10.9616 29.3483 11.3757 28.2178 11.5977C27.4576 10.786 26.4507 10.248 25.3533 10.0672C24.256 9.88638 23.1297 10.0729 22.1493 10.5978C21.1689 11.1228 20.3892 11.9567 19.9313 12.9701C19.4734 13.9836 19.3628 15.1199 19.6169 16.2026C17.6099 16.1018 15.6465 15.5802 13.8542 14.6715C12.0618 13.7628 10.4806 12.4874 9.21303 10.928C8.77963 11.6757 8.53042 12.5425 8.53042 13.4656C8.52993 14.2967 8.73459 15.115 9.12622 15.848C9.51785 16.581 10.0843 17.2059 10.7755 17.6675C9.97395 17.642 9.19014 17.4254 8.48924 17.0358V17.1008C8.48916 18.2664 8.89235 19.3961 9.63038 20.2982C10.3684 21.2004 11.3958 21.8194 12.5383 22.0503C11.7948 22.2515 11.0153 22.2811 10.2586 22.137C10.581 23.1399 11.2088 24.0169 12.0544 24.6452C12.8999 25.2735 13.9208 25.6217 14.9741 25.641C13.1861 27.0446 10.9779 27.806 8.70486 27.8026C8.30221 27.8027 7.8999 27.7792 7.5 27.7322C9.80731 29.2157 12.4932 30.003 15.2363 30C24.5219 30 29.5982 22.3092 29.5982 15.6391C29.5982 15.4224 29.5928 15.2036 29.583 14.9869C30.5704 14.2728 31.4227 13.3886 32.1 12.3756L32.1022 12.3724Z" fill="currentColor"/>
</svg>
