<svg width="16" height="17" viewBox="0 0 16 17" fill="none" xmlns="http://www.w3.org/2000/svg">
<path fill-rule="evenodd" clip-rule="evenodd" d="M3.33311 2.5C2.97412 2.5 2.68311 2.79101 2.68311 3.15C2.68311 3.50899 2.97412 3.8 3.33311 3.8H3.99936C3.99913 3.80997 3.99902 3.81997 3.99902 3.83V5.15C3.99902 6.55216 4.72048 7.78582 5.81243 8.5C4.72048 9.21419 3.99902 10.4478 3.99902 11.85V13.17C3.99902 13.18 3.99913 13.19 3.99936 13.2H3.33311C2.97412 13.2 2.68311 13.491 2.68311 13.85C2.68311 14.209 2.97412 14.5 3.33311 14.5H5.32902H10.669H12.6664C13.0254 14.5 13.3164 14.209 13.3164 13.85C13.3164 13.491 13.0254 13.2 12.6664 13.2H11.9987C11.9989 13.19 11.999 13.18 11.999 13.17V11.85C11.999 10.4478 11.2776 9.21419 10.1856 8.5C11.2776 7.78581 11.999 6.55216 11.999 5.15V3.83C11.999 3.81997 11.9989 3.80997 11.9987 3.8H12.6664C13.0254 3.8 13.3164 3.50899 13.3164 3.15C13.3164 2.79101 13.0254 2.5 12.6664 2.5H10.669H5.32902H3.33311ZM10.669 3.8H5.32902C5.32248 3.8 5.31953 3.80107 5.31775 3.80182C5.3151 3.80294 5.31147 3.80513 5.30781 3.80879C5.30415 3.81245 5.30197 3.81607 5.30085 3.81872C5.30009 3.8205 5.29902 3.82346 5.29902 3.83V5.15C5.29902 6.64117 6.50785 7.85 7.99902 7.85C9.49019 7.85 10.699 6.64117 10.699 5.15V3.83C10.699 3.82346 10.698 3.8205 10.6972 3.81872C10.6961 3.81607 10.6939 3.81245 10.6902 3.80879C10.6866 3.80513 10.683 3.80294 10.6803 3.80182C10.6785 3.80107 10.6756 3.8 10.669 3.8ZM10.669 13.2C10.6756 13.2 10.6785 13.1989 10.6803 13.1982C10.683 13.1971 10.6866 13.1949 10.6902 13.1912C10.6939 13.1876 10.6961 13.1839 10.6972 13.1813C10.698 13.1795 10.699 13.1765 10.699 13.17V11.85C10.699 10.3588 9.49019 9.15 7.99902 9.15C6.50785 9.15 5.29902 10.3588 5.29902 11.85V13.17C5.29902 13.1765 5.30009 13.1795 5.30085 13.1813C5.30197 13.1839 5.30415 13.1876 5.30781 13.1912C5.31147 13.1949 5.3151 13.1971 5.31775 13.1982C5.31953 13.1989 5.32248 13.2 5.32902 13.2H10.669Z" fill="#65707C"/>
</svg>
