<?xml version="1.0" encoding="UTF-8" standalone="no"?>
<svg
   aria-hidden="true"
   focusable="false"
   data-prefix="fas"
   data-icon="check-circle"
   class="svg-inline--fa fa-check-circle fa-w-16"
   role="img"
   viewBox="0 0 512 512"
   version="1.1"
   id="svg351"
   sodipodi:docname="GoSm.svg"
   inkscape:version="1.1.1 (3bf5ae0d25, 2021-09-20)"
   xmlns:inkscape="http://www.inkscape.org/namespaces/inkscape"
   xmlns:sodipodi="http://sodipodi.sourceforge.net/DTD/sodipodi-0.dtd"
   xmlns="http://www.w3.org/2000/svg"
   xmlns:svg="http://www.w3.org/2000/svg">
  <defs
     id="defs355" />
  <sodipodi:namedview
     id="namedview353"
     pagecolor="#ffffff"
     bordercolor="#666666"
     borderopacity="1.0"
     inkscape:pageshadow="2"
     inkscape:pageopacity="0.0"
     inkscape:pagecheckerboard="0"
     showgrid="false"
     inkscape:zoom="1.7050781"
     inkscape:cx="255.70676"
     inkscape:cy="253.06758"
     inkscape:window-width="3840"
     inkscape:window-height="2066"
     inkscape:window-x="-11"
     inkscape:window-y="-11"
     inkscape:window-maximized="1"
     inkscape:current-layer="svg351" />
  <path
     fill="#408740"
     d="M504 256c0 136.967-111.033 248-248 248S8 392.967 8 256 119.033 8 256 8s248 111.033 248 248zM227.314 387.314l184-184c6.248-6.248 6.248-16.379 0-22.627l-22.627-22.627c-6.248-6.249-16.379-6.249-22.628 0L216 308.118l-70.059-70.059c-6.248-6.248-16.379-6.248-22.628 0l-22.627 22.627c-6.248 6.248-6.248 16.379 0 22.627l104 104c6.249 6.249 16.379 6.249 22.628.001z"
     id="path349" />
  <path
     style="fill:#ffffff;stroke:#ffffff;stroke-width:0.586483"
     d="m 211.25014,390.92406 c -1.2264,-0.43745 -3.20578,-1.47384 -4.39863,-2.3031 -1.19284,-0.82926 -25.94584,-25.33399 -55.00666,-54.45496 -36.49254,-36.56808 -53.173854,-53.67292 -53.924017,-55.29315 -0.597392,-1.29026 -1.198226,-4.00688 -1.335187,-6.03694 -0.446859,-6.62342 0.167389,-7.54336 15.078374,-22.58261 14.8118,-14.93922 16.90289,-16.44389 22.84641,-16.43944 6.73362,0.005 5.82352,-0.77224 45.36276,38.74255 l 36.18477,36.16238 76.11953,-76.12303 c 46.42438,-46.42653 77.03754,-76.60943 78.47273,-77.36986 3.33563,-1.76735 10.20326,-1.75782 13.4964,0.0187 3.64923,1.96865 28.72747,27.46625 30.16616,30.67059 1.68235,3.74705 1.60144,8.83445 -0.20056,12.6094 -1.13695,2.38175 -19.11501,20.62764 -95.73769,97.16392 -92.39724,92.29307 -94.4034,94.25054 -97.52336,95.15693 -3.84565,1.11721 -6.62542,1.13996 -9.60103,0.0786 z"
     id="path1283" />
</svg>
