<?xml version="1.0" encoding="UTF-8" standalone="no"?>
<svg
   aria-hidden="true"
   focusable="false"
   data-prefix="fas"
   data-icon="exclamation-circle"
   class="svg-inline--fa fa-exclamation-circle fa-w-16"
   role="img"
   viewBox="0 0 512 512"
   version="1.1"
   id="svg19"
   sodipodi:docname="StopSm.svg"
   inkscape:version="1.1.1 (3bf5ae0d25, 2021-09-20)"
   xmlns:inkscape="http://www.inkscape.org/namespaces/inkscape"
   xmlns:sodipodi="http://sodipodi.sourceforge.net/DTD/sodipodi-0.dtd"
   xmlns="http://www.w3.org/2000/svg"
   xmlns:svg="http://www.w3.org/2000/svg">
  <defs
     id="defs23" />
  <sodipodi:namedview
     id="namedview21"
     pagecolor="#ffffff"
     bordercolor="#666666"
     borderopacity="1.0"
     inkscape:pageshadow="2"
     inkscape:pageopacity="0.0"
     inkscape:pagecheckerboard="0"
     showgrid="false"
     inkscape:zoom="3.5703125"
     inkscape:cx="255.85996"
     inkscape:cy="254.73961"
     inkscape:window-width="3840"
     inkscape:window-height="2066"
     inkscape:window-x="-11"
     inkscape:window-y="-11"
     inkscape:window-maximized="1"
     inkscape:current-layer="svg19" />
  <path
     fill="#A70000"
     d="M504 256c0 136.997-111.043 248-248 248S8 392.997 8 256C8 119.083 119.043 8 256 8s248 111.083 248 248zm-248 50c-25.405 0-46 20.595-46 46s20.595 46 46 46 46-20.595 46-46-20.595-46-46-46zm-43.673-165.346l7.418 136c.347 6.364 5.609 11.346 11.982 11.346h48.546c6.373 0 11.635-4.982 11.982-11.346l7.418-136c.375-6.874-5.098-12.654-11.982-12.654h-63.383c-6.884 0-12.356 5.78-11.981 12.654z"
     id="path17" />
  <path
     style="fill:#ffffff;stroke-width:0.280088"
     d="m 229.1116,287.53477 c -5.07407,-1.25933 -8.47445,-5.19543 -9.1199,-10.55672 -0.15575,-1.29373 -1.93322,-32.79074 -3.94994,-69.99337 -3.95171,-72.89765 -3.82147,-68.9662 -2.38772,-72.07567 1.59577,-3.46085 5.34085,-6.12859 9.32394,-6.64174 2.52138,-0.32483 63.52266,-0.32483 66.04404,0 3.98309,0.51315 7.72817,3.18089 9.32394,6.64174 1.43375,3.10947 1.56399,-0.82198 -2.38772,72.07567 -2.01672,37.20263 -3.79574,68.71248 -3.95339,70.02188 -0.65347,5.42768 -4.3002,9.50827 -9.48034,10.60825 -2.20921,0.46911 -51.49786,0.39525 -53.41291,-0.08 z"
     id="path255" />
  <path
     style="fill:#ffffff;stroke-width:0.280088"
     d="m 252.77899,397.67435 c -18.04446,-1.06433 -34.13014,-13.45108 -40.14544,-30.91393 -1.84144,-5.34582 -2.27901,-8.20168 -2.2723,-14.83044 0.007,-6.62663 0.40591,-9.21015 2.27215,-14.7046 6.95499,-20.4763 27.83302,-33.52253 49.10839,-30.68679 19.72809,2.62951 35.02735,16.88167 39.25531,36.56863 0.53562,2.49405 0.63353,3.81337 0.64438,8.68271 0.0109,4.89999 -0.0807,6.20285 -0.62468,8.88655 -3.71026,18.30358 -17.71876,32.46941 -35.81861,36.2209 -3.48177,0.72165 -8.274,1.02146 -12.4192,0.77697 z"
     id="path294" />
</svg>
