<svg xmlns="http://www.w3.org/2000/svg" width="88" height="90" viewBox="0 0 88 90">
    <defs>
        <filter id="4znl3453aa" width="111.1%" height="118.9%" x="-5.6%" y="-9.5%" filterUnits="objectBoundingBox">
            <feOffset in="SourceAlpha" result="shadowOffsetOuter1"/>
            <feGaussianBlur in="shadowOffsetOuter1" result="shadowBlurOuter1" stdDeviation="10"/>
            <feColorMatrix in="shadowBlurOuter1" result="shadowMatrixOuter1" values="0 0 0 0 0 0 0 0 0 0 0 0 0 0 0 0 0 0 0.25 0"/>
            <feMerge>
                <feMergeNode in="shadowMatrixOuter1"/>
                <feMergeNode in="SourceGraphic"/>
            </feMerge>
        </filter>
    </defs>
    <g fill="none" fill-rule="evenodd">
        <g fill="#EB170C">
            <g filter="url(#4znl3453aa)" transform="translate(-676 -304) translate(370 284)">
                <path d="M350 40c13.81 0 25 11.19 25 25s-11.19 25-25 25-25-11.19-25-25 11.19-25 25-25zm9.4 12.918c-.558-.557-1.46-.557-2.018 0L350 60.3l-7.382-7.382c-.558-.557-1.46-.557-2.017 0l-2.683 2.683c-.557.557-.557 1.46 0 2.017L345.3 65l-7.382 7.382c-.557.558-.557 1.46 0 2.017l2.683 2.683c.557.557 1.46.557 2.017 0L350 69.7l7.382 7.382c.558.557 1.46.557 2.017 0l2.683-2.683c.557-.557.557-1.46 0-2.017L354.7 65l7.382-7.382c.557-.558.557-1.46 0-2.017z"/>
            </g>
        </g>
    </g>
</svg>
