<svg width="23" height="40" viewBox="0 0 23 40" fill="none" xmlns="http://www.w3.org/2000/svg">
<path d="M19.2674 20.4001C21.3842 22.5167 22.7699 25.3868 22.7699 28.614C22.7867 30.1196 22.5046 31.6136 21.94 33.0095C21.3754 34.4053 20.5395 35.6753 19.4807 36.7459C18.4218 37.8165 17.1611 38.6665 15.7716 39.2466C14.382 39.8267 12.8911 40.1253 11.3853 40.1253C9.87952 40.1253 8.38867 39.8267 6.99909 39.2466C5.60952 38.6665 4.34882 37.8165 3.29 36.7459C2.23118 35.6753 1.39526 34.4053 0.830646 33.0095C0.266034 31.6136 -0.0160551 30.1196 0.000709012 28.614C0.000709012 25.3868 1.39212 22.5209 3.50323 20.4001C3.65423 20.2491 3.75866 20.1559 3.75866 20.0007C3.75866 19.8455 3.65846 19.7538 3.50182 19.5986C1.86279 18.0256 0.731811 15.9984 0.25433 13.7775C-0.223151 11.5567 -0.0252975 9.24379 0.822446 7.13628C1.67019 5.02878 3.12906 3.22306 5.01143 1.95134C6.8938 0.67962 9.11359 6.10352e-05 11.3853 6.10352e-05C13.6571 6.10352e-05 15.8769 0.67962 17.7592 1.95134C19.6416 3.22306 21.1005 5.02878 21.9482 7.13628C22.7959 9.24379 22.9938 11.5567 22.5163 13.7775C22.0388 15.9984 20.9079 18.0256 19.2688 19.5986C19.1108 19.7538 19.0106 19.8511 19.0106 20.0007C19.0106 20.1503 19.1164 20.2434 19.2674 20.4001ZM13.7737 15.0055C13.5961 15.0047 13.422 15.0548 13.272 15.1498C13.1219 15.2448 13.0022 15.3808 12.927 15.5417C12.8525 15.3817 12.7338 15.2463 12.5849 15.1515C12.436 15.0566 12.2632 15.0062 12.0867 15.0062C11.9102 15.0062 11.7373 15.0566 11.5884 15.1515C11.4396 15.2463 11.3209 15.3817 11.2463 15.5417C11.1763 15.3926 11.068 15.2647 10.9324 15.1711C10.7969 15.0775 10.6389 15.0215 10.4746 15.0089C10.3103 14.9963 10.1457 15.0274 9.99739 15.0992C9.8491 15.171 9.72252 15.2808 9.63054 15.4175C9.56624 15.3234 9.48544 15.2416 9.39205 15.1762C9.51489 15.0909 9.61525 14.977 9.68456 14.8445C9.75387 14.7119 9.79006 14.5645 9.79006 14.4149C9.79006 14.2654 9.75387 14.118 9.68456 13.9854C9.61525 13.8529 9.51489 13.739 9.39205 13.6537C9.51489 13.5683 9.61525 13.4545 9.68456 13.3219C9.75387 13.1893 9.79006 13.042 9.79006 12.8924C9.79006 12.7428 9.75387 12.5954 9.68456 12.4629C9.61525 12.3303 9.51489 12.2165 9.39205 12.1311C9.46595 12.0786 9.53159 12.0153 9.58679 11.9434C9.67942 12.0603 9.799 12.153 9.93529 12.2136C10.0716 12.2742 10.2205 12.3008 10.3694 12.2913C10.5182 12.2817 10.6625 12.2362 10.79 12.1587C10.9174 12.0811 11.0241 11.9739 11.101 11.8461C11.1836 11.9825 11.3 12.0953 11.4389 12.1735C11.5778 12.2518 11.7346 12.293 11.8941 12.293C12.0535 12.293 12.2103 12.2518 12.3492 12.1735C12.4881 12.0953 12.6045 11.9825 12.6871 11.8461C12.793 12.0198 12.9528 12.1541 13.1421 12.2286C13.3314 12.3031 13.5399 12.3136 13.7357 12.2587C13.9316 12.2037 14.1041 12.0862 14.227 11.9241C14.3499 11.7619 14.4164 11.5641 14.4164 11.3606C14.4164 11.1572 14.3499 10.9594 14.227 10.7972C14.1041 10.6351 13.9316 10.5176 13.7357 10.4626C13.5399 10.4077 13.3314 10.4182 13.1421 10.4927C12.9528 10.5672 12.793 10.7015 12.6871 10.8752C12.6045 10.7388 12.4881 10.626 12.3492 10.5478C12.2103 10.4695 12.0535 10.4283 11.8941 10.4283C11.7346 10.4283 11.5778 10.4695 11.4389 10.5478C11.3 10.626 11.1836 10.7388 11.101 10.8752C11.0235 10.7466 10.9158 10.6387 10.7872 10.5611C10.6586 10.4834 10.513 10.4382 10.3631 10.4294C10.2131 10.4207 10.0633 10.4486 9.92654 10.5108C9.7898 10.573 9.67028 10.6676 9.57832 10.7863C9.52568 10.7184 9.4634 10.6585 9.39346 10.6085C9.51602 10.523 9.61611 10.4091 9.68522 10.2765C9.75433 10.144 9.79042 9.99674 9.79042 9.84726C9.79042 9.69779 9.75433 9.55053 9.68522 9.41799C9.61611 9.28545 9.51602 9.17155 9.39346 9.08598C9.51602 9.00041 9.61611 8.88651 9.68522 8.75398C9.75433 8.62144 9.79042 8.47417 9.79042 8.3247C9.79042 8.17523 9.75433 8.02797 9.68522 7.89543C9.61611 7.76289 9.51602 7.649 9.39346 7.56343C9.48685 7.49803 9.56765 7.41628 9.63195 7.32213C9.72392 7.4588 9.85051 7.56863 9.9988 7.64042C10.1471 7.7122 10.3118 7.74337 10.476 7.73075C10.6403 7.71813 10.7983 7.66216 10.9338 7.56856C11.0694 7.47496 11.1777 7.34707 11.2477 7.19795C11.3223 7.35793 11.441 7.49331 11.5899 7.58816C11.7387 7.68301 11.9116 7.7334 12.0881 7.7334C12.2646 7.7334 12.4375 7.68301 12.5863 7.58816C12.7352 7.49331 12.8539 7.35793 12.9284 7.19795C13.0186 7.38991 13.1715 7.54542 13.3619 7.63882C13.5523 7.73223 13.7689 7.75796 13.9759 7.71178C14.1829 7.66559 14.368 7.55024 14.5006 7.38475C14.6332 7.21926 14.7055 7.01352 14.7055 6.80144C14.7055 6.58936 14.6332 6.38361 14.5006 6.21812C14.368 6.05264 14.1829 5.93729 13.9759 5.8911C13.7689 5.84491 13.5523 5.87064 13.3619 5.96405C13.1715 6.05746 13.0186 6.21296 12.9284 6.40492C12.8539 6.24494 12.7352 6.10956 12.5863 6.01471C12.4375 5.91986 12.2646 5.86947 12.0881 5.86947C11.9116 5.86947 11.7387 5.91986 11.5899 6.01471C11.441 6.10956 11.3223 6.24494 11.2477 6.40492C11.1777 6.2558 11.0694 6.12791 10.9338 6.03431C10.7983 5.94071 10.6403 5.88475 10.476 5.87212C10.3118 5.8595 10.1471 5.89067 9.9988 5.96246C9.85051 6.03424 9.72392 6.14407 9.63195 6.28075C9.55582 6.16665 9.45547 6.07075 9.33804 5.99987C9.2206 5.92899 9.08899 5.88488 8.95256 5.87068C8.81613 5.85649 8.67824 5.87255 8.54873 5.91773C8.41922 5.96291 8.30127 6.0361 8.20328 6.13208C8.10529 6.22805 8.02968 6.34446 7.98183 6.473C7.93397 6.60154 7.91506 6.73905 7.92643 6.87574C7.9378 7.01242 7.97919 7.14492 8.04763 7.26379C8.11607 7.38265 8.20988 7.48496 8.32238 7.56343C8.19982 7.649 8.09973 7.76289 8.03062 7.89543C7.96151 8.02797 7.92542 8.17523 7.92542 8.3247C7.92542 8.47417 7.96151 8.62144 8.03062 8.75398C8.09973 8.88651 8.19982 9.00041 8.32238 9.08598C8.19982 9.17155 8.09973 9.28545 8.03062 9.41799C7.96151 9.55053 7.92542 9.69779 7.92542 9.84726C7.92542 9.99674 7.96151 10.144 8.03062 10.2765C8.09973 10.4091 8.19982 10.523 8.32238 10.6085C8.19982 10.6941 8.09973 10.808 8.03062 10.9405C7.96151 11.0731 7.92542 11.2203 7.92542 11.3698C7.92542 11.5193 7.96151 11.6666 8.03062 11.7991C8.09973 11.9316 8.19982 12.0455 8.32238 12.1311C8.19982 12.2167 8.09973 12.3306 8.03062 12.4631C7.96151 12.5956 7.92542 12.7429 7.92542 12.8924C7.92542 13.0419 7.96151 13.1891 8.03062 13.3217C8.09973 13.4542 8.19982 13.5681 8.32238 13.6537C8.19982 13.7392 8.09973 13.8531 8.03062 13.9857C7.96151 14.1182 7.92542 14.2655 7.92542 14.4149C7.92542 14.5644 7.96151 14.7117 8.03062 14.8442C8.09973 14.9768 8.19982 15.0907 8.32238 15.1762C8.21122 15.2551 8.11873 15.3574 8.05144 15.476C7.98415 15.5945 7.94371 15.7264 7.93297 15.8623C7.92222 15.9982 7.94144 16.1347 7.98925 16.2624C8.03707 16.39 8.11233 16.5056 8.20971 16.601C8.30709 16.6964 8.42422 16.7692 8.55284 16.8144C8.68145 16.8596 8.81841 16.8759 8.95405 16.8624C9.08969 16.8488 9.2207 16.8057 9.33783 16.736C9.45497 16.6662 9.55536 16.5717 9.63195 16.4589C9.72394 16.5962 9.85078 16.7066 9.99948 16.7788C10.1482 16.851 10.3134 16.8824 10.4782 16.8698C10.643 16.8572 10.8015 16.801 10.9375 16.7069C11.0735 16.6129 11.182 16.4845 11.252 16.3347C11.3265 16.4947 11.4452 16.6301 11.5941 16.7249C11.743 16.8198 11.9158 16.8702 12.0923 16.8702C12.2688 16.8702 12.4417 16.8198 12.5906 16.7249C12.7394 16.6301 12.8581 16.4947 12.9327 16.3347C13.0038 16.4853 13.1141 16.614 13.2519 16.7075C13.3897 16.801 13.5501 16.8558 13.7163 16.8663C13.8825 16.8767 14.0484 16.8424 14.1969 16.7669C14.3453 16.6915 14.4708 16.5776 14.5603 16.4371C14.6498 16.2967 14.6999 16.1348 14.7056 15.9683C14.7112 15.8019 14.6721 15.637 14.5924 15.4908C14.5126 15.3446 14.3952 15.2225 14.2522 15.1371C14.1092 15.0518 13.9459 15.0063 13.7794 15.0055H13.7737ZM9.63618 24.5811C9.72816 24.7178 9.85475 24.8276 10.003 24.8994C10.1513 24.9712 10.316 25.0023 10.4803 24.9897C10.6445 24.9771 10.8025 24.9211 10.9381 24.8275C11.0736 24.7339 11.182 24.606 11.252 24.4569C11.3265 24.6169 11.4452 24.7523 11.5941 24.8471C11.743 24.942 11.9158 24.9924 12.0923 24.9924C12.2688 24.9924 12.4417 24.942 12.5906 24.8471C12.7394 24.7523 12.8581 24.6169 12.9327 24.4569C13.023 24.6492 13.1761 24.8049 13.3668 24.8984C13.5575 24.9919 13.7744 25.0177 13.9817 24.9714C14.189 24.9251 14.3744 24.8096 14.5072 24.6439C14.64 24.4781 14.7124 24.2721 14.7124 24.0597C14.7124 23.8473 14.64 23.6413 14.5072 23.4755C14.3744 23.3098 14.189 23.1943 13.9817 23.148C13.7744 23.1017 13.5575 23.1275 13.3668 23.221C13.1761 23.3145 13.023 23.4702 12.9327 23.6625C12.8581 23.5025 12.7394 23.3671 12.5906 23.2723C12.4417 23.1774 12.2688 23.127 12.0923 23.127C11.9158 23.127 11.743 23.1774 11.5941 23.2723C11.4452 23.3671 11.3265 23.5025 11.252 23.6625C11.1821 23.5131 11.0739 23.385 10.9382 23.2912C10.8025 23.1975 10.6444 23.1415 10.4799 23.129C10.3155 23.1165 10.1507 23.148 10.0025 23.2201C9.85419 23.2923 9.72777 23.4026 9.63618 23.5397C9.55986 23.4265 9.45959 23.3314 9.34245 23.2613C9.22531 23.1911 9.09417 23.1476 8.95833 23.1337C8.82249 23.1198 8.68526 23.136 8.55637 23.1811C8.42748 23.2262 8.31008 23.2991 8.21248 23.3945C8.11488 23.49 8.03947 23.6058 7.99159 23.7337C7.94372 23.8616 7.92454 23.9984 7.93544 24.1345C7.94633 24.2706 7.98701 24.4026 8.05461 24.5213C8.12221 24.6399 8.21507 24.7422 8.32661 24.821C8.20405 24.9066 8.10396 25.0205 8.03485 25.153C7.96574 25.2855 7.92965 25.4328 7.92965 25.5823C7.92965 25.7317 7.96574 25.879 8.03485 26.0115C8.10396 26.1441 8.20405 26.258 8.32661 26.3435C8.20405 26.4291 8.10396 26.543 8.03485 26.6755C7.96574 26.8081 7.92965 26.9553 7.92965 27.1048C7.92965 27.2543 7.96574 27.4016 8.03485 27.5341C8.10396 27.6666 8.20405 27.7805 8.32661 27.8661C8.20405 27.9517 8.10396 28.0656 8.03485 28.1981C7.96574 28.3306 7.92965 28.4779 7.92965 28.6274C7.92965 28.7768 7.96574 28.9241 8.03485 29.0567C8.10396 29.1892 8.20405 29.3031 8.32661 29.3887C8.20405 29.4744 8.10397 29.5884 8.03487 29.7211C7.96578 29.8537 7.9297 30.0011 7.9297 30.1507C7.9297 30.3002 7.96578 30.4476 8.03487 30.5802C8.10397 30.7129 8.20405 30.8269 8.32661 30.9126C8.20405 30.9982 8.10396 31.1121 8.03485 31.2446C7.96574 31.3772 7.92965 31.5244 7.92965 31.6739C7.92965 31.8234 7.96574 31.9706 8.03485 32.1032C8.10396 32.2357 8.20405 32.3496 8.32661 32.4352C8.21507 32.514 8.12221 32.6163 8.05461 32.7349C7.98701 32.8535 7.94633 32.9856 7.93544 33.1217C7.92454 33.2578 7.94372 33.3946 7.99159 33.5225C8.03947 33.6504 8.11488 33.7661 8.21248 33.8616C8.31008 33.9571 8.42748 34.03 8.55637 34.0751C8.68526 34.1201 8.82249 34.1363 8.95833 34.1225C9.09417 34.1086 9.22531 34.0651 9.34245 33.9949C9.45959 33.9247 9.55986 33.8297 9.63618 33.7165C9.72816 33.8531 9.85475 33.963 10.003 34.0347C10.1513 34.1065 10.316 34.1377 10.4803 34.1251C10.6445 34.1125 10.8025 34.0565 10.9381 33.9629C11.0736 33.8693 11.182 33.7414 11.252 33.5923C11.3265 33.7523 11.4452 33.8876 11.5941 33.9825C11.743 34.0773 11.9158 34.1277 12.0923 34.1277C12.2688 34.1277 12.4417 34.0773 12.5906 33.9825C12.7394 33.8876 12.8581 33.7523 12.9327 33.5923C13.023 33.7841 13.1759 33.9394 13.3663 34.0327C13.5567 34.126 13.7733 34.1516 13.9802 34.1053C14.1871 34.0591 14.3721 33.9437 14.5046 33.7782C14.6372 33.6128 14.7094 33.4071 14.7094 33.1951C14.7094 32.983 14.6372 32.7774 14.5046 32.6119C14.3721 32.4464 14.1871 32.3311 13.9802 32.2848C13.7733 32.2386 13.5567 32.2642 13.3663 32.3574C13.1759 32.4507 13.023 32.606 12.9327 32.7978C12.8577 32.638 12.7387 32.503 12.5896 32.4085C12.4405 32.314 12.2675 32.2641 12.091 32.2645C11.9145 32.2649 11.7417 32.3158 11.5931 32.411C11.4445 32.5062 11.3261 32.6419 11.252 32.8021C11.1818 32.653 11.0734 32.5253 10.9377 32.4318C10.8021 32.3383 10.6441 32.2825 10.4798 32.27C10.3156 32.2576 10.151 32.2889 10.0027 32.3608C9.85453 32.4327 9.72804 32.5426 9.63618 32.6793C9.57228 32.5848 9.49142 32.503 9.39769 32.438C9.52053 32.3526 9.6209 32.2388 9.6902 32.1063C9.75951 31.9737 9.79571 31.8263 9.79571 31.6767C9.79571 31.5271 9.75951 31.3798 9.6902 31.2472C9.6209 31.1146 9.52053 31.0008 9.39769 30.9155C9.52054 30.8299 9.62088 30.716 9.69018 30.5833C9.75947 30.4506 9.79566 30.3031 9.79566 30.1535C9.79566 30.0038 9.75947 29.8563 9.69018 29.7236C9.62088 29.591 9.52054 29.477 9.39769 29.3915C9.47123 29.3391 9.53682 29.2764 9.59243 29.2052C9.68535 29.3218 9.80507 29.4141 9.9414 29.4744C10.0777 29.5346 10.2266 29.561 10.3753 29.5513C10.5241 29.5416 10.6682 29.4961 10.7956 29.4186C10.9229 29.3412 11.0296 29.2341 11.1066 29.1064C11.1892 29.2428 11.3056 29.3556 11.4445 29.4339C11.5835 29.5122 11.7402 29.5533 11.8997 29.5533C12.0592 29.5533 12.2159 29.5122 12.3549 29.4339C12.4938 29.3556 12.6102 29.2428 12.6928 29.1064C12.7986 29.2797 12.9582 29.4137 13.1472 29.4879C13.3362 29.5621 13.5443 29.5725 13.7398 29.5176C13.9352 29.4626 14.1074 29.3453 14.23 29.1834C14.3526 29.0216 14.419 28.8241 14.419 28.621C14.419 28.418 14.3526 28.2205 14.23 28.0586C14.1074 27.8968 13.9352 27.7795 13.7398 27.7245C13.5443 27.6695 13.3362 27.6799 13.1472 27.7542C12.9582 27.8284 12.7986 27.9623 12.6928 28.1356C12.6099 27.9996 12.4934 27.8871 12.3545 27.8091C12.2156 27.731 12.059 27.69 11.8997 27.69C11.7404 27.69 11.5837 27.731 11.4449 27.8091C11.306 27.8871 11.1895 27.9996 11.1066 28.1356C11.0289 28.0072 10.9211 27.8997 10.7925 27.8222C10.664 27.7447 10.5185 27.6997 10.3687 27.6909C10.2188 27.6822 10.0691 27.71 9.9324 27.772C9.79569 27.834 9.67612 27.9282 9.58397 28.0467C9.53095 27.9791 9.46872 27.9193 9.3991 27.8689C9.52166 27.7833 9.62175 27.6695 9.69086 27.5369C9.75997 27.4044 9.79606 27.2571 9.79606 27.1076C9.79606 26.9582 9.75997 26.8109 9.69086 26.6784C9.62175 26.5458 9.52166 26.4319 9.3991 26.3464C9.52195 26.261 9.6223 26.1472 9.69161 26.0146C9.76092 25.882 9.79712 25.7347 9.79712 25.5851C9.79712 25.4355 9.76092 25.2881 9.69161 25.1556C9.6223 25.023 9.52195 24.9092 9.3991 24.8238C9.49212 24.7579 9.57244 24.6756 9.63618 24.5811Z" fill="#009C9C"/>
</svg>
