<svg xmlns="http://www.w3.org/2000/svg" xmlns:xlink="http://www.w3.org/1999/xlink" width="100" height="100" viewBox="0 0 100 100">
    <defs>
        <circle id="a" cx="50" cy="50" r="50"/>
        <radialGradient id="c" fx="50%" fy="50%" gradientTransform="matrix(0 1 -.95456 0 .977 0)">
            <stop offset="0%" stop-color="#FEEEE1"/>
            <stop offset="100%" stop-color="#EF8614"/>
        </radialGradient>
    </defs>
    <g fill="none" fill-rule="evenodd">
        <mask id="b" fill="#fff">
            <use xlink:href="#a"/>
        </mask>
        <use fill="#FFF" xlink:href="#a"/>
        <g mask="url(#b)">
            <path fill="#F07E07" d="M104.078 97.41V64.656S67.345 90.676 0 102.307h96.732c3.98-.306 6.428-1.53 7.346-4.897"/>
            <path fill="url(#c)" d="M53.515.138c-4.376 0-8.022 3.403-8.022 7.536 0 4.376 3.403 7.78 8.022 7.78 4.375 0 8.022-3.404 8.022-7.78 0-4.133-3.403-7.536-8.022-7.536z" transform="translate(0 41.667)"/>
            <path fill="#06171E" d="M11.946 53.473c.972-.972 1.458-2.43 1.458-3.89 0-1.458-.729-2.673-1.701-3.646-.973-.972-1.945-1.215-3.89-1.215h-.73v9.967h.973c1.702 0 2.917-.486 3.89-1.216zM8.542 42.291c4.62 0 8.022 2.917 7.78 7.293 0 2.188-.973 4.375-2.675 5.834-1.458 1.215-3.16 1.702-5.348 1.702H4.167V42.29h4.375zM17.78 57.12h2.917V42.29H17.78zM27.747 47.882c-1.702-.73-2.188-.972-2.188-1.945 0-.972.972-1.701 2.188-1.701.972 0 1.701.243 2.43 1.215l1.46-1.945c-1.216-1.215-2.675-1.701-4.376-1.701-2.674 0-4.62 1.945-4.62 4.375 0 1.945.973 3.16 3.647 4.133 1.216.486 1.702.73 1.945.73.486.486.972.972.972 1.458a2.179 2.179 0 0 1-2.187 2.188c-1.46 0-2.431-.73-3.16-1.945l-1.945 1.702c1.458 1.944 2.917 2.917 5.105 2.917 2.917 0 5.104-1.945 5.104-4.862 0-2.188-.972-3.403-4.375-4.619M33.095 49.584c0 4.375 3.403 7.779 7.779 7.779 1.215 0 2.43-.243 3.646-.973v-3.403c-1.215 1.216-2.188 1.702-3.403 1.702-2.917 0-5.105-2.188-5.105-5.105 0-2.917 2.188-5.105 4.862-5.105 1.458 0 2.43.486 3.646 1.701v-3.403c-1.215-.73-2.43-.972-3.646-.972-4.376 0-7.78 3.403-7.78 7.779M68.1 52.258l-3.89-9.967h-3.16l6.321 15.072h1.459l6.32-15.072h-2.917zM76.609 57.12h8.265v-2.431h-5.348v-4.133h5.105v-2.43h-5.105v-3.404h5.348V42.29h-8.265zM90.465 49.098h-.73v-4.62h.973c1.702 0 2.917.73 2.917 2.189-.243 1.701-1.215 2.43-3.16 2.43m5.834-2.43c0-2.674-1.944-4.376-5.348-4.376h-4.375V57.12h2.917v-6.078h.486l4.132 6.078h3.404l-4.619-6.32c2.188-.487 3.403-1.945 3.403-4.133"/>
            <path fill="#1E1E1C" d="M97.765 43.555v-.292c.333 0 .333 0 0 .292.333 0 .333 0 0 0m.75-.292c0-.243-.25-.486-.5-.486h-.5v1.459h.25v-.486l.5.486h.5l-.5-.486s.25-.244.25-.487"/>
            <path fill="#1E1E1C" d="M98 44.479c-.485 0-.971-.486-.971-.973 0-.486.486-.972.972-.972s.972.486.972.972c-.243.487-.486.973-.972.973m0-1.945c-.73 0-1.216.486-1.216 1.216 0 .729.487 1.215 1.216 1.215.73 0 1.215-.486 1.215-1.215-.243-.73-.729-1.216-1.215-1.216"/>
        </g>
    </g>
</svg>
