<svg xmlns="http://www.w3.org/2000/svg" xmlns:xlink="http://www.w3.org/1999/xlink" width="40" height="40" viewBox="0 0 40 40">
    <defs>
        <circle id="a" cx="20" cy="20" r="20"/>
        <path id="c" d="M9.79.526H.315v13.158h9.473V.526z"/>
        <path id="e" d="M0 7.579V.737h7.79v6.842z"/>
    </defs>
    <g fill="none" fill-rule="evenodd">
        <mask id="b" fill="#fff">
            <use xlink:href="#a"/>
        </mask>
        <use fill="#FFF" xlink:href="#a"/>
        <g mask="url(#b)">
            <path fill="#055198" d="M15.895 14.596l-2 12.633h3.158l2-12.633z"/>
            <g transform="translate(18.947 13.86)">
                <mask id="d" fill="#fff">
                    <use xlink:href="#c"/>
                </mask>
                <path fill="#055198" d="M9.79 1.052C9.157.842 8.21.526 6.946.526 3.79.526 1.58 2.21 1.58 4.736c0 1.79 1.579 2.843 2.842 3.474 1.264.632 1.684 1.053 1.684 1.58 0 .842-.946 1.262-1.895 1.262-1.263 0-2-.21-3.052-.631l-.421-.21-.421 2.841c.736.316 2.105.632 3.579.632 3.369 0 5.578-1.684 5.578-4.316 0-1.473-.842-2.526-2.735-3.473-1.16-.632-1.79-.948-1.79-1.58 0-.526.63-1.052 1.79-1.052 1.052 0 1.788.21 2.42.526l.315.106.316-2.843z" mask="url(#d)"/>
            </g>
            <path fill="#055198" d="M32.947 22.807c.316-.737 1.263-3.58 1.263-3.58s.316-.736.422-1.157l.21 1.053s.631 3.052.737 3.684h-2.632zm4-8.21h-2.526c-.737 0-1.368.21-1.684 1.052L28 27.228h3.368l.633-1.895h4.104c.106.421.421 1.895.421 1.895h2.947l-2.526-12.632zM11.158 14.596L8 23.228l-.316-1.79c-.631-2-2.42-4.21-4.42-5.263L6.21 27.228h3.368l5.053-12.632h-3.474z"/>
            <g transform="translate(0 13.86)">
                <mask id="f" fill="#fff">
                    <use xlink:href="#e"/>
                </mask>
                <path fill="#F6A506" d="M5.158.737H0v.21C4 2 6.63 4.527 7.79 7.58L6.63 1.789c-.21-.736-.736-.947-1.473-1.052" mask="url(#f)"/>
            </g>
        </g>
    </g>
</svg>
