<svg xmlns="http://www.w3.org/2000/svg" xmlns:xlink="http://www.w3.org/1999/xlink" width="40" height="40" viewBox="0 0 40 40">
    <defs>
        <circle id="a" cx="20" cy="20" r="20"/>
        <radialGradient id="c" fx="50%" fy="50%" gradientTransform="matrix(0 1 -.95456 0 .977 0)">
            <stop offset="0%" stop-color="#FEEEE1"/>
            <stop offset="100%" stop-color="#EF8614"/>
        </radialGradient>
    </defs>
    <g fill="none" fill-rule="evenodd">
        <mask id="b" fill="#fff">
            <use xlink:href="#a"/>
        </mask>
        <use fill="#FFF" xlink:href="#a"/>
        <g mask="url(#b)">
            <path fill="#F07E07" d="M41.631 38.964V25.862S26.938 36.27 0 40.922h38.693c1.591-.122 2.571-.611 2.938-1.958"/>
            <path fill="url(#c)" d="M21.406.055c-1.75 0-3.209 1.362-3.209 3.015 0 1.75 1.361 3.111 3.209 3.111 1.75 0 3.209-1.361 3.209-3.111 0-1.653-1.362-3.015-3.21-3.015z" transform="translate(0 16.667)"/>
            <path fill="#06171E" d="M4.778 21.39c.39-.39.584-.973.584-1.556 0-.584-.292-1.07-.681-1.46-.389-.388-.778-.485-1.556-.485h-.291v3.986h.388c.681 0 1.167-.194 1.556-.486zm-1.361-4.474c1.847 0 3.209 1.167 3.112 2.918 0 .875-.39 1.75-1.07 2.333-.583.486-1.264.68-2.14.68H1.668v-5.93h1.75zM7.112 22.848h1.167v-5.932H7.112zM11.099 19.153c-.68-.292-.875-.39-.875-.778 0-.389.389-.68.875-.68.389 0 .68.097.972.485l.584-.777c-.487-.487-1.07-.681-1.75-.681-1.07 0-1.848.778-1.848 1.75 0 .778.389 1.264 1.458 1.653.486.195.681.292.778.292.195.194.39.389.39.583a.871.871 0 0 1-.876.875c-.583 0-.972-.291-1.264-.777l-.778.68c.583.778 1.167 1.167 2.042 1.167 1.167 0 2.042-.778 2.042-1.945 0-.875-.389-1.361-1.75-1.847M13.238 19.834c0 1.75 1.361 3.111 3.112 3.111.486 0 .972-.097 1.458-.389v-1.361c-.486.486-.875.68-1.361.68-1.167 0-2.042-.875-2.042-2.041 0-1.167.875-2.042 1.945-2.042.583 0 .972.194 1.458.68v-1.361a2.744 2.744 0 0 0-1.458-.39c-1.75 0-3.112 1.362-3.112 3.113M27.24 20.903l-1.556-3.987H24.42l2.528 6.03h.584l2.528-6.03h-1.167zM30.643 22.848h3.307v-.972h-2.14v-1.654h2.042v-.972H31.81V17.89h2.14v-.973h-3.307zM36.186 19.639h-.292v-1.847h.39c.68 0 1.166.291 1.166.875-.097.68-.486.972-1.264.972m2.334-.972c0-1.07-.778-1.75-2.14-1.75h-1.75v5.93h1.167v-2.43h.194l1.654 2.43h1.36l-1.847-2.527c.875-.195 1.362-.778 1.362-1.653"/>
            <path fill="#1E1E1C" d="M39.2 17.792a.418.418 0 0 1-.389-.39c0-.194.195-.388.39-.388.194 0 .388.194.388.389-.097.194-.194.389-.389.389m0-.778c-.291 0-.486.194-.486.486s.195.486.486.486c.292 0 .487-.194.487-.486-.098-.292-.292-.486-.487-.486"/>
        </g>
    </g>
</svg>
