<svg xmlns="http://www.w3.org/2000/svg" xmlns:xlink="http://www.w3.org/1999/xlink" width="40" height="40" viewBox="0 0 40 40">
    <defs>
        <circle id="a" cx="20" cy="20" r="20"/>
    </defs>
    <g fill="none" fill-rule="evenodd">
        <mask id="b" fill="#fff">
            <use xlink:href="#a"/>
        </mask>
        <use fill="#FFF" xlink:href="#a"/>
        <g mask="url(#b)">
            <path fill="#FAB323" d="M19.895 28.666a11.98 11.98 0 0 0 8 3.053c6.526 0 11.895-5.367 11.895-12 0-6.632-5.369-12-11.895-12a11.984 11.984 0 0 0-8 3.053A11.932 11.932 0 0 0 16 19.614c-.105 3.684 1.474 6.842 3.895 9.052"/>
            <path fill="#E40C21" d="M23.684 18.561c0-.42-.106-.842-.21-1.263H16.21l.316-1.263h6.631c-.106-.421-.316-.842-.526-1.263h-5.58l.632-1.263h4.21c-.21-.421-.525-.948-.841-1.263h-2.421c.42-.421.737-.842 1.263-1.264a11.985 11.985 0 0 0-8-3.052C5.263 7.825 0 13.193 0 19.825c0 6.631 5.369 12 11.895 12 3.053 0 5.895-1.158 8-3.053.421-.421.842-.842 1.158-1.263h-2.421l-.948-1.263h4.21c.317-.421.527-.842.738-1.264h-5.58c-.21-.42-.42-.842-.525-1.263h6.631l.316-1.263c.104-.42.21-.842.21-1.263 0-.421.106-.842.106-1.263 0-.526 0-.948-.106-1.369"/>
            <path fill="#FFF" d="M38.421 22.772l-.106-.316h.212v.105s0 .106-.106.106l.106.105h-.106l.106-.105h-.106v.105-.21.21zm.106.105c.21 0 .314-.105.314-.316 0-.21-.104-.315-.314-.315-.106 0-.316.105-.316.315 0 .21.104.316.316.316zm-.422-.316c0-.21.21-.42.422-.42.21 0 .42.21.42.42s-.21.421-.42.421a.452.452 0 0 1-.422-.42z"/>
            <path fill="#203767" d="M15.79 23.298c-.421.106-.632.21-.948.21-.631 0-.947-.42-.947-1.052v-.42l.105-.422.105-.421.527-3.368h1.263l-.105.736h.737l-.211 1.053h-.737l-.316 2v.21c0 .316.106.422.421.422h.421l-.315 1.052z"/>
            <path fill="#203767" d="M19.052 20.246v-.21c0-.422-.21-.632-.631-.632-.421 0-.737.315-.842.842h1.473zm.737 2.947c-.42.105-.842.21-1.263.21-1.368 0-2.21-.736-2.21-2.21 0-1.684.947-2.947 2.21-2.947 1.053 0 1.684.737 1.684 1.79 0 .42 0 .736-.105 1.262H17.58v.21c0 .527.42.843 1.158.843.42 0 .842-.105 1.368-.316l-.316 1.158zM6 23.298H4.63l.737-4.631-1.579 4.631h-.947l-.105-4.631L2 23.298H.737l1.052-6h1.79l.105 3.684 1.263-3.684h2zM10.105 23.298H8.947v-.526c-.316.421-.631.632-1.368.632-.632 0-1.158-.527-1.158-1.369 0-.21 0-.421.105-.631.21-.737.947-1.264 2.105-1.264h.527v-.315c0-.316-.316-.421-.842-.421-.421 0-.737.105-1.053.21h-.316l.21-1.158c.632-.21 1.053-.316 1.474-.316 1.158 0 1.685.527 1.685 1.474 0 .21 0 .421-.106.947l-.315 1.79v.736l.21.211zm-1.053-2.21h-.21c-.737 0-1.158.316-1.158.737 0 .315.21.526.421.526.632 0 .947-.526.947-1.263zM26 18.456c.42 0 .736.105 1.158.316l.21-1.263c-.105-.106-.21-.106-.315-.106l-.526-.105c-.21 0-.421-.105-.633-.105-.63 0-1.053 0-1.367.21-.212.106-.422.316-.738.632h-.21l-1.263.947.105-.526h-1.368l-.842 4.947h1.262l.422-2.631s.21-.421.315-.526c.211-.316.422-.316.738-.316h.104c0 .316-.104.631-.104.947 0 1.579.947 2.632 2.316 2.632.315 0 .63 0 1.156-.21l.212-1.37c-.422.211-.738.317-1.053.317-.738 0-1.264-.527-1.264-1.474 0-1.369.738-2.316 1.685-2.316M35.368 22.14c-.42 0-.631-.316-.631-.947 0-.947.42-1.684 1.052-1.684.421 0 .632.316.632.947-.105 1.052-.526 1.685-1.053 1.685zm1.58-4.842l-.317 1.685c-.315-.421-.63-.737-1.156-.737-.633 0-1.265.421-1.686 1.157l-.842-.526.105-.527h-1.368l-.842 4.949h1.263l.421-2.632s.317-.421.421-.526c.21-.212.422-.316.526-.316-.104.421-.21.946-.21 1.473 0 1.263.633 2.105 1.579 2.105.42 0 .842-.21 1.159-.526l-.106.526h1.263l.948-6.105h-1.159zM30.42 23.298h-1.157v-.526c-.315.421-.63.632-1.368.632-.632 0-1.159-.527-1.159-1.369 0-1.158.844-1.895 2.316-1.895h.527c0-.21.106-.21.106-.315 0-.316-.317-.421-.843-.421-.316 0-.736.105-1.053.21h-.316l.21-1.053c.632-.21 1.053-.315 1.476-.315 1.156 0 1.683.526 1.683 1.473 0 .21 0 .421-.105.948l-.316 1.79v.841zm-1.052-2.21h-.21c-.736 0-1.158.316-1.158.737 0 .315.21.526.422.526.737 0 .946-.526.946-1.263zM12.737 19.403c.21 0 .631 0 .947.106l.21-1.158c-.42 0-.842-.106-1.157-.106-1.474 0-1.895.737-1.895 1.685 0 .631.316 1.052.947 1.368.527.21.632.317.632.526 0 .317-.316.527-.737.527s-.737-.106-1.158-.21l-.105 1.157h.21c.106 0 .21 0 .316.105h.737c1.474 0 2-.526 2-1.684 0-.63-.316-1.053-.947-1.368-.527-.21-.632-.316-.632-.527 0-.21.316-.42.632-.42"/>
            <path fill="#FFF" d="M27.684 17.088l-.21 1.263c-.421-.21-.737-.316-1.158-.316-.948 0-1.684.948-1.684 2.316 0 .947.42 1.474 1.263 1.474.316 0 .631-.106 1.052-.316l-.21 1.368c-.421.106-.737.21-1.158.21-1.368 0-2.21-1.052-2.21-2.63 0-2.106 1.157-3.685 2.947-3.685.21 0 .42 0 .631.105l.527.106c.105 0 .105 0 .21.105M23.579 17.93h-.106c-.42 0-.63.21-1.052.842l.105-.737h-1.158l-.841 4.947h1.263c.42-3.052.63-3.579 1.262-3.579h.107c.104-.631.21-1.052.42-1.473M16.105 22.877c-.316.106-.631.21-.947.21-.632 0-1.053-.42-1.053-1.052v-.42l.106-.527.105-.422.526-3.368h1.263v.737h.632l-.21 1.264h-.632l-.316 2.105v.21c0 .21.105.316.421.316h.316l-.21.947zM11.158 19.614c0 .632.315 1.053.947 1.368.526.211.632.316.632.527 0 .316-.21.42-.737.42-.421 0-.737-.104-1.158-.21l-.21 1.158H12c1.368 0 2-.526 2-1.684 0-.632-.316-1.053-.948-1.368-.526-.211-.631-.316-.631-.527 0-.316.21-.42.631-.42.21 0 .632 0 .948.104l.21-1.157c-.315-.106-.842-.106-1.158-.106-1.368.21-1.894.948-1.894 1.895M35.684 21.824c.632 0 1.052-.736 1.052-1.684 0-.632-.21-.947-.631-.947-.526 0-1.053.632-1.053 1.685-.104.63.212.946.632.946zm1.896 1.16h-1.264l.105-.423c-.316.422-.737.526-1.157.526-.949 0-1.58-.842-1.58-1.999 0-1.685.947-3.053 2.106-3.053.526 0 .841.211 1.263.631l.316-1.684h1.263l-1.052 6.001zM19.369 19.93v-.21c0-.422-.211-.632-.632-.632-.421 0-.737.315-.842.842h1.474zm.736 2.947c-.42.105-.842.21-1.368.21-1.474 0-2.21-.736-2.21-2.21 0-1.684.947-2.947 2.21-2.947 1.053 0 1.79.736 1.79 1.79 0 .42 0 .736-.211 1.262H17.79v.107c0 .526.42.84 1.157.84.422 0 .843-.105 1.369-.314l-.21 1.262zM6.316 22.983H5.053l.737-4.737-1.685 4.737h-.947l-.105-4.632-.737 4.632H1.158l.947-6.106H4v3.79l1.263-3.79h2zM10.421 22.983H9.37v-.527c-.316.42-.737.632-1.369.632-.737 0-1.158-.526-1.158-1.368 0-1.264.842-1.895 2.21-1.895h.527v-.316c0-.316-.21-.421-.842-.421-.421 0-.737 0-1.053.105l-.21.105h-.105l.21-1.157c.632-.211 1.053-.211 1.579-.211 1.158 0 1.684.526 1.684 1.474 0 .21 0 .42-.105.947l-.316 1.79v.842zm-.947-2.212h-.316c-.737 0-1.053.317-1.053.738 0 .315.21.526.421.526.527-.105.948-.526.948-1.264zM30.737 22.983h-1.052v-.527c-.317.42-.737.632-1.37.632-.736 0-1.157-.526-1.157-1.368 0-1.264.841-1.895 2.21-1.895h.526c0-.21.106-.21.106-.316 0-.316-.21-.421-.842-.421-.42 0-.843 0-1.052.105l-.21.105h-.107l.21-1.157c.633-.211 1.053-.211 1.58-.211 1.158 0 1.685.526 1.685 1.474 0 .21 0 .42-.107.947l-.314 1.684v.737l-.106.21zm-.947-2.212h-.316c-.737 0-1.159.317-1.159.738 0 .315.21.526.422.526.63-.105 1.053-.526 1.053-1.264zM34.21 17.93h-.106c-.42 0-.63.21-1.052.842l.106-.737H32l-.736 4.947h1.262c.423-3.052.633-3.579 1.265-3.579h.105c0-.631.105-1.052.316-1.473"/>
        </g>
    </g>
</svg>
