<svg xmlns="http://www.w3.org/2000/svg" xmlns:xlink="http://www.w3.org/1999/xlink" width="100" height="100" viewBox="0 0 100 100">
    <defs>
        <circle id="a" cx="50" cy="50" r="50"/>
        <path id="c" d="M20.023.258H.646v26.914h19.377V.258z"/>
        <path id="e" d="M0 14.684V.69h15.933v13.995z"/>
    </defs>
    <g fill="none" fill-rule="evenodd">
        <mask id="b" fill="#fff">
            <use xlink:href="#a"/>
        </mask>
        <use fill="#FFF" xlink:href="#a"/>
        <g mask="url(#b)">
            <path fill="#055198" d="M41.512 39.462l-4.09 25.84h6.459l4.09-25.84z"/>
            <g transform="translate(47.756 38.774)">
                <mask id="d" fill="#fff">
                    <use xlink:href="#c"/>
                </mask>
                <path fill="#055198" d="M20.023 1.334C18.732.904 16.793.258 14.21.258 7.75.258 3.23 3.703 3.23 8.87c0 3.66 3.229 5.814 5.813 7.106 2.586 1.292 3.445 2.153 3.445 3.23 0 1.724-1.936 2.583-3.876 2.583-2.584 0-4.09-.43-6.244-1.292l-.861-.43-.861 5.813c1.507.646 4.306 1.292 7.32 1.292 6.892 0 11.412-3.445 11.412-8.828 0-3.014-1.723-5.167-5.596-7.105-2.37-1.292-3.663-1.938-3.663-3.23 0-1.076 1.292-2.153 3.663-2.153 2.153 0 3.658.43 4.95 1.077l.646.215.645-5.814z" mask="url(#d)"/>
            </g>
            <path fill="#055198" d="M76.392 56.256c.646-1.507 2.584-7.32 2.584-7.32s.646-1.507.863-2.369l.429 2.153s1.291 6.244 1.507 7.536h-5.383zm8.182-16.794h-5.168c-1.507 0-2.797.43-3.445 2.153L66.272 65.3h6.89s1.077-3.23 1.294-3.875h8.395c.218.861.861 3.875.861 3.875h6.03l-5.168-25.837zM31.823 39.463l-6.46 17.655-.645-3.66c-1.292-4.091-4.952-8.613-9.043-10.766L21.704 65.3h6.89l10.334-25.837h-7.105z"/>
            <g transform="translate(9 38.774)">
                <mask id="f" fill="#fff">
                    <use xlink:href="#e"/>
                </mask>
                <path fill="#F6A506" d="M10.55.689H0v.43C8.182 3.274 13.564 8.44 15.933 14.685L13.564 2.842C13.134 1.335 12.057.904 10.55.69" mask="url(#f)"/>
            </g>
        </g>
    </g>
</svg>
