<svg xmlns="http://www.w3.org/2000/svg" xmlns:xlink="http://www.w3.org/1999/xlink" width="26" height="26" viewBox="0 0 26 26">
    <defs>
        <circle id="a" cx="12" cy="12" r="12"/>
    </defs>
    <g fill="none" fill-rule="evenodd" transform="translate(1 1)">
        <mask id="b" fill="#fff">
            <use xlink:href="#a"/>
        </mask>
        <use fill="#FFF" xlink:href="#a"/>
        <circle cx="12" cy="12" r="12.5" stroke="#DADADA"/>
        <g mask="url(#b)">
            <path fill="#FAB323" d="M11.937 17.2a7.188 7.188 0 0 0 4.8 1.831c3.916 0 7.137-3.22 7.137-7.2 0-3.979-3.221-7.199-7.137-7.199a7.19 7.19 0 0 0-4.8 1.83A7.16 7.16 0 0 0 9.6 11.769c-.063 2.21.884 4.105 2.337 5.432"/>
            <path fill="#E40C21" d="M14.21 11.137c0-.253-.063-.505-.126-.758H9.726l.19-.758h3.979c-.064-.253-.19-.505-.316-.758h-3.347l.379-.758h2.526c-.126-.252-.316-.568-.505-.758h-1.453c.253-.252.442-.505.758-.758a7.191 7.191 0 0 0-4.8-1.831C3.158 4.695 0 7.916 0 11.895c0 3.979 3.221 7.2 7.137 7.2a7.191 7.191 0 0 0 4.8-1.832c.253-.252.505-.505.695-.758h-1.453l-.568-.758h2.526a4.71 4.71 0 0 0 .442-.758h-3.347c-.127-.252-.253-.505-.316-.757h3.979l.19-.758c.062-.253.126-.506.126-.758 0-.253.063-.505.063-.758 0-.316 0-.569-.063-.821"/>
            <path fill="#FFF" d="M23.053 13.663l-.064-.19h.127v.064s0 .063-.063.063l.063.063h-.063l.063-.063h-.063v.063-.126.126zm.063.063c.126 0 .189-.063.189-.19 0-.125-.063-.189-.19-.189-.062 0-.189.064-.189.19s.063.19.19.19zm-.253-.19c0-.125.126-.252.253-.252.126 0 .253.127.253.253a.272.272 0 0 1-.253.252.271.271 0 0 1-.253-.252z"/>
            <path fill="#203767" d="M9.474 13.979c-.253.063-.38.126-.569.126-.379 0-.568-.252-.568-.631v-.253l.063-.253.063-.252.316-2.021h.758l-.063.442h.442l-.126.631h-.443l-.189 1.2v.127c0 .19.063.252.253.252h.252l-.19.632z"/>
            <path fill="#203767" d="M11.431 12.147v-.126c0-.253-.126-.379-.378-.379-.253 0-.443.19-.506.505h.884zm.443 1.769c-.253.063-.506.126-.758.126-.821 0-1.327-.442-1.327-1.326 0-1.01.569-1.769 1.327-1.769.631 0 1.01.443 1.01 1.074 0 .253 0 .442-.063.758h-1.516v.126c0 .316.253.506.695.506.253 0 .505-.064.821-.19l-.19.695zM3.6 13.979h-.821L3.22 11.2l-.947 2.779h-.569L1.642 11.2 1.2 13.979H.442l.632-3.6h1.073l.063 2.21.758-2.21h1.2zM6.063 13.979h-.695v-.316c-.19.253-.379.38-.82.38-.38 0-.695-.317-.695-.822 0-.126 0-.253.063-.379.126-.442.568-.758 1.263-.758h.316v-.19c0-.189-.19-.252-.506-.252-.252 0-.442.063-.631.126h-.19l.127-.694c.379-.127.631-.19.884-.19.695 0 1.01.316 1.01.884 0 .127 0 .253-.063.569l-.19 1.074v.442l.127.126zm-.632-1.326h-.126c-.442 0-.695.19-.695.442 0 .19.127.316.253.316.379 0 .568-.316.568-.758zM15.6 11.074c.252 0 .442.063.695.19l.126-.759c-.063-.063-.126-.063-.19-.063l-.315-.063c-.126 0-.253-.063-.38-.063-.378 0-.631 0-.82.126-.127.063-.253.19-.443.379h-.126l-.757.568.063-.315h-.821l-.505 2.968h.757l.253-1.579s.126-.253.189-.316c.127-.19.253-.19.443-.19h.062c0 .19-.062.38-.062.57 0 .947.568 1.578 1.39 1.578.189 0 .377 0 .693-.126l.127-.821c-.253.126-.443.19-.631.19-.443 0-.759-.316-.759-.885 0-.821.443-1.39 1.011-1.39M21.22 13.284c-.251 0-.378-.19-.378-.568 0-.568.253-1.01.632-1.01.252 0 .379.189.379.567-.064.632-.316 1.011-.632 1.011zm.948-2.905l-.19 1.01c-.189-.252-.377-.441-.693-.441-.38 0-.759.252-1.011.694l-.506-.316.063-.316h-.82l-.506 2.97h.758l.253-1.58s.19-.252.252-.316c.127-.126.254-.189.316-.189a3.755 3.755 0 0 0-.126.884c0 .757.38 1.263.947 1.263.253 0 .505-.126.696-.316l-.064.316h.758l.569-3.663h-.696zM18.252 13.979h-.694v-.316c-.19.253-.379.38-.82.38-.38 0-.696-.317-.696-.822 0-.695.506-1.137 1.39-1.137h.315c0-.126.064-.126.064-.19 0-.189-.19-.252-.506-.252-.19 0-.441.063-.632.126h-.189l.126-.631c.38-.126.632-.19.885-.19.694 0 1.01.316 1.01.885 0 .126 0 .252-.063.568l-.19 1.074v.505zm-.631-1.326h-.126c-.442 0-.695.19-.695.442 0 .19.126.316.253.316.442 0 .568-.316.568-.758zM7.642 11.642c.126 0 .379 0 .568.063l.127-.695c-.253 0-.506-.063-.695-.063-.884 0-1.137.442-1.137 1.01 0 .38.19.632.569.822.315.126.379.19.379.316 0 .19-.19.315-.443.315-.252 0-.442-.063-.694-.125l-.063.694h.126c.063 0 .126 0 .19.063h.441c.885 0 1.2-.316 1.2-1.01 0-.379-.19-.632-.568-.822-.316-.126-.379-.19-.379-.315 0-.127.19-.253.379-.253"/>
            <path fill="#FFF" d="M16.61 10.253l-.126.758c-.252-.127-.442-.19-.695-.19-.568 0-1.01.569-1.01 1.39 0 .568.253.884.758.884.19 0 .379-.063.631-.19l-.126.821c-.253.064-.442.127-.695.127-.82 0-1.326-.632-1.326-1.58 0-1.262.695-2.21 1.768-2.21.127 0 .253 0 .38.063l.315.064c.063 0 .063 0 .127.063M14.147 10.758h-.063c-.253 0-.378.126-.632.505l.064-.442h-.695l-.505 2.968h.758c.252-1.831.378-2.147.757-2.147h.064c.063-.379.126-.632.252-.884M9.663 13.726c-.19.064-.379.126-.568.126-.38 0-.632-.252-.632-.631v-.252l.063-.316.063-.253.316-2.021h.758v.442h.38l-.127.758h-.38l-.189 1.263v.127c0 .125.064.19.253.19h.19l-.127.567zM6.695 11.768c0 .38.19.632.568.821.316.127.379.19.379.316 0 .19-.126.253-.442.253-.253 0-.442-.063-.695-.126l-.126.694H7.2c.82 0 1.2-.315 1.2-1.01 0-.38-.19-.632-.569-.821-.315-.127-.378-.19-.378-.316 0-.19.126-.253.378-.253.127 0 .38 0 .569.063l.126-.694c-.19-.063-.505-.063-.695-.063-.82.126-1.136.568-1.136 1.136M21.41 13.094c.38 0 .632-.441.632-1.01 0-.379-.126-.568-.38-.568-.315 0-.63.38-.63 1.01-.063.379.126.568.378.568zm1.138.696h-.758l.062-.253c-.19.253-.442.315-.694.315-.569 0-.947-.505-.947-1.199 0-1.011.568-1.832 1.263-1.832.316 0 .505.127.758.379l.19-1.01h.757l-.631 3.6zM11.621 11.958v-.127c0-.252-.126-.378-.379-.378-.252 0-.442.189-.505.505h.884zm.442 1.768c-.252.063-.505.127-.82.127-.885 0-1.327-.443-1.327-1.327 0-1.01.568-1.768 1.326-1.768.632 0 1.074.442 1.074 1.073 0 .253 0 .443-.126.758h-1.516v.064c0 .316.252.505.694.505.253 0 .506-.063.822-.19l-.127.758zM3.79 13.79h-.758l.442-2.843-1.01 2.843h-.57l-.062-2.78-.442 2.78H.695l.568-3.664H2.4V12.4l.758-2.274h1.2zM6.253 13.79H5.62v-.316c-.19.252-.442.379-.82.379-.443 0-.696-.316-.696-.821 0-.758.506-1.137 1.327-1.137h.315v-.19c0-.19-.126-.252-.505-.252-.252 0-.442 0-.631.063l-.127.063h-.063l.126-.695c.38-.126.632-.126.948-.126.695 0 1.01.316 1.01.884 0 .127 0 .253-.063.569l-.19 1.073v.506zm-.569-1.327h-.19c-.441 0-.63.19-.63.442 0 .19.126.316.252.316.316-.063.568-.316.568-.758zM18.442 13.79h-.631v-.316c-.19.252-.442.379-.822.379-.441 0-.694-.316-.694-.821 0-.758.505-1.137 1.326-1.137h.315c0-.126.064-.126.064-.19 0-.19-.126-.252-.505-.252-.253 0-.506 0-.632.063l-.126.063h-.064l.127-.695c.38-.126.631-.126.947-.126.695 0 1.011.316 1.011.884 0 .127 0 .253-.064.569l-.188 1.01v.442l-.064.127zm-.568-1.327h-.19c-.442 0-.695.19-.695.442 0 .19.126.316.253.316.379-.063.632-.316.632-.758zM20.526 10.758h-.063c-.252 0-.379.126-.632.505l.064-.442h-.696l-.441 2.968h.757c.254-1.831.38-2.147.759-2.147h.063c0-.379.063-.632.19-.884"/>
        </g>
    </g>
</svg>
