<svg xmlns="http://www.w3.org/2000/svg" xmlns:xlink="http://www.w3.org/1999/xlink" width="26" height="26" viewBox="0 0 26 26">
    <defs>
        <circle id="a" cx="12" cy="12" r="12"/>
        <path id="c" d="M5.874.316H.189V8.21h5.685V.316z"/>
        <path id="e" d="M0 4.547V.442h4.674v4.105z"/>
    </defs>
    <g fill="none" fill-rule="evenodd" transform="translate(1 1)">
        <mask id="b" fill="#fff">
            <use xlink:href="#a"/>
        </mask>
        <use fill="#FFF" xlink:href="#a"/>
        <circle cx="12" cy="12" r="12.5" stroke="#DADADA"/>
        <g mask="url(#b)">
            <path fill="#055198" d="M9.537 8.758l-1.2 7.58h1.895l1.2-7.58z"/>
            <g transform="translate(11.368 8.316)">
                <mask id="d" fill="#fff">
                    <use xlink:href="#c"/>
                </mask>
                <path fill="#055198" d="M5.874.631C5.494.505 4.926.316 4.168.316c-1.894 0-3.22 1.01-3.22 2.526 0 1.074.947 1.705 1.705 2.084.758.38 1.01.632 1.01.948 0 .505-.568.757-1.137.757-.758 0-1.2-.126-1.831-.378l-.253-.127-.253 1.705c.442.19 1.264.38 2.148.38 2.021 0 3.347-1.011 3.347-2.59 0-.884-.505-1.516-1.641-2.084-.696-.38-1.075-.569-1.075-.948 0-.315.38-.631 1.075-.631.631 0 1.073.126 1.452.316l.19.063L5.873.63z" mask="url(#d)"/>
            </g>
            <path fill="#055198" d="M19.768 13.684c.19-.442.758-2.147.758-2.147s.19-.442.253-.695l.126.632s.38 1.831.442 2.21h-1.579zm2.4-4.926h-1.515c-.443 0-.82.126-1.011.631L16.8 16.337h2.02l.38-1.137h2.463c.064.253.253 1.137.253 1.137h1.768l-1.516-7.58zM6.695 8.758L4.8 13.937l-.19-1.074c-.378-1.2-1.452-2.526-2.652-3.158l1.768 6.632h2.021l3.032-7.58H6.695z"/>
            <g transform="translate(0 8.316)">
                <mask id="f" fill="#fff">
                    <use xlink:href="#e"/>
                </mask>
                <path fill="#F6A506" d="M3.095.442H0v.126c2.4.632 3.979 2.148 4.674 3.98l-.695-3.474C3.853.632 3.537.505 3.095.442" mask="url(#f)"/>
            </g>
        </g>
    </g>
</svg>
