<svg xmlns="http://www.w3.org/2000/svg" xmlns:xlink="http://www.w3.org/1999/xlink" width="26" height="26" viewBox="0 0 26 26">
    <defs>
        <circle id="a" cx="12" cy="12" r="12"/>
        <radialGradient id="c" fx="50%" fy="50%" gradientTransform="matrix(0 1 -.95456 0 .977 0)">
            <stop offset="0%" stop-color="#FEEEE1"/>
            <stop offset="100%" stop-color="#EF8614"/>
        </radialGradient>
    </defs>
    <g fill="none" fill-rule="evenodd" transform="translate(1 1)">
        <mask id="b" fill="#fff">
            <use xlink:href="#a"/>
        </mask>
        <use fill="#FFF" xlink:href="#a"/>
        <circle cx="12" cy="12" r="12.5" stroke="#DADADA"/>
        <g mask="url(#b)">
            <path fill="#F07E07" d="M24.979 23.378v-7.86S16.163 21.761 0 24.553h23.216c.955-.074 1.542-.368 1.763-1.176"/>
            <path fill="url(#c)" d="M12.844.033c-1.05 0-1.926.817-1.926 1.809 0 1.05.817 1.867 1.926 1.867 1.05 0 1.925-.817 1.925-1.867 0-.992-.817-1.809-1.925-1.809z" transform="translate(0 10)"/>
            <path fill="#06171E" d="M2.867 12.834c.233-.234.35-.584.35-.934 0-.35-.175-.642-.408-.875-.234-.233-.467-.292-.934-.292H1.7v2.392h.233c.409 0 .7-.116.934-.291zM2.05 10.15c1.109 0 1.925.7 1.867 1.75 0 .525-.233 1.05-.642 1.4-.35.292-.758.409-1.283.409H1v-3.56h1.05zM4.267 13.709h.7v-3.56h-.7zM6.66 11.492c-.41-.175-.526-.234-.526-.467s.234-.408.525-.408c.234 0 .409.058.584.291l.35-.466c-.292-.292-.642-.409-1.05-.409-.642 0-1.109.467-1.109 1.05 0 .467.233.759.875.992.292.117.409.175.467.175.117.117.233.234.233.35a.523.523 0 0 1-.525.525c-.35 0-.583-.175-.758-.466l-.467.408c.35.467.7.7 1.225.7.7 0 1.225-.467 1.225-1.167 0-.525-.233-.817-1.05-1.108M7.943 11.9c0 1.05.817 1.867 1.867 1.867.291 0 .583-.058.875-.233v-.817c-.292.292-.525.408-.817.408-.7 0-1.225-.525-1.225-1.225 0-.7.525-1.225 1.167-1.225.35 0 .583.117.875.408v-.816a1.646 1.646 0 0 0-.875-.234c-1.05 0-1.867.817-1.867 1.867M16.344 12.542l-.933-2.392h-.759l1.517 3.617h.35l1.517-3.617h-.7zM18.386 13.709h1.984v-.584h-1.284v-.992h1.225v-.583h-1.225v-.817h1.284v-.583h-1.984zM21.712 11.783h-.175v-1.108h.233c.408 0 .7.175.7.525-.058.408-.292.583-.758.583m1.4-.583c0-.642-.467-1.05-1.284-1.05h-1.05v3.559h.7V12.25h.117l.992 1.459h.817l-1.109-1.517c.525-.117.817-.467.817-.992"/>
            <path fill="#1E1E1C" d="M23.52 10.675a.251.251 0 0 1-.233-.233c0-.117.117-.234.233-.234a.25.25 0 0 1 .234.234c-.059.116-.117.233-.234.233m0-.467c-.175 0-.292.117-.292.292s.117.292.292.292.292-.117.292-.292c-.058-.175-.175-.292-.292-.292"/>
        </g>
    </g>
</svg>
