<svg xmlns="http://www.w3.org/2000/svg" xmlns:xlink="http://www.w3.org/1999/xlink" width="100" height="100" viewBox="0 0 100 100">
    <defs>
        <circle id="a" cx="50" cy="50" r="50"/>
    </defs>
    <g fill="none" fill-rule="evenodd">
        <mask id="b" fill="#fff">
            <use xlink:href="#a"/>
        </mask>
        <use fill="#FFF" xlink:href="#a"/>
        <g mask="url(#b)">
            <path fill="#FAB323" d="M49.813 69.488c4.742 4.27 11.143 6.875 18.02 6.875 14.7 0 26.792-12.09 26.792-27.03 0-14.937-12.092-27.027-26.793-27.027-6.876 0-13.277 2.606-18.02 6.874a26.877 26.877 0 0 0-8.772 19.917c-.237 8.298 3.32 15.411 8.773 20.39"/>
            <path fill="#E40C21" d="M58.349 46.727c0-.949-.24-1.897-.475-2.846h-16.36l.712-2.845h14.937c-.24-.948-.711-1.897-1.185-2.845H43.41l1.423-2.845h9.484c-.474-.949-1.186-2.134-1.897-2.846h-5.453c.948-.948 1.66-1.896 2.845-2.845-4.742-4.268-11.144-6.876-18.02-6.876C16.856 22.542 5 34.634 5 49.572c0 14.937 12.093 27.03 26.793 27.03 6.876 0 13.278-2.609 18.02-6.876.948-.949 1.897-1.897 2.608-2.846h-5.453l-2.134-2.845h9.484c.711-.948 1.185-1.897 1.66-2.845H43.41c-.474-.949-.948-1.897-1.185-2.845h14.937l.711-2.846c.235-.948.475-1.896.475-2.845 0-.948.237-1.897.237-2.845 0-1.186 0-2.134-.237-3.082"/>
            <path fill="#FFF" d="M91.543 56.21l-.24-.71h.477v.236s0 .238-.237.238l.237.237h-.237l.237-.237h-.237v.237-.475.475zm.237.238c.474 0 .709-.237.709-.712 0-.474-.235-.71-.709-.71-.237 0-.711.236-.711.71 0 .475.234.712.711.712zm-.948-.712c0-.474.471-.948.948-.948.474 0 .948.474.948.948 0 .475-.474.949-.948.949-.477 0-.948-.474-.948-.949z"/>
            <path fill="#203767" d="M40.566 57.396c-.949.237-1.423.474-2.134.474-1.423 0-2.134-.948-2.134-2.37v-.949l.237-.948.237-.949 1.186-7.587h2.845l-.237 1.66h1.66l-.475 2.37h-1.66l-.71 4.506v.474c0 .711.236.948.948.948h.948l-.711 2.371z"/>
            <path fill="#203767" d="M47.915 50.52v-.474c0-.948-.474-1.422-1.423-1.422-.948 0-1.66.711-1.896 1.896h3.32zm1.66 6.64c-.949.236-1.897.474-2.845.474-3.083 0-4.98-1.66-4.98-4.98 0-3.793 2.134-6.638 4.98-6.638 2.37 0 3.793 1.66 3.793 4.03 0 .949 0 1.66-.237 2.846h-5.69v.474c0 1.185.948 1.897 2.608 1.897.948 0 1.897-.238 3.082-.712l-.711 2.608zM18.515 57.396h-3.083l1.66-10.432-3.557 10.432h-2.133l-.238-10.432-1.66 10.432H6.66l2.372-13.515h4.03l.237 8.299 2.846-8.299h4.505zM27.761 57.396h-2.608v-1.185c-.711.948-1.422 1.422-3.082 1.422-1.423 0-2.608-1.185-2.608-3.082 0-.474 0-.948.237-1.423.474-1.66 2.134-2.845 4.742-2.845h1.185v-.711c0-.711-.71-.949-1.896-.949-.949 0-1.66.238-2.371.475h-.712l.475-2.609c1.422-.474 2.37-.71 3.319-.71 2.608 0 3.794 1.185 3.794 3.319 0 .474 0 .948-.238 2.134l-.71 4.03v1.66l.473.474zm-2.37-4.979h-.475c-1.66 0-2.608.711-2.608 1.66 0 .711.474 1.185.948 1.185 1.423 0 2.134-1.185 2.134-2.845zM63.565 46.49c.946 0 1.658.236 2.608.71l.475-2.845c-.24-.237-.475-.237-.712-.237l-1.185-.237c-.474 0-.949-.237-1.425-.237-1.42 0-2.371 0-3.08.474-.477.237-.95.712-1.662 1.423h-.474l-2.843 2.134.237-1.186H52.42l-1.896 11.144h2.843l.95-5.927s.475-.949.71-1.186c.476-.711.95-.711 1.661-.711h.235c0 .711-.235 1.422-.235 2.134 0 3.556 2.134 5.927 5.217 5.927.71 0 1.42 0 2.605-.474l.477-3.082c-.95.474-1.662.711-2.371.711-1.662 0-2.848-1.186-2.848-3.32 0-3.082 1.662-5.216 3.796-5.216M84.666 54.789c-.946 0-1.423-.714-1.423-2.134 0-2.134.949-3.794 2.371-3.794.949 0 1.423.712 1.423 2.132-.237 2.371-1.185 3.796-2.371 3.796zm3.557-10.91l-.712 3.797c-.711-.948-1.42-1.66-2.606-1.66-1.424 0-2.847.949-3.796 2.606l-1.896-1.186.237-1.185h-3.083l-1.896 11.146h2.845l.948-5.927s.714-.949.949-1.186c.474-.476.95-.711 1.185-.711-.235.948-.474 2.131-.474 3.317 0 2.845 1.425 4.742 3.557 4.742.948 0 1.896-.472 2.61-1.186l-.24 1.186h2.846l2.136-13.752h-2.61zM73.522 57.396h-2.608v-1.185c-.71.948-1.42 1.422-3.08 1.422-1.425 0-2.61-1.185-2.61-3.082 0-2.608 1.898-4.268 5.215-4.268h1.186c0-.474.24-.474.24-.711 0-.711-.714-.949-1.9-.949-.711 0-1.657.238-2.37.475h-.713l.475-2.371c1.423-.475 2.371-.712 3.322-.712 2.606 0 3.791 1.186 3.791 3.32 0 .474 0 .948-.235 2.134l-.713 4.03V57.396zm-2.371-4.979h-.472c-1.66 0-2.61.711-2.61 1.66 0 .711.474 1.185.95 1.185 1.66 0 2.132-1.185 2.132-2.845zM33.689 48.623c.474 0 1.423 0 2.134.237l.474-2.608c-.948 0-1.897-.237-2.608-.237-3.32 0-4.268 1.66-4.268 3.793 0 1.423.711 2.371 2.134 3.083 1.186.474 1.423.713 1.423 1.185 0 .714-.712 1.186-1.66 1.186s-1.66-.237-2.608-.472l-.237 2.606h.474c.237 0 .474 0 .711.237h1.66c3.32 0 4.505-1.186 4.505-3.794 0-1.42-.711-2.37-2.134-3.082-1.186-.474-1.423-.711-1.423-1.186 0-.474.712-.948 1.423-.948"/>
            <path fill="#FFF" d="M67.358 43.407l-.474 2.846c-.949-.475-1.66-.712-2.608-.712-2.134 0-3.794 2.134-3.794 5.217 0 2.134.948 3.319 2.845 3.319.712 0 1.423-.237 2.371-.711l-.474 3.082c-.948.237-1.66.474-2.608.474-3.082 0-4.98-2.37-4.98-5.927 0-4.742 2.609-8.299 6.64-8.299.474 0 .948 0 1.422.237l1.186.237c.237 0 .237 0 .474.237M58.11 45.304h-.237c-.948 0-1.42.474-2.371 1.897l.237-1.66h-2.608l-1.895 11.144h2.846c.946-6.876 1.42-8.062 2.843-8.062h.239c.235-1.422.474-2.37.946-3.32M41.277 56.447c-.712.24-1.423.474-2.134.474-1.423 0-2.371-.946-2.371-2.371v-.946l.237-1.186.237-.95 1.185-7.588h2.846v1.66h1.422l-.474 2.848h-1.422l-.712 4.742v.474c0 .472.237.711.949.711h.71l-.473 2.132zM30.132 49.098c0 1.422.712 2.37 2.134 3.082 1.186.474 1.423.711 1.423 1.185 0 .712-.474.949-1.66.949-.948 0-1.66-.237-2.608-.474l-.474 2.608h3.083c3.082 0 4.504-1.186 4.504-3.794 0-1.422-.711-2.37-2.134-3.082-1.185-.474-1.422-.711-1.422-1.186 0-.711.474-.948 1.422-.948.474 0 1.423 0 2.134.237l.474-2.608c-.71-.237-1.896-.237-2.608-.237-3.082.474-4.268 2.134-4.268 4.268M85.377 54.076c1.425 0 2.37-1.658 2.37-3.794 0-1.422-.471-2.134-1.422-2.134-1.185 0-2.37 1.425-2.37 3.796-.235 1.42.476 2.132 1.422 2.132zm4.27 2.61h-2.845l.235-.95c-.712.95-1.66 1.185-2.606 1.185-2.136 0-3.557-1.897-3.557-4.503 0-3.796 2.132-6.878 4.742-6.878 1.186 0 1.895.477 2.846 1.423l.71-3.794h2.846l-2.37 13.517zM48.627 49.808v-.474c0-.948-.474-1.422-1.422-1.422-.949 0-1.66.71-1.897 1.896h3.32zm1.66 6.64c-.949.236-1.897.474-3.082.474-3.32 0-4.98-1.66-4.98-4.98 0-3.793 2.134-6.638 4.98-6.638 2.37 0 4.03 1.66 4.03 4.03 0 .949 0 1.66-.474 2.845h-5.69v.24c0 1.185.948 1.894 2.608 1.894.948 0 1.897-.237 3.082-.709l-.474 2.843zM19.227 56.685H16.38l1.66-10.67-3.794 10.67h-2.133l-.238-10.432-1.66 10.432H7.61l2.134-13.752h4.267v8.536l2.846-8.536h4.505zM28.473 56.685h-2.37V55.5c-.712.946-1.66 1.422-3.083 1.422-1.66 0-2.608-1.185-2.608-3.082 0-2.845 1.897-4.268 4.98-4.268h1.185v-.711c0-.711-.475-.948-1.897-.948-.949 0-1.66 0-2.371.237l-.474.237h-.238l.475-2.608c1.422-.475 2.37-.475 3.556-.475 2.608 0 3.794 1.186 3.794 3.32 0 .474 0 .948-.237 2.134l-.712 4.03v1.898zm-2.134-4.981h-.71c-1.66 0-2.372.714-2.372 1.662 0 .709.474 1.185.949 1.185 1.185-.237 2.133-1.185 2.133-2.847zM74.235 56.685h-2.371V55.5c-.714.946-1.66 1.422-3.085 1.422-1.657 0-2.606-1.185-2.606-3.082 0-2.845 1.895-4.268 4.977-4.268h1.186c0-.474.24-.474.24-.711 0-.711-.475-.948-1.898-.948-.948 0-1.899 0-2.37.237l-.475.237h-.24l.475-2.608c1.425-.475 2.37-.475 3.556-.475 2.61 0 3.796 1.186 3.796 3.32 0 .474 0 .948-.239 2.134l-.709 3.793v1.66l-.237.474zM72.1 51.704h-.711c-1.66 0-2.61.714-2.61 1.662 0 .709.473 1.185.95 1.185 1.42-.237 2.371-1.185 2.371-2.847zM82.059 45.304h-.24c-.946 0-1.42.474-2.37 1.897l.239-1.66h-2.61L75.42 56.685h2.843c.95-6.876 1.425-8.062 2.847-8.062h.238c0-1.422.237-2.37.71-3.32"/>
        </g>
    </g>
</svg>
