<svg xmlns="http://www.w3.org/2000/svg" xmlns:xlink="http://www.w3.org/1999/xlink" width="264" height="264" viewBox="0 0 264 264">
    <defs>
        <circle id="b" cx="125" cy="125" r="125"/>
        <filter id="a" width="110%" height="110%" x="-5%" y="-3.4%" filterUnits="objectBoundingBox">
            <feOffset dy="4" in="SourceAlpha" result="shadowOffsetOuter1"/>
            <feGaussianBlur in="shadowOffsetOuter1" result="shadowBlurOuter1" stdDeviation="3.5"/>
            <feColorMatrix in="shadowBlurOuter1" values="0 0 0 0 0 0 0 0 0 0 0 0 0 0 0 0 0 0 0.183338995 0"/>
        </filter>
        <circle id="c" cx="125" cy="125" r="120"/>
    </defs>
    <g fill="none" fill-rule="evenodd" transform="translate(7 3)">
        <use fill="#000" filter="url(#a)" xlink:href="#b"/>
        <use fill="#FFF" xlink:href="#b"/>
        <use fill="#FFF" xlink:href="#c"/>
        <circle cx="125" cy="125" r="118.5" stroke="#393" stroke-width="3"/>
        <circle cx="35" cy="35" r="34" fill="#FFF"/>
        <path fill="#393" d="M35 5c16.569 0 30 13.431 30 30 0 16.569-13.431 30-30 30C18.431 65 5 51.569 5 35 5 18.431 18.431 5 35 5zm8.373 30.503l7.849-7.849-4.273-4.273-7.849 7.85-4.273 4.272-3.606 3.606-.032-.03-7.849-7.849-4.273 4.273 7.85 7.849 4.272 4.273.032-.032.03.032 7.85-7.849 4.272-4.273z"/>
    </g>
</svg>
