<svg xmlns="http://www.w3.org/2000/svg" xmlns:xlink="http://www.w3.org/1999/xlink" width="264" height="264" viewBox="0 0 264 264">
    <defs>
        <circle id="b" cx="125" cy="125" r="125"/>
        <filter id="a" width="110%" height="110%" x="-5%" y="-3.4%" filterUnits="objectBoundingBox">
            <feOffset dy="4" in="SourceAlpha" result="shadowOffsetOuter1"/>
            <feGaussianBlur in="shadowOffsetOuter1" result="shadowBlurOuter1" stdDeviation="3.5"/>
            <feColorMatrix in="shadowBlurOuter1" values="0 0 0 0 0 0 0 0 0 0 0 0 0 0 0 0 0 0 0.183338995 0"/>
        </filter>
        <circle id="c" cx="125" cy="125" r="120"/>
    </defs>
    <g fill="none" fill-rule="evenodd" transform="translate(7 3)">
        <use fill="#000" filter="url(#a)" xlink:href="#b"/>
        <use fill="#FFF" xlink:href="#b"/>
        <use fill="#FFF" xlink:href="#c"/>
        <circle cx="125" cy="125" r="118.5" stroke="#C81A00" stroke-width="3"/>
        <circle cx="35" cy="35" r="34" fill="#FFF"/>
        <path fill="#C81A00" d="M47.122 42.849l-4.273 4.273L35 39.272l-7.849 7.85-4.273-4.273L30.728 35l-7.85-7.849 4.273-4.273L35 30.728l7.849-7.85 4.273 4.273L39.272 35l7.85 7.849zM35 5C18.431 5 5 18.431 5 35c0 16.569 13.431 30 30 30 16.569 0 30-13.431 30-30C65 18.431 51.569 5 35 5z"/>
    </g>
</svg>
