<svg xmlns="http://www.w3.org/2000/svg" xmlns:xlink="http://www.w3.org/1999/xlink" width="16" height="16" viewBox="0 0 16 16">
    <defs>
        <path id="a" d="M8 0a8 8 0 0 1 7.859 9.506 4.5 4.5 0 1 0-6.354 6.353A8 8 0 1 1 8 0z"/>
    </defs>
    <g fill="none" fill-rule="evenodd">
        <mask id="b" fill="#fff">
            <use xlink:href="#a"/>
        </mask>
        <g fill="#252E37" fill-rule="nonzero" mask="url(#b)">
            <path d="M10.289 13.902a6.597 6.597 0 1 0-4.981.001.6.6 0 0 1-.443 1.115A7.797 7.797 0 0 1 7.795 0a7.795 7.795 0 0 1 2.947 15.012.6.6 0 1 1-.453-1.11zm-.79-1.986a4.498 4.498 0 1 0-3.39.007.6.6 0 0 1-.445 1.114 5.698 5.698 0 1 1 4.285-.009.6.6 0 1 1-.45-1.112zM4.896 8.577l-.115-.08a.187.187 0 0 1-.037-.271l.254-.316-.37-.097a.187.187 0 0 1-.132-.236l.04-.13a.187.187 0 0 1 .24-.123l.38.13-.028-.396a.187.187 0 0 1 .187-.2h.16a.187.187 0 0 1 .186.201l-.031.395.385-.13a.187.187 0 0 1 .24.122l.04.13a.187.187 0 0 1-.133.236l-.374.098.254.316a.187.187 0 0 1-.038.27l-.114.081a.187.187 0 0 1-.266-.052l-.231-.359-.231.36a.187.187 0 0 1-.266.051zm2.395 0l-.114-.08a.187.187 0 0 1-.038-.271l.254-.316-.37-.097a.187.187 0 0 1-.131-.236l.04-.13a.187.187 0 0 1 .24-.123l.38.13-.029-.396a.187.187 0 0 1 .187-.2h.16a.187.187 0 0 1 .187.201l-.032.395.386-.13a.187.187 0 0 1 .24.122l.04.13a.187.187 0 0 1-.133.236l-.375.098.255.316a.187.187 0 0 1-.038.27l-.115.081a.187.187 0 0 1-.266-.052l-.23-.359-.232.36a.187.187 0 0 1-.266.051zm2.4 0l-.115-.08a.187.187 0 0 1-.038-.271l.254-.316-.37-.097a.187.187 0 0 1-.132-.236l.04-.13a.187.187 0 0 1 .24-.123l.38.13-.028-.396a.187.187 0 0 1 .187-.2h.16a.187.187 0 0 1 .186.201l-.031.395.385-.13a.187.187 0 0 1 .24.122l.04.13a.187.187 0 0 1-.132.236l-.375.098.254.316a.187.187 0 0 1-.038.27l-.114.081a.187.187 0 0 1-.266-.052l-.231-.359-.231.36a.187.187 0 0 1-.266.051z"/>
        </g>
        <circle cx="12.5" cy="12.5" r="3.5" fill="#BC0000"/>
    </g>
</svg>
