<?xml version="1.0" encoding="UTF-8" standalone="no"?>
<svg width="16px" height="15px" viewBox="0 0 16 15" version="1.1" xmlns="http://www.w3.org/2000/svg" xmlns:xlink="http://www.w3.org/1999/xlink">
    <!-- Generator: sketchtool 40.3 (33839) - http://www.bohemiancoding.com/sketch -->
    <title>FFBC2B15-64BD-49AE-A831-4842B3CDA06B</title>
    <desc>Created with sketchtool.</desc>
    <defs></defs>
    <g id="Welcome" stroke="none" stroke-width="1" fill="none" fill-rule="evenodd">
        <g id="Extension-UI-Assets" transform="translate(-27.000000, -281.000000)" fill="#666666">
            <g id="main-UI" transform="translate(20.000000, 25.000000)">
                <path d="M14.8869824,260.752632 L17.1793488,263.24 L17.1939004,263.113684 C17.1939004,261.802105 16.2179713,260.744211 15.0111562,260.744211 L14.8869824,260.752632 Z M11.7515916,261.368421 L12.8788577,262.591579 C12.8429637,262.757895 12.8206512,262.931579 12.8206512,263.105263 C12.8206512,264.415789 13.7956103,265.473684 15.0033954,265.473684 C15.1634633,265.473684 15.3235312,265.449474 15.4758382,265.410526 L16.6040745,266.633684 C16.11708,266.894737 15.5776996,267.052632 15.0033954,267.052632 C12.9952707,267.052632 11.3654884,265.284211 11.3654884,263.105263 C11.3654884,262.482105 11.5110047,261.896842 11.7515916,261.368421 L11.7515916,261.368421 Z M7.7275814,257.002105 L9.38646699,258.803158 L9.72115443,259.165263 C8.51336931,260.184211 7.56751349,261.542105 7,263.105263 C8.25823076,266.570526 11.3654884,269.026316 15.0033954,269.026316 C16.1316316,269.026316 17.2084521,268.789474 18.1902019,268.363158 L18.4957861,268.694737 L20.6271145,271 L21.551628,269.997895 L8.65112472,256 L7.7275814,257.002105 Z M15.0033954,259.157895 C17.01152,259.157895 18.6413024,260.926316 18.6413024,263.105263 C18.6413024,263.618947 18.5462317,264.1 18.3793731,264.549474 L20.5039108,266.855789 C21.6030437,265.86 22.4683805,264.573684 23,263.105263 C21.7407991,259.64 18.6345116,257.184211 14.9966046,257.184211 C13.9779907,257.184211 13.0020615,257.382105 12.1008307,257.736842 L13.6714364,259.442105 C14.0866428,259.261053 14.5299824,259.157895 15.0033954,259.157895 L15.0033954,259.157895 Z" id="ic_global_pw-hide"></path>
            </g>
        </g>
    </g>
</svg>