<?xml version="1.0" encoding="UTF-8" standalone="no"?>
<svg width="16px" height="11px" viewBox="0 0 16 11" version="1.1" xmlns="http://www.w3.org/2000/svg" xmlns:xlink="http://www.w3.org/1999/xlink">
    <!-- Generator: sketchtool 40.3 (33839) - http://www.bohemiancoding.com/sketch -->
    <title>9EF27AE7-9240-42A4-AA80-B24A4EF4A257</title>
    <desc>Created with sketchtool.</desc>
    <defs></defs>
    <g id="Welcome" stroke="none" stroke-width="1" fill="none" fill-rule="evenodd">
        <g id="Extension-UI-Assets" transform="translate(-28.000000, -318.000000)" fill="#666666">
            <g id="main-UI" transform="translate(20.000000, 25.000000)">
                <path d="M16,296.3 C14.7927273,296.3 13.8181818,297.282667 13.8181818,298.5 C13.8181818,299.717333 14.7927273,300.7 16,300.7 C17.2072727,300.7 18.1818182,299.717333 18.1818182,298.5 C18.1818182,297.282667 17.2072727,296.3 16,296.3 M16,302.166667 C13.9927273,302.166667 12.3636364,300.524 12.3636364,298.5 C12.3636364,296.476 13.9927273,294.833333 16,294.833333 C18.0072727,294.833333 19.6363636,296.476 19.6363636,298.5 C19.6363636,300.524 18.0072727,302.166667 16,302.166667 M16,293 C12.3636364,293 9.25866667,295.281156 8,298.5 C9.25866667,301.718844 12.3636364,304 16,304 C19.6363636,304 22.7413333,301.718844 24,298.5 C22.7413333,295.281156 19.6363636,293 16,293" id="ic_global_pw-view"></path>
            </g>
        </g>
    </g>
</svg>