<svg xmlns="http://www.w3.org/2000/svg" width="30" height="29" viewBox="0 0 30 29">
    <path fill="#FFF" fill-rule="evenodd" d="M15 0c8.284 0 15 6.72 15 15.01 0 6.282-3.857 11.662-9.33 13.9l-.015.006a1.154 1.154 0 1 1-.864-2.141l.003-.002.004-.001c4.631-1.894 7.894-6.447 7.894-11.762 0-7.015-5.682-12.7-12.692-12.7S2.308 7.994 2.308 15.01c0 5.302 3.246 9.845 7.859 11.747l.046.018a1.155 1.155 0 0 1-.851 2.146l-.001.002C3.871 26.693 0 21.303 0 15.01 0 6.72 6.716 0 15 0zm0 3.963c6.054 0 10.962 4.911 10.962 10.969 0 4.486-2.692 8.344-6.548 10.043l-.271.114-.016.007a1.154 1.154 0 1 1-.865-2.141l.016-.006a8.662 8.662 0 0 0 5.376-8.017c0-4.782-3.875-8.66-8.654-8.66-4.78 0-8.654 3.878-8.654 8.66 0 3.62 2.22 6.721 5.372 8.015l.036.014a1.155 1.155 0 0 1-.855 2.145v.001a10.972 10.972 0 0 1-6.86-10.175C4.038 8.874 8.945 3.963 15 3.963zm-4.618 9.243a.5.5 0 0 1 .5.54l-.05.61.616-.21a.489.489 0 0 1 .626.32.486.486 0 0 1-.343.612l-.594.155.407.506a.484.484 0 0 1-.074.68l-.024.019a.493.493 0 0 1-.7-.136l-.37-.575-.37.575a.493.493 0 0 1-.68.148l-.018-.012a.484.484 0 0 1-.098-.7l.407-.505-.585-.154a.487.487 0 1 1 .283-.932l.606.208-.043-.608a.505.505 0 0 1 .504-.541zm4.61 0a.5.5 0 0 1 .5.5l-.001.04-.049.61.616-.21a.489.489 0 0 1 .626.32.486.486 0 0 1-.343.612l-.595.155.407.506a.484.484 0 0 1-.074.68l-.024.019a.493.493 0 0 1-.699-.136l-.37-.575-.37.575a.493.493 0 0 1-.68.148l-.019-.012a.484.484 0 0 1-.115-.675l.018-.024.406-.506-.584-.154a.487.487 0 1 1 .283-.932l.605.208-.042-.608a.505.505 0 0 1 .468-.54l.035-.001zm4.615 0a.5.5 0 0 1 .5.54l-.05.61.616-.21a.489.489 0 0 1 .626.32.486.486 0 0 1-.343.612l-.594.155.407.506a.484.484 0 0 1-.074.68l-.024.019a.493.493 0 0 1-.7-.136l-.37-.575-.37.575a.493.493 0 0 1-.68.148l-.018-.012a.484.484 0 0 1-.098-.7l.407-.505-.585-.154a.487.487 0 1 1 .283-.932l.606.208-.043-.608a.505.505 0 0 1 .504-.541z"/>
</svg>
