<svg xmlns="http://www.w3.org/2000/svg" width="100" height="100" viewBox="0 0 100 100">
    <g fill="none" fill-rule="evenodd">
        <g>
            <g>
                <g>
                    <g>
                        <path d="M0 0H60V60H0z" transform="translate(-670 -276) translate(370 276) translate(300) translate(20 20)"/>
                        <path fill="#242E39" d="M30 1.25c16.569 0 30 13.44 30 30.02 0 12.563-7.713 23.324-18.66 27.8l-.03.011c-1.18.478-2.526-.093-3.003-1.276-.478-1.182.093-2.528 1.275-3.006l.013-.006c9.263-3.787 15.79-12.893 15.79-23.524 0-14.028-11.365-25.4-25.385-25.4-14.02 0-25.385 11.372-25.385 25.4 0 10.604 6.494 19.69 15.718 23.495.031.01.062.023.093.035 1.182.478 1.753 1.824 1.275 3.006-.473 1.174-1.802 1.746-2.978 1.287l-.001.003C7.742 54.635 0 43.857 0 31.27 0 14.69 13.431 1.25 30 1.25zm0 7.927c12.108 0 21.923 9.821 21.923 21.937 0 9.181-5.637 17.045-13.636 20.316v-.002l-.034.014c-1.181.478-2.526-.094-3.004-1.276-.477-1.183.094-2.528 1.275-3.006l.032-.013c6.308-2.585 10.752-8.79 10.752-16.033 0-9.565-7.75-17.319-17.308-17.319-9.559 0-17.308 7.754-17.308 17.319 0 7.24 4.44 13.443 10.744 16.03l.071.027c1.182.478 1.753 1.824 1.275 3.006-.474 1.176-1.806 1.748-2.983 1.285l-.001.002c-8.045-3.25-13.721-11.136-13.721-20.35C8.077 18.998 17.892 9.177 30 9.177zm-8.777 18.485c.32 0 .577.258.577.577l-.001.045-.133 1.677 1.623-.554c.302-.103.63.058.733.36l.005.019.24.79c.093.305-.08.627-.384.72l-.022.006-1.588.413 1.075 1.337c.2.249.16.612-.088.812l-.028.02-.69.488c-.26.184-.62.123-.803-.138l-.015-.02-.97-1.51-.971 1.51c-.173.267-.53.345-.797.172l-.022-.014-.689-.487c-.26-.184-.321-.544-.137-.804l.021-.029 1.075-1.337-1.569-.412c-.308-.081-.492-.396-.411-.705l.006-.02.24-.79c.092-.306.414-.478.72-.385l.02.006 1.602.552-.119-1.682c-.022-.318.217-.594.535-.616l.02-.001h.945zm9.22 0c.318 0 .577.258.577.577l-.002.045-.133 1.677 1.623-.554c.302-.103.63.058.733.36l.006.019.24.79c.092.305-.08.627-.385.72l-.022.006-1.587.413 1.074 1.337c.2.249.16.612-.088.812l-.028.02-.689.488c-.26.184-.62.123-.804-.138l-.014-.02-.971-1.51-.97 1.51c-.173.267-.53.345-.798.172l-.021-.014-.69-.487c-.26-.184-.321-.544-.137-.804l.021-.029 1.075-1.337-1.569-.412c-.308-.081-.492-.396-.411-.705l.006-.02.24-.79c.092-.306.414-.478.72-.385l.02.006 1.602.552-.119-1.682c-.022-.318.217-.594.535-.616l.02-.001h.946zm9.23 0c.32 0 .577.258.577.577l-.001.045-.133 1.677 1.623-.554c.302-.103.63.058.733.36l.005.019.24.79c.093.305-.08.627-.384.72l-.022.006-1.588.413 1.075 1.337c.2.249.16.612-.088.812l-.028.02-.69.488c-.26.184-.62.123-.803-.138l-.015-.02-.97-1.51-.971 1.51c-.173.267-.53.345-.797.172l-.022-.014-.689-.487c-.26-.184-.321-.544-.137-.804l.021-.029 1.075-1.337-1.569-.412c-.308-.081-.492-.396-.411-.705l.006-.02.24-.79c.092-.306.414-.478.72-.385l.02.006 1.602.552-.119-1.682c-.022-.318.217-.594.535-.616l.02-.001h.945z" transform="translate(-670 -276) translate(370 276) translate(300) translate(20 20)"/>
                    </g>
                    <path fill="#F9622F" d="M50 0c27.614 0 50 22.386 50 50s-22.386 50-50 50S0 77.614 0 50 22.386 0 50 0zm0 4C24.595 4 4 24.595 4 50s20.595 46 46 46 46-20.595 46-46S75.405 4 50 4z" opacity=".498" transform="translate(-670 -276) translate(370 276) translate(300)"/>
                    <g fill-rule="nonzero">
                        <path fill="#FFF" d="M12 4H20V28H12z" transform="translate(-670 -276) translate(370 276) translate(300) translate(68 68)"/>
                        <path fill="#F9622F" d="M16 0C7.162 0 0 7.162 0 16c0 8.838 7.162 16 16 16 8.838 0 16-7.162 16-16 0-8.838-7.162-16-16-16zm2 24h-4v-4h4v4zm0 4h-4V6h4v22z" transform="translate(-670 -276) translate(370 276) translate(300) translate(68 68)"/>
                    </g>
                </g>
            </g>
        </g>
    </g>
</svg>
