<svg width="41" height="41" viewBox="0 0 41 41" fill="none" xmlns="http://www.w3.org/2000/svg">
<g id="statuses">
<path id="Union" fill-rule="evenodd" clip-rule="evenodd" d="M38.1352 20.5C38.1352 30.077 30.3716 37.8406 20.7946 37.8406C11.2176 37.8406 3.454 30.077 3.454 20.5C3.454 10.923 11.2176 3.15938 20.7946 3.15938C30.3716 3.15938 38.1352 10.923 38.1352 20.5ZM40.7946 20.5C40.7946 31.5457 31.8403 40.5 20.7946 40.5C9.74889 40.5 0.794617 31.5457 0.794617 20.5C0.794617 9.45427 9.74889 0.5 20.7946 0.5C31.8403 0.5 40.7946 9.45427 40.7946 20.5ZM22.586 20.5428C22.586 21.6495 21.8422 22.5459 20.9239 22.5459C20.0056 22.5459 19.2618 21.6495 19.2618 20.5428V12.5305C19.2618 11.4238 20.0056 10.5274 20.9239 10.5274C21.8422 10.5274 22.586 11.4238 22.586 12.5305V20.5428ZM22.586 28.1457C22.586 29.064 21.8422 29.8078 20.9239 29.8078C20.0056 29.8078 19.2618 29.064 19.2618 28.1457C19.2618 27.2274 20.0056 26.4836 20.9239 26.4836C21.8422 26.4836 22.586 27.2274 22.586 28.1457Z" fill="#0F71F0"/>
</g>
</svg>
