<svg xmlns="http://www.w3.org/2000/svg" width="99" height="99" viewBox="0 0 99 99">
    <g fill="none" fill-rule="evenodd">
        <path d="M19.8 19.8h59.4v59.4H19.8z"/>
        <path fill="#242E39" d="M59 74.046c9.17-3.75 15.63-12.765 15.63-23.29 0-13.888-11.25-25.146-25.13-25.146-13.88 0-25.13 11.258-25.13 25.147 0 10.497 6.427 19.493 15.56 23.26a2.287 2.287 0 0 1-1.594 4.285l-.001.002C27.465 73.89 19.8 63.218 19.8 50.757c0-16.414 13.297-29.72 29.7-29.72s29.7 13.306 29.7 29.72c0 12.438-7.636 23.092-18.473 27.522l-.03.011A2.287 2.287 0 1 1 59 74.045zm-3.01-7.57c6.246-2.56 10.645-8.703 10.645-15.873 0-9.47-7.672-17.146-17.135-17.146-9.463 0-17.135 7.677-17.135 17.146 0 7.168 4.396 13.308 10.637 15.87a2.287 2.287 0 0 1-1.62 4.275l-.002.002c-7.964-3.217-13.584-11.026-13.584-20.147 0-11.995 9.717-21.718 21.704-21.718s21.704 9.723 21.704 21.718c0 9.09-5.58 16.875-13.5 20.113v-.002a2.284 2.284 0 0 1-3.007-1.25 2.287 2.287 0 0 1 1.294-2.988zM38.57 53.825l-.672-.475a.577.577 0 0 1-.117-.833l1.06-1.319-1.547-.406a.577.577 0 0 1-.405-.726l.234-.77a.577.577 0 0 1 .74-.379l1.58.544-.117-1.658a.577.577 0 0 1 .576-.618h.903a.577.577 0 0 1 .575.623l-.131 1.653 1.602-.546a.577.577 0 0 1 .738.379l.234.77a.577.577 0 0 1-.407.727l-1.565.407 1.06 1.32a.577.577 0 0 1-.117.832l-.672.475a.577.577 0 0 1-.818-.159l-.958-1.49-.958 1.49a.577.577 0 0 1-.818.159zm9.127 0l-.672-.475a.577.577 0 0 1-.117-.833l1.06-1.319-1.547-.406a.577.577 0 0 1-.405-.726l.234-.77a.577.577 0 0 1 .74-.379l1.58.544-.117-1.658a.577.577 0 0 1 .576-.618h.903a.577.577 0 0 1 .575.623l-.131 1.653 1.602-.546a.577.577 0 0 1 .738.379l.234.77a.577.577 0 0 1-.407.727l-1.565.407 1.06 1.32a.577.577 0 0 1-.117.832l-.672.475a.577.577 0 0 1-.818-.159l-.958-1.49-.958 1.49a.577.577 0 0 1-.818.159zm9.138 0l-.672-.475a.577.577 0 0 1-.116-.833l1.06-1.319-1.547-.406a.577.577 0 0 1-.406-.726l.234-.77a.577.577 0 0 1 .74-.379l1.58.544-.116-1.658a.577.577 0 0 1 .575-.618h.903a.577.577 0 0 1 .576.623l-.132 1.653 1.602-.546a.577.577 0 0 1 .738.379l.235.77a.577.577 0 0 1-.407.727l-1.566.407 1.06 1.32a.577.577 0 0 1-.116.832l-.672.475a.577.577 0 0 1-.819-.159l-.957-1.49-.958 1.49a.577.577 0 0 1-.819.159z"/>
        <path fill="#393" d="M49.5 99C22.162 99 0 76.838 0 49.5S22.162 0 49.5 0 99 22.162 99 49.5 76.838 99 49.5 99zm0-3.96c25.151 0 45.54-20.389 45.54-45.54S74.651 3.96 49.5 3.96 3.96 24.349 3.96 49.5 24.349 95.04 49.5 95.04z" opacity=".498"/>
        <g transform="translate(67.32 67.32)">
            <circle cx="16.94" cy="16.94" r="11.66" fill="#FFF"/>
            <path fill="#393" fill-rule="nonzero" d="M15.84 0C7.09 0 0 7.09 0 15.84s7.09 15.84 15.84 15.84 15.84-7.09 15.84-15.84S24.59 0 15.84 0zm-3.149 20.213L24.173 8.8l2.227 2.213L12.691 24.64 5.28 17.273l2.227-2.213 5.184 5.153z"/>
        </g>
    </g>
</svg>
