<svg width="40" height="40" viewBox="0 0 40 40" fill="none" xmlns="http://www.w3.org/2000/svg">
<g id="Frame 22" clip-path="url(#clip0_6926_9153)">
<path id="Union" fill-rule="evenodd" clip-rule="evenodd" d="M37.135 20C37.135 29.577 29.3714 37.3406 19.7944 37.3406C10.2174 37.3406 2.45381 29.577 2.45381 20C2.45381 10.423 10.2174 2.65938 19.7944 2.65938C29.3714 2.65938 37.135 10.423 37.135 20ZM39.7944 20C39.7944 31.0457 30.8402 40 19.7944 40C8.74871 40 -0.205566 31.0457 -0.205566 20C-0.205566 8.95427 8.74871 0 19.7944 0C30.8402 0 39.7944 8.95427 39.7944 20ZM21.5859 20.0428C21.5859 21.1495 20.8421 22.0459 19.9238 22.0459C19.0055 22.0459 18.2617 21.1495 18.2617 20.0428V12.0304C18.2617 10.9237 19.0055 10.0273 19.9238 10.0273C20.8421 10.0273 21.5859 10.9237 21.5859 12.0304V20.0428ZM21.5859 27.6458C21.5859 28.5641 20.8421 29.3079 19.9238 29.3079C19.0055 29.3079 18.2617 28.5641 18.2617 27.6458C18.2617 26.7274 19.0055 25.9836 19.9238 25.9836C20.8421 25.9836 21.5859 26.7274 21.5859 27.6458Z" fill="#B85C00"/>
</g>
<defs>
<clipPath id="clip0_6926_9153">
<rect width="40" height="40" fill="white"/>
</clipPath>
</defs>
</svg>
