<svg width="40" height="40" viewBox="0 0 40 40" fill="none" xmlns="http://www.w3.org/2000/svg">
<g id="Frame 22" clip-path="url(#clip0_6926_8766)">
<path id="Union" fill-rule="evenodd" clip-rule="evenodd" d="M37.3406 20C37.3406 29.577 29.577 37.3406 20 37.3406C10.423 37.3406 2.65938 29.577 2.65938 20C2.65938 10.423 10.423 2.65938 20 2.65938C29.577 2.65938 37.3406 10.423 37.3406 20ZM40 20C40 31.0457 31.0457 40 20 40C8.95428 40 0 31.0457 0 20C0 8.95428 8.95428 0 20 0C31.0457 0 40 8.95428 40 20ZM28.4714 13.4859C27.8743 12.8887 26.9061 12.8887 26.3089 13.4859L15.4757 24.3191L12.1145 20.9579C11.5173 20.3608 10.5491 20.3608 9.95196 20.9579C9.3548 21.5551 9.3548 22.5233 9.95197 23.1205L14.3205 27.489C14.662 27.8305 15.1252 27.9766 15.57 27.9276C15.9573 27.9248 16.3444 27.7755 16.6401 27.4798L28.4714 15.6484C29.0686 15.0513 29.0686 14.0831 28.4714 13.4859Z" fill="#007644"/>
</g>
<defs>
<clipPath id="clip0_6926_8766">
<rect width="40" height="40" fill="white"/>
</clipPath>
</defs>
</svg>
