<svg width="40" height="40" viewBox="0 0 40 40" fill="none" xmlns="http://www.w3.org/2000/svg">
<g id="Frame 22" clip-path="url(#clip0_6926_9134)">
<path id="Union" fill-rule="evenodd" clip-rule="evenodd" d="M37.1353 20C37.1353 29.577 29.3717 37.3406 19.7947 37.3406C10.2177 37.3406 2.45406 29.577 2.45406 20C2.45406 10.423 10.2177 2.65938 19.7947 2.65938C29.3717 2.65938 37.1353 10.423 37.1353 20ZM39.7947 20C39.7947 31.0457 30.8404 40 19.7947 40C8.74895 40 -0.205322 31.0457 -0.205322 20C-0.205322 8.95427 8.74895 0 19.7947 0C30.8404 0 39.7947 8.95427 39.7947 20ZM12.0118 14.7103C11.3968 14.0953 11.3968 13.0982 12.0118 12.4831C12.6268 11.8681 13.624 11.8681 14.239 12.4831L19.7907 18.0349L25.3382 12.4874C25.9532 11.8724 26.9503 11.8724 27.5654 12.4874C28.1804 13.1024 28.1804 14.0996 27.5654 14.7146L22.0179 20.2621L27.4503 25.6945C28.0653 26.3095 28.0653 27.3066 27.4503 27.9217C26.8353 28.5367 25.8381 28.5367 25.2231 27.9217L19.7907 22.4893L14.354 27.9259C13.739 28.541 12.7419 28.541 12.1268 27.926C11.5118 27.3109 11.5118 26.3138 12.1268 25.6988L17.5635 20.2621L12.0118 14.7103Z" fill="#D40404"/>
</g>
<defs>
<clipPath id="clip0_6926_9134">
<rect width="40" height="40" fill="white"/>
</clipPath>
</defs>
</svg>
