<svg width="40" height="40" viewBox="0 0 40 40" fill="none" xmlns="http://www.w3.org/2000/svg">
<g id="Frame 45">
<path id="Ellipse 10 (Stroke)" fill-rule="evenodd" clip-rule="evenodd" d="M20 37.2C29.4993 37.2 37.2 29.4993 37.2 20C37.2 10.5007 29.4993 2.8 20 2.8C10.5007 2.8 2.8 10.5007 2.8 20C2.8 29.4993 10.5007 37.2 20 37.2ZM20 40C31.0457 40 40 31.0457 40 20C40 8.95431 31.0457 0 20 0C8.95431 0 0 8.95431 0 20C0 31.0457 8.95431 40 20 40Z" fill="#C1BFB8"/>
<path id="Union" fill-rule="evenodd" clip-rule="evenodd" d="M16.2667 15.6933C16.2667 13.6061 17.9587 11.9141 20.0459 11.9141C22.1332 11.9141 23.8252 13.6061 23.8252 15.6933C23.8252 17.7805 22.1332 19.4726 20.0459 19.4726V20.8059C20.0459 19.4726 20.0453 19.4726 20.0446 19.4726L20.0433 19.4726L20.0406 19.4726L20.035 19.4726L20.0229 19.4727L19.9955 19.4734C19.9758 19.4741 19.9531 19.4752 19.9278 19.477C19.8777 19.4806 19.8147 19.4871 19.7427 19.4991C19.6049 19.5221 19.4008 19.5705 19.1806 19.6806C18.9551 19.7933 18.6891 19.9833 18.4825 20.2933C18.2702 20.6117 18.1744 20.9762 18.1744 21.3441V24.304C18.1744 25.0403 18.7714 25.6373 19.5078 25.6373C20.2442 25.6373 20.8411 25.0403 20.8411 24.304V22.0907C24.0259 21.6989 26.4918 18.9841 26.4918 15.6933C26.4918 12.1334 23.6059 9.24744 20.0459 9.24744C16.486 9.24744 13.6 12.1334 13.6 15.6933C13.6 16.4297 14.197 17.0267 14.9334 17.0267C15.6697 17.0267 16.2667 16.4297 16.2667 15.6933ZM19.5 30.7136C20.2364 30.7136 20.8334 30.1166 20.8334 29.3803C20.8334 28.6439 20.2364 28.0469 19.5 28.0469C18.7637 28.0469 18.1667 28.6439 18.1667 29.3803C18.1667 30.1166 18.7637 30.7136 19.5 30.7136Z" fill="#C1BFB8"/>
</g>
</svg>
