<svg xmlns="http://www.w3.org/2000/svg" width="80" height="60" viewBox="0 0 80 60">
    <defs>
        <filter id="a" width="130%" height="130%" x="-15%" y="-15%" filterUnits="objectBoundingBox">
            <feOffset in="SourceAlpha" result="shadowOffsetOuter1"/>
            <feGaussianBlur in="shadowOffsetOuter1" result="shadowBlurOuter1" stdDeviation="5"/>
            <feColorMatrix in="shadowBlurOuter1" result="shadowMatrixOuter1" values="0 0 0 0 0 0 0 0 0 0 0 0 0 0 0 0 0 0 0.166779891 0"/>
            <feMerge>
                <feMergeNode in="shadowMatrixOuter1"/>
                <feMergeNode in="SourceGraphic"/>
            </feMerge>
        </filter>
    </defs>
    <path fill="gray" fill-rule="evenodd" d="M65 62.5h10V45H65v17.5zM77.5 40h-15a2.507 2.507 0 0 0-2.5 2.5v25c0 1.375 1.125 2.5 2.5 2.5h15c1.375 0 2.5-1.125 2.5-2.5v-25c0-1.375-1.125-2.5-2.5-2.5zM30 35h45v-5H30c-2.75 0-5 2.25-5 5v27.5h-5V70h35v-7.5H30V35z" filter="url(#a)" transform="translate(-10 -20)"/>
</svg>
