<svg xmlns="http://www.w3.org/2000/svg" width="50" height="50" viewBox="0 0 50 50">
    <g fill="none" fill-rule="evenodd">
        <path d="M10 10h30v30H10z"/>
        <path fill="#242E39" d="M29.798 37.397c4.631-1.894 7.894-6.447 7.894-11.762 0-7.015-5.682-12.7-12.692-12.7s-12.692 5.685-12.692 12.7c0 5.302 3.246 9.845 7.859 11.747l.046.018a1.155 1.155 0 0 1-.851 2.146l-.001.002C13.871 37.318 10 31.928 10 25.635c0-8.29 6.716-15.01 15-15.01 8.284 0 15 6.72 15 15.01 0 6.282-3.857 11.662-9.33 13.9l-.015.006a1.154 1.154 0 1 1-.857-2.144zm-1.52-3.823a8.662 8.662 0 0 0 5.376-8.017c0-4.782-3.875-8.66-8.654-8.66-4.78 0-8.654 3.878-8.654 8.66a8.662 8.662 0 0 0 5.408 8.029 1.155 1.155 0 0 1-.855 2.145v.001a10.972 10.972 0 0 1-6.86-10.175c0-6.058 4.907-10.969 10.961-10.969S35.962 19.5 35.962 25.557c0 4.59-2.819 8.523-6.819 10.158l-.016.006a1.154 1.154 0 1 1-.849-2.147zm-8.97-6.511a.484.484 0 0 1-.098-.7l.407-.505-.585-.154a.487.487 0 1 1 .283-.932l.606.208-.043-.608a.505.505 0 0 1 .504-.541.5.5 0 0 1 .5.54l-.05.61.616-.21a.489.489 0 0 1 .626.32.486.486 0 0 1-.343.612l-.594.155.407.506a.484.484 0 0 1-.098.699.493.493 0 0 1-.7-.136l-.37-.575-.37.575a.493.493 0 0 1-.698.136zm4.61 0a.484.484 0 0 1-.098-.7l.406-.505-.584-.154a.487.487 0 1 1 .283-.932l.605.208-.042-.608a.505.505 0 0 1 .503-.541.5.5 0 0 1 .5.54l-.049.61.616-.21a.489.489 0 0 1 .626.32.486.486 0 0 1-.343.612l-.595.155.407.506a.484.484 0 0 1-.098.699.493.493 0 0 1-.699-.136l-.37-.575-.37.575a.493.493 0 0 1-.699.136zm4.615 0a.484.484 0 0 1-.098-.7l.407-.505-.585-.154a.487.487 0 1 1 .283-.932l.606.208-.043-.608a.505.505 0 0 1 .504-.541.5.5 0 0 1 .5.54l-.05.61.616-.21a.489.489 0 0 1 .626.32.486.486 0 0 1-.343.612l-.594.155.407.506a.484.484 0 0 1-.098.699.493.493 0 0 1-.7-.136l-.37-.575-.37.575a.493.493 0 0 1-.698.136z"/>
        <path fill="gray" d="M25 50C11.193 50 0 38.807 0 25S11.193 0 25 0s25 11.193 25 25-11.193 25-25 25zm0-2c12.703 0 23-10.297 23-23S37.703 2 25 2 2 12.297 2 25s10.297 23 23 23z" opacity=".498"/>
        <g transform="translate(34 34)">
            <circle cx="8" cy="8" r="8" fill="gray"/>
            <path fill="#FFF" d="M8.15 3.522c-1.607 0-2.909 1.326-2.909 2.962h1.455c0-.814.655-1.48 1.454-1.48.8 0 1.455.666 1.455 1.48 0 1.482-2.182 1.296-2.182 3.703h1.455c0-1.666 2.182-1.851 2.182-3.703 0-1.636-1.302-2.962-2.91-2.962zm-.727 8.886h1.455v-1.48H7.423v1.48z"/>
        </g>
    </g>
</svg>
