<svg xmlns="http://www.w3.org/2000/svg" width="30" height="28" viewBox="0 0 30 28">
    <g fill="#C3C3C3" fill-rule="evenodd">
        <path d="M1.215 13.914l2.675.364-1.926 2.059 1.786 1.222 1.34-2.479 1.336 2.482 1.779-1.22-1.913-2.061 2.677-.36-.711-1.973-2.443 1.053.423-2.803-2.285-.002.417 2.803-2.46-1.056zM11.338 13.924l2.676.365-1.926 2.058 1.786 1.222 1.34-2.479 1.336 2.482 1.778-1.22-1.912-2.061 2.677-.36-.711-1.972-2.443 1.052.423-2.802-2.285-.003.416 2.803-2.46-1.056zM24.617 13.019l-2.46-1.057-.695 1.972 2.675.364-1.926 2.059 1.787 1.222 1.34-2.48 1.335 2.483 1.78-1.22-1.913-2.061 2.676-.36-.71-1.973-2.444 1.053.424-2.803-2.285-.002zM0 2.5h30V.833H0zM0 27.5h30v-1.667H0z"/>
    </g>
</svg>
