<svg width="20" height="18" viewBox="0 0 20 18" xmlns="http://www.w3.org/2000/svg"><title>E8413A4C-C6FC-4D26-A3E0-5710D58CA4E5</title><path d="M9.859 5.703l2.865 2.985.018-.152c0-1.573-1.22-2.843-2.728-2.843l-.155.01zm-3.92.74L7.35 7.91c-.045.2-.073.408-.073.616 0 1.573 1.219 2.842 2.728 2.842.2 0 .4-.029.59-.075l1.411 1.467a4.355 4.355 0 0 1-2 .503c-2.51 0-4.548-2.122-4.548-4.737 0-.747.182-1.45.482-2.084zM.91 1.202l2.074 2.16.418.435A11.16 11.16 0 0 0 0 8.526c1.573 4.159 5.457 7.106 10.004 7.106 1.41 0 2.757-.285 3.984-.796l.382.398L17.034 18l1.156-1.203L2.064 0 .909 1.203zm9.095 2.586c2.51 0 4.548 2.123 4.548 4.737a4.77 4.77 0 0 1-.328 1.733l2.656 2.768a11.202 11.202 0 0 0 3.12-4.5C18.426 4.367 14.543 1.42 9.996 1.42c-1.274 0-2.493.238-3.62.663l1.963 2.047a4.275 4.275 0 0 1 1.665-.342z" fill="#666" fill-rule="evenodd"/></svg>