<svg width="20" height="14" viewBox="0 0 20 14" xmlns="http://www.w3.org/2000/svg"><title>2CCCDAC7-ED7A-4857-AEED-6D660A8DCFB0</title><path d="M10 4.2C8.49 4.2 7.273 5.45 7.273 7c0 1.55 1.218 2.8 2.727 2.8 1.51 0 2.727-1.25 2.727-2.8 0-1.55-1.218-2.8-2.727-2.8m0 7.467c-2.51 0-4.545-2.091-4.545-4.667 0-2.576 2.036-4.667 4.545-4.667 2.51 0 4.545 2.091 4.545 4.667 0 2.576-2.036 4.667-4.545 4.667M10 0C5.455 0 1.573 2.903 0 7c1.573 4.097 5.455 7 10 7s8.427-2.903 10-7c-1.573-4.097-5.455-7-10-7" fill="#666" fill-rule="evenodd"/></svg>