<svg xmlns="http://www.w3.org/2000/svg" width="62" height="62" viewBox="0 0 62 62">
    <g fill="none" fill-rule="evenodd">
        <path d="M0 0h62v62H0z"/>
        <path fill="gray" d="M40.915 56.603c9.572-3.914 16.316-13.323 16.316-24.308C57.23 17.799 45.487 6.047 31 6.047c-14.487 0-26.23 11.752-26.23 26.248 0 10.957 6.709 20.346 16.241 24.277l.096.037a2.387 2.387 0 0 1-1.76 4.435l-.001.004C8.001 56.44 0 45.302 0 32.295c0-17.132 13.88-31.02 31-31.02 17.12 0 31 13.888 31 31.02 0 12.982-7.97 24.102-19.282 28.727l-.03.012a2.387 2.387 0 1 1-1.773-4.43zm-3.14-7.901c6.518-2.672 11.11-9.083 11.11-16.568 0-9.884-8.008-17.896-17.885-17.896-9.877 0-17.885 8.012-17.885 17.896 0 7.482 4.588 13.89 11.102 16.564l.074.029a2.387 2.387 0 0 1-1.765 4.433l-.002.003C14.212 49.805 8.346 41.655 8.346 32.134 8.346 19.614 18.49 9.466 31 9.466s22.654 10.149 22.654 22.668c0 9.488-5.825 17.614-14.091 20.993v-.001l-.035.014a2.387 2.387 0 1 1-1.753-4.438zm-18.162-13.19l-.745-.526a.577.577 0 0 1-.116-.833l1.123-1.397-1.64-.432a.577.577 0 0 1-.406-.725l.26-.855a.577.577 0 0 1 .74-.378l1.674.576-.124-1.758a.577.577 0 0 1 .576-.617h.997a.577.577 0 0 1 .575.622l-.14 1.753 1.697-.578a.577.577 0 0 1 .739.378l.26.856a.577.577 0 0 1-.407.725l-1.66.433 1.123 1.397a.577.577 0 0 1-.116.833l-.745.527a.577.577 0 0 1-.819-.16l-1.014-1.576-1.014 1.577a.577.577 0 0 1-.818.159zm9.526 0l-.744-.526a.577.577 0 0 1-.117-.833l1.123-1.397-1.64-.432a.577.577 0 0 1-.405-.725l.26-.855a.577.577 0 0 1 .739-.378l1.675.576-.124-1.758a.577.577 0 0 1 .575-.617h.997a.577.577 0 0 1 .575.622l-.139 1.753 1.697-.578a.577.577 0 0 1 .738.378l.26.856a.577.577 0 0 1-.407.725l-1.66.433 1.124 1.397a.577.577 0 0 1-.117.833l-.745.527a.577.577 0 0 1-.818-.16l-1.014-1.576-1.014 1.577a.577.577 0 0 1-.819.159zm9.539 0l-.745-.526a.577.577 0 0 1-.116-.833l1.123-1.397-1.64-.432a.577.577 0 0 1-.406-.725l.26-.855a.577.577 0 0 1 .74-.378l1.674.576-.124-1.758a.577.577 0 0 1 .576-.617h.997a.577.577 0 0 1 .575.622l-.14 1.753 1.697-.578a.577.577 0 0 1 .739.378l.26.856a.577.577 0 0 1-.407.725l-1.66.433 1.123 1.397a.577.577 0 0 1-.116.833l-.745.527a.577.577 0 0 1-.819-.16l-1.014-1.576-1.014 1.577a.577.577 0 0 1-.818.159z"/>
    </g>
</svg>
