<svg xmlns="http://www.w3.org/2000/svg" width="16" height="16" viewBox="0 0 16 16">
    <g fill="none" fill-rule="evenodd">
        <g fill="#666">
            <g>
                <g>
                    <path d="M8 0c4.42 0 8 3.58 8 8s-3.58 8-8 8-8-3.58-8-8 3.58-8 8-8zm3.027 4.11c-.18-.18-.47-.18-.65 0L8 6.487 5.623 4.11c-.18-.18-.47-.18-.65 0l-.863.863c-.18.18-.18.47 0 .65L6.487 8 4.11 10.377c-.18.18-.18.47 0 .65l.863.863c.18.18.47.18.65 0L8 9.513l2.377 2.377c.18.18.47.18.65 0l.863-.863c.18-.18.18-.47 0-.65L9.513 8l2.377-2.377c.18-.18.18-.47 0-.65z" transform="translate(-1414 -85) translate(0 83) translate(1414 2)"/>
                </g>
            </g>
        </g>
    </g>
</svg>
