<svg xmlns="http://www.w3.org/2000/svg" width="30" height="30" viewBox="0 0 30 30">
    <g fill="none" fill-rule="evenodd">
        <g>
            <g>
                <g>
                    <g>
                        <g fill="#FFF" transform="translate(-1278 -116) translate(0 83) translate(1196 32) translate(82 1)">
                            <rect width="30" height="30" rx="15"/>
                        </g>
                        <g fill="#666">
                            <path d="M10 0c5.523 0 10 4.48 10 10.006 0 4.188-2.571 7.775-6.22 9.267l-.01.004c-.394.16-.842-.031-1.001-.425-.16-.394.031-.843.425-1.002l.002-.001.002-.001c3.088-1.263 5.264-4.298 5.264-7.842 0-4.676-3.789-8.467-8.462-8.467S1.538 5.33 1.538 10.006c0 3.535 2.165 6.564 5.24 7.832l.03.012c.395.159.585.608.426 1.002-.158.391-.601.582-.993.429C2.58 17.796 0 14.203 0 10.007 0 4.48 4.477 0 10 0zm0 2.642c4.036 0 7.308 3.274 7.308 7.313 0 2.967-1.767 5.522-4.306 6.668l-.24.103-.01.005c-.395.159-.843-.032-1.002-.426-.16-.394.03-.842.425-1.002l.01-.004c2.103-.862 3.584-2.93 3.584-5.344 0-3.189-2.583-5.773-5.769-5.773S4.23 6.766 4.23 9.955c0 2.413 1.48 4.48 3.582 5.343l.024.01c.394.158.584.607.425 1.001-.158.392-.602.583-.995.428v.001c-2.682-1.083-4.574-3.712-4.574-6.783 0-4.039 3.272-7.313 7.308-7.313zM6.921 8.804c.185 0 .334.15.334.334v.026l-.033.406.41-.14c.17-.058.356.033.414.204l.003.01c.052.171-.044.352-.216.404l-.012.004-.397.103.272.338c.111.139.09.342-.05.454l-.015.012c-.149.104-.354.07-.458-.079l-.009-.012-.246-.383-.247.383c-.098.153-.301.197-.454.099l-.012-.008c-.145-.104-.18-.305-.077-.45l.012-.016.271-.338-.39-.102c-.173-.046-.277-.224-.231-.397l.003-.012c.052-.172.234-.269.406-.216l.011.003.404.14-.029-.407c-.013-.185.127-.346.313-.36h.023zm3.073 0c.185 0 .334.15.334.334v.026l-.033.406.41-.14c.17-.058.356.033.414.204l.003.01c.052.171-.044.352-.216.404l-.012.004-.396.103.27.338c.113.139.09.342-.049.454l-.015.012c-.149.104-.354.07-.458-.079l-.008-.012-.247-.383-.247.383c-.098.153-.301.197-.454.099l-.012-.008c-.145-.104-.18-.305-.077-.45l.012-.016.271-.338-.39-.102c-.173-.046-.277-.224-.231-.397l.003-.012c.052-.172.234-.269.406-.216l.011.003.404.14-.029-.407c-.013-.185.127-.346.313-.36h.023zm3.077 0c.185 0 .334.15.334.334v.026l-.033.406.41-.14c.17-.058.356.033.414.204l.003.01c.052.171-.044.352-.216.404l-.012.004-.397.103.272.338c.111.139.09.342-.05.454l-.015.012c-.149.104-.354.07-.458-.079l-.009-.012-.246-.383-.247.383c-.098.153-.301.197-.454.099l-.012-.008c-.145-.104-.18-.305-.077-.45l.012-.016.271-.338-.39-.102c-.173-.046-.277-.224-.231-.397l.003-.012c.052-.172.234-.269.406-.216l.011.003.404.14-.029-.407c-.013-.185.127-.346.313-.36h.023z" transform="translate(-1278 -116) translate(0 83) translate(1196 32) translate(82 1) translate(5 5)"/>
                        </g>
                    </g>
                </g>
            </g>
        </g>
    </g>
</svg>
