<svg xmlns="http://www.w3.org/2000/svg" width="30" height="30" viewBox="0 0 30 30">
    <g fill="none" fill-rule="evenodd">
        <g>
            <g>
                <g>
                    <g fill="#FFF" transform="translate(-871 -116) translate(0 83) translate(871 33)">
                        <rect width="30" height="30" rx="15"/>
                    </g>
                    <g fill="#666" fill-rule="nonzero">
                        <path d="M14.536 7.857h-1.179V4.714c0-.868-.703-1.571-1.571-1.571H8.643V1.964C8.643.88 7.763 0 6.679 0 5.594 0 4.714.88 4.714 1.964v1.179H1.571c-.868 0-1.563.703-1.563 1.571L.004 7.7h1.175c1.17 0 2.121.95 2.121 2.121s-.95 2.122-2.121 2.122H.004L0 14.929c0 .868.703 1.571 1.571 1.571h2.986v-1.179c0-1.17.95-2.121 2.122-2.121 1.17 0 2.121.95 2.121 2.121V16.5h2.986c.868 0 1.571-.703 1.571-1.571v-3.143h1.179c1.084 0 1.964-.88 1.964-1.965 0-1.084-.88-1.964-1.964-1.964z" transform="translate(-871 -116) translate(0 83) translate(871 33) translate(7.5 6)"/>
                    </g>
                </g>
            </g>
        </g>
    </g>
</svg>
