<svg xmlns="http://www.w3.org/2000/svg" xmlns:xlink="http://www.w3.org/1999/xlink" width="20" height="20" viewBox="0 0 20 20">
    <defs>
        <path id="odnolba6ca" d="M12.813 3.018L16.749 3.018 16.749 6.919 12.813 6.919z"/>
    </defs>
    <g fill="none" fill-rule="evenodd">
        <g>
            <g>
                <g>
                    <g transform="translate(-1444 -1609) translate(1204 1335) translate(0 264) translate(240 10)">
                        <path fill="#777" d="M14.515 8.046c-.028.022-.064.044-.093.073-2.192 2.19-4.385 4.378-6.571 6.573-.339.34-.715.604-1.168.757-.651.22-1.3.447-1.957.652-.25.079-.513.13-.774.155-.313.03-.467-.131-.472-.449-.004-.277.069-.541.146-.803.186-.625.365-1.252.575-1.87.15-.441.407-.82.745-1.157 2.235-2.222 4.46-4.454 6.689-6.683.023-.023.042-.05.057-.068l2.823 2.82"/>
                        <mask id="6ix2shvwdb" fill="#fff">
                            <use xlink:href="#odnolba6ca"/>
                        </mask>
                        <path fill="#777" d="M12.813 4.106c.265-.254.516-.537.81-.767.597-.468 1.425-.419 2.012.109.302.271.603.55.81.909.17.291.3.593.304.937.004.366-.146.668-.401.921-.23.228-.463.454-.695.68-.01.01-.022.02-.028.024l-2.812-2.813" mask="url(#6ix2shvwdb)"/>
                    </g>
                </g>
            </g>
        </g>
    </g>
</svg>
