<svg xmlns="http://www.w3.org/2000/svg" xmlns:xlink="http://www.w3.org/1999/xlink" width="20" height="20" viewBox="0 0 20 20">
    <defs>
        <path id="5mywsf8vra" d="M9.813 0.018L13.749 0.018 13.749 3.919 9.813 3.919z"/>
    </defs>
    <g fill="none" fill-rule="evenodd">
        <g>
            <g>
                <g>
                    <g>
                        <g transform="translate(-1094 -1609) translate(854 1335) translate(0 264) translate(240 10) translate(3 3)">
                            <path fill="#333" d="M11.515 5.046c-.028.022-.064.044-.093.073-2.192 2.19-4.385 4.378-6.571 6.573-.339.34-.715.604-1.168.757-.651.22-1.3.447-1.957.652-.25.079-.513.13-.774.155-.313.03-.467-.131-.472-.449-.004-.277.069-.541.146-.803.186-.625.365-1.252.575-1.87.15-.441.407-.82.745-1.157 2.235-2.222 4.46-4.454 6.689-6.683.023-.023.042-.05.057-.068l2.823 2.82"/>
                            <mask id="urwr810ggb" fill="#fff">
                                <use xlink:href="#5mywsf8vra"/>
                            </mask>
                            <path fill="#333" d="M9.813 1.106c.265-.254.516-.537.81-.767.597-.468 1.425-.419 2.012.109.302.271.603.55.81.909.17.291.3.593.304.937.004.366-.146.668-.401.921-.23.228-.463.454-.695.68-.01.01-.022.02-.028.024L9.813 1.106" mask="url(#urwr810ggb)"/>
                        </g>
                    </g>
                </g>
            </g>
        </g>
    </g>
</svg>
