<svg xmlns="http://www.w3.org/2000/svg" width="36" height="36" viewBox="0 0 36 36">
    <g fill="none" fill-rule="evenodd">
        <g fill="#FFF">
            <g>
                <g>
                    <g>
                        <path d="M20.436 4.21l14.06 24.223c1.08 1.863-.277 4.192-2.437 4.192H3.941c-2.165 0-3.516-2.332-2.436-4.192L15.564 4.21c1.082-1.864 3.792-1.86 4.872 0zM18 23.186c-1.602 0-2.9 1.29-2.9 2.882s1.298 2.883 2.9 2.883c1.602 0 2.9-1.29 2.9-2.883 0-1.591-1.298-2.882-2.9-2.882zm1.74-11.874h-3.48c-.35 0-.633.247-.633.552v8.831c0 .305.283.552.633.552h3.48c.35 0 .633-.247.633-.552v-8.83c0-.306-.283-.553-.633-.553z" transform="translate(-1766 -614) translate(1450 332) translate(286 252) translate(30 30)"/>
                    </g>
                </g>
            </g>
        </g>
    </g>
</svg>
