<?xml version="1.0" encoding="UTF-8" standalone="no"?>
<svg width="265px" height="95px" viewBox="0 0 265 95" version="1.1" xmlns="http://www.w3.org/2000/svg" xmlns:xlink="http://www.w3.org/1999/xlink">
    <!-- Generator: Sketch 50.2 (55047) - http://www.bohemiancoding.com/sketch -->
    <title>img_import-edge-2</title>
    <desc>Created with Sketch.</desc>
    <defs>
        <rect id="path-1" x="0" y="0" width="203.576159" height="71.0761589"></rect>
    </defs>
    <g id="Extension:-Import-Tool" stroke="none" stroke-width="1" fill="none" fill-rule="evenodd">
        <g id="Import_Steps-Edge" transform="translate(-587.000000, -439.000000)">
            <g id="2" transform="translate(587.000000, 361.000000)">
                <g id="img_import-edge-2" transform="translate(0.000000, 78.000000)">
                    <rect id="Rectangle-9" fill="#36ADE1" x="0" y="0" width="265" height="94.7682119" rx="5"></rect>
                    <g id="Group-11" transform="translate(30.956954, 12.284768)">
                        <g id="Page-1">
                            <mask id="mask-2" fill="white">
                                <use xlink:href="#path-1"></use>
                            </mask>
                            <use id="Mask" fill="#D8D8D8" xlink:href="#path-1"></use>
                            <g mask="url(#mask-2)">
                                <g transform="translate(-0.877483, 0.000000)">
                                    <g id="Group-109" stroke-width="1" fill="none">
                                        <path d="M205.052819,2.36763931 L205.052819,129.933611 C205.052819,131.180388 204.193837,132.184514 203.135867,132.184514 L2.27247647,132.184514 C1.21054194,132.184514 0.355920498,131.180388 0.355920498,129.933611 L0.355920498,2.36763931 C0.355920498,1.12525226 1.21054194,0.116735693 2.27247647,0.116735693 L203.135867,0.116735693 C204.194234,0.116735693 205.052819,1.12525226 205.052819,2.36763931 Z" id="Fill-1" fill="#FFFFFF"></path>
                                        <path d="M205.052819,129.933611 C205.052819,131.180388 204.193837,132.184514 203.135867,132.184514 L2.27247647,132.184514 C1.21054194,132.184514 0.355920498,131.180388 0.355920498,129.933611 L0.355920498,2.36763931 C0.355920498,1.12525226 1.21054194,0.116735693 2.27247647,0.116735693 L203.135867,0.116735693 C204.194234,0.116735693 205.052819,1.12525226 205.052819,2.36763931 L205.052819,129.933611 Z" id="Stroke-3" stroke="#D3D3D3"></path>
                                        <path d="M0.896797566,2.26950151 L0.896797566,130.032227 C0.896797566,131.094223 1.75102262,131.955473 2.8050293,131.955473 L49.3672314,131.955473 L49.3672314,0.34665512 L2.8050293,0.34665512 C1.75062622,0.34665512 0.896797566,1.20750602 0.896797566,2.26950151" id="Fill-5" fill="#EAEBEC"></path>
                                        <polygon id="Fill-7" fill="#EAEBEC" points="123.514996 131.955233 124.980458 131.955233 124.980458 0.346415663 123.514996 0.346415663"></polygon>
                                        <path d="M202.79045,0.345976657 L2.62114299,0.345976657 C1.56634352,0.345976657 0.711325686,1.20602937 0.711325686,2.26722666 L0.711325686,19.6382959 L204.700664,19.6382959 L204.700664,2.26722666 C204.700664,1.20563027 203.84525,0.345976657 202.79045,0.345976657" id="Fill-9" fill="#465558"></path>
                                        <path d="M203.438961,19.0968675 L1.26546912,19.0968675 C0.570535423,19.0968675 0.00376572528,18.8578087 0.00376572528,18.5664684 L0.00376572528,11.5303991 C0.00376572528,11.2382605 0.571484786,11 1.26546912,11 L203.438961,11 C204.132945,11 204.700664,11.2386596 204.700664,11.5303991 L204.700664,18.5664684 C204.700664,18.8578087 204.133894,19.0968675 203.438961,19.0968675" id="Fill-15" fill="#FFFFFF"></path>
                                        <path d="M136.941285,17.7272214 L52.5268051,17.7272214 C52.2366461,17.7272214 52,17.5648348 52,17.3669345 L52,12.5875083 C52,12.3890658 52.2370425,12.2272214 52.5268051,12.2272214 L136.941285,12.2272214 C137.231048,12.2272214 137.46809,12.3893369 137.46809,12.5875083 L137.46809,17.3669345 C137.46809,17.5648348 137.231444,17.7272214 136.941285,17.7272214" id="Fill-15-Copy" stroke="#CECECE" stroke-width="0.5" fill="#FFFFFF"></path>
                                        <polygon id="Page-1" fill="#A5A5A5" points="6 13 4 14.9996667 6 17 6.46966667 16.5296667 5.27666667 15.333 10 15.333 10 14.6663333 5.27666667 14.6663333 6.46966667 13.4696667"></polygon>
                                        <polygon id="Page-1-Copy" fill="#E2E2E2" transform="translate(18.000000, 15.000000) scale(-1, 1) translate(-18.000000, -15.000000) " points="17 13 15 14.9996667 17 17 17.4696667 16.5296667 16.2766667 15.333 21 15.333 21 14.6663333 16.2766667 14.6663333 17.4696667 13.4696667"></polygon>
                                        <polygon id="Page-1-Copy-2" fill="#A5A5A5" transform="translate(46.420530, 15.048434) scale(-1, 1) rotate(-270.000000) translate(-46.420530, -15.048434) " points="45.5871965 13.5484337 43.9205298 15.0481837 45.5871965 16.5484337 45.9785854 16.1956837 44.9844187 15.2981837 48.9205298 15.2981837 48.9205298 14.7981837 44.9844187 14.7981837 45.9785854 13.9006837"></polygon>
                                        <polygon id="Page-1" fill="#A5A5A5" transform="translate(40.619435, 15.000000) scale(1, -1) translate(-40.619435, -15.000000) " points="40.6191655 13.9999973 39 15.6191628 39.3808372 16 40.6194354 14.763831 41.8585734 16 42.2388708 15.6191628 40.6197053 13.9999973"></polygon>
                                        <polygon id="Fill-16" fill="#D3D3D3" points="5.58595796 30.9247816 42.6264246 30.9247816 42.6264246 24.0551355 5.58595796 24.0551355"></polygon>
                                        <polygon id="Fill-17" fill="#A5A5A5" points="5.58595796 39.7571837 42.6264246 39.7571837 42.6264246 32.8875377 5.58595796 32.8875377"></polygon>
                                        <polygon id="Fill-18" fill="#D3D3D3" points="5.58595796 48.5899849 42.6264246 48.5899849 42.6264246 41.7203389 5.58595796 41.7203389"></polygon>
                                        <path d="M63.748021,26.9781574 L63.1344059,25.1251529 L57.6130599,25.1251529 L56.9994449,26.9781574 L56.9994449,28.8311619 L71.1102121,28.8311619 L71.1102121,26.9781574 L63.748021,26.9781574 Z M55.7726112,29.4489631 L56.9998413,35.0574646 C56.9998413,35.6130068 57.6562666,36.2435791 58.1838646,36.2435791 L69.8833784,36.2435791 C70.6507936,36.2435791 71.1106085,35.6497236 71.1106085,35.0203486 L72.3378385,29.4489631 L55.7726112,29.4489631 Z" id="Fill-19" fill="#C4C4C4"></path>
                                        <path d="M105.932191,29.8246724 L104.557899,28.9933547 C104.449684,28.9275038 104.343848,28.9805836 104.343848,29.1122854 L104.343848,30.7773155 C104.343848,30.9086182 104.449684,30.961698 104.557899,30.8958471 L105.929416,30.0649285 C106.038028,29.9994767 106.039613,29.8901242 105.932191,29.8246724" id="Fill-20" fill="#FFFFFF"></path>
                                        <polygon id="Fill-21" fill="#D3D3D3" points="78.2046007 34.3594051 110.858592 34.3594051 110.858592 27.489759 78.2046007 27.489759"></polygon>
                                        <polygon id="Fill-50" fill="#70C6EC" opacity="0.485507246" points="49 66.0816039 123.568099 66.0816039 123.568099 44 49 44"></polygon>
                                        <polygon id="Fill-22" fill="#FFFFFF" points="77.7170383 57.422387 110.858592 57.422387 110.858592 50.552741 77.7170383 50.552741"></polygon>
                                        <g id="zip" transform="translate(58.000000, 47.000000)" fill="#FFFFFF">
                                            <polygon id="Fill-24" points="8.38521783 0.7563125 8.77209655 2.65441491 10.7060938 3.09262274"></polygon>
                                            <polygon id="Fill-25" points="4.70804655 1.21084337 5.54641591 1.21084337 5.54641591 0.366754518 4.70804655 0.366754518"></polygon>
                                            <polygon id="Fill-26" points="4.70804655 2.89862199 5.54641591 2.89862199 5.54641591 2.05453313 4.70804655 2.05453313"></polygon>
                                            <polygon id="Fill-27" points="5.54641591 2.05493223 6.38478528 2.05493223 6.38478528 1.21084337 5.54641591 1.21084337"></polygon>
                                            <polygon id="Fill-28" points="5.54641591 3.74310994 6.38478528 3.74310994 6.38478528 2.89902108 5.54641591 2.89902108"></polygon>
                                            <polygon id="Fill-29" points="4.70804655 4.5871988 5.54641591 4.5871988 5.54641591 3.74310994 4.70804655 3.74310994"></polygon>
                                            <polygon id="Fill-30" points="4.70804655 6.2757756 5.54641591 6.2757756 5.54641591 5.43168675 4.70804655 5.43168675"></polygon>
                                            <polygon id="Fill-31" points="5.54641591 5.43128765 6.38478528 5.43128765 6.38478528 4.5871988 5.54641591 4.5871988"></polygon>
                                            <polygon id="Fill-32" points="5.54641591 7.11986446 6.38478528 7.11986446 6.38478528 6.2757756 5.54641591 6.2757756"></polygon>
                                            <polygon id="Fill-33" points="4.70804655 7.96395331 5.54641591 7.96395331 5.54641591 7.11986446 4.70804655 7.11986446"></polygon>
                                            <polygon id="Fill-34" points="4.70804655 9.65213102 5.54641591 9.65213102 5.54641591 8.80804217 4.70804655 8.80804217"></polygon>
                                            <polygon id="Fill-35" points="5.54641591 8.80764307 6.38478528 8.80764307 6.38478528 7.96355422 5.54641591 7.96355422"></polygon>
                                            <path d="M6.40793458,12.8770693 C6.40793458,13.1189217 6.21290965,13.3152771 5.97269602,13.3152771 L5.15097512,13.3152771 C4.91076149,13.3152771 4.71573656,13.1189217 4.71573656,12.8770693 L4.71573656,10.0534623 L6.40793458,10.0534623 L6.40793458,12.8770693 Z M8.58690215,2.8374006 L8.08348413,0.36659488 L6.62515747,0.36659488 L6.62515747,9.85870331 L4.49772088,9.85870331 L4.49772088,0.36659488 L0.175857437,0.36659488 L0.175857437,14.9216401 L10.9478137,14.9216401 L10.9478137,3.37218976 L8.58690215,2.8374006 Z" id="Fill-36"></path>
                                            <polygon id="Fill-23" points="5.03031335 11.4652259 6.09383345 11.4652259 6.09383345 10.3944503 5.03031335 10.3944503"></polygon>
                                        </g>
                                        <polygon id="Fill-37" fill="#465558" points="154.23499 34.3594051 195.17437 34.3594051 195.17437 27.489759 154.23499 27.489759"></polygon>
                                        <path d="M139.087737,26.8800196 C137.73049,26.8800196 136.453315,27.4124142 135.492064,28.3794247 C134.53121,29.3472334 134.002026,30.6327229 134.002026,32.0000271 C134.002026,33.3669322 134.53121,34.653619 135.49246,35.6218268 C136.452919,36.5876401 137.73049,37.1208328 139.088133,37.1208328 C140.446569,37.1208328 141.724141,36.5880392 142.685392,35.6206295 C143.645057,34.653619 144.174637,33.3677304 144.174637,32.0004262 C144.174637,30.6335211 143.645057,29.3476325 142.684996,28.3794247 C141.722952,27.4124142 140.444984,26.8800196 139.087737,26.8800196 M139.087737,39.4906672 C134.98706,39.489869 131.649042,36.1298765 131.648646,32.0000271 C131.649042,27.8705768 134.98706,24.5105843 139.087737,24.5105843 C143.189603,24.5109834 146.526828,27.8705768 146.526828,32.0000271 C146.526828,36.1302756 143.189603,39.489869 139.087737,39.4906672" id="Fill-38" fill="#FFB819"></path>
                                        <polygon id="Fill-39" fill="#FFB819" points="147.191895 23.9401958 147.772213 23.9401958 147.772213 23.3567169 147.191895 23.3567169"></polygon>
                                        <polygon id="Fill-40" fill="#FFB819" points="147.191895 22.7780271 147.772213 22.7780271 147.772213 22.1929518 147.191895 22.1929518"></polygon>
                                        <polygon id="Fill-41" fill="#FFB819" points="145.559552 24.5065136 146.10142 24.5065136 146.10142 23.9362048 145.559552 23.9362048"></polygon>
                                        <polygon id="Fill-42" fill="#231F20" points="144.485726 25.601634 145.031954 25.601634 145.031954 25.0564684 144.485726 25.0564684"></polygon>
                                        <polygon id="Fill-43" fill="#231F20" points="146.102213 25.0564684 146.709486 25.0564684 146.709486 24.5069127 146.102213 24.5069127"></polygon>
                                        <polygon id="Fill-44" fill="#231F20" points="143.941876 25.0564684 144.485726 25.0564684 144.485726 24.5340512 143.941876 24.5340512"></polygon>
                                        <polygon id="Fill-45" fill="#231F20" points="145.559552 25.601634 146.10142 25.601634 146.10142 25.0564684 145.559552 25.0564684"></polygon>
                                        <polygon id="Fill-46" fill="#231F20" points="146.618316 23.3567169 147.191895 23.3567169 147.191895 22.777628 146.618316 22.777628"></polygon>
                                        <polygon id="Fill-47" fill="#231F20" points="145.559552 23.9362048 146.618316 23.9362048 146.618316 23.3567169 145.559552 23.3567169"></polygon>
                                        <polygon id="Fill-48" fill="#231F20" points="145.032351 25.0564684 145.559552 25.0564684 145.559552 23.9362048 145.032351 23.9362048"></polygon>
                                        <path d="M145.032232,25.6012349 L145.032232,26.1507907 L144.486003,26.1507907 L144.486003,25.6012349 L143.579851,25.6012349 L143.579851,25.9971386 L143.093874,25.9971386 L143.093874,26.4856325 L143.636535,26.4856325 L143.636535,27.0296009 L143.093874,27.0296009 L143.093874,26.4856325 L142.517916,26.4856325 L142.517916,27.3392997 L141.972481,27.3392997 L141.972481,27.8840663 L141.610178,27.8840663 L141.610178,28.4312274 L141.212597,28.4312274 C140.765863,29.100512 139.645659,31.1853916 139.30714,32.0354669 C138.087045,30.3253389 137.139668,29.6476732 136.393658,29.4022289 C135.990527,29.2801054 135.505343,29.721506 136.17485,30.4159337 C137.710076,32.1160843 138.194071,33.5236973 138.660228,34.6467545 C138.906784,35.2386145 140.014304,35.3304066 140.237076,34.7281702 C140.709576,33.4534563 141.394541,32.0214985 142.205559,30.8457605 L142.205559,30.2363404 L142.63842,30.2363404 L142.63842,29.6871837 L143.093478,29.6871837 L143.093478,29.0502259 L143.638517,29.0502259 L143.638517,28.4368148 L143.087928,28.4368148 L143.087928,27.8784789 L143.638517,27.8784789 L143.638517,28.4368148 L144.176818,28.4368148 L144.174836,27.8844654 L144.607299,27.8844654 L144.607299,27.2179744 L145.092087,27.2179744 L145.092087,26.7594127 L145.559433,26.7594127 L145.559433,25.6012349 L145.032232,25.6012349 Z" id="Fill-49" fill="#231F20"></path>
                                        <path d="M63.748021,26.9781574 L63.1344059,25.1251529 L57.6130599,25.1251529 L56.9994449,26.9781574 L56.9994449,28.8311619 L71.1102121,28.8311619 L71.1102121,26.9781574 L63.748021,26.9781574 Z M55.7726112,29.4489631 L56.9998413,35.0574646 C56.9998413,35.6130068 57.6562666,36.2435791 58.1838646,36.2435791 L69.8833784,36.2435791 C70.6507936,36.2435791 71.1106085,35.6497236 71.1106085,35.0203486 L72.3378385,29.4489631 L55.7726112,29.4489631 Z" id="Fill-51" fill="#C4C4C4"></path>
                                        <polygon id="Fill-52" fill="#D3D3D3" points="78.2046007 34.3594051 110.858592 34.3594051 110.858592 27.489759 78.2046007 27.489759"></polygon>
                                        <path d="M119.588343,53.8595854 L118.214052,53.0282676 C118.105837,52.9624167 118,53.0154965 118,53.1471984 L118,54.8118294 C118,54.9435312 118.105837,54.996611 118.214052,54.9307601 L119.585569,54.0998414 C119.693784,54.0343896 119.694973,53.9254363 119.588343,53.8595854" id="Fill-53" fill="#A0A0A0"></path>
                                    </g>
                                    <rect id="Rectangle-3" fill="#FFFFFF" x="128" y="20" width="20" height="22"></rect>
                                    <g id="ic_extension_on" stroke-width="1" fill="none" transform="translate(130.920530, 22.715232)">
                                        <rect id="Rectangle-3" x="0" y="0" width="16" height="16"></rect>
                                        <path d="M10.5588268,14.6116535 L10.5587643,14.6115004 C13.0287837,13.6016259 14.7692308,11.1734549 14.7692308,8.33851724 C14.7692308,4.59755179 11.7385429,1.56490009 8,1.56490009 C4.26145708,1.56490009 1.23076923,4.59755179 1.23076923,8.33851724 C1.23076923,11.1661621 2.96227334,13.5891304 5.42218805,14.6036787 C5.43049039,14.6066319 5.43876783,14.6097747 5.44701544,14.6131091 C5.76213514,14.7405082 5.91437961,15.0994061 5.78706299,15.41473 C5.66068284,15.7277346 5.30634463,15.8801471 4.99292166,15.7577638 L4.99250924,15.7587687 C2.06464753,14.5693629 0,11.6952084 0,8.33851724 C0,3.91737625 3.581722,0.333333333 8,0.333333333 C12.418278,0.333333333 16,3.91737625 16,8.33851724 C16,11.6888826 13.943127,14.5585282 11.0240345,15.7520263 L11.0239519,15.7518237 C11.0213949,15.7528972 11.018827,15.7539553 11.0162481,15.7549979 C10.7011284,15.882397 10.3424629,15.7300539 10.2151463,15.41473 C10.0878297,15.0994061 10.2400741,14.7405082 10.5551938,14.6131091 C10.5564042,14.6126198 10.5576151,14.6121346 10.5588268,14.6116535 Z M9.74838231,12.5725608 C11.430487,11.8830818 12.6153846,10.2285395 12.6153846,8.29707028 C12.6153846,5.74641202 10.5490065,3.67869495 8,3.67869495 C5.45099346,3.67869495 3.38461538,5.74641202 3.38461538,8.29707028 C3.38461538,10.2277617 4.56855888,11.8817491 6.24958573,12.5717274 C6.25592266,12.5740531 6.26224437,12.5764899 6.26854865,12.5790386 C6.58366834,12.7064378 6.73591281,13.0653357 6.60859619,13.3806596 C6.48202603,13.6941347 6.12681183,13.8465346 5.81304146,13.7231395 L5.81275758,13.7238312 C3.66758338,12.8572736 2.15384615,10.7540626 2.15384615,8.29707028 C2.15384615,5.06623648 4.77125839,2.4471282 8,2.4471282 C11.2287416,2.4471282 13.8461538,5.06623648 13.8461538,8.29707028 C13.8461538,10.7454418 12.3430204,12.8425102 10.2097993,13.7146641 L10.2096202,13.714225 C10.206713,13.7154518 10.2037915,13.7166587 10.200856,13.7178455 C9.88573627,13.8452447 9.52707077,13.6929015 9.39975415,13.3775776 C9.27243753,13.0622538 9.424682,12.7033558 9.73980169,12.5759567 C9.74265839,12.5748018 9.74551866,12.5736699 9.74838231,12.5725608 Z M4.96417933,9.10013519 C4.84769861,9.01773133 4.82007386,8.85650352 4.90247772,8.7400228 C4.90553035,8.73570781 4.90871467,8.73148752 4.91202621,8.72736788 L5.12900063,8.45744595 L4.81709511,8.37544954 C4.67831725,8.33896642 4.59539098,8.19688933 4.6318741,8.05811147 C4.63270258,8.05496001 4.63359028,8.05182441 4.63453672,8.04870635 C4.67625057,7.91127901 4.8214732,7.83368789 4.95890054,7.87540175 C4.96194891,7.87632703 4.96498002,7.87730825 4.96799234,7.87834492 L5.29111994,7.98954667 L5.26822367,7.66483398 C5.2577567,7.51639241 5.36960721,7.38757159 5.51804877,7.37710462 C5.52435636,7.37665985 5.53067765,7.37643726 5.5370009,7.37643726 C5.68450882,7.37643726 5.80408761,7.49601606 5.80408761,7.64352397 C5.80408761,7.65057248 5.80380859,7.65761823 5.80325121,7.66464467 L5.77747789,7.98954667 L6.10576014,7.87761706 C6.2420832,7.83113697 6.39027443,7.90396909 6.43675452,8.04029216 C6.43770552,8.04308137 6.43860917,8.0458865 6.43946509,8.04870635 C6.48104671,8.18569807 6.40370155,8.33046038 6.26670982,8.372042 C6.26340878,8.37304398 6.26008807,8.37397996 6.25674966,8.37484939 L5.9395972,8.45744595 L6.15657162,8.72736788 C6.2459646,8.83857512 6.22828066,9.00119373 6.11707342,9.09058671 C6.11295378,9.09389824 6.10873349,9.09708257 6.1044185,9.10013519 C5.98591922,9.18396708 5.8218974,9.15586361 5.73806551,9.03736433 C5.73582823,9.03420186 5.73366115,9.03099031 5.73156584,9.02773204 L5.53429891,8.72097543 L5.33703199,9.02773204 C5.25851987,9.14982099 5.09590057,9.18514699 4.97381162,9.10663487 C4.97055335,9.10453956 4.9673418,9.10237247 4.96417933,9.10013519 Z M7.42264079,9.10013519 C7.30616007,9.01773133 7.27853533,8.85650352 7.36093919,8.7400228 C7.36399182,8.73570781 7.36717614,8.73148752 7.37048767,8.72736788 L7.5874621,8.45744595 L7.27555658,8.37544954 C7.13677872,8.33896642 7.05385245,8.19688933 7.09033557,8.05811147 C7.09116405,8.05496001 7.09205175,8.05182441 7.09299819,8.04870635 C7.13471204,7.91127901 7.27993467,7.83368789 7.41736201,7.87540175 C7.42041038,7.87632703 7.42344149,7.87730825 7.42645381,7.87834492 L7.74958141,7.98954667 L7.72668514,7.66483398 C7.71621817,7.51639241 7.82806868,7.38757159 7.97651024,7.37710462 C7.98281783,7.37665985 7.98913912,7.37643726 7.99546237,7.37643726 C8.14297029,7.37643726 8.26254908,7.49601606 8.26254908,7.64352397 C8.26254908,7.65057248 8.26227006,7.65761823 8.26171268,7.66464467 L8.23593935,7.98954667 L8.56422161,7.87761706 C8.70054467,7.83113697 8.8487359,7.90396909 8.89521599,8.04029216 C8.89616698,8.04308137 8.89707064,8.0458865 8.89792655,8.04870635 C8.93950818,8.18569807 8.86216302,8.33046038 8.72517129,8.372042 C8.72187025,8.37304398 8.71854953,8.37397996 8.71521113,8.37484939 L8.39805867,8.45744595 L8.61503309,8.72736788 C8.70442607,8.83857512 8.68674212,9.00119373 8.57553489,9.09058671 C8.57141525,9.09389824 8.56719496,9.09708257 8.56287997,9.10013519 C8.44438069,9.18396708 8.28035887,9.15586361 8.19652698,9.03736433 C8.1942897,9.03420186 8.19212262,9.03099031 8.19002731,9.02773204 L7.99276038,8.72097543 L7.79549346,9.02773204 C7.71698134,9.14982099 7.55436204,9.18514699 7.43227309,9.10663487 C7.42901481,9.10453956 7.42580327,9.10237247 7.42264079,9.10013519 Z M9.88417926,9.10013519 C9.76769854,9.01773133 9.74007379,8.85650352 9.82247765,8.7400228 C9.82553028,8.73570781 9.8287146,8.73148752 9.83202614,8.72736788 L10.0490006,8.45744595 L9.73709504,8.37544954 C9.59831718,8.33896642 9.51539091,8.19688933 9.55187403,8.05811147 C9.55270251,8.05496001 9.55359021,8.05182441 9.55453665,8.04870635 C9.5962505,7.91127901 9.74147313,7.83368789 9.87890047,7.87540175 C9.88194884,7.87632703 9.88497995,7.87730825 9.88799227,7.87834492 L10.2111199,7.98954667 L10.1882236,7.66483398 C10.1777566,7.51639241 10.2896071,7.38757159 10.4380487,7.37710462 C10.4443563,7.37665985 10.4506776,7.37643726 10.4570008,7.37643726 C10.6045087,7.37643726 10.7240875,7.49601606 10.7240875,7.64352397 C10.7240875,7.65057248 10.7238085,7.65761823 10.7232511,7.66464467 L10.6974778,7.98954667 L11.0257601,7.87761706 C11.1620831,7.83113697 11.3102744,7.90396909 11.3567544,8.04029216 C11.3577054,8.04308137 11.3586091,8.0458865 11.359465,8.04870635 C11.4010466,8.18569807 11.3237015,8.33046038 11.1867098,8.372042 C11.1834087,8.37304398 11.180088,8.37397996 11.1767496,8.37484939 L10.8595971,8.45744595 L11.0765716,8.72736788 C11.1659645,8.83857512 11.1482806,9.00119373 11.0370733,9.09058671 C11.0329537,9.09389824 11.0287334,9.09708257 11.0244184,9.10013519 C10.9059192,9.18396708 10.7418973,9.15586361 10.6580654,9.03736433 C10.6558282,9.03420186 10.6536611,9.03099031 10.6515658,9.02773204 L10.4542988,8.72097543 L10.2570319,9.02773204 C10.1785198,9.14982099 10.0159005,9.18514699 9.89381155,9.10663487 C9.89055328,9.10453956 9.88734173,9.10237247 9.88417926,9.10013519 Z" id="icon_password-manager" fill="#242E39"></path>
                                    </g>
                                </g>
                            </g>
                        </g>
                        <g id="Mouse" transform="translate(148.294702, 30.711921)" fill="#979797" stroke="#FFFFFF">
                            <polygon id="Path-2" points="0 0 0 24.7204602 5.78365986 19.4140551 9.59700602 28.0794702 13.8117776 26.077798 9.73159778 17.6001596 17.5496689 17.1352409"></polygon>
                        </g>
                    </g>
                </g>
            </g>
        </g>
    </g>
</svg>