<svg xmlns="http://www.w3.org/2000/svg" xmlns:xlink="http://www.w3.org/1999/xlink" width="265" height="95" viewBox="0 0 265 95">
    <defs>
        <path id="a" d="M0 0h232v50H0z"/>
    </defs>
    <g fill="none" fill-rule="evenodd">
        <rect width="265" height="94.768" fill="#36ADE1" rx="5"/>
        <g transform="translate(17 23)">
            <mask id="b" fill="#fff">
                <use xlink:href="#a"/>
            </mask>
            <use fill="#D8D8D8" xlink:href="#a"/>
            <g mask="url(#b)">
                <path fill="#FFF" d="M245.467-114.044V68.8c0 2.477-1.718 4.472-3.834 4.472h-401.78c-2.124 0-3.834-1.995-3.834-4.472v-182.843c0-2.468 1.71-4.47 3.834-4.47h401.78c2.116 0 3.834 2.002 3.834 4.47z"/>
                <path stroke="#D3D3D3" d="M245.467 68.8c0 2.477-1.718 4.47-3.834 4.47h-401.78c-2.124 0-3.834-1.993-3.834-4.47v-182.843c0-2.468 1.71-4.472 3.834-4.472h401.78c2.116 0 3.834 2.004 3.834 4.472V68.8z"/>
                <path fill="#D3D3D3" d="M-27.97-12.187h232v-17h-232zM14.03 37.813h95v-25h-95z"/>
                <path fill="#00AEEF" d="M120.03 37.813h95v-25h-95z"/>
                <path fill="gray" d="M59.994 19.55l4.316 4.315 4.135-4.135 1.837 1.837-4.135 4.135 4.377 4.377-1.95 1.95-4.377-4.376-4.117 4.117-1.838-1.838 4.118-4.117-4.316-4.316z"/>
                <path fill="#FFF" d="M176.838 21.174l-1.994-1.994-8.38 8.38-2.74-2.74-1.995 1.995 4.653 4.653.081-.08.081.08z"/>
                <path fill="#00AEEF" d="M14.03 37.813h95v-25h-95z"/>
                <path fill="#FFF" d="M70.838 21.174l-1.994-1.994-8.38 8.38-2.74-2.74-1.995 1.995 4.653 4.653.081-.08.081.08z"/>
                <path stroke="#DDD" d="M176.838 21.174l-1.994-1.994-8.38 8.38-2.74-2.74-1.995 1.995 4.653 4.653.081-.08.081.08z"/>
                <path fill="#D3D3D3" d="M120.03 37.813h95v-25h-95z"/>
                <path fill="gray" d="M165.994 19.55l4.316 4.315 4.135-4.135 1.837 1.837-4.135 4.135 4.377 4.377-1.95 1.95-4.377-4.376-4.117 4.117-1.838-1.838 4.118-4.117-4.316-4.316z"/>
            </g>
        </g>
        <path fill="#979797" stroke="#FFF" d="M107 48v28.172l6.591-6.047L117.937 80l4.803-2.281-4.65-9.661 8.91-.53z"/>
    </g>
</svg>
