<svg xmlns="http://www.w3.org/2000/svg" xmlns:xlink="http://www.w3.org/1999/xlink" width="265" height="95" viewBox="0 0 265 95">
    <defs>
        <path id="a" d="M0 0h206.222v72H0z"/>
        <path id="c" d="M0 205.882h321.557V0H0z"/>
        <filter id="e" width="111.7%" height="135.8%" x="-5.6%" y="-12.8%" filterUnits="objectBoundingBox">
            <feOffset dy="2" in="SourceAlpha" result="shadowOffsetOuter1"/>
            <feGaussianBlur in="shadowOffsetOuter1" result="shadowBlurOuter1" stdDeviation="2"/>
            <feColorMatrix in="shadowBlurOuter1" result="shadowMatrixOuter1" values="0 0 0 0 0 0 0 0 0 0 0 0 0 0 0 0 0 0 0.5 0"/>
            <feMerge>
                <feMergeNode in="shadowMatrixOuter1"/>
                <feMergeNode in="SourceGraphic"/>
            </feMerge>
        </filter>
        <path id="f" d="M9.19.208H.369v7.47H9.19V.208z"/>
    </defs>
    <g fill="none" fill-rule="evenodd">
        <rect width="265" height="94.768" fill="#36ADE1" rx="5"/>
        <g transform="translate(29 11)">
            <mask id="b" fill="#fff">
                <use xlink:href="#a"/>
            </mask>
            <use fill="#D8D8D8" xlink:href="#a"/>
            <g mask="url(#b)">
                <g transform="translate(-120.889)">
                    <path fill="#EAEBEC" d="M321.281 31.202v171.515a3.013 3.013 0 0 1-3.006 3.026H3.285a3.01 3.01 0 0 1-3.005-3.026V31.202c0-1.67 1.34-3.026 3.005-3.026h314.99c1.66 0 3.006 1.356 3.006 3.026z"/>
                    <path fill="#FFF" d="M168.911 17.526H51.057a.605.605 0 0 1-.603-.603V5.472c0-.332.271-.603.603-.603h117.854c.332 0 .603.27.603.603v11.451a.605.605 0 0 1-.603.603"/>
                    <path stroke="#9E9E9E" stroke-width=".5" d="M168.911 17.526H51.057a.605.605 0 0 1-.603-.603V5.472c0-.332.271-.603.603-.603h117.854c.332 0 .603.27.603.603v11.451a.605.605 0 0 1-.603.603z"/>
                    <mask id="d" fill="#fff">
                        <use xlink:href="#c"/>
                    </mask>
                    <path fill="#FFF" d="M.278 201.706h321.001V7.026H.278z" mask="url(#d)"/>
                    <path stroke="#E2E2E2" d="M.278 201.706h321.001V7.026H.278z" mask="url(#d)"/>
                    <path fill="#FFF" d="M250.749 17.526h-76.657a.605.605 0 0 1-.603-.603V5.472c0-.332.272-.603.603-.603h76.657c.332 0 .603.27.603.603v11.451a.605.605 0 0 1-.603.603" mask="url(#d)"/>
                    <path stroke="#9E9E9E" stroke-width=".5" d="M250.749 17.526h-76.657a.605.605 0 0 1-.603-.603V5.472c0-.332.272-.603.603-.603h76.657c.332 0 .603.27.603.603v11.451a.605.605 0 0 1-.603.603z" mask="url(#d)"/>
                    <path stroke="#465468" stroke-width="2" d="M141.214 34.95l2.928-2.928M141.214 32.022l2.928 2.928" mask="url(#d)"/>
                    <path fill="#465558" d="M318.274 0H3.284C1.624 0 .278 2.007.278 4.483V24.36h321.001V4.483c0-2.476-1.345-4.483-3.005-4.483" mask="url(#d)"/>
                    <path fill="#B0B0B0" d="M265.886 22.865v10.62M302.317 22.606v10.621" mask="url(#d)"/>
                    <path fill="#CCC" d="M160.235 40.273H.278V24.362h157.735c1.227 0 2.222.995 2.222 2.223v13.688z" mask="url(#d)"/>
                    <path fill="#B1BDC6" d="M321.3 40.273H160.234V26.585c0-1.228.996-2.223 2.223-2.223H321.3v15.91z" mask="url(#d)"/>
                    <path stroke="#465468" stroke-width="2" d="M152.188 33.465l2.928-2.929M152.188 30.537l2.928 2.928M313.923 33.635l2.928-2.929M313.923 30.707l2.928 2.928" mask="url(#d)"/>
                    <path fill="#FFF" d="M210.492 16.934c0 .588-.351 1.064-.784 1.064h-98.94c-.433 0-.784-.476-.784-1.064V6.901c0-.588.351-1.064.784-1.064h98.94c.433 0 .784.476.784 1.064v10.033zM273.615 17.89h8.356c.92 0 1.668-.746 1.668-1.667V9.596c0-.921-.747-1.668-1.668-1.668h-8.356c-.92 0-1.667.747-1.667 1.668v6.627c0 .921.746 1.668 1.667 1.668" mask="url(#d)"/>
                    <path stroke="#9E9E9E" stroke-width=".5" d="M273.615 17.89h8.356c.92 0 1.668-.746 1.668-1.667V9.596c0-.921-.747-1.668-1.668-1.668h-8.356c-.92 0-1.667.747-1.667 1.668v6.627c0 .921.746 1.668 1.667 1.668z" mask="url(#d)"/>
                    <path fill="#FFF" d="M287.681 17.89h8.356c.92 0 1.668-.746 1.668-1.667V9.596c0-.921-.747-1.668-1.668-1.668h-8.356c-.92 0-1.667.747-1.667 1.668v6.627c0 .921.746 1.668 1.667 1.668" mask="url(#d)"/>
                    <path stroke="#9E9E9E" stroke-width=".5" d="M287.681 17.89h8.356c.92 0 1.668-.746 1.668-1.667V9.596c0-.921-.747-1.668-1.668-1.668h-8.356c-.92 0-1.667.747-1.667 1.668v6.627c0 .921.746 1.668 1.667 1.668z" mask="url(#d)"/>
                    <path fill="#FFF" d="M301.777 17.89h8.357c.92 0 1.667-.746 1.667-1.667V9.596c0-.921-.747-1.668-1.667-1.668h-8.357c-.92 0-1.667.747-1.667 1.668v6.627c0 .921.746 1.668 1.667 1.668" mask="url(#d)"/>
                    <path stroke="#9E9E9E" stroke-width=".5" d="M301.777 17.89h8.357c.92 0 1.667-.746 1.667-1.667V9.596c0-.921-.747-1.668-1.667-1.668h-8.357c-.92 0-1.667.747-1.667 1.668v6.627c0 .921.746 1.668 1.667 1.668z" mask="url(#d)"/>
                    <path fill="#9E9E9E" d="M309.542 13.091h-2.025v-3.038h-3.038v3.038h-2.024l3.543 3.544zM289.58 15.796h5.557v-6.33h-5.558z" mask="url(#d)"/>
                    <path stroke="#FFF" stroke-width=".25" d="M289.58 15.796h5.557v-6.33h-5.558z" mask="url(#d)"/>
                    <path fill="#9E9E9E" d="M288.935 16.353h5.558v-6.33h-5.558z" mask="url(#d)"/>
                    <path stroke="#FFF" stroke-width=".5" d="M288.935 16.353h5.558v-6.33h-5.558z" mask="url(#d)"/>
                    <path fill="#FFF" d="M275.014 16.353h5.558v-6.33h-5.558z" mask="url(#d)"/>
                    <path stroke="#9E9E9E" stroke-width=".5" d="M275.014 16.353h5.558v-6.33h-5.558z" mask="url(#d)"/>
                    <path fill="#9E9E9E" d="M275.59 10.644h1.265v1.537h1.896v-1.537h1.265l-2.213-1.792z" mask="url(#d)"/>
                    <path stroke="#FFF" stroke-width=".5" d="M275.59 10.644h1.265v1.537h1.896v-1.537h1.265l-2.213-1.792z" mask="url(#d)"/>
                    <path fill="#9E9E9E" d="M117.31 12.774a1.706 1.706 0 0 1-1.708-1.709c0-.945.762-1.708 1.708-1.708.945 0 1.707.763 1.707 1.708s-.762 1.709-1.707 1.709zm2.277 0h-.3l-.106-.103a2.467 2.467 0 1 0-.266.266l.102.106v.3l1.898 1.894.566-.565-1.894-1.898z" mask="url(#d)"/>
                </g>
                <g filter="url(#e)" transform="translate(80.889 19.556)">
                    <path fill="#5292CD" d="M123.135 38.93H1.24a1.099 1.099 0 0 1-1.11-1.087V6.73c0-.6.496-1.087 1.11-1.087h121.895c.614 0 1.11.487 1.11 1.087v31.113c0 .6-.496 1.087-1.11 1.087"/>
                    <path fill="#EAEBEC" d="M123.836 16.15H.488V7.11c0-.6.497-1.086 1.111-1.086h121.126c.613 0 1.11.487 1.11 1.087v9.038z"/>
                    <path fill="#FFF" d="M113.807 27.818c-.945 0-1.707-.745-1.707-1.669s.762-1.67 1.707-1.67c.945 0 1.707.746 1.707 1.67 0 .924-.762 1.67-1.707 1.67zm2.277 0h-.3l-.106-.1c.371-.423.595-.972.595-1.569 0-1.332-1.103-2.412-2.466-2.412-1.362 0-2.466 1.08-2.466 2.412 0 1.332 1.104 2.412 2.466 2.412a2.49 2.49 0 0 0 1.605-.583l.102.104v.293l1.898 1.851.565-.552-1.893-1.856z"/>
                    <g transform="translate(100.556 .336)">
                        <mask id="g" fill="#fff">
                            <use xlink:href="#f"/>
                        </mask>
                        <path fill="#EAEBEC" d="M4.78 7.678h4.41L6.986 3.943 4.779.207 2.574 3.943.368 7.678z" mask="url(#g)"/>
                    </g>
                    <path fill="#FFF" d="M13.786 23.516l-.58-1.7H7.995l-.58 1.7v1.698h13.323v-1.698h-6.95zM6.257 25.78l1.159 5.142c0 .51.62 1.087 1.117 1.087h11.045c.725 0 1.159-.544 1.159-1.122l1.159-5.107H6.256z"/>
                    <path stroke="#CECECE" stroke-width=".25" d="M13.786 23.516l-.58-1.7H7.995l-.58 1.7v1.698h13.323v-1.698h-6.95zM6.257 25.78l1.159 5.142c0 .51.62 1.087 1.117 1.087h11.045c.725 0 1.159-.544 1.159-1.122l1.159-5.107H6.256z"/>
                    <path fill="#EAEBEC" d="M32.013 25.223h60.862v-3.878H32.013zM31.57 32.505h60.862v-3.878H31.571z"/>
                    <path fill="#9E9E9E" d="M37.32 12.818h52.89V9.61H37.32z"/>
                </g>
            </g>
        </g>
        <path fill="#979797" stroke="#FFF" d="M205.889 62.556v25.041l5.859-5.375L215.61 91l4.27-2.028-4.134-8.588 7.92-.47z"/>
    </g>
</svg>
