<svg xmlns="http://www.w3.org/2000/svg" xmlns:xlink="http://www.w3.org/1999/xlink" width="265" height="95" viewBox="0 0 265 95">
    <defs>
        <path id="a" d="M0 0h232v50H0z"/>
    </defs>
    <g fill="none" fill-rule="evenodd">
        <rect width="265" height="94.768" fill="#36ADE1" rx="5"/>
        <g transform="translate(17 23)">
            <mask id="b" fill="#fff">
                <use xlink:href="#a"/>
            </mask>
            <use fill="#D8D8D8" xlink:href="#a"/>
            <g mask="url(#b)">
                <path fill="#FFF" d="M-413 43h643v-292h-643z"/>
                <path fill="#F4F4F4" d="M-410 48h640V3h-640z"/>
                <path fill="#00AEEF" d="M9 39h59V13H9z"/>
                <path fill="#00AEEF" d="M9.53 37.446h55.94V13.554H9.53v23.892zM7 40h61V11H7v29z"/>
                <path fill="#FFF" d="M45.109 20.994L43.115 19l-8.381 8.381-2.74-2.74L30 26.635l4.653 4.653.081-.08.081.08z"/>
                <path fill="#DDD" d="M74 40h86V11H74zM166 40h53V11h-53z"/>
                <path fill="gray" d="M187.95 19l4.316 4.316 4.135-4.135 1.837 1.837-4.135 4.135 4.377 4.377-1.951 1.95-4.376-4.376-4.117 4.117-1.838-1.838 4.118-4.117L186 20.95z"/>
                <path fill="#7E7E7E" d="M-407.277-.569h632.644v-255.217h-632.644V-.569zm0 46.486h632.644V4.5h-632.644v41.416zm2.716-360.015c-3.999 0-7.777 0-7.777 5.457V50.987h642.766V-308.64c0-5.457-4.097-5.457-8.059-5.457h-626.93z"/>
            </g>
        </g>
        <path fill="#979797" stroke="#FFF" d="M62 48v28.172l6.591-6.047L72.937 80l4.803-2.281-4.65-9.661 8.91-.53z"/>
    </g>
</svg>
