<svg width="186" height="60" viewBox="0 0 186 60" fill="none" xmlns="http://www.w3.org/2000/svg">
<path fill-rule="evenodd" clip-rule="evenodd" d="M119.227 39.4933C120.101 40.3661 121.241 40.8018 122.646 40.8018H128.665V36.3395H124.537C123.734 36.3395 123.333 35.9106 123.333 35.0524V23.9826H129.181V19.5203H123.333V12.9126H117.916V19.5203H112.585L112.452 19.5203C111.477 19.5203 110.655 19.6865 109.925 20.0866C109.194 20.4875 108.639 21.0649 108.324 21.923H107.55V19.5203H102.219V40.8018H107.636V28.7023C107.636 27.1865 108.08 26.0635 108.969 25.334C109.857 24.6047 110.799 24.0174 112.366 23.9826L112.585 23.9826L115.031 23.9826L117.916 23.9826V35.9962C117.916 37.4553 118.353 38.621 119.227 39.4933ZM92.3395 34.9881C91.2499 36.0607 89.8741 36.597 88.2119 36.597C86.5492 36.597 85.1734 36.0607 84.0844 34.9881C82.9947 33.9153 82.4506 32.3781 82.4506 30.3755V29.9464C82.4506 27.9446 82.9947 26.4068 84.0844 25.334C85.1734 24.2614 86.5492 23.7251 88.2119 23.7251C89.9029 23.7251 91.286 24.2614 92.3611 25.334C93.4359 26.4068 93.9733 27.9446 93.9733 29.9464V30.3755C93.9733 32.3781 93.4284 33.9153 92.3395 34.9881ZM82.4936 40.1154C84.1846 40.9735 86.0903 41.4024 88.2119 41.4024C90.3327 41.4024 92.2387 40.9735 93.9303 40.1154C95.6213 39.2572 96.9541 38.0129 97.9288 36.3825C98.9029 34.752 99.3906 32.7931 99.3906 30.5043V29.8179C99.3906 27.5296 98.9029 25.5699 97.9288 23.9397C96.9541 22.3092 95.6213 21.0649 93.9303 20.2069C92.2387 19.3487 90.3327 18.9195 88.2119 18.9195C86.0903 18.9195 84.1846 19.3487 82.4936 20.2069C80.802 21.0649 79.4692 22.3092 78.4951 23.9397C77.5202 25.5699 77.0332 27.5296 77.0332 29.8179V30.5043C77.0332 32.7931 77.5202 34.752 78.4951 36.3825C79.4692 38.0129 80.802 39.2572 82.4936 40.1154ZM53.5674 40.8018V19.5203H58.8987V22.3092H59.6727C60.0166 21.5658 60.6616 20.8578 61.6074 20.1853C62.5534 19.5137 63.9862 19.177 65.9069 19.177C67.569 19.177 69.0242 19.5566 70.271 20.3141C71.5179 21.0724 72.4853 22.1162 73.1731 23.4463C73.8611 24.7764 74.2049 26.3283 74.2049 28.1016V40.8018H68.7876V28.5305C68.7876 26.929 68.3933 25.7277 67.6054 24.9265C66.8166 24.126 65.6921 23.7251 64.2301 23.7251C62.5676 23.7251 61.2775 24.2761 60.3606 25.3769C59.443 26.4786 58.9847 28.0157 58.9847 29.9895V40.8018H53.5674ZM177.996 21.9771V19.5099H178.886L179.354 21.5548H179.465L179.933 19.5099H180.824V21.9771H180.356V19.9322H180.245L179.777 21.9771H179.042L178.575 19.9322H178.463V21.9771H177.996ZM176.37 21.9771V19.9322H175.546V19.5099H177.661V19.9322H176.837V21.9771H176.37ZM141.296 36.597C142.958 36.597 144.334 36.0607 145.424 34.9881C146.513 33.9153 147.058 32.3781 147.058 30.3755V29.9464C147.058 27.9446 146.52 26.4068 145.445 25.334C144.37 24.2614 142.987 23.7251 141.296 23.7251C139.633 23.7251 138.258 24.2614 137.169 25.334C136.079 26.4068 135.535 27.9446 135.535 29.9464V30.3755C135.535 32.3781 136.079 33.9153 137.169 34.9881C138.258 36.0607 139.633 36.597 141.296 36.597ZM141.296 41.4024C139.175 41.4024 137.269 40.9735 135.578 40.1154C133.886 39.2572 132.553 38.0129 131.579 36.3825C130.604 34.752 130.117 32.7931 130.117 30.5043V29.8179C130.117 27.5296 130.604 25.5699 131.579 23.9397C132.553 22.3092 133.886 21.0649 135.578 20.2069C137.269 19.3487 139.175 18.9195 141.296 18.9195C143.417 18.9195 145.323 19.3487 147.015 20.2069C148.705 21.0649 150.038 22.3092 151.013 23.9397C151.987 25.5699 152.475 27.5296 152.475 29.8179V30.5043C152.475 32.7931 151.987 34.752 151.013 36.3825C150.038 38.0129 148.705 39.2572 147.015 40.1154C145.323 40.9735 143.417 41.4024 141.296 41.4024ZM155.303 19.5203V40.8018H160.72V29.9895C160.72 28.0157 161.179 26.4786 162.096 25.3769C163.013 24.2761 164.303 23.7251 165.966 23.7251C167.428 23.7251 168.552 24.126 169.341 24.9265C170.129 25.7277 170.523 26.929 170.523 28.5305V40.8018H175.941V28.1016C175.941 26.3283 175.597 24.7764 174.909 23.4463C174.221 22.1162 173.254 21.0724 172.007 20.3141C170.76 19.5566 169.305 19.177 167.643 19.177C165.722 19.177 164.289 19.5137 163.343 20.1853C162.397 20.8578 161.752 21.5658 161.408 22.3092H160.634V19.5203H155.303Z" fill="#242424"/>
<path fill-rule="evenodd" clip-rule="evenodd" d="M45.0828 30.0006C45.0828 41.0285 36.0927 50 25.042 50C13.9903 50 5 41.0285 5 30.0006C5 18.9717 13.9903 10 25.042 10C28.0963 10 30.9929 10.6848 33.5861 11.9097L30.2574 16.1891C28.6343 15.5772 26.8773 15.2422 25.042 15.2422C17.2493 15.2422 10.8459 21.2868 10.2918 28.9254C10.2809 29.0795 10.2724 29.2346 10.2659 29.3908C10.2574 29.593 10.253 29.7963 10.253 30.0006C10.253 38.1378 16.8869 44.7578 25.042 44.7578C33.1959 44.7578 39.8297 38.1378 39.8297 30.0006C39.8297 28.9127 39.7108 27.8514 39.4867 26.8307L43.3492 21.8656C44.4632 24.3519 45.0828 27.1057 45.0828 30.0006Z" fill="#FFE01A"/>
<path fill-rule="evenodd" clip-rule="evenodd" d="M40.9971 17.9116L37.6212 22.2497L25.7708 37.483L16.103 28.858L19.6033 24.95L25.0739 29.8305L34.0448 18.3L37.2643 14.1606C38.6675 15.2413 39.9239 16.5037 40.9971 17.9116Z" fill="#242424"/>
</svg>
