<svg xmlns="http://www.w3.org/2000/svg" width="50" height="49" viewBox="0 0 50 49">
    <g fill="none" fill-rule="evenodd">
        <g>
            <g>
                <g>
                    <path d="M0 0H50V50H0z" transform="translate(-695 -313) translate(370 272) translate(325 40)"/>
                    <path fill="#FFF" d="M25 1.042c13.807 0 25 11.2 25 25.016 0 10.47-6.428 19.437-15.55 23.167l-.024.01c-.985.397-2.106-.079-2.504-1.064-.398-.985.078-2.107 1.063-2.505l.006-.002.005-.003c7.719-3.156 13.158-10.744 13.158-19.603C46.154 14.368 36.683 4.89 25 4.89S3.846 14.367 3.846 26.058c0 8.836 5.411 16.408 13.098 19.578l.078.03c.985.398 1.46 1.52 1.063 2.505-.395.978-1.503 1.454-2.482 1.072l-.001.003C6.452 45.53 0 36.548 0 26.058 0 12.242 11.193 1.042 25 1.042zm0 6.605c10.09 0 18.27 8.185 18.27 18.281 0 7.652-4.698 14.205-11.364 16.93v-.001l-.028.011c-.985.398-2.106-.078-2.504-1.063-.398-.985.078-2.107 1.063-2.505l.027-.01c5.256-2.155 8.96-7.326 8.96-13.362 0-7.97-6.458-14.432-14.424-14.432-7.966 0-14.423 6.462-14.423 14.432 0 6.034 3.7 11.202 8.953 13.359l.06.022c.984.399 1.46 1.52 1.062 2.506-.396.98-1.506 1.455-2.486 1.07l-.001.002C11.46 40.179 6.73 33.607 6.73 25.928c0-10.096 8.18-18.28 18.269-18.28zm-7.418 15.404c.319 0 .577.259.577.577l-.002.046-.102 1.293 1.259-.429c.301-.103.629.058.732.36l.006.019.142.467c.092.305-.08.627-.385.72l-.022.006-1.226.32.832 1.034c.2.248.16.611-.088.811-.01.007-.019.015-.029.021l-.408.29c-.26.183-.62.122-.804-.138l-.015-.021-.754-1.174-.755 1.174c-.172.268-.53.345-.797.173l-.021-.015-.409-.289c-.26-.184-.322-.544-.138-.804l.022-.028.831-1.034-1.21-.319c-.309-.08-.493-.396-.412-.704l.006-.021.142-.468c.092-.305.415-.477.72-.384l.02.006 1.24.427-.09-1.298c-.023-.318.216-.594.534-.616l.04-.002h.564zm7.683 0c.318 0 .577.259.577.577 0 .016 0 .03-.002.046l-.103 1.293 1.26-.429c.3-.103.629.058.732.36l.005.019.142.467c.093.305-.08.627-.384.72l-.022.006-1.226.32.831 1.034c.2.248.16.611-.088.811-.009.007-.018.015-.028.021l-.409.29c-.26.183-.62.122-.804-.138l-.014-.021-.755-1.174-.754 1.174c-.173.268-.53.345-.798.173l-.02-.015-.41-.289c-.26-.184-.321-.544-.137-.804l.021-.028.832-1.034-1.21-.319c-.309-.08-.493-.396-.412-.704l.006-.021.142-.468c.092-.305.414-.477.72-.384l.02.006 1.24.427-.091-1.298c-.023-.318.217-.594.535-.616l.04-.002h.564zm7.692 0c.319 0 .577.259.577.577l-.002.046-.102 1.293 1.259-.429c.301-.103.629.058.732.36l.006.019.142.467c.092.305-.08.627-.385.72l-.022.006-1.226.32.832 1.034c.2.248.16.611-.088.811-.01.007-.019.015-.029.021l-.408.29c-.26.183-.62.122-.804-.138l-.015-.021-.754-1.174-.755 1.174c-.172.268-.53.345-.797.173l-.021-.015-.409-.289c-.26-.184-.322-.544-.138-.804l.022-.028.831-1.034-1.21-.319c-.309-.08-.493-.396-.412-.704l.006-.021.142-.468c.092-.305.415-.477.72-.384l.02.006 1.24.427-.09-1.298c-.023-.318.216-.594.534-.616l.04-.002h.564z" transform="translate(-695 -313) translate(370 272) translate(325 40)"/>
                </g>
            </g>
        </g>
    </g>
</svg>
