<svg xmlns="http://www.w3.org/2000/svg" width="96" height="96" viewBox="0 0 96 96">
    <g fill="none" fill-rule="evenodd">
        <path d="M0-1h96v96H0z"/>
        <path fill="#242E39" d="M63.353 86.67v-.001c14.82-6.06 25.262-20.628 25.262-37.638C88.615 26.585 70.431 8.39 48 8.39S7.385 26.585 7.385 49.031c0 16.966 10.389 31.504 25.148 37.591l.15.057a3.696 3.696 0 0 1-2.725 6.868l-.003.006C12.388 86.416 0 69.17 0 49.03 0 22.504 21.49 1 48 1s48 21.504 48 48.031c0 20.102-12.341 37.32-29.856 44.481v-.001l-.047.019a3.696 3.696 0 1 1-2.745-6.86zM58.49 74.435c10.093-4.137 17.202-14.064 17.202-25.653 0-15.304-12.398-27.71-27.692-27.71s-27.692 12.406-27.692 27.71c0 11.585 7.103 21.508 17.19 25.648l.113.044a3.696 3.696 0 0 1-2.733 6.865l-.001.004c-12.871-5.2-21.954-17.819-21.954-32.56 0-19.386 15.705-35.1 35.077-35.1s35.077 15.714 35.077 35.1c0 14.69-9.019 27.272-21.818 32.505l-.001-.003a3.691 3.691 0 0 1-4.86-2.02 3.696 3.696 0 0 1 2.092-4.83zm-27.852-20.23l-1.698-1.202a.577.577 0 0 1-.116-.832l1.95-2.426-2.858-.752a.577.577 0 0 1-.405-.725l.593-1.952a.577.577 0 0 1 .74-.378l2.903 1-.216-3.062a.577.577 0 0 1 .575-.617h2.226a.577.577 0 0 1 .575.622l-.242 3.056 2.937-1.001a.577.577 0 0 1 .738.378l.593 1.953a.577.577 0 0 1-.407.725l-2.888.753 1.95 2.426a.577.577 0 0 1-.117.832l-1.698 1.201a.577.577 0 0 1-.818-.158l-1.75-2.72-1.748 2.72a.577.577 0 0 1-.819.158zm14.751 0l-1.698-1.202a.577.577 0 0 1-.116-.832l1.95-2.426-2.858-.752a.577.577 0 0 1-.405-.725l.592-1.952a.577.577 0 0 1 .74-.378l2.903 1-.215-3.062a.577.577 0 0 1 .575-.617h2.226a.577.577 0 0 1 .575.622l-.242 3.056 2.937-1.001a.577.577 0 0 1 .738.378l.592 1.953a.577.577 0 0 1-.406.725l-2.889.753 1.95 2.426a.577.577 0 0 1-.116.832l-1.698 1.201a.577.577 0 0 1-.818-.158l-1.75-2.72-1.748 2.72a.577.577 0 0 1-.819.158zm14.77 0l-1.699-1.202a.577.577 0 0 1-.116-.832l1.95-2.426-2.858-.752a.577.577 0 0 1-.405-.725l.593-1.952a.577.577 0 0 1 .74-.378l2.903 1-.216-3.062a.577.577 0 0 1 .575-.617h2.226a.577.577 0 0 1 .575.622l-.242 3.056 2.937-1.001a.577.577 0 0 1 .738.378l.593 1.953a.577.577 0 0 1-.407.725l-2.888.753 1.95 2.426a.577.577 0 0 1-.117.832l-1.698 1.201a.577.577 0 0 1-.818-.158l-1.75-2.72-1.748 2.72a.577.577 0 0 1-.819.158z"/>
    </g>
</svg>
