<svg xmlns="http://www.w3.org/2000/svg" width="30" height="30" viewBox="0 0 30 30">
    <g fill="none" fill-rule="evenodd">
        <path d="M0 0h30v30H0z"/>
        <path fill="#FFF" d="M19.798 27.397c4.631-1.894 7.894-6.447 7.894-11.762 0-7.015-5.682-12.7-12.692-12.7S2.308 8.62 2.308 15.634c0 5.302 3.246 9.845 7.859 11.747l.046.018a1.155 1.155 0 0 1-.851 2.146l-.001.002C3.871 27.318 0 21.928 0 15.635 0 7.345 6.716.625 15 .625c8.284 0 15 6.72 15 15.01 0 6.282-3.857 11.662-9.33 13.9l-.015.006a1.154 1.154 0 1 1-.857-2.144zm-1.52-3.823a8.662 8.662 0 0 0 5.376-8.017c0-4.782-3.875-8.66-8.654-8.66-4.78 0-8.654 3.878-8.654 8.66a8.662 8.662 0 0 0 5.408 8.029 1.155 1.155 0 0 1-.855 2.145v.001a10.972 10.972 0 0 1-6.86-10.175C4.038 9.499 8.945 4.588 15 4.588S25.962 9.5 25.962 15.557c0 4.59-2.819 8.523-6.819 10.158l-.016.006a1.154 1.154 0 1 1-.849-2.147zm-8.97-6.511a.484.484 0 0 1-.098-.7l.407-.505-.585-.154a.487.487 0 1 1 .283-.932l.606.208-.043-.608a.505.505 0 0 1 .504-.541.5.5 0 0 1 .5.54l-.05.61.616-.21a.489.489 0 0 1 .626.32.486.486 0 0 1-.343.612l-.594.155.407.506a.484.484 0 0 1-.098.699.493.493 0 0 1-.7-.136l-.37-.575-.37.575a.493.493 0 0 1-.698.136zm4.61 0a.484.484 0 0 1-.098-.7l.406-.505-.584-.154a.487.487 0 1 1 .283-.932l.605.208-.042-.608a.505.505 0 0 1 .503-.541.5.5 0 0 1 .5.54l-.049.61.616-.21a.489.489 0 0 1 .626.32.486.486 0 0 1-.343.612l-.595.155.407.506a.484.484 0 0 1-.098.699.493.493 0 0 1-.699-.136l-.37-.575-.37.575a.493.493 0 0 1-.699.136zm4.615 0a.484.484 0 0 1-.098-.7l.407-.505-.585-.154a.487.487 0 1 1 .283-.932l.606.208-.043-.608a.505.505 0 0 1 .504-.541.5.5 0 0 1 .5.54l-.05.61.616-.21a.489.489 0 0 1 .626.32.486.486 0 0 1-.343.612l-.594.155.407.506a.484.484 0 0 1-.098.699.493.493 0 0 1-.7-.136l-.37-.575-.37.575a.493.493 0 0 1-.698.136z"/>
    </g>
</svg>
