<svg xmlns="http://www.w3.org/2000/svg" width="176" height="176" viewBox="0 0 176 176">
    <g fill="none" fill-rule="evenodd">
        <path d="M0 0h176v176H0z"/>
        <path fill="#FFF" d="M116.147 160.728v-.001c27.17-11.11 46.315-37.819 46.315-69.003 0-41.15-33.338-74.51-74.462-74.51s-74.462 33.36-74.462 74.51c0 31.104 19.047 57.756 46.106 68.916a6.775 6.775 0 0 1 4.014 8.922 6.768 6.768 0 0 1-8.736 3.773l-.004.011C22.71 160.263 0 128.647 0 91.724 0 43.09 39.399 3.667 88 3.667s88 39.424 88 88.057c0 36.854-22.626 68.42-54.736 81.548v-.002a6.768 6.768 0 0 1-8.897-3.708 6.775 6.775 0 0 1 3.78-8.834zm-8.915-22.43c18.503-7.584 31.537-25.784 31.537-47.03 0-28.057-22.73-50.802-50.769-50.802-28.04 0-50.77 22.745-50.77 50.802 0 21.237 13.024 39.431 31.515 47.021a6.775 6.775 0 0 1 3.95 8.898 6.768 6.768 0 0 1-8.752 3.768l-.003.007c-23.597-9.532-40.248-32.667-40.248-59.694 0-35.54 28.792-64.35 64.308-64.35 35.516 0 64.308 28.81 64.308 64.35 0 26.932-16.535 50-40 59.593l-.002-.005a6.768 6.768 0 0 1-8.909-3.703 6.775 6.775 0 0 1 3.835-8.855zm-50.651-36.8l-3.941-2.787a.577.577 0 0 1-.117-.833l3.896-4.846-5.722-1.504a.577.577 0 0 1-.405-.726l1.376-4.533a.577.577 0 0 1 .74-.378l5.794 1.994-.432-6.127a.577.577 0 0 1 .576-.617h5.117a.577.577 0 0 1 .575.622l-.486 6.122 5.855-1.996a.577.577 0 0 1 .739.378l1.376 4.534a.577.577 0 0 1-.407.726l-5.78 1.505 3.896 4.846a.577.577 0 0 1-.116.833l-3.941 2.787a.577.577 0 0 1-.818-.158l-3.479-5.41-3.478 5.41a.577.577 0 0 1-.818.158zm27.043 0l-3.941-2.787a.577.577 0 0 1-.117-.833l3.896-4.846-5.722-1.504a.577.577 0 0 1-.405-.726l1.376-4.533a.577.577 0 0 1 .74-.378l5.794 1.994-.432-6.127a.577.577 0 0 1 .576-.617h5.117a.577.577 0 0 1 .575.622l-.486 6.122 5.855-1.996a.577.577 0 0 1 .739.378l1.376 4.534a.577.577 0 0 1-.407.726l-5.78 1.505 3.896 4.846a.577.577 0 0 1-.116.833l-3.941 2.787a.577.577 0 0 1-.818-.158l-3.479-5.41-3.478 5.41a.577.577 0 0 1-.818.158zm27.077 0l-3.941-2.787a.577.577 0 0 1-.117-.833l3.896-4.846-5.722-1.504a.577.577 0 0 1-.405-.726l1.376-4.533a.577.577 0 0 1 .74-.378l5.794 1.994-.432-6.127a.577.577 0 0 1 .576-.617h5.117a.577.577 0 0 1 .575.622l-.486 6.122 5.855-1.996a.577.577 0 0 1 .739.378l1.376 4.534a.577.577 0 0 1-.407.726l-5.78 1.505 3.896 4.846a.577.577 0 0 1-.116.833l-3.941 2.787a.577.577 0 0 1-.818-.158l-3.479-5.41-3.478 5.41a.577.577 0 0 1-.818.158z"/>
    </g>
</svg>
