<svg xmlns="http://www.w3.org/2000/svg" width="170" height="177" viewBox="0 0 170 177">
    <defs>
        <filter id="a" width="142.9%" height="142.9%" x="-21.4%" y="-21.4%" filterUnits="objectBoundingBox">
            <feOffset in="SourceAlpha" result="shadowOffsetOuter1"/>
            <feGaussianBlur in="shadowOffsetOuter1" result="shadowBlurOuter1" stdDeviation="5"/>
            <feColorMatrix in="shadowBlurOuter1" result="shadowMatrixOuter1" values="0 0 0 0 0 0 0 0 0 0 0 0 0 0 0 0 0 0 0.166779891 0"/>
            <feMerge>
                <feMergeNode in="shadowMatrixOuter1"/>
                <feMergeNode in="SourceGraphic"/>
            </feMerge>
        </filter>
    </defs>
    <g fill="none" fill-rule="evenodd">
        <path d="M0-3h170v170H0z"/>
        <path fill="#FFF" d="M112.188 152.249l-.001-.002c26.244-10.73 44.736-36.529 44.736-66.65 0-39.748-32.201-71.97-71.923-71.97S13.077 45.85 13.077 85.597c0 30.043 18.397 55.788 44.534 66.567a6.544 6.544 0 0 1 3.877 8.617 6.537 6.537 0 0 1-8.438 3.645l-.005.01C21.937 151.8 0 121.263 0 85.597 0 38.623 38.056.543 85 .543s85 38.08 85 85.055c0 35.597-21.854 66.087-52.87 78.768v-.002a6.537 6.537 0 0 1-8.594-3.582 6.544 6.544 0 0 1 3.652-8.532zm-8.611-21.666c17.872-7.325 30.461-24.905 30.461-45.427 0-27.1-21.955-49.07-49.038-49.07s-49.038 21.97-49.038 49.07c0 20.514 12.579 38.088 30.44 45.419a6.544 6.544 0 0 1 3.814 8.595 6.537 6.537 0 0 1-8.452 3.638l-.003.008c-22.793-9.207-38.876-31.554-38.876-57.66 0-34.327 27.81-62.155 62.115-62.155 34.305 0 62.115 27.828 62.115 62.155 0 26.014-15.97 48.296-38.636 57.562l-.002-.004-.093.038a6.537 6.537 0 0 1-8.512-3.615 6.544 6.544 0 0 1 3.705-8.554zM54.635 95.026l-3.773-2.668a.577.577 0 0 1-.116-.833l3.75-4.665-5.507-1.447a.577.577 0 0 1-.406-.726l1.318-4.34a.577.577 0 0 1 .74-.378l5.577 1.92-.416-5.897a.577.577 0 0 1 .576-.617h4.9a.577.577 0 0 1 .575.622l-.467 5.892 5.636-1.922a.577.577 0 0 1 .738.379l1.317 4.34a.577.577 0 0 1-.406.726l-5.563 1.448 3.75 4.665a.577.577 0 0 1-.117.833l-3.772 2.668a.577.577 0 0 1-.819-.159l-3.348-5.207-3.349 5.207a.577.577 0 0 1-.818.16zm26.121 0l-3.772-2.668a.577.577 0 0 1-.117-.833l3.75-4.665-5.507-1.447a.577.577 0 0 1-.405-.726l1.317-4.34a.577.577 0 0 1 .74-.378l5.577 1.92-.415-5.897a.577.577 0 0 1 .575-.617h4.9a.577.577 0 0 1 .575.622l-.467 5.892 5.636-1.922a.577.577 0 0 1 .738.379l1.318 4.34a.577.577 0 0 1-.407.726l-5.563 1.448 3.75 4.665a.577.577 0 0 1-.116.833l-3.773 2.668a.577.577 0 0 1-.818-.159l-3.349-5.207-3.348 5.207a.577.577 0 0 1-.819.16zm26.154 0l-3.773-2.668a.577.577 0 0 1-.116-.833l3.75-4.665-5.507-1.447a.577.577 0 0 1-.406-.726l1.318-4.34a.577.577 0 0 1 .74-.378l5.577 1.92-.416-5.897a.577.577 0 0 1 .576-.617h4.9a.577.577 0 0 1 .575.622l-.467 5.892 5.636-1.922a.577.577 0 0 1 .738.379l1.317 4.34a.577.577 0 0 1-.406.726l-5.563 1.448 3.75 4.665a.577.577 0 0 1-.117.833l-3.772 2.668a.577.577 0 0 1-.819-.159l-3.348-5.207-3.349 5.207a.577.577 0 0 1-.818.16z"/>
        <g filter="url(#a)" transform="translate(85 97)">
            <circle cx="35" cy="35" r="35" fill="#36ADE1"/>
            <path fill="#FFF" d="M45.5 43.75h7V31.5h-7v12.25zM54.25 28h-10.5c-.962 0-1.75.788-1.75 1.75v17.5c0 .962.788 1.75 1.75 1.75h10.5c.962 0 1.75-.788 1.75-1.75v-17.5c0-.962-.788-1.75-1.75-1.75zM21 24.5h31.5V21H21a3.51 3.51 0 0 0-3.5 3.5v19.25H14V49h24.5v-5.25H21V24.5z"/>
        </g>
    </g>
</svg>
