<svg xmlns="http://www.w3.org/2000/svg" width="58" height="53" viewBox="0 0 58 53">
    <defs>
        <filter id="a" width="107.3%" height="108.6%" x="-3.2%" y="-4.6%" filterUnits="objectBoundingBox">
            <feOffset dy="2" in="SourceAlpha" result="shadowOffsetOuter1"/>
            <feGaussianBlur in="shadowOffsetOuter1" result="shadowBlurOuter1" stdDeviation="2"/>
            <feColorMatrix in="shadowBlurOuter1" result="shadowMatrixOuter1" values="0 0 0 0 0 0 0 0 0 0 0 0 0 0 0 0 0 0 0.5 0"/>
            <feMerge>
                <feMergeNode in="shadowMatrixOuter1"/>
                <feMergeNode in="SourceGraphic"/>
            </feMerge>
        </filter>
    </defs>
    <path fill="#FFF" fill-rule="evenodd" d="M48.61 22.069l20.827 35.888c1.603 2.76-.409 6.21-3.609 6.21H24.171c-3.206 0-5.208-3.456-3.609-6.21l20.829-35.888c1.603-2.761 5.618-2.756 7.218 0zM45 50.185c-2.373 0-4.297 1.911-4.297 4.27 0 2.358 1.924 4.27 4.297 4.27 2.373 0 4.297-1.912 4.297-4.27 0-2.359-1.924-4.27-4.297-4.27zm2.578-17.592h-5.156c-.518 0-.938.367-.938.818v13.084c0 .451.42.817.938.817h5.156c.518 0 .938-.366.938-.817V33.41c0-.451-.42-.818-.938-.818z" filter="url(#a)" transform="translate(-16 -18)"/>
</svg>
