<svg width="176" height="40" viewBox="0 0 176 40" fill="none" xmlns="http://www.w3.org/2000/svg">
<path fill-rule="evenodd" clip-rule="evenodd" d="M114.228 29.4934C115.102 30.3662 116.241 30.802 117.646 30.802H123.665V26.3397H119.537C118.735 26.3397 118.333 25.9107 118.333 25.0525V13.9827H124.181V9.52042H118.333V2.91272H112.916V9.52042H107.585L107.452 9.52042C106.477 9.52042 105.655 9.68664 104.925 10.0867C104.194 10.4877 103.639 11.0651 103.324 11.9231H102.55V9.52042H97.219V30.802H102.636V18.7025C102.636 17.1866 103.08 16.0637 103.969 15.3341C104.857 14.6048 105.799 14.0176 107.366 13.9827L107.585 13.9827L110.032 13.9827L112.916 13.9827V25.9964C112.916 27.4554 113.353 28.6211 114.228 29.4934ZM87.3395 24.9882C86.25 26.0608 84.8741 26.5971 83.212 26.5971C81.5493 26.5971 80.1735 26.0608 79.0845 24.9882C77.9947 23.9154 77.4507 22.3782 77.4507 20.3757V19.9465C77.4507 17.9448 77.9947 16.407 79.0845 15.3341C80.1735 14.2615 81.5493 13.7252 83.212 13.7252C84.903 13.7252 86.2861 14.2615 87.3611 15.3341C88.436 16.407 88.9734 17.9448 88.9734 19.9465V20.3757C88.9734 22.3782 88.4285 23.9154 87.3395 24.9882ZM77.4937 30.1156C79.1846 30.9736 81.0904 31.4025 83.212 31.4025C85.3328 31.4025 87.2388 30.9736 88.9304 30.1156C90.6213 29.2573 91.9542 28.013 92.9289 26.3826C93.903 24.7521 94.3907 22.7932 94.3907 20.5044V19.818C94.3907 17.5297 93.903 15.5701 92.9289 13.9398C91.9542 12.3093 90.6213 11.0651 88.9304 10.207C87.2388 9.34877 85.3328 8.91965 83.212 8.91965C81.0904 8.91965 79.1846 9.34877 77.4937 10.207C75.8021 11.0651 74.4692 12.3093 73.4952 13.9398C72.5203 15.5701 72.0333 17.5297 72.0333 19.818V20.5044C72.0333 22.7932 72.5203 24.7521 73.4952 26.3826C74.4692 28.013 75.8021 29.2573 77.4937 30.1156ZM48.5674 30.802V9.52042H53.8988V12.3093H54.6728C55.0166 11.5659 55.6616 10.858 56.6075 10.1855C57.5535 9.51378 58.9863 9.17712 60.907 9.17712C62.5691 9.17712 64.0243 9.55669 65.2711 10.3142C66.5179 11.0725 67.4854 12.1163 68.1732 13.4464C68.8612 14.7765 69.205 16.3284 69.205 18.1017V30.802H63.7877V18.5306C63.7877 16.9292 63.3934 15.7278 62.6054 14.9266C61.8167 14.1262 60.6922 13.7252 59.2301 13.7252C57.5676 13.7252 56.2776 14.2762 55.3606 15.3771C54.4431 16.4787 53.9848 18.0159 53.9848 19.9896V30.802H48.5674ZM172.996 11.9772V9.51003H173.887L174.354 11.5549H174.466L174.933 9.51003H175.824V11.9772H175.357V9.9323H175.245L174.778 11.9772H174.042L173.575 9.9323H173.463V11.9772H172.996ZM171.37 11.9772V9.9323H170.546V9.51003H172.662V9.9323H171.838V11.9772H171.37ZM136.296 26.5971C137.958 26.5971 139.334 26.0608 140.424 24.9882C141.513 23.9154 142.058 22.3782 142.058 20.3757V19.9465C142.058 17.9448 141.52 16.407 140.445 15.3341C139.37 14.2615 137.987 13.7252 136.296 13.7252C134.634 13.7252 133.258 14.2615 132.169 15.3341C131.079 16.407 130.535 17.9448 130.535 19.9465V20.3757C130.535 22.3782 131.079 23.9154 132.169 24.9882C133.258 26.0608 134.634 26.5971 136.296 26.5971ZM136.296 31.4025C134.175 31.4025 132.269 30.9736 130.578 30.1156C128.886 29.2573 127.553 28.013 126.579 26.3826C125.605 24.7521 125.118 22.7932 125.118 20.5044V19.818C125.118 17.5297 125.605 15.5701 126.579 13.9398C127.553 12.3093 128.886 11.0651 130.578 10.207C132.269 9.34877 134.175 8.91965 136.296 8.91965C138.417 8.91965 140.323 9.34877 142.015 10.207C143.706 11.0651 145.038 12.3093 146.013 13.9398C146.987 15.5701 147.475 17.5297 147.475 19.818V20.5044C147.475 22.7932 146.987 24.7521 146.013 26.3826C145.038 28.013 143.706 29.2573 142.015 30.1156C140.323 30.9736 138.417 31.4025 136.296 31.4025ZM150.303 9.52042V30.802H155.721V19.9896C155.721 18.0159 156.179 16.4787 157.096 15.3771C158.013 14.2762 159.303 13.7252 160.966 13.7252C162.428 13.7252 163.552 14.1262 164.341 14.9266C165.129 15.7278 165.523 16.9292 165.523 18.5306V30.802H170.941V18.1017C170.941 16.3284 170.597 14.7765 169.909 13.4464C169.221 12.1163 168.254 11.0725 167.007 10.3142C165.76 9.55669 164.305 9.17712 162.643 9.17712C160.722 9.17712 159.289 9.51378 158.343 10.1855C157.397 10.858 156.752 11.5659 156.409 12.3093H155.635V9.52042H150.303Z" fill="#242424"/>
<path fill-rule="evenodd" clip-rule="evenodd" d="M40.0828 20.0006C40.0828 31.0285 31.0927 40 20.042 40C8.99028 40 0 31.0285 0 20.0006C0 8.97171 8.99028 0 20.042 0C23.0963 0 25.9929 0.684785 28.5861 1.9097L25.2575 6.18906C23.6343 5.5772 21.8773 5.24216 20.042 5.24216C12.2493 5.24216 5.84594 11.2868 5.29177 18.9254C5.28087 19.0795 5.27239 19.2346 5.26593 19.3908C5.25745 19.593 5.25301 19.7963 5.25301 20.0006C5.25301 28.1378 11.8869 34.7578 20.042 34.7578C28.1959 34.7578 34.8298 28.1378 34.8298 20.0006C34.8298 18.9127 34.7109 17.8514 34.4868 16.8307L38.3492 11.8656C39.4632 14.3519 40.0828 17.1057 40.0828 20.0006Z" fill="#FFE01A"/>
<path fill-rule="evenodd" clip-rule="evenodd" d="M35.9972 7.91155L32.6213 12.2497L20.771 27.483L11.1031 18.858L14.6034 14.95L20.074 19.8305L29.0449 8.29998L32.2644 4.16064C33.6677 5.24131 34.924 6.5037 35.9972 7.91155Z" fill="#242424"/>
</svg>
