<svg width="80" height="78" viewBox="0 0 80 78" fill="none" xmlns="http://www.w3.org/2000/svg">
<path fill-rule="evenodd" clip-rule="evenodd" d="M52.8159 71.2018C59.043 68.6623 64.3712 64.3305 68.1212 58.7584C71.8712 53.1863 73.8731 46.6264 73.8719 39.9148C73.874 30.9558 70.3094 22.3628 63.9619 16.0256C57.6144 9.68839 49.0039 6.12595 40.024 6.12172C31.0441 6.12595 22.4335 9.68839 16.0861 16.0256C9.73856 22.3628 6.17388 30.9558 6.17601 39.9148C6.17384 46.6089 8.16495 53.1527 11.8967 58.716C15.6284 64.2792 20.9325 68.6111 27.136 71.1619L27.256 71.2098C28.0114 71.5147 28.6149 72.1059 28.9343 72.8539C29.2537 73.6019 29.2629 74.4457 28.96 75.2004C28.6574 75.957 28.0661 76.5627 27.316 76.8845C26.566 77.2063 25.7185 77.2178 24.96 76.9164C17.5787 73.9283 11.2598 68.8094 6.81297 62.2158C2.3661 55.6222 -0.00620283 47.8541 1.21804e-05 39.9068C1.21804e-05 29.3229 4.21427 19.1724 11.7157 11.6884C19.2172 4.20445 29.3913 0 40 0C50.6086 0 60.7828 4.20445 68.2842 11.6884C75.7857 19.1724 79.9999 29.3229 79.9999 39.9068C80.0161 47.8435 77.6599 55.6048 73.2323 62.1987C68.8048 68.7926 62.507 73.9196 55.1439 76.9244H55.1039C54.7296 77.0762 54.3288 77.1527 53.9247 77.1493C53.5206 77.146 53.1211 77.0629 52.7493 76.9049C52.3775 76.7468 52.0408 76.517 51.7584 76.2286C51.476 75.9402 51.2536 75.5989 51.104 75.2244C50.9526 74.8513 50.8765 74.452 50.8798 74.0495C50.8832 73.647 50.966 73.2492 51.1235 72.8786C51.2809 72.508 51.5101 72.172 51.7977 71.8898C52.0854 71.6076 52.4259 71.3846 52.7999 71.2337L52.8159 71.2018Z" fill="#C1BFB8"/>
<path fill-rule="evenodd" clip-rule="evenodd" d="M30.3361 19.0842C27.586 20.3588 25.1145 22.1616 23.0631 24.3896C21.0116 26.6176 19.4204 29.2271 18.3802 32.069C17.3401 34.9108 16.8715 37.9293 17.0012 40.9519C17.1309 43.9745 17.8564 46.942 19.1362 49.6847C21.7253 55.2195 26.4119 59.5017 32.1653 61.5897C37.9186 63.6776 44.2676 63.4003 49.8161 60.8187C53.9691 58.8879 57.4529 55.7687 59.8247 51.8576C62.1965 47.9465 63.3491 43.4202 63.1361 38.854C63.1321 38.8195 63.1321 38.7847 63.1361 38.7503C63.1034 37.9431 63.3906 37.1554 63.9356 36.5579C64.4806 35.9604 65.2395 35.6011 66.0481 35.5577C66.8519 35.5248 67.6368 35.807 68.2348 36.3439C68.8328 36.8809 69.1965 37.63 69.2481 38.431C69.5543 44.2402 68.1132 50.0081 65.1097 54.9942C62.1062 59.9803 57.6774 63.957 52.3921 66.4136C45.3646 69.6841 37.323 70.0366 30.0352 67.3934C22.7474 64.7503 16.8099 59.328 13.5282 52.3186C10.2547 45.3044 9.90743 37.2803 12.5628 30.0107C15.2182 22.7412 20.6587 16.8214 27.6881 13.5531C32.9529 11.1013 38.8303 10.2694 44.5708 11.1635C50.3114 12.0576 55.6549 14.6372 59.9201 18.5734C60.2167 18.848 60.456 19.1783 60.6242 19.5455C60.7924 19.9126 60.8863 20.3093 60.9004 20.7128C60.9145 21.1162 60.8486 21.5185 60.7065 21.8964C60.5643 22.2744 60.3487 22.6206 60.0721 22.9152C59.515 23.5109 58.7437 23.8615 57.9276 23.8899C57.1115 23.9184 56.3175 23.6223 55.7201 23.0668C52.36 19.9695 48.1537 17.9375 43.6345 17.2284C39.1153 16.5194 34.4869 17.1653 30.3361 19.0842Z" fill="#C1BFB8"/>
<path fill-rule="evenodd" clip-rule="evenodd" d="M55.4717 29.4675C56.8651 31.4451 57.8534 33.6778 58.3797 36.0374C58.9059 38.397 58.9599 40.8372 58.5384 43.2177C58.117 45.5982 57.2284 47.8722 55.9237 49.9091C54.619 51.9461 52.9239 53.706 50.9357 55.0876C47.935 57.1845 44.3766 58.3429 40.7138 58.4153C37.051 58.4878 33.4494 57.4711 30.3677 55.4947L30.2317 55.3909L30.3197 55.4548L30.2077 55.3829C29.5806 54.9248 29.1526 54.2448 29.0114 53.4823C28.8701 52.7197 29.0262 51.9321 29.4477 51.2805C29.888 50.6065 30.578 50.134 31.3667 49.9664C32.1554 49.7989 32.9785 49.95 33.6557 50.3866L33.9037 50.5462C35.958 51.7972 38.3333 52.4235 40.7389 52.3484C43.1445 52.2733 45.4759 51.5 47.4477 50.1232C48.7786 49.1954 49.9131 48.015 50.7866 46.6495C51.6601 45.2841 52.2554 43.7603 52.5384 42.1653C52.8215 40.5702 52.7868 38.9352 52.4363 37.3536C52.0858 35.7719 51.4264 34.2746 50.4957 32.9473C48.6136 30.2701 45.7432 28.4477 42.5151 27.8805C39.2871 27.3133 35.9654 28.0477 33.2797 29.9224C31.2753 31.3197 29.7316 33.2792 28.8444 35.5526C27.9571 37.8259 27.7662 40.3108 28.2957 42.6926V42.7724C28.3858 43.1597 28.3985 43.5609 28.3331 43.9531C28.2677 44.3453 28.1253 44.7208 27.9143 45.0581C27.7033 45.3953 27.4277 45.6878 27.1033 45.9187C26.7789 46.1497 26.4121 46.3146 26.0237 46.4039C25.2421 46.5838 24.4209 46.4481 23.7391 46.0265C23.0572 45.6049 22.5701 44.9316 22.3837 44.1532C21.555 40.5795 21.816 36.8402 23.1331 33.4156C24.4503 29.9909 26.7635 27.0373 29.7757 24.934C31.7608 23.5469 34.0004 22.5638 36.3666 22.0408C38.7328 21.5179 41.1791 21.4655 43.5657 21.8865C45.9522 22.3076 48.2321 23.1938 50.275 24.4946C52.318 25.7954 54.0839 27.4853 55.4717 29.4675Z" fill="#C1BFB8"/>
</svg>
