<svg width="209" height="26" viewBox="0 0 209 26" fill="none" xmlns="http://www.w3.org/2000/svg">
<path d="M39.3956 20V5.45455H44.8501C45.9676 5.45455 46.9051 5.66288 47.6626 6.07955C48.425 6.49621 49.0002 7.06913 49.3885 7.7983C49.7815 8.52273 49.978 9.34659 49.978 10.2699C49.978 11.2027 49.7815 12.0312 49.3885 12.7557C48.9955 13.4801 48.4155 14.0507 47.6484 14.4673C46.8814 14.8793 45.9368 15.0852 44.8146 15.0852H41.1996V12.919H44.4595C45.1129 12.919 45.648 12.8054 46.0646 12.5781C46.4813 12.3509 46.7891 12.0384 46.9879 11.6406C47.1915 11.2429 47.2933 10.786 47.2933 10.2699C47.2933 9.75379 47.1915 9.29924 46.9879 8.90625C46.7891 8.51326 46.4789 8.20786 46.0575 7.99006C45.6409 7.76752 45.1035 7.65625 44.4453 7.65625H42.0305V20H39.3956ZM54.0969 20.2202C53.4057 20.2202 52.783 20.0971 52.229 19.8509C51.6798 19.5999 51.2442 19.2306 50.9222 18.7429C50.605 18.2552 50.4464 17.6539 50.4464 16.9389C50.4464 16.3234 50.56 15.8144 50.7873 15.4119C51.0146 15.0095 51.3247 14.6875 51.7177 14.446C52.1107 14.2045 52.5534 14.0223 53.0458 13.8991C53.543 13.7713 54.0567 13.679 54.587 13.6222C55.2262 13.5559 55.7447 13.4967 56.1424 13.4446C56.5401 13.3878 56.829 13.3026 57.0089 13.1889C57.1935 13.0705 57.2859 12.8883 57.2859 12.642V12.5994C57.2859 12.0644 57.1272 11.6501 56.81 11.3565C56.4928 11.063 56.0359 10.9162 55.4393 10.9162C54.8095 10.9162 54.31 11.0535 53.9407 11.3281C53.5761 11.6027 53.3299 11.9271 53.2021 12.3011L50.8015 11.9602C50.9909 11.2973 51.3034 10.7434 51.739 10.2983C52.1746 9.84848 52.7073 9.51231 53.337 9.28977C53.9667 9.0625 54.6628 8.94886 55.4251 8.94886C55.9506 8.94886 56.4738 9.01042 56.9947 9.13352C57.5155 9.25663 57.9914 9.46023 58.4222 9.74432C58.8531 10.0237 59.1987 10.4048 59.4592 10.8878C59.7243 11.3707 59.8569 11.9744 59.8569 12.6989V20H57.3853V18.5014H57.3001C57.1438 18.8045 56.9237 19.0885 56.6396 19.3537C56.3602 19.6141 56.0075 19.8248 55.5813 19.9858C55.1599 20.142 54.6651 20.2202 54.0969 20.2202ZM54.7646 18.331C55.2807 18.331 55.7281 18.2292 56.1069 18.0256C56.4857 17.8172 56.7769 17.5426 56.9805 17.2017C57.1888 16.8608 57.293 16.4891 57.293 16.0866V14.8011C57.2125 14.8674 57.0752 14.929 56.881 14.9858C56.6916 15.0426 56.4786 15.0923 56.2418 15.1349C56.0051 15.1776 55.7707 15.2154 55.5387 15.2486C55.3067 15.2817 55.1055 15.3101 54.935 15.3338C54.5515 15.3859 54.2082 15.4711 53.9052 15.5895C53.6022 15.7079 53.363 15.8736 53.1879 16.0866C53.0127 16.295 52.9251 16.5649 52.9251 16.8963C52.9251 17.3698 53.0979 17.7273 53.4435 17.9688C53.7892 18.2102 54.2295 18.331 54.7646 18.331ZM70.0643 11.9744L67.7205 12.2301C67.6542 11.9934 67.5382 11.7708 67.3725 11.5625C67.2115 11.3542 66.9937 11.1861 66.7191 11.0582C66.4445 10.9304 66.1083 10.8665 65.7106 10.8665C65.1755 10.8665 64.7257 10.9825 64.3612 11.2145C64.0013 11.4465 63.8237 11.7472 63.8285 12.1165C63.8237 12.4337 63.9397 12.6918 64.1765 12.8906C64.418 13.0895 64.8157 13.2528 65.3697 13.3807L67.2305 13.7784C68.2627 14.0009 69.0297 14.3537 69.5316 14.8366C70.0382 15.3196 70.2939 15.9517 70.2987 16.733C70.2939 17.4195 70.0927 18.0256 69.695 18.5511C69.302 19.072 68.7551 19.4792 68.0543 19.7727C67.3536 20.0663 66.5487 20.2131 65.6396 20.2131C64.3043 20.2131 63.2295 19.9337 62.4151 19.375C61.6007 18.8116 61.1154 18.0279 60.9592 17.0241L63.4663 16.7827C63.5799 17.2751 63.8214 17.6468 64.1907 17.8977C64.56 18.1487 65.0406 18.2741 65.6325 18.2741C66.2433 18.2741 66.7333 18.1487 67.1026 17.8977C67.4767 17.6468 67.6637 17.3366 67.6637 16.9673C67.6637 16.6548 67.543 16.3968 67.3015 16.1932C67.0647 15.9896 66.6954 15.8333 66.1935 15.7244L64.3327 15.3338C63.2863 15.116 62.5122 14.7491 62.0103 14.233C61.5084 13.7121 61.2598 13.054 61.2646 12.2585C61.2598 11.5862 61.4421 11.0038 61.8114 10.5114C62.1855 10.0142 62.704 9.63068 63.3668 9.3608C64.0344 9.08617 64.8039 8.94886 65.6751 8.94886C66.9535 8.94886 67.9596 9.22112 68.6935 9.76562C69.4322 10.3101 69.8891 11.0464 70.0643 11.9744ZM80.0408 11.9744L77.6971 12.2301C77.6308 11.9934 77.5148 11.7708 77.3491 11.5625C77.1881 11.3542 76.9703 11.1861 76.6957 11.0582C76.421 10.9304 76.0849 10.8665 75.6871 10.8665C75.1521 10.8665 74.7023 10.9825 74.3377 11.2145C73.9779 11.4465 73.8003 11.7472 73.805 12.1165C73.8003 12.4337 73.9163 12.6918 74.1531 12.8906C74.3945 13.0895 74.7923 13.2528 75.3462 13.3807L77.207 13.7784C78.2392 14.0009 79.0063 14.3537 79.5082 14.8366C80.0148 15.3196 80.2705 15.9517 80.2752 16.733C80.2705 17.4195 80.0692 18.0256 79.6715 18.5511C79.2785 19.072 78.7317 19.4792 78.0309 19.7727C77.3301 20.0663 76.5252 20.2131 75.6161 20.2131C74.2809 20.2131 73.2061 19.9337 72.3917 19.375C71.5773 18.8116 71.092 18.0279 70.9357 17.0241L73.4428 16.7827C73.5565 17.2751 73.7979 17.6468 74.1673 17.8977C74.5366 18.1487 75.0172 18.2741 75.609 18.2741C76.2198 18.2741 76.7099 18.1487 77.0792 17.8977C77.4532 17.6468 77.6403 17.3366 77.6403 16.9673C77.6403 16.6548 77.5195 16.3968 77.2781 16.1932C77.0413 15.9896 76.672 15.8333 76.1701 15.7244L74.3093 15.3338C73.2629 15.116 72.4888 14.7491 71.9869 14.233C71.485 13.7121 71.2364 13.054 71.2411 12.2585C71.2364 11.5862 71.4187 11.0038 71.788 10.5114C72.1621 10.0142 72.6805 9.63068 73.3434 9.3608C74.011 9.08617 74.7804 8.94886 75.6516 8.94886C76.93 8.94886 77.9362 9.22112 78.6701 9.76562C79.4087 10.3101 79.8656 11.0464 80.0408 11.9744ZM83.6467 20L80.5643 9.09091H83.185L85.1026 16.7614H85.2021L87.1623 9.09091H89.7546L91.7148 16.7188H91.8214L93.7106 9.09091H96.3384L93.2489 20H90.5714L88.5259 12.6278H88.3768L86.3313 20H83.6467ZM101.58 20.2131C100.514 20.2131 99.5909 19.9787 98.8097 19.5099C98.0284 19.0412 97.4223 18.3854 96.9915 17.5426C96.5653 16.6998 96.3523 15.715 96.3523 14.5881C96.3523 13.4612 96.5653 12.474 96.9915 11.6264C97.4223 10.7789 98.0284 10.1207 98.8097 9.65199C99.5909 9.18324 100.514 8.94886 101.58 8.94886C102.645 8.94886 103.568 9.18324 104.349 9.65199C105.131 10.1207 105.734 10.7789 106.161 11.6264C106.591 12.474 106.807 13.4612 106.807 14.5881C106.807 15.715 106.591 16.6998 106.161 17.5426C105.734 18.3854 105.131 19.0412 104.349 19.5099C103.568 19.9787 102.645 20.2131 101.58 20.2131ZM101.594 18.1534C102.171 18.1534 102.654 17.9948 103.043 17.6776C103.431 17.3556 103.72 16.9247 103.909 16.3849C104.103 15.8452 104.2 15.2438 104.2 14.581C104.2 13.9134 104.103 13.3097 103.909 12.7699C103.72 12.2254 103.431 11.7921 103.043 11.4702C102.654 11.1482 102.171 10.9872 101.594 10.9872C101.002 10.9872 100.509 11.1482 100.116 11.4702C99.7282 11.7921 99.437 12.2254 99.2429 12.7699C99.0535 13.3097 98.9588 13.9134 98.9588 14.581C98.9588 15.2438 99.0535 15.8452 99.2429 16.3849C99.437 16.9247 99.7282 17.3556 100.116 17.6776C100.509 17.9948 101.002 18.1534 101.594 18.1534ZM107.989 20V9.09091H110.482V10.9091H110.596C110.794 10.2794 111.135 9.79403 111.618 9.45312C112.106 9.10748 112.662 8.93466 113.287 8.93466C113.429 8.93466 113.588 8.94176 113.763 8.95597C113.943 8.96544 114.092 8.98201 114.211 9.00568V11.3707C114.102 11.3329 113.929 11.2997 113.692 11.2713C113.46 11.2382 113.235 11.2216 113.017 11.2216C112.549 11.2216 112.127 11.3234 111.753 11.527C111.384 11.7259 111.093 12.0028 110.88 12.358C110.667 12.7131 110.56 13.1226 110.56 13.5866V20H107.989ZM118.518 20.1918C117.661 20.1918 116.894 19.9716 116.217 19.5312C115.54 19.0909 115.004 18.4517 114.612 17.6136C114.219 16.7756 114.022 15.7576 114.022 14.5597C114.022 13.3475 114.221 12.3248 114.619 11.4915C115.021 10.6534 115.563 10.0213 116.245 9.59517C116.927 9.1643 117.687 8.94886 118.525 8.94886C119.164 8.94886 119.69 9.05777 120.102 9.27557C120.513 9.48864 120.84 9.74669 121.082 10.0497C121.323 10.348 121.51 10.6297 121.643 10.8949H121.749V5.45455H124.327V20H121.799V18.2812H121.643C121.51 18.5464 121.318 18.8281 121.067 19.1264C120.817 19.42 120.485 19.6709 120.073 19.8793C119.661 20.0876 119.143 20.1918 118.518 20.1918ZM119.235 18.0824C119.78 18.0824 120.244 17.9356 120.627 17.642C121.011 17.3437 121.302 16.9295 121.501 16.3991C121.7 15.8688 121.799 15.2509 121.799 14.5455C121.799 13.84 121.7 13.2268 121.501 12.706C121.307 12.1851 121.018 11.7803 120.634 11.4915C120.255 11.2027 119.789 11.0582 119.235 11.0582C118.662 11.0582 118.184 11.2074 117.8 11.5057C117.417 11.804 117.128 12.2159 116.934 12.7415C116.74 13.267 116.643 13.8684 116.643 14.5455C116.643 15.2273 116.74 15.8357 116.934 16.3707C117.133 16.901 117.424 17.3201 117.808 17.6278C118.196 17.9309 118.672 18.0824 119.235 18.0824ZM130.142 5.45455H133.366L137.684 15.9943H137.855L142.173 5.45455H145.397V20H142.869V10.0071H142.734L138.714 19.9574H136.825L132.805 9.9858H132.67V20H130.142V5.45455ZM150.292 20.2202C149.601 20.2202 148.978 20.0971 148.424 19.8509C147.875 19.5999 147.44 19.2306 147.118 18.7429C146.8 18.2552 146.642 17.6539 146.642 16.9389C146.642 16.3234 146.755 15.8144 146.983 15.4119C147.21 15.0095 147.52 14.6875 147.913 14.446C148.306 14.2045 148.749 14.0223 149.241 13.8991C149.738 13.7713 150.252 13.679 150.782 13.6222C151.422 13.5559 151.94 13.4967 152.338 13.4446C152.735 13.3878 153.024 13.3026 153.204 13.1889C153.389 13.0705 153.481 12.8883 153.481 12.642V12.5994C153.481 12.0644 153.323 11.6501 153.005 11.3565C152.688 11.063 152.231 10.9162 151.635 10.9162C151.005 10.9162 150.505 11.0535 150.136 11.3281C149.771 11.6027 149.525 11.9271 149.397 12.3011L146.997 11.9602C147.186 11.2973 147.499 10.7434 147.934 10.2983C148.37 9.84848 148.903 9.51231 149.532 9.28977C150.162 9.0625 150.858 8.94886 151.62 8.94886C152.146 8.94886 152.669 9.01042 153.19 9.13352C153.711 9.25663 154.187 9.46023 154.618 9.74432C155.048 10.0237 155.394 10.4048 155.654 10.8878C155.92 11.3707 156.052 11.9744 156.052 12.6989V20H153.581V18.5014H153.495C153.339 18.8045 153.119 19.0885 152.835 19.3537C152.556 19.6141 152.203 19.8248 151.777 19.9858C151.355 20.142 150.86 20.2202 150.292 20.2202ZM150.96 18.331C151.476 18.331 151.923 18.2292 152.302 18.0256C152.681 17.8172 152.972 17.5426 153.176 17.2017C153.384 16.8608 153.488 16.4891 153.488 16.0866V14.8011C153.408 14.8674 153.27 14.929 153.076 14.9858C152.887 15.0426 152.674 15.0923 152.437 15.1349C152.2 15.1776 151.966 15.2154 151.734 15.2486C151.502 15.2817 151.301 15.3101 151.13 15.3338C150.747 15.3859 150.404 15.4711 150.1 15.5895C149.797 15.7079 149.558 15.8736 149.383 16.0866C149.208 16.295 149.12 16.5649 149.12 16.8963C149.12 17.3698 149.293 17.7273 149.639 17.9688C149.984 18.2102 150.425 18.331 150.96 18.331ZM160.208 13.608V20H157.637V9.09091H160.095V10.9446H160.223C160.474 10.3338 160.874 9.84848 161.423 9.48864C161.977 9.12879 162.661 8.94886 163.475 8.94886C164.228 8.94886 164.884 9.10985 165.443 9.43182C166.006 9.75379 166.442 10.2202 166.75 10.831C167.062 11.4418 167.216 12.1828 167.211 13.054V20H164.64V13.4517C164.64 12.7225 164.451 12.152 164.072 11.7401C163.698 11.3281 163.18 11.1222 162.517 11.1222C162.067 11.1222 161.667 11.2216 161.316 11.4205C160.971 11.6146 160.699 11.8963 160.5 12.2656C160.306 12.6349 160.208 13.0824 160.208 13.608ZM171.964 20.2202C171.273 20.2202 170.65 20.0971 170.096 19.8509C169.547 19.5999 169.111 19.2306 168.789 18.7429C168.472 18.2552 168.314 17.6539 168.314 16.9389C168.314 16.3234 168.427 15.8144 168.654 15.4119C168.882 15.0095 169.192 14.6875 169.585 14.446C169.978 14.2045 170.421 14.0223 170.913 13.8991C171.41 13.7713 171.924 13.679 172.454 13.6222C173.093 13.5559 173.612 13.4967 174.01 13.4446C174.407 13.3878 174.696 13.3026 174.876 13.1889C175.061 13.0705 175.153 12.8883 175.153 12.642V12.5994C175.153 12.0644 174.994 11.6501 174.677 11.3565C174.36 11.063 173.903 10.9162 173.306 10.9162C172.677 10.9162 172.177 11.0535 171.808 11.3281C171.443 11.6027 171.197 11.9271 171.069 12.3011L168.669 11.9602C168.858 11.2973 169.171 10.7434 169.606 10.2983C170.042 9.84848 170.574 9.51231 171.204 9.28977C171.834 9.0625 172.53 8.94886 173.292 8.94886C173.818 8.94886 174.341 9.01042 174.862 9.13352C175.383 9.25663 175.859 9.46023 176.289 9.74432C176.72 10.0237 177.066 10.4048 177.326 10.8878C177.592 11.3707 177.724 11.9744 177.724 12.6989V20H175.252V18.5014H175.167C175.011 18.8045 174.791 19.0885 174.507 19.3537C174.227 19.6141 173.875 19.8248 173.449 19.9858C173.027 20.142 172.532 20.2202 171.964 20.2202ZM172.632 18.331C173.148 18.331 173.595 18.2292 173.974 18.0256C174.353 17.8172 174.644 17.5426 174.848 17.2017C175.056 16.8608 175.16 16.4891 175.16 16.0866V14.8011C175.08 14.8674 174.942 14.929 174.748 14.9858C174.559 15.0426 174.346 15.0923 174.109 15.1349C173.872 15.1776 173.638 15.2154 173.406 15.2486C173.174 15.2817 172.973 15.3101 172.802 15.3338C172.419 15.3859 172.075 15.4711 171.772 15.5895C171.469 15.7079 171.23 15.8736 171.055 16.0866C170.88 16.295 170.792 16.5649 170.792 16.8963C170.792 17.3698 170.965 17.7273 171.311 17.9688C171.656 18.2102 172.097 18.331 172.632 18.331ZM184.054 24.3182C183.13 24.3182 182.337 24.1927 181.674 23.9418C181.011 23.6955 180.479 23.3641 180.076 22.9474C179.674 22.5308 179.395 22.0691 179.238 21.5625L181.554 21.0014C181.658 21.2145 181.809 21.4252 182.008 21.6335C182.207 21.8466 182.475 22.0218 182.811 22.1591C183.152 22.3011 183.58 22.3722 184.096 22.3722C184.825 22.3722 185.429 22.1946 185.907 21.8395C186.386 21.4891 186.625 20.9115 186.625 20.1065V18.0398H186.497C186.364 18.3049 186.17 18.5772 185.914 18.8565C185.663 19.1359 185.33 19.3703 184.913 19.5597C184.501 19.7491 183.983 19.8438 183.358 19.8438C182.52 19.8438 181.76 19.6473 181.078 19.2543C180.401 18.8565 179.861 18.2647 179.458 17.4787C179.061 16.688 178.862 15.6984 178.862 14.5099C178.862 13.312 179.061 12.3011 179.458 11.4773C179.861 10.6487 180.403 10.0213 181.085 9.59517C181.767 9.1643 182.527 8.94886 183.365 8.94886C184.004 8.94886 184.529 9.05777 184.941 9.27557C185.358 9.48864 185.69 9.74669 185.936 10.0497C186.182 10.348 186.369 10.6297 186.497 10.8949H186.639V9.09091H189.174V20.1776C189.174 21.1103 188.952 21.8821 188.507 22.4929C188.062 23.1037 187.453 23.5606 186.681 23.8636C185.91 24.1667 185.034 24.3182 184.054 24.3182ZM184.075 17.8267C184.619 17.8267 185.083 17.6941 185.467 17.429C185.85 17.1638 186.142 16.7827 186.341 16.2855C186.539 15.7884 186.639 15.1918 186.639 14.4957C186.639 13.8092 186.539 13.2079 186.341 12.6918C186.146 12.1757 185.858 11.7756 185.474 11.4915C185.095 11.2027 184.629 11.0582 184.075 11.0582C183.502 11.0582 183.024 11.2074 182.64 11.5057C182.257 11.804 181.968 12.2135 181.774 12.7344C181.58 13.2505 181.483 13.8376 181.483 14.4957C181.483 15.1634 181.58 15.7481 181.774 16.25C181.973 16.7472 182.264 17.1354 182.647 17.4148C183.036 17.6894 183.511 17.8267 184.075 17.8267ZM195.639 20.2131C194.545 20.2131 193.6 19.9858 192.805 19.5312C192.014 19.072 191.406 18.4233 190.98 17.5852C190.554 16.7424 190.341 15.7505 190.341 14.6094C190.341 13.4872 190.554 12.5024 190.98 11.6548C191.411 10.8026 192.012 10.1397 192.784 9.66619C193.556 9.18797 194.462 8.94886 195.504 8.94886C196.176 8.94886 196.811 9.05777 197.407 9.27557C198.009 9.48864 198.539 9.82008 198.998 10.2699C199.462 10.7197 199.827 11.2926 200.092 11.9886C200.357 12.6799 200.49 13.5038 200.49 14.4602V15.2486H191.548V13.5156H198.025C198.02 13.0232 197.914 12.5852 197.706 12.2017C197.497 11.8134 197.206 11.508 196.832 11.2855C196.463 11.063 196.032 10.9517 195.539 10.9517C195.014 10.9517 194.552 11.0795 194.154 11.3352C193.757 11.5862 193.447 11.9176 193.224 12.3295C193.006 12.7367 192.895 13.1842 192.89 13.6719V15.1847C192.89 15.8191 193.006 16.3636 193.238 16.8182C193.47 17.268 193.795 17.6136 194.211 17.8551C194.628 18.0919 195.116 18.2102 195.674 18.2102C196.048 18.2102 196.387 18.1581 196.69 18.054C196.993 17.9451 197.256 17.7865 197.478 17.5781C197.701 17.3698 197.869 17.1117 197.983 16.804L200.383 17.0739C200.232 17.7083 199.943 18.2623 199.517 18.7358C199.095 19.2045 198.556 19.5691 197.897 19.8295C197.239 20.0852 196.486 20.2131 195.639 20.2131ZM201.665 20V9.09091H204.158V10.9091H204.271C204.47 10.2794 204.811 9.79403 205.294 9.45312C205.782 9.10748 206.338 8.93466 206.963 8.93466C207.105 8.93466 207.264 8.94176 207.439 8.95597C207.619 8.96544 207.768 8.98201 207.886 9.00568V11.3707C207.777 11.3329 207.605 11.2997 207.368 11.2713C207.136 11.2382 206.911 11.2216 206.693 11.2216C206.224 11.2216 205.803 11.3234 205.429 11.527C205.06 11.7259 204.768 12.0028 204.555 12.358C204.342 12.7131 204.236 13.1226 204.236 13.5866V20H201.665Z" fill="#242424"/>
<path fill-rule="evenodd" clip-rule="evenodd" d="M17.7498 24.0023L17.7496 24.0021C21.9018 22.3045 24.8276 18.2226 24.8276 13.457C24.8276 7.1683 19.7329 2.07031 13.4483 2.07031C7.16366 2.07031 2.06897 7.1683 2.06897 13.457C2.06897 18.2104 4.97968 22.2835 9.11489 23.9889C9.12884 23.9939 9.14276 23.9992 9.15662 24.0048C9.68635 24.219 9.94228 24.8223 9.72825 25.3524C9.5158 25.8785 8.92015 26.1347 8.39327 25.929L8.39258 25.9307C3.47074 23.9313 0 19.0997 0 13.457C0 6.0249 6.021 0 13.4483 0C20.8756 0 26.8966 6.0249 26.8966 13.457C26.8966 19.0891 23.4389 23.913 18.5318 25.9194L18.5316 25.919L18.5187 25.9244C17.989 26.1385 17.386 25.8824 17.172 25.3524C16.958 24.8223 17.2139 24.219 17.7436 24.0048L17.7498 24.0023ZM16.3877 20.5746C19.2153 19.4156 21.2072 16.6342 21.2072 13.3873C21.2072 9.0996 17.7335 5.6237 13.4486 5.6237C9.1636 5.6237 5.68995 9.0996 5.68995 13.3873C5.68995 16.6329 7.6802 19.4133 10.5061 20.5732C10.5167 20.5771 10.5273 20.5812 10.5379 20.5855C11.0677 20.7996 11.3236 21.403 11.1096 21.933C10.8968 22.46 10.2997 22.7162 9.77222 22.5088L9.77174 22.5099C6.16563 21.0532 3.62099 17.5176 3.62099 13.3873C3.62099 7.95621 8.02095 3.55339 13.4486 3.55339C18.8762 3.55339 23.2762 7.95621 23.2762 13.3873C23.2762 17.5031 20.7493 21.0284 17.1633 22.4945L17.163 22.4938L17.1483 22.4999C16.6186 22.714 16.0156 22.4579 15.8016 21.9279C15.5876 21.3978 15.8435 20.7945 16.3732 20.5803L16.3877 20.5746ZM8.34861 14.7396C8.5523 14.8837 8.83504 14.8288 8.97 14.6189L9.30376 14.0999L9.63752 14.6189C9.77248 14.8288 10.0552 14.8837 10.2589 14.7396C10.465 14.5937 10.5055 14.3043 10.3473 14.1075L9.98508 13.6569L10.5169 13.5184C10.7571 13.4558 10.8971 13.206 10.825 12.9685C10.7532 12.7319 10.4997 12.602 10.2657 12.6817L9.71255 12.8703L9.75571 12.3263C9.77652 12.064 9.56928 11.8397 9.30616 11.8397C9.04462 11.8397 8.83793 12.0614 8.85633 12.3223L8.89497 12.8703L8.35159 12.6833C8.11745 12.6028 7.8632 12.7326 7.79129 12.9696C7.71932 13.2067 7.85868 13.4561 8.09831 13.5191L8.62244 13.6569L8.26018 14.1075C8.102 14.3043 8.14249 14.5937 8.34861 14.7396ZM13.1021 14.6189C12.9671 14.8288 12.6844 14.8837 12.4807 14.7396C12.2746 14.5937 12.2341 14.3043 12.3923 14.1075L12.7545 13.6569L12.2304 13.5191C11.9908 13.4561 11.8514 13.2067 11.9234 12.9696C11.9953 12.7326 12.2495 12.6028 12.4837 12.6833L13.0271 12.8703L12.9884 12.3223C12.97 12.0614 13.1767 11.8397 13.4383 11.8397C13.7014 11.8397 13.9086 12.064 13.8878 12.3263L13.8446 12.8703L14.3978 12.6817C14.6318 12.602 14.8853 12.7319 14.9571 12.9685C15.0292 13.206 14.8892 13.4558 14.649 13.5184L14.1172 13.6569L14.4794 14.1075C14.6376 14.3043 14.5971 14.5937 14.391 14.7396C14.1873 14.8837 13.9046 14.8288 13.7696 14.6189L13.4358 14.0999L13.1021 14.6189ZM16.6184 14.7396C16.8221 14.8837 17.1049 14.8288 17.2398 14.6189L17.5736 14.0999L17.9073 14.6189C18.0423 14.8288 18.325 14.8837 18.5287 14.7396C18.7348 14.5937 18.7753 14.3043 18.6172 14.1075L18.2549 13.6569L18.7867 13.5184C19.0269 13.4558 19.1669 13.206 19.0948 12.9685C19.023 12.7319 18.7695 12.602 18.5355 12.6817L17.9824 12.8703L18.0255 12.3263C18.0463 12.064 17.8391 11.8397 17.576 11.8397C17.3144 11.8397 17.1078 12.0614 17.1261 12.3223L17.1648 12.8703L16.6214 12.6833C16.3873 12.6028 16.133 12.7326 16.0611 12.9696C15.9891 13.2067 16.1285 13.4561 16.3681 13.5191L16.8923 13.6569L16.53 14.1075C16.3718 14.3043 16.4123 14.5937 16.6184 14.7396Z" fill="#242424"/>
</svg>
