<svg width="124" height="28" viewBox="0 0 124 28" fill="none" xmlns="http://www.w3.org/2000/svg">
<path fill-rule="evenodd" clip-rule="evenodd" d="M79.9591 20.6454C80.5709 21.2564 81.3685 21.5614 82.3518 21.5614H86.5654V18.4378H83.6761C83.1141 18.4378 82.8333 18.1376 82.8333 17.5368V9.78793H86.9266V6.66433H82.8333V2.03894H79.0411V6.66433H77.0219H75.3092H75.2162C74.5337 6.66433 73.9587 6.78068 73.4471 7.06076C72.9354 7.3414 72.5474 7.74558 72.3269 8.34622H71.7851V6.66433H68.0531V21.5614H71.8453V13.0918C71.8453 12.0307 72.1562 11.2446 72.7783 10.7339C73.3999 10.2234 74.0595 9.81233 75.1559 9.78793L75.3092 9.78793H79.0411V18.1975C79.0411 19.2188 79.3468 20.0348 79.9591 20.6454ZM61.1375 17.4918C60.3748 18.2426 59.4118 18.618 58.2483 18.618C57.0844 18.618 56.1213 18.2426 55.359 17.4918C54.5962 16.7408 54.2153 15.6648 54.2153 14.263V13.9626C54.2153 12.5614 54.5962 11.4849 55.359 10.7339C56.1213 9.98311 57.0844 9.6077 58.2483 9.6077C59.432 9.6077 60.4001 9.98311 61.1527 10.7339C61.905 11.4849 62.2812 12.5614 62.2812 13.9626V14.263C62.2812 15.6648 61.8998 16.7408 61.1375 17.4918ZM54.2454 21.0809C55.4291 21.6816 56.7632 21.9818 58.2483 21.9818C59.7328 21.9818 61.067 21.6816 62.2511 21.0809C63.4348 20.4802 64.3678 19.6092 65.0501 18.4678C65.7319 17.3265 66.0734 15.9553 66.0734 14.3531V13.8726C66.0734 12.2708 65.7319 10.8991 65.0501 9.75789C64.3678 8.61657 63.4348 7.74558 62.2511 7.14495C61.067 6.54418 59.7328 6.24379 58.2483 6.24379C56.7632 6.24379 55.4291 6.54418 54.2454 7.14495C53.0613 7.74558 52.1283 8.61657 51.4465 9.75789C50.764 10.8991 50.4232 12.2708 50.4232 13.8726V14.3531C50.4232 15.9553 50.764 17.3265 51.4465 18.4678C52.1283 19.6092 53.0613 20.4802 54.2454 21.0809ZM33.9971 21.5614V6.66433H37.729V8.61657H38.2708C38.5115 8.09618 38.963 7.60061 39.6251 7.12986C40.2873 6.65968 41.2902 6.42402 42.6347 6.42402C43.7982 6.42402 44.8168 6.68972 45.6896 7.21998C46.5624 7.7508 47.2396 8.48146 47.7211 9.41252C48.2027 10.3436 48.4434 11.4299 48.4434 12.6712V21.5614H44.6512V12.9715C44.6512 11.8504 44.3752 11.0095 43.8237 10.4486C43.2715 9.88834 42.4844 9.6077 41.461 9.6077C40.2972 9.6077 39.3942 9.99341 38.7523 10.764C38.11 11.5351 37.7892 12.6111 37.7892 13.9928V21.5614H33.9971ZM121.097 8.38407V6.65706H121.72L122.048 8.08848H122.126L122.453 6.65706H123.077V8.38407H122.749V6.95265H122.672L122.344 8.38407H121.83L121.502 6.95265H121.424V8.38407H121.097ZM119.959 8.38407V6.95265H119.382V6.65706H120.863V6.95265H120.286V8.38407H119.959ZM95.4073 18.618C96.5707 18.618 97.5338 18.2426 98.2965 17.4918C99.0588 16.7408 99.4402 15.6648 99.4402 14.263V13.9626C99.4402 12.5614 99.064 11.4849 98.3116 10.7339C97.5591 9.98311 96.5909 9.6077 95.4073 9.6077C94.2434 9.6077 93.2803 9.98311 92.518 10.7339C91.7552 11.4849 91.3743 12.5614 91.3743 13.9626V14.263C91.3743 15.6648 91.7552 16.7408 92.518 17.4918C93.2803 18.2426 94.2434 18.618 95.4073 18.618ZM95.4073 21.9818C93.9221 21.9818 92.5881 21.6816 91.4044 21.0809C90.2203 20.4802 89.2873 19.6092 88.6055 18.4678C87.923 17.3265 87.5822 15.9553 87.5822 14.3531V13.8726C87.5822 12.2708 87.923 10.8991 88.6055 9.75789C89.2873 8.61657 90.2203 7.74558 91.4044 7.14495C92.5881 6.54418 93.9221 6.24379 95.4073 6.24379C96.8918 6.24379 98.226 6.54418 99.4101 7.14495C100.594 7.74558 101.527 8.61657 102.209 9.75789C102.891 10.8991 103.232 12.2708 103.232 13.8726V14.3531C103.232 15.9553 102.891 17.3265 102.209 18.4678C101.527 19.6092 100.594 20.4802 99.4101 21.0809C98.226 21.6816 96.8918 21.9818 95.4073 21.9818ZM105.212 6.66433V21.5614H109.004V13.9928C109.004 12.6111 109.325 11.5351 109.967 10.764C110.609 9.99341 111.512 9.6077 112.676 9.6077C113.699 9.6077 114.487 9.88834 115.039 10.4486C115.59 11.0095 115.866 11.8504 115.866 12.9715V21.5614H119.658V12.6712C119.658 11.4299 119.418 10.3436 118.936 9.41252C118.455 8.48146 117.777 7.7508 116.905 7.21998C116.032 6.68972 115.013 6.42402 113.85 6.42402C112.505 6.42402 111.502 6.65968 110.84 7.12986C110.178 7.60061 109.727 8.09618 109.486 8.61657H108.944V6.66433H105.212Z" fill="#242424"/>
<path fill-rule="evenodd" clip-rule="evenodd" d="M28.0579 14.0004C28.0579 21.7199 21.7649 28 14.0294 28C6.2932 28 0 21.7199 0 14.0004C0 6.2802 6.2932 0 14.0294 0C16.1674 0 18.195 0.47935 20.0103 1.33679L17.6802 4.33234C16.544 3.90404 15.3141 3.66951 14.0294 3.66951C8.5745 3.66951 4.09216 7.90074 3.70424 13.2478C3.69661 13.3556 3.69067 13.4642 3.68615 13.5735C3.68022 13.7151 3.67711 13.8574 3.67711 14.0004C3.67711 19.6965 8.32083 24.3305 14.0294 24.3305C19.7371 24.3305 24.3808 19.6965 24.3808 14.0004C24.3808 13.2389 24.2976 12.496 24.1407 11.7815L26.8444 8.30591C27.6242 10.0463 28.0579 11.974 28.0579 14.0004Z" fill="#FFE01A"/>
<path fill-rule="evenodd" clip-rule="evenodd" d="M25.1978 5.53805L22.8347 8.57478L14.5394 19.2381L7.77197 13.2006L10.2222 10.465L14.0516 13.8813L20.3312 5.80995L22.5848 2.91241C23.5671 3.66888 24.4466 4.55256 25.1978 5.53805Z" fill="#242424"/>
</svg>
