<svg xmlns="http://www.w3.org/2000/svg" width="89" height="89" viewBox="0 0 89 89">
    <g fill="none" fill-rule="evenodd">
        <path fill="#FFF" d="M85 45.45C85 67.09 67.091 85 45.45 85 22.908 85 5 67.091 5 45.45 5 22.908 22.909 5 45.45 5 67.09 5 85 22.909 85 45.45z"/>
        <path fill="#1C851C" d="M45 0c24.077 0 44 19.923 44 45 0 24.077-19.923 44-44 44C19.923 89 0 69.077 0 45 0 19.923 19.923 0 45 0zm19 27c-.737-1.252-2.405-1.259-3 0L36 51 26 41c-.532-.926-2.2-.933-3 0l-5 5c-1.254 1.022-1.26 2.68 0 4l16 16c1.275 1.252 2.944 1.259 4 0l31-31c1.254-.583 1.26-2.241 0-3z"/>
    </g>
</svg>
