<svg xmlns="http://www.w3.org/2000/svg" width="100" height="100" viewBox="0 0 100 100">
    <g fill="none" fill-rule="evenodd">
        <path d="M20 20h60v60H20z"/>
        <path fill="#242E39" d="M59.596 74.794c9.262-3.788 15.789-12.894 15.789-23.525 0-14.028-11.365-25.4-25.385-25.4-14.02 0-25.385 11.372-25.385 25.4 0 10.604 6.494 19.69 15.718 23.495.031.01.062.023.093.035a2.31 2.31 0 0 1-1.703 4.293l-.001.003C27.742 74.635 20 63.857 20 51.27 20 34.69 33.431 21.25 50 21.25c16.569 0 30 13.44 30 30.02 0 12.563-7.713 23.324-18.66 27.8l-.03.011a2.31 2.31 0 1 1-1.715-4.288zm-3.04-7.647c6.308-2.585 10.752-8.79 10.752-16.033 0-9.565-7.75-17.319-17.308-17.319-9.559 0-17.308 7.754-17.308 17.319 0 7.24 4.44 13.443 10.744 16.03l.071.027a2.31 2.31 0 0 1-1.708 4.29l-.001.003c-8.045-3.25-13.721-11.136-13.721-20.35 0-12.116 9.815-21.937 21.923-21.937 12.108 0 21.923 9.821 21.923 21.937 0 9.181-5.637 17.045-13.636 20.316v-.002l-.034.014a2.31 2.31 0 1 1-1.697-4.295zM38.964 54.372l-.689-.487a.577.577 0 0 1-.116-.833l1.075-1.337-1.569-.412a.577.577 0 0 1-.405-.726l.24-.79a.577.577 0 0 1 .74-.378l1.602.552-.119-1.682a.577.577 0 0 1 .576-.617h.924a.577.577 0 0 1 .576.622l-.133 1.677 1.623-.554a.577.577 0 0 1 .738.379l.24.79a.577.577 0 0 1-.406.726l-1.588.413 1.075 1.337a.577.577 0 0 1-.116.833l-.69.487a.577.577 0 0 1-.818-.159l-.97-1.51-.971 1.51a.577.577 0 0 1-.819.16zm9.22 0l-.69-.487a.577.577 0 0 1-.116-.833l1.075-1.337-1.569-.412a.577.577 0 0 1-.405-.726l.24-.79a.577.577 0 0 1 .74-.378l1.602.552-.119-1.682a.577.577 0 0 1 .576-.617h.925a.577.577 0 0 1 .575.622l-.133 1.677 1.623-.554a.577.577 0 0 1 .739.379l.24.79a.577.577 0 0 1-.407.726l-1.587.413 1.074 1.337a.577.577 0 0 1-.116.833l-.689.487a.577.577 0 0 1-.818-.159l-.971-1.51-.97 1.51a.577.577 0 0 1-.82.16zm9.23 0l-.689-.487a.577.577 0 0 1-.116-.833l1.075-1.337-1.569-.412a.577.577 0 0 1-.405-.726l.24-.79a.577.577 0 0 1 .74-.378l1.602.552-.119-1.682a.577.577 0 0 1 .576-.617h.924a.577.577 0 0 1 .576.622l-.133 1.677 1.623-.554a.577.577 0 0 1 .738.379l.24.79a.577.577 0 0 1-.406.726l-1.588.413 1.075 1.337a.577.577 0 0 1-.116.833l-.69.487a.577.577 0 0 1-.818-.159l-.97-1.51-.971 1.51a.577.577 0 0 1-.819.16z"/>
        <path fill="#F9622F" d="M50 100C22.386 100 0 77.614 0 50S22.386 0 50 0s50 22.386 50 50-22.386 50-50 50zm0-4c25.405 0 46-20.595 46-46S75.405 4 50 4 4 24.595 4 50s20.595 46 46 46z" opacity=".498"/>
        <g fill-rule="nonzero">
            <path fill="#FFF" d="M80 72h8v24h-8z"/>
            <path fill="#F9622F" d="M84 68c-8.838 0-16 7.162-16 16 0 8.838 7.162 16 16 16 8.838 0 16-7.162 16-16 0-8.838-7.162-16-16-16zm2 24h-4v-4h4v4zm0 4h-4V74h4v22z"/>
        </g>
    </g>
</svg>
