<svg width="30" height="30" viewBox="0 0 30 30" fill="none" xmlns="http://www.w3.org/2000/svg">
<path fill-rule="evenodd" clip-rule="evenodd" d="M23.8912 23.7315C23.1324 21.2119 21.1599 19.2644 18.6775 18.5103C20.0392 17.4188 20.8893 15.7536 20.8893 13.9021C20.8893 10.6406 18.2471 7.98734 14.9995 7.98734C11.7513 7.98734 9.10916 10.6369 9.10916 13.8941C9.10916 15.7493 9.95981 17.4172 11.322 18.5098C8.83905 19.2633 6.86606 21.2114 6.10721 23.7315C3.89595 21.4799 2.52897 18.3973 2.52897 14.9995C2.52897 8.12319 8.12319 2.52897 14.9995 2.52897C21.8758 2.52897 27.47 8.12319 27.47 14.9995C27.47 18.3973 26.1025 21.4799 23.8912 23.7315ZM15.6919 18.1691H14.308C12.2474 17.8035 10.7016 15.977 10.7016 13.8952C10.7016 11.5162 12.6295 9.58037 15 9.58037C17.3699 9.58037 19.2978 11.5199 19.2978 13.9031C19.2978 16.0146 17.7849 17.7992 15.6919 18.1691ZM7.46418 24.9265C7.98316 21.9538 10.55 19.76 13.6092 19.76H14.1659V19.7499L15.8237 19.76L15.8348 19.7579V19.76H16.3915C19.4502 19.76 22.017 21.9532 22.5365 24.9265C20.4415 26.5212 17.8301 27.47 15.0006 27.47C12.1706 27.47 9.55922 26.5212 7.46418 24.9265ZM15 0.9375C7.24546 0.9375 0.9375 7.24599 0.9375 15C0.9375 22.754 7.24546 29.0625 15 29.0625C22.754 29.0625 29.0625 22.754 29.0625 15C29.0625 7.24599 22.754 0.9375 15 0.9375Z" fill="#242424"/>
<path d="M18.6775 18.5103L18.3648 18.1202L17.625 18.7132L18.5322 18.9887L18.6775 18.5103ZM11.322 18.5098L11.4672 18.9883L12.3744 18.7129L11.6349 18.1198L11.322 18.5098ZM6.10721 23.7315L5.75048 24.0818L6.3424 24.6846L6.58598 23.8757L6.10721 23.7315ZM14.308 18.1691L14.2206 18.6614L14.264 18.6691H14.308V18.1691ZM14.1659 19.76V20.26H14.6659V19.76H14.1659ZM14.1659 19.7499L14.1689 19.2499L13.6659 19.2469V19.7499H14.1659ZM15.8237 19.76L15.8206 20.26L15.8694 20.2603L15.9172 20.2512L15.8237 19.76ZM15.8348 19.7579H16.3348V19.1537L15.7413 19.2667L15.8348 19.7579ZM15.8348 19.76H15.3348V20.26H15.8348V19.76ZM22.5365 24.9265L22.8394 25.3244L23.0814 25.1401L23.0291 24.8405L22.5365 24.9265ZM24.37 23.5873C23.5624 20.9058 21.4636 18.8341 18.8228 18.0319L18.5322 18.9887C20.8563 19.6947 22.7024 21.518 23.4125 23.8757L24.37 23.5873ZM18.9902 18.9005C20.4665 17.717 21.3893 15.9101 21.3893 13.9021H20.3893C20.3893 15.597 19.6119 17.1205 18.3648 18.1202L18.9902 18.9005ZM21.3893 13.9021C21.3893 10.3665 18.5253 7.48734 14.9995 7.48734V8.48734C17.969 8.48734 20.3893 10.9148 20.3893 13.9021H21.3893ZM14.9995 7.48734C11.4739 7.48734 8.60916 10.3621 8.60916 13.8941H9.60916C9.60916 10.9118 12.0288 8.48734 14.9995 8.48734V7.48734ZM8.60916 13.8941C8.60916 15.9056 9.53228 17.7152 11.0092 18.8998L11.6349 18.1198C10.3873 17.1191 9.60916 15.5931 9.60916 13.8941H8.60916ZM11.1768 18.0313C8.53543 18.833 6.43605 20.9053 5.62845 23.5873L6.58598 23.8757C7.29607 21.5175 9.14268 19.6937 11.4672 18.9883L11.1768 18.0313ZM6.46394 23.3812C4.34031 21.2188 3.02897 18.2604 3.02897 14.9995H2.02897C2.02897 18.5342 3.45159 21.741 5.75048 24.0818L6.46394 23.3812ZM3.02897 14.9995C3.02897 8.39933 8.39933 3.02897 14.9995 3.02897V2.02897C7.84705 2.02897 2.02897 7.84705 2.02897 14.9995H3.02897ZM14.9995 3.02897C21.5996 3.02897 26.97 8.39933 26.97 14.9995H27.97C27.97 7.84705 22.1519 2.02897 14.9995 2.02897V3.02897ZM26.97 14.9995C26.97 18.2603 25.6582 21.2187 23.5345 23.3812L24.248 24.0818C26.5468 21.7411 27.97 18.5343 27.97 14.9995H26.97ZM15.6919 17.6691H14.308V18.6691H15.6919V17.6691ZM14.3953 17.6768C12.5703 17.353 11.2016 15.7313 11.2016 13.8952H10.2016C10.2016 16.2226 11.9245 18.254 14.2206 18.6614L14.3953 17.6768ZM11.2016 13.8952C11.2016 11.7905 12.9075 10.0804 15 10.0804V9.08037C12.3515 9.08037 10.2016 11.2419 10.2016 13.8952H11.2016ZM15 10.0804C17.091 10.0804 18.7978 11.7933 18.7978 13.9031H19.7978C19.7978 11.2466 17.6488 9.08037 15 9.08037V10.0804ZM18.7978 13.9031C18.7978 15.7684 17.4626 17.3484 15.6049 17.6767L15.7789 18.6615C18.1071 18.25 19.7978 16.2609 19.7978 13.9031H18.7978ZM7.95673 25.0125C8.43431 22.2769 10.7951 20.26 13.6092 20.26V19.26C10.3048 19.26 7.53202 21.6306 6.97163 24.8405L7.95673 25.0125ZM13.6092 20.26H14.1659V19.26H13.6092V20.26ZM14.6659 19.76V19.7499H13.6659V19.76H14.6659ZM14.1628 20.2499L15.8206 20.26L15.8267 19.26L14.1689 19.2499L14.1628 20.2499ZM15.9172 20.2512L15.9284 20.2491L15.7413 19.2667L15.7301 19.2688L15.9172 20.2512ZM15.3348 19.7579V19.76H16.3348V19.7579H15.3348ZM15.8348 20.26H16.3915V19.26H15.8348V20.26ZM16.3915 20.26C19.205 20.26 21.5659 22.2764 22.044 25.0126L23.0291 24.8405C22.4681 21.6301 19.6954 19.26 16.3915 19.26V20.26ZM22.2337 24.5287C20.2222 26.0597 17.7164 26.97 15.0006 26.97V27.97C17.9438 27.97 20.6607 26.9826 22.8394 25.3244L22.2337 24.5287ZM15.0006 26.97C12.2843 26.97 9.77847 26.0597 7.76701 24.5287L7.16135 25.3244C9.33997 26.9826 12.0569 27.97 15.0006 27.97V26.97ZM15 0.4375C6.96931 0.4375 0.4375 6.96986 0.4375 15H1.4375C1.4375 7.52212 7.52161 1.4375 15 1.4375V0.4375ZM0.4375 15C0.4375 23.0301 6.96931 29.5625 15 29.5625V28.5625C7.52161 28.5625 1.4375 22.4779 1.4375 15H0.4375ZM15 29.5625C23.0302 29.5625 29.5625 23.0302 29.5625 15H28.5625C28.5625 22.4779 22.4779 28.5625 15 28.5625V29.5625ZM29.5625 15C29.5625 6.96985 23.0302 0.4375 15 0.4375V1.4375C22.4779 1.4375 28.5625 7.52213 28.5625 15H29.5625Z" fill="#242424"/>
</svg>
