<svg width="16" height="15" viewBox="0 0 16 15" fill="none" xmlns="http://www.w3.org/2000/svg">
<path fill-rule="evenodd" clip-rule="evenodd" d="M1.97707 15.0102C0.215741 15.0102 -0.504802 13.7037 0.375861 12.1072L6.39879 1.18746C7.27946 -0.409432 8.72054 -0.409432 9.6012 1.18746L15.6241 12.1072C16.5048 13.7041 15.7843 15.0102 14.0229 15.0102H1.97707ZM8.8006 8.30583C8.8006 8.76885 8.44233 9.14388 8 9.14388C7.55767 9.14388 7.1994 8.76885 7.1994 8.30583V4.95364C7.1994 4.49062 7.55767 4.1156 8 4.1156C8.44233 4.1156 8.8006 4.49062 8.8006 4.95364V8.30583ZM8 12.4961C8.44233 12.4961 8.8006 12.121 8.8006 11.658C8.8006 11.195 8.44233 10.82 8 10.82C7.55767 10.82 7.1994 11.195 7.1994 11.658C7.1994 12.121 7.55767 12.4961 8 12.4961Z" fill="#D40404"/>
</svg>
