<svg xmlns="http://www.w3.org/2000/svg" width="141" height="134" viewBox="0 0 141 134" fill="none"> <ellipse cx="25.6565" cy="105.676" rx="19.2423" ry="19.3239" fill="#0043FE"/> <g filter="url(#filter0_d_14_4936)"> <ellipse cx="68.9515" cy="62.1972" rx="35.0485" ry="35.1972" fill="white"/> </g> <path d="M68.7224 44.3302C59.028 44.3302 51.16 52.2315 51.16 61.9671C51.16 71.7027 59.028 79.6041 68.7224 79.6041C78.4169 79.6041 86.2849 71.7027 86.2849 61.9671C86.2849 52.2315 78.4169 44.3302 68.7224 44.3302ZM54.6725 61.9671C54.6725 54.1716 60.9599 47.8576 68.7224 47.8576C71.9715 47.8576 74.9571 48.9687 77.328 50.8382L57.6406 70.6092C55.7789 68.2282 54.6725 65.23 54.6725 61.9671ZM68.7224 76.0767C65.4734 76.0767 62.4878 74.9656 60.1169 73.096L79.8043 53.325C81.6659 55.706 82.7724 58.7043 82.7724 61.9671C82.7724 69.7627 76.485 76.0767 68.7224 76.0767Z" fill="#2C2C2C"/> <ellipse cx="12.8282" cy="70.2488" rx="12.8282" ry="12.8826" fill="#F156FF"/> <defs> <filter id="filter0_d_14_4936" x="7.11169" y="0.208645" width="133.422" height="133.719" filterUnits="userSpaceOnUse" color-interpolation-filters="sRGB"> <feFlood flood-opacity="0" result="BackgroundImageFix"/> <feColorMatrix in="SourceAlpha" type="matrix" values="0 0 0 0 0 0 0 0 0 0 0 0 0 0 0 0 0 0 127 0" result="hardAlpha"/> <feMorphology radius="2.43558" operator="dilate" in="SourceAlpha" result="effect1_dropShadow_14_4936"/> <feOffset dx="4.87116" dy="4.87116"/> <feGaussianBlur stdDeviation="14.6135"/> <feComposite in2="hardAlpha" operator="out"/> <feColorMatrix type="matrix" values="0 0 0 0 0 0 0 0 0 0 0 0 0 0 0 0 0 0 0.08 0"/> <feBlend mode="normal" in2="BackgroundImageFix" result="effect1_dropShadow_14_4936"/> <feBlend mode="normal" in="SourceGraphic" in2="effect1_dropShadow_14_4936" result="shape"/> </filter> </defs> </svg>
