<svg width="32" height="32" viewBox="0 0 32 32" fill="none" xmlns="http://www.w3.org/2000/svg">
<path d="M25.0002 10.0188H24.0002M22.6668 10.0188H21.6668M27.6668 17.3337V7.66699H4.3335V26.667H15.0002M4.3335 12.3337H27.6668M6.00016 6.33366V4.66699H26.0002V6.33366" stroke="#242424" stroke-width="1.1875"/>
<path d="M26.4722 27C27.4223 25.9385 28 24.5367 28 23C28 21.7733 27.6318 20.6325 27 19.6822M17.5278 27C16.5777 25.9385 16 24.5367 16 23C16 19.6863 18.6863 17 22 17C23.2334 17 24.3799 17.3722 25.3333 18.0104M21.713 24C21.1351 24 20.6667 23.5319 20.6667 22.9544C20.6667 22.6694 20.7417 22.4316 20.9658 22.2225C21.713 21.5251 25.3333 19.6667 25.3333 19.6667C25.3333 19.6667 23.1408 22.9544 22.4602 23.6863C22.2657 23.8955 22.0057 24 21.713 24Z" stroke="#0E68DD" stroke-width="1.1875"/>
<path d="M7.3335 16H15.6668M7.3335 18H14.0002M23.7356 18.6667C23.1991 18.4516 22.6135 18.3333 22.0002 18.3333C19.4228 18.3333 17.3335 20.4227 17.3335 23C17.3335 23.4633 17.401 23.9109 17.5267 24.3333M7.66683 21.6667H13.6668V23.6667H7.66683V21.6667Z" stroke="#242424" stroke-opacity="0.5" stroke-width="1.1875"/>
</svg>
