<svg width="38" height="38" viewBox="0 0 38 38" fill="none" xmlns="http://www.w3.org/2000/svg">
<path d="M15.1875 24.75C14.7094 24.75 14.3089 24.588 13.986 24.264C13.662 23.9411 13.5 23.5406 13.5 23.0625V18C13.5 17.5219 13.662 17.1208 13.986 16.7968C14.3089 16.4739 14.7094 16.3125 15.1875 16.3125V14.625C15.1875 13.6969 15.5177 12.9021 16.1781 12.2406C16.8396 11.5802 17.6344 11.25 18.5625 11.25C19.4906 11.25 20.2854 11.5802 20.9469 12.2406C21.6073 12.9021 21.9375 13.6969 21.9375 14.625V16.3125C22.4156 16.3125 22.8161 16.4739 23.139 16.7968C23.463 17.1208 23.625 17.5219 23.625 18V23.0625C23.625 23.5406 23.463 23.9411 23.139 24.264C22.8161 24.588 22.4156 24.75 21.9375 24.75H15.1875ZM16.875 16.3125H20.25V14.625C20.25 14.1469 20.088 13.7458 19.764 13.4218C19.4411 13.0989 19.0406 12.9375 18.5625 12.9375C18.0844 12.9375 17.6839 13.0989 17.361 13.4218C17.037 13.7458 16.875 14.1469 16.875 14.625V16.3125Z" fill="#242424"/>
<path fill-rule="evenodd" clip-rule="evenodd" d="M33.489 22.8824C35.6332 14.8804 30.7891 6.62977 22.6695 4.45413C15.7658 2.6043 8.71697 5.7418 5.44273 11.6415L6.92574 12.4515C9.88025 7.12784 16.1911 4.44371 22.2381 6.06401C29.4556 7.99791 33.7614 15.3318 31.8555 22.4447C29.9496 29.5575 22.5537 33.7559 15.3363 31.822C12.2509 30.9953 9.61724 29.1587 7.79926 26.6366L6.42519 27.5974C8.41296 30.3551 11.3439 32.4777 14.9049 33.4319C23.0245 35.6075 31.3449 30.8844 33.489 22.8824Z" fill="#0F71F0"/>
</svg>
