<?xml version="1.0" encoding="UTF-8" standalone="no"?>
<!-- Generator: Adobe Illustrator 25.0.1, SVG Export Plug-In . SVG Version: 6.00 Build 0)  -->

<svg
   version="1.1"
   id="Layer_1"
   x="0px"
   y="0px"
   viewBox="0 0 614.71073 91.54529"
   xml:space="preserve"
   width="614.71075"
   height="91.545288"
   xmlns="http://www.w3.org/2000/svg"
   xmlns:svg="http://www.w3.org/2000/svg"><defs
   id="defs297" />
<style
   type="text/css"
   id="style154">
	.st0{fill:#7DCC26;}
	.st1{fill:#222F39;}
</style>
<g
   id="g186"
   transform="translate(-21.2,-47.9)">
		<g
   id="g184">
			<path
   class="st0"
   d="M 35.6,63.1 81,109.3 c 0,0 4.1,4 4.1,10.5 0,3.9 -2.9,16 -16,16 -6.4,0 -10.7,-4 -10.7,-4 L 27.5,100.7 c 0,0 -6.3,-5.4 -6.3,-12.9 0,-9.6 0,-12 0,-20 0,-8 8,-8 8,-8 3.8,0.1 6.4,3.3 6.4,3.3 z m 107,0 -45.4,46.2 c 0,0 -4.1,4 -4.1,10.5 0,3.9 2.9,16 16,16 6.4,0 10.7,-4 10.7,-4 l 30.9,-31.1 c 0,0 6.3,-5.4 6.3,-12.9 0,-9.6 0,-12 0,-20 0,-8 -8,-8 -8,-8 -3.8,0.1 -6.4,3.3 -6.4,3.3 z M 89.1,47.9 c -11,0 -20,9 -20,20 0,5 1.9,9.6 4.9,13.1 l 12.1,13.5 c 0.7,0.8 1.8,1.3 3,1.3 1.2,0 2.3,-0.5 3,-1.3 l 11.8,-13.2 c 3.2,-3.6 5.2,-8.3 5.2,-13.5 0,-11 -8.9,-19.9 -20,-19.9 z"
   id="path156" />
			<g
   id="g182">
				<g
   id="g180">
					<g
   id="g174">
						<g
   id="g172">
							<path
   class="st1"
   d="m 254.9,55.8 -16,47.9 h -16 l -9.3,-28 -9.3,28 h -16 l -16,-47.9 h 16 l 9.5,28.6 9.5,-28.6 h 12.5 l 9.5,28.6 9.5,-28.6 z"
   id="path158" />
							<path
   class="st1"
   d="m 308.6,91.8 v 12 h -49.3 v -48 h 49.3 v 12 H 274 v 6 h 32 v 12 h -32 v 6 z"
   id="path160" />
							<path
   class="st1"
   d="m 370.5,90 c 0,7.6 -6.2,13.8 -13.8,13.8 h -40.8 v -48 H 354 c 7.6,0 13.8,6.2 13.8,13.8 0,3.4 -1.2,6.5 -3.3,9 3.6,2.5 6,6.6 6,11.4 z m -40,-22.2 v 6.7 h 19.3 c 1.8,0 3.3,-1.5 3.3,-3.3 0,-1.8 -1.5,-3.3 -3.3,-3.3 h -19.3 z m 25.3,20.6 c 0,-1.8 -1.5,-3.3 -3.3,-3.3 h -22 v 6.7 h 22 c 1.8,0 3.3,-1.5 3.3,-3.4 z"
   id="path162" />
							<path
   class="st1"
   d="m 409,91.8 h -17.6 v 12 h -14.6 v -48 h 36.6 c 9.9,0 18,8.1 18,18 0,6 -3,11.4 -7.6,14.6 l 8.1,15.3 h -16.5 z m -17.6,-12 h 19.3 c 3.3,0 6,-2.7 6,-6 0,-3.3 -2.7,-6 -6,-6 h -19.3 z"
   id="path164" />
							<path
   class="st1"
   d="m 466.9,105.1 c -18.7,0 -30.7,-5.3 -30.7,-25.3 0,-18.6 10.7,-25.3 30.7,-25.3 19.9,0 30.6,6.7 30.6,25.3 0,20 -10.7,25.3 -30.6,25.3 z m 0,-38.6 c -9.4,0 -14.7,2.7 -14.7,13.3 0,10.7 5.3,13.3 14.7,13.3 9.3,0 14.6,-2.7 14.6,-13.3 0,-10.7 -5.2,-13.3 -14.6,-13.3 z"
   id="path166" />
							<path
   class="st1"
   d="m 532.9,105.1 c -18.7,0 -30.7,-5.3 -30.7,-25.3 0,-18.6 10.7,-25.3 30.7,-25.3 19.9,0 30.6,6.7 30.6,25.3 0,20 -10.7,25.3 -30.6,25.3 z m 0,-38.6 c -9.4,0 -14.7,2.7 -14.7,13.3 0,10.7 5.3,13.3 14.7,13.3 9.3,0 14.6,-2.7 14.6,-13.3 0,-10.7 -5.2,-13.3 -14.6,-13.3 z"
   id="path168" />
							<path
   class="st1"
   d="m 619.9,67.8 h -19.3 v 35.9 H 586 V 67.8 h -19.3 v -12 H 620 v 12 z"
   id="path170" />
						</g>
					</g>
					<g
   id="g178">
						<path
   class="st1"
   d="m 634.2,65.8 c -1.1,1.1 -2.5,1.6 -4.1,1.6 -1.6,0 -3,-0.6 -4.1,-1.7 -1.1,-1.1 -1.7,-2.5 -1.7,-4.1 0,-1.7 0.6,-3.1 1.8,-4.2 1.1,-1.1 2.5,-1.6 4,-1.6 1.6,0 3,0.6 4.1,1.7 1.1,1.1 1.7,2.5 1.7,4.1 0.1,1.7 -0.5,3.1 -1.7,4.2 z m -7.5,-7.5 c -0.9,0.9 -1.4,2.1 -1.4,3.4 0,1.3 0.5,2.5 1.4,3.4 0.9,0.9 2.1,1.4 3.4,1.4 1.3,0 2.4,-0.5 3.4,-1.4 0.9,-1 1.4,-2.1 1.4,-3.4 0,-1.3 -0.5,-2.4 -1.4,-3.4 -0.9,-1 -2.1,-1.4 -3.4,-1.4 -1.3,-0.1 -2.4,0.4 -3.4,1.4 z m 0.9,6.6 v -6.4 c 0.4,0 1,0 1.8,0 0.8,0 1.2,0 1.3,0 0.5,0 0.9,0.1 1.3,0.3 0.6,0.3 0.9,0.8 0.9,1.5 0,0.5 -0.2,0.9 -0.5,1.2 -0.3,0.2 -0.7,0.4 -1.1,0.4 0.4,0.1 0.7,0.2 0.9,0.4 0.4,0.3 0.6,0.8 0.6,1.4 v 0.6 c 0,0.1 0,0.1 0,0.2 0,0.1 0,0.1 0,0.2 l 0.1,0.2 h -1.6 c -0.1,-0.2 -0.1,-0.5 -0.1,-0.9 0,-0.4 -0.1,-0.7 -0.1,-0.8 -0.1,-0.2 -0.2,-0.4 -0.5,-0.5 -0.1,-0.1 -0.3,-0.1 -0.6,-0.1 h -0.4 -0.4 v 2.3 z m 3.1,-5.2 c -0.2,-0.1 -0.6,-0.1 -1,-0.1 h -0.4 v 1.9 h 0.7 c 0.4,0 0.7,-0.1 0.9,-0.2 0.2,-0.2 0.3,-0.4 0.3,-0.8 0,-0.4 -0.2,-0.7 -0.5,-0.8 z"
   id="path176" />
					</g>
				</g>
			</g>
		</g>
	</g><g
   id="g290"
   transform="translate(-21.404635,-90.054712)">
		<g
   id="g224">
			<g
   id="g222">
				<path
   class="st1"
   d="m 326.6,164.8 c -0.9,-0.4 -1.9,-0.6 -2.7,-0.6 -2.7,0 -4.3,2.5 -4.3,5 0,2.4 1.3,5 4.4,5 0.8,0 1.9,-0.3 2.6,-0.8 l 0.2,2.2 c -1,0.5 -2.2,0.5 -3.1,0.5 -4,0 -6.8,-3.2 -6.8,-7 0,-4 2.7,-7 6.8,-7 1,0 2.3,0.2 3,0.5 z"
   id="path208" />
				<path
   class="st1"
   d="m 334.6,162.2 c 4,0 6.8,2.9 6.8,7 0,3.8 -2.8,7 -6.8,7 -4,0 -6.8,-3.2 -6.8,-7 0,-4 2.7,-7 6.8,-7 z m 0,12 c 2.9,0 4.1,-2.6 4.1,-5 0,-2.5 -1.5,-5 -4.1,-5 -2.6,0 -4.2,2.5 -4.2,5 0,2.4 1.3,5 4.2,5 z"
   id="path210" />
				<path
   class="st1"
   d="m 343.6,162.5 h 2.3 v 1.9 h 0.1 c 0.9,-1.5 2.3,-2.2 4.2,-2.2 1.5,0 3.1,0.8 3.8,2.6 0.9,-1.9 2.9,-2.6 4.1,-2.6 3.4,0 4.6,2.2 4.6,5.1 v 8.5 h -2.5 v -7.9 c 0,-1.6 -0.4,-3.7 -2.4,-3.7 -2.5,0 -3.5,2.5 -3.5,4.9 v 6.7 h -2.5 v -7.9 c 0,-1.6 -0.4,-3.7 -2.4,-3.7 -2.5,0 -3.5,2.5 -3.5,4.9 v 6.7 h -2.5 v -13.3 z"
   id="path212" />
				<path
   class="st1"
   d="m 365.7,162.5 h 2.3 v 1.9 h 0.1 c 0.7,-1 2.2,-2.2 4.5,-2.2 3.9,0 5.7,3.2 5.7,6.7 0,3.7 -1.7,7.2 -5.7,7.2 -2.3,0 -3.7,-0.9 -4.4,-2.1 h -0.1 v 7.3 h -2.5 v -18.8 z m 6.4,1.7 c -2.7,0 -3.9,2.5 -3.9,5 0,2.2 1.1,5 3.9,5 2.6,0 3.7,-2.9 3.7,-5 0,-2.5 -1,-5 -3.7,-5 z"
   id="path214" />
				<path
   class="st1"
   d="m 381.3,163.5 c 1.2,-0.7 2.7,-1.3 4.4,-1.3 3.8,0 5.3,1.9 5.3,5.5 v 5.5 c 0,1.5 0.1,2.2 0.1,2.6 h -2.3 v -1.7 h -0.1 c -0.6,0.8 -1.9,2 -4.1,2 -2.9,0 -4.9,-1.3 -4.9,-4.1 0,-3.3 3.7,-4.4 6.2,-4.4 1,0 1.6,0 2.6,0.1 0,-2.3 -0.8,-3.5 -3.3,-3.5 -1.4,0 -2.9,0.5 -3.9,1.4 z m 7.2,6 c -0.5,0 -1,-0.1 -1.6,-0.1 -1.3,0 -4.6,0.2 -4.6,2.6 0,1.4 1.4,2.2 2.5,2.2 2.4,0 3.7,-1.5 3.7,-3.5 z"
   id="path216" />
				<path
   class="st1"
   d="m 394.1,162.5 h 2.4 v 2.1 h 0.1 c 0.7,-1.5 2.5,-2.4 4.4,-2.4 3.4,0 5,2.1 5,5.7 v 7.9 h -2.5 V 169 c 0,-3.1 -0.7,-4.6 -2.8,-4.7 -2.8,0 -4,2.2 -4,5.5 v 6.2 h -2.5 v -13.5 z"
   id="path218" />
				<path
   class="st1"
   d="m 408,179.4 c 0.3,0.1 0.7,0.2 1.1,0.2 2.2,0 2.9,-3 2.9,-3.3 0,-0.3 -0.3,-1 -0.5,-1.4 L 407,162.5 h 2.7 l 3.6,11 h 0.1 l 3.7,-11 h 2.5 l -4.9,13.6 c -0.9,2.6 -1.9,5.5 -5.1,5.5 -0.8,0 -1.2,-0.1 -1.7,-0.2 z"
   id="path220" />
			</g>
		</g>
		<g
   id="g232">
			<g
   id="g230">
				<path
   class="st1"
   d="m 175.1,163.5 c 1.2,-0.7 2.7,-1.3 4.4,-1.3 3.8,0 5.3,1.9 5.3,5.5 v 5.5 c 0,1.5 0.1,2.2 0.1,2.6 h -2.3 v -1.7 h -0.1 c -0.6,0.8 -1.9,2 -4.1,2 -2.9,0 -4.9,-1.3 -4.9,-4.1 0,-3.3 3.7,-4.4 6.2,-4.4 1,0 1.6,0 2.6,0.1 0,-2.3 -0.8,-3.5 -3.3,-3.5 -1.4,0 -2.9,0.5 -3.9,1.4 z m 7.3,6 c -0.5,0 -1,-0.1 -1.6,-0.1 -1.3,0 -4.6,0.2 -4.6,2.6 0,1.4 1.4,2.2 2.5,2.2 2.4,0 3.7,-1.5 3.7,-3.5 z"
   id="path226" />
				<path
   class="st1"
   d="m 187.9,162.5 h 2.4 v 2.1 h 0.1 c 0.7,-1.5 2.5,-2.4 4.4,-2.4 3.4,0 5,2.1 5,5.7 v 7.9 h -2.5 V 169 c 0,-3.1 -0.7,-4.6 -2.8,-4.7 -2.8,0 -4,2.2 -4,5.5 V 176 H 188 v -13.5 z"
   id="path228" />
			</g>
		</g>
		<g
   id="g288">
			<g
   id="g286">
				<g
   id="g284">
					<g
   id="g282">
						<g
   id="g238">
							<g
   id="g236">
								<path
   class="st1"
   d="m 226.6,163.6 c 0,-0.2 0,-0.7 0,-1 -1.3,0 -2.6,0 -3.9,0 0,5.9 0,11.7 0,17.5 1.3,0 2.5,0 3.8,0 0,-1.8 0,-3.5 0,-5.4 0.2,0.1 0.2,0.1 0.3,0.2 2.4,2 6.1,1.4 7.7,-1.3 1.4,-2.4 1.5,-5 0.7,-7.6 -1.2,-3.8 -5.7,-5.1 -8.6,-2.4 z m 4.7,8 c -0.5,0.9 -1.2,1.4 -2.3,1.3 -1,-0.1 -1.8,-0.6 -2.1,-1.6 -0.3,-0.7 -0.5,-1.5 -0.5,-2.3 0,-0.8 0.2,-1.6 0.5,-2.3 0.4,-1 1.3,-1.4 2.3,-1.5 1,0 1.7,0.5 2.1,1.4 0.9,1.7 0.8,3.4 0,5 z"
   id="path234" />
							</g>
						</g>
						<g
   id="g244">
							<g
   id="g242">
								<path
   class="st1"
   d="m 211.4,162.6 c -2.8,0.8 -4.4,3.3 -4.3,6.5 0,2.5 0.8,4.7 3.1,6 2.3,1.3 4.7,1.4 7.1,0.5 4.7,-1.8 5.1,-8.3 2.3,-11.2 -2.4,-2.4 -5.3,-2.7 -8.2,-1.8 z m 4.5,9.8 c -1.5,1.1 -3.8,0.5 -4.6,-1.3 -0.6,-1.4 -0.6,-2.9 0.1,-4.3 0.6,-1.2 1.6,-1.6 2.8,-1.6 1.2,0 3.1,0.8 3.1,3.7 0.1,1.5 -0.3,2.6 -1.4,3.5 z"
   id="path240" />
							</g>
						</g>
						<g
   id="g250">
							<g
   id="g248">
								<path
   class="st1"
   d="m 250.3,169.9 c -0.1,-1.5 -0.2,-2.9 -0.8,-4.3 -0.8,-1.7 -2.1,-2.8 -3.9,-3.3 -1.4,-0.3 -2.8,-0.3 -4.1,0.1 -2.1,0.5 -3.4,1.9 -4.2,3.9 -0.4,1.2 -0.6,2.5 -0.5,3.7 0.2,2.6 1.4,4.6 3.9,5.5 2.4,0.8 4.8,0.6 7.1,-0.6 1.1,-0.6 1.8,-1.5 2.3,-2.7 -1,-0.5 -1.9,-1 -2.9,-1.5 -1.5,2.1 -2.9,2.8 -4.6,2.1 -1.2,-0.5 -1.9,-1.8 -1.7,-3 3.1,0.1 6.3,0.1 9.4,0.1 z m -9.4,-2.5 c 0.2,-1.6 1.3,-2.6 2.8,-2.6 1.5,0 2.4,1 2.5,2.6 -1.7,0 -3.5,0 -5.3,0 z"
   id="path246" />
							</g>
						</g>
						<g
   id="g256">
							<g
   id="g254">
								<path
   class="st1"
   d="m 283,170.8 c -1.1,2.2 -2.5,2.6 -4.2,2.1 -1.2,-0.3 -2,-1.6 -1.8,-3.1 3.1,0 6.2,0 9.4,0 0,-1.6 -0.2,-3.1 -0.9,-4.5 -0.8,-1.6 -2.1,-2.7 -3.9,-3.1 -1.4,-0.3 -2.7,-0.2 -4.1,0.1 -1.9,0.5 -3.2,1.7 -4,3.5 -0.8,1.7 -0.8,3.6 -0.4,5.4 0.6,2.5 2.1,4 4.5,4.6 1.2,0.3 2.5,0.2 3.8,0 2.2,-0.3 3.6,-1.6 4.5,-3.6 -1,-0.4 -2,-0.9 -2.9,-1.4 z m -3.3,-6 c 1.5,0 2.5,1 2.6,2.6 -1.8,0 -3.5,0 -5.3,0 0,-1.5 1.1,-2.6 2.7,-2.6 z"
   id="path252" />
							</g>
						</g>
						<g
   id="g260">
							<path
   class="st1"
   d="m 262.2,162.8 c -1.2,-0.7 -2.4,-0.7 -3.7,-0.5 -1,0.2 -1.8,0.5 -2.5,1.4 0,-0.5 0,-0.8 -0.1,-1.1 -1.3,0 -2.6,0 -3.9,0 0,4.4 0,8.8 0,13.2 1.3,0 2.6,0 3.9,0 0,-0.1 0,-0.2 0,-0.3 0,-2.3 0,-4.6 0,-6.9 0,-0.5 0,-1.1 0.1,-1.6 0.1,-0.7 0.5,-1.3 1.2,-1.4 0.8,-0.2 1.6,-0.2 2.1,0.4 0.3,0.4 0.5,1.1 0.5,1.6 0.1,2.5 0,5 0.1,7.6 0,0.2 0,0.5 0,0.7 1.3,0 2.5,0 3.8,0 0,-0.1 0.1,-0.1 0.1,-0.1 0,-3.4 0,-6.8 -0.1,-10.1 0,-1.4 -0.5,-2.3 -1.5,-2.9 z"
   id="path258" />
						</g>
						<g
   id="g264">
							<path
   class="st1"
   d="m 298.4,162.5 h -4.5 l -1.9,3 c 0,0 -0.6,-0.8 -0.8,-1.2 -0.4,-0.6 -1.2,-1.8 -1.2,-1.8 h -4.5 l 4.3,6.3 -4.4,6.9 h 4.3 l 2.4,-3.6 2.5,3.6 h 4.5 l -4.9,-7 z"
   id="path262" />
						</g>
						<g
   id="g268">
							<path
   class="st1"
   d="m 304.6,159.7 c -1.3,0 -2.6,0 -3.9,0 0,0.9 0,2.7 0,2.7 h -0.6 l -1.8,2.8 c 0,0 1.7,0 2.4,0 0,0.3 0,0.5 0,0.8 0,2.3 0,4.5 0,6.8 0,1.6 0.9,2.6 2.4,2.9 1.3,0.2 3.7,0 3.7,0 0,0 0,-2.1 0,-3.1 -0.4,0 -1.4,0 -1.7,0 -0.6,0 -0.7,-0.4 -0.7,-0.8 0,-1.8 0,-6.5 0,-6.5 0,0 1.7,0 2.6,0 0,-0.9 0,-1.8 0,-2.7 -0.9,0 -1.7,0 -2.6,0 0.2,-1.1 0.2,-2 0.2,-2.9 z"
   id="path266" />
						</g>
						<g
   id="g272">
							<path
   class="st1"
   d="m 270.4,172.6 c -0.4,0 -0.8,-0.2 -0.8,-0.8 0,-1.9 0,-6.5 0,-6.5 h 2.3 c 0,0 1.3,-2.1 1.8,-2.8 -1.5,0 -2.7,0 -4.1,0 0,-1 0,-1.8 0,-2.7 -1.3,0 -2.5,0 -3.8,0 0,0.3 0,0.5 0,0.7 0,3.7 0,7.4 0,11.1 0,0.5 0,0.9 0,1.4 0,1.7 1.2,2.9 2.9,2.9 1.1,0 3.3,-0.1 3.3,-0.1 0,0 0,-2.2 0,-3.2 -0.4,0 -1.3,0 -1.6,0 z"
   id="path270" />
						</g>
						<g
   id="g276">
							<polygon
   class="st1"
   points="309.4,162.9 310.3,162.9 310.3,165.2 310.7,165.2 310.7,162.9 311.6,162.9 311.6,162.5 309.4,162.5 "
   id="polygon274" />
						</g>
						<g
   id="g280">
							<polygon
   class="st1"
   points="311.9,165.2 312.3,165.2 312.3,163.2 312.9,165.2 313,165.2 313.3,165.2 313.4,165.2 314.1,163.1 314.1,165.2 314.5,165.2 314.5,162.5 314.3,162.5 314.1,162.5 313.9,162.5 313.2,164.7 312.5,162.5 312.3,162.5 312.1,162.5 311.9,162.5 "
   id="polygon278" />
						</g>
					</g>
				</g>
			</g>
		</g>
	</g>
</svg>
