<svg width="32" height="32" viewBox="0 0 32 32" fill="none" xmlns="http://www.w3.org/2000/svg">
<path d="M16.6189 14.412C16.1486 14.2651 15.659 14.1896 15.1663 14.188C14.084 14.1848 13.0281 14.523 12.1487 15.1544C11.2692 15.7859 10.6108 16.6786 10.2669 17.7058C9.92304 18.733 9.91114 19.8425 10.2329 20.8769C10.5547 21.9113 11.1938 22.8179 12.0595 23.4681C12.9252 24.1183 13.9736 24.479 15.0557 24.4991C16.1378 24.5192 17.1988 24.1976 18.088 23.5799C18.9772 22.9622 19.6494 22.0799 20.0092 21.0582C20.3691 20.0365 20.3983 18.9273 20.0926 17.888L21.2535 16.725L21.2535 15.125L23.1268 15.125L23.1268 13.25L25 13.25L25 9.50002L21.5283 9.50002L16.6189 14.412ZM24.0629 10.438L24.0629 12.312L22.1907 12.312L22.1907 14.188L20.3164 14.188L20.3164 16.337L19.0176 17.637L19.1176 17.916C19.2881 18.3709 19.3777 18.8522 19.3823 19.338C19.3825 20.1725 19.1354 20.9884 18.6724 21.6823C18.2093 22.3763 17.551 22.9172 16.7808 23.2367C16.0105 23.5561 15.1629 23.6398 14.3452 23.477C13.5275 23.3142 12.7764 22.9124 12.1868 22.3223C11.5973 21.7322 11.1958 20.9804 11.0332 20.1619C10.8706 19.3434 10.9541 18.495 11.2733 17.724C11.5924 16.9531 12.1329 16.2941 12.8262 15.8306C13.5195 15.3671 14.3345 15.1198 15.1683 15.12C15.6537 15.1245 16.1345 15.2142 16.5889 15.385L16.8687 15.485L21.9179 10.432L24.0629 10.438Z" fill="#2146FF"/>
<path d="M12.4921 20.0131C12.4929 20.4102 12.6114 20.7983 12.8326 21.1281C13.0539 21.458 13.3679 21.7148 13.7351 21.8663C14.1022 22.0177 14.5061 22.0569 14.8955 21.979C15.285 21.901 15.6425 21.7094 15.9231 21.4282C16.2037 21.1471 16.3946 20.7891 16.4718 20.3995C16.549 20.0099 16.509 19.6062 16.3568 19.2393C16.2046 18.8725 15.9471 18.5589 15.6169 18.3384C15.2866 18.1178 14.8983 18.0001 14.5011 18.0001C14.237 18.0003 13.9756 18.0526 13.7317 18.1539C13.4878 18.2552 13.2663 18.4036 13.0797 18.5905C12.8932 18.7774 12.7453 18.9993 12.6444 19.2433C12.5436 19.4874 12.4919 19.749 12.4921 20.0131V20.0131ZM15.5051 20.0131C15.5051 20.2108 15.4465 20.4042 15.3366 20.5686C15.2267 20.7331 15.0705 20.8613 14.8878 20.9369C14.7051 21.0126 14.504 21.0324 14.31 20.9939C14.1161 20.9553 13.9379 20.86 13.798 20.7202C13.6582 20.5803 13.5629 20.4021 13.5243 20.2082C13.4858 20.0142 13.5056 19.8131 13.5812 19.6304C13.6569 19.4477 13.7851 19.2915 13.9496 19.1816C14.114 19.0717 14.3073 19.0131 14.5051 19.0131C14.7703 19.0131 15.0247 19.1184 15.2122 19.306C15.3998 19.4935 15.5051 19.7478 15.5051 20.0131Z" fill="#2146FF"/>
<path d="M8.6 17.9C8.17565 17.9 7.76869 17.7314 7.46863 17.4314C7.16857 17.1313 7 16.7243 7 16.3V9.1C7 8.67565 7.16857 8.26869 7.46863 7.96863C7.76869 7.66857 8.17565 7.5 8.6 7.5H15.8C16.2243 7.5 16.6313 7.66857 16.9314 7.96863C17.2314 8.26869 17.4 8.67565 17.4 9.1V11.5" stroke="#2146FF" stroke-linecap="round" stroke-linejoin="round"/>
</svg>
