<svg width="24" height="24" viewBox="0 0 24 24" fill="none" xmlns="http://www.w3.org/2000/svg">
<path d="M14.088 10.6115C14.2349 10.1407 14.3104 9.65062 14.312 9.15749C14.3152 8.07414 13.977 7.01732 13.3456 6.13703C12.7141 5.25674 11.8214 4.59772 10.7942 4.2535C9.767 3.90929 8.65747 3.89738 7.6231 4.21947C6.58874 4.54155 5.68211 5.18126 5.0319 6.04779C4.3817 6.91432 4.02096 7.96365 4.00089 9.04681C3.98082 10.13 4.30244 11.1919 4.92009 12.082C5.53775 12.972 6.42006 13.6448 7.44178 14.005C8.46351 14.3652 9.57272 14.3944 10.612 14.0885L11.775 15.2505H13.375V17.1255H15.25V19.0005H19V15.5255L14.088 10.6115ZM18.062 18.0625H16.188V16.1885H14.312V14.3125H12.163L10.863 13.0125L10.584 13.1125C10.1291 13.2832 9.64782 13.3729 9.16198 13.3775C8.32745 13.3777 7.51161 13.1304 6.81765 12.6669C6.12369 12.2034 5.58277 11.5445 5.26332 10.7735C4.94387 10.0025 4.86024 9.15414 5.023 8.33564C5.18576 7.51715 5.5876 6.7653 6.17769 6.1752C6.76779 5.5851 7.51964 5.18326 8.33814 5.0205C9.15664 4.85774 10.005 4.94138 10.776 5.26083C11.5469 5.58028 12.2059 6.12119 12.6694 6.81516C13.1329 7.50912 13.3802 8.32496 13.38 9.15948C13.3755 9.64533 13.2858 10.1266 13.115 10.5815L13.015 10.8615L18.068 15.9155L18.062 18.0625Z" fill="#1D1D21"/>
<path d="M8.48698 6.47852C8.08981 6.47931 7.70178 6.59781 7.37193 6.81904C7.04208 7.04027 6.7852 7.35431 6.63376 7.72147C6.48232 8.08864 6.4431 8.49245 6.52107 8.8819C6.59904 9.27134 6.79069 9.62894 7.07182 9.9095C7.35294 10.1901 7.71091 10.381 8.10051 10.4582C8.49011 10.5354 8.89385 10.4954 9.26071 10.3432C9.62758 10.191 9.9411 9.93353 10.1617 9.60324C10.3823 9.27295 10.5 8.88469 10.5 8.48752C10.4997 8.22343 10.4474 7.96198 10.3461 7.71809C10.2448 7.47421 10.0965 7.25266 9.90956 7.06611C9.72263 6.87956 9.5008 6.73165 9.25671 6.63083C9.01262 6.53001 8.75107 6.47825 8.48698 6.47852V6.47852ZM8.48698 9.49152C8.2892 9.49152 8.09586 9.43287 7.93141 9.32299C7.76696 9.2131 7.63879 9.05693 7.5631 8.8742C7.48741 8.69147 7.46761 8.49041 7.50619 8.29643C7.54478 8.10245 7.64002 7.92426 7.77987 7.78441C7.91973 7.64456 8.09791 7.54932 8.29189 7.51073C8.48587 7.47215 8.68694 7.49195 8.86966 7.56764C9.05239 7.64332 9.20857 7.7715 9.31845 7.93595C9.42833 8.1004 9.48698 8.29374 9.48698 8.49152C9.48698 8.75673 9.38162 9.01109 9.19409 9.19862C9.00655 9.38616 8.7522 9.49152 8.48698 9.49152Z" fill="#1D1D21"/>
</svg>
