<svg width="24" height="24" viewBox="-2 -2 24 24" fill="none" xmlns="http://www.w3.org/2000/svg">
<mask id="path-1-inside-1" fill="white">
<path d="M18.1719 4.2363C16.7995 2.29055 14.7779 0.89832 12.4707 0.310031C10.1635 -0.278257 7.72211 -0.0239968 5.58563 1.02708C3.44915 2.07816 1.75781 3.85707 0.815838 6.04384C-0.126135 8.23062 -0.256926 10.6817 0.446991 12.9564C1.15091 15.231 2.64333 17.1797 4.65583 18.4522C6.66833 19.7247 9.06882 20.2373 11.4255 19.8979C13.7822 19.5584 15.9405 18.3893 17.5121 16.6006C19.0838 14.8119 19.9656 12.5212 19.999 10.1404L18.4992 10.1193C18.4708 12.143 17.7212 14.0901 16.3853 15.6105C15.0494 17.1309 13.2149 18.1247 11.2117 18.4132C9.2085 18.7017 7.16808 18.266 5.45746 17.1844C3.74683 16.1028 2.47827 14.4463 1.87994 12.5129C1.28161 10.5795 1.39279 8.49603 2.19346 6.63727C2.99414 4.77851 4.43177 3.26643 6.24778 2.37302C8.06379 1.4796 10.139 1.26348 12.1001 1.76353C14.0613 2.26357 15.7796 3.44697 16.9461 5.10086L18.1719 4.2363Z"/>
</mask>
<path d="M18.1719 4.2363C16.7995 2.29055 14.7779 0.89832 12.4707 0.310031C10.1635 -0.278257 7.72211 -0.0239968 5.58563 1.02708C3.44915 2.07816 1.75781 3.85707 0.815838 6.04384C-0.126135 8.23062 -0.256926 10.6817 0.446991 12.9564C1.15091 15.231 2.64333 17.1797 4.65583 18.4522C6.66833 19.7247 9.06882 20.2373 11.4255 19.8979C13.7822 19.5584 15.9405 18.3893 17.5121 16.6006C19.0838 14.8119 19.9656 12.5212 19.999 10.1404L18.4992 10.1193C18.4708 12.143 17.7212 14.0901 16.3853 15.6105C15.0494 17.1309 13.2149 18.1247 11.2117 18.4132C9.2085 18.7017 7.16808 18.266 5.45746 17.1844C3.74683 16.1028 2.47827 14.4463 1.87994 12.5129C1.28161 10.5795 1.39279 8.49603 2.19346 6.63727C2.99414 4.77851 4.43177 3.26643 6.24778 2.37302C8.06379 1.4796 10.139 1.26348 12.1001 1.76353C14.0613 2.26357 15.7796 3.44697 16.9461 5.10086L18.1719 4.2363Z" stroke="#6E6E78" stroke-width="2" mask="url(#path-1-inside-1)"/>
<path d="M18 1V5H14" stroke="#6E6E78" stroke-width="1.4"/>
<path d="M5 10C5 9.44772 5.44772 9 6 9H13C13.5523 9 14 9.44772 14 10V13C14 14.1046 13.1046 15 12 15H7C5.89543 15 5 14.1046 5 13V10Z" fill="#6E6E78"/>
<path d="M7 9V7.5C7 6.11929 8.11929 5 9.5 5V5C10.8807 5 12 6.11929 12 7.5V9" stroke="#6E6E78" stroke-width="1.4"/>
</svg>
