<svg width="14" height="14" viewBox="0 0 14 14" fill="none" xmlns="http://www.w3.org/2000/svg">
<path fill-rule="evenodd" clip-rule="evenodd" d="M9.1 1C9.52829 1 9.81944 1.00039 10.0445 1.01878C10.2637 1.03669 10.3758 1.06915 10.454 1.10899C10.6422 1.20487 10.7951 1.35785 10.891 1.54601C10.9309 1.62421 10.9633 1.73631 10.9812 1.95552C10.9996 2.18056 11 2.47171 11 2.9V11H2.9C2.47171 11 2.18056 10.9996 1.95552 10.9812C1.73631 10.9633 1.62421 10.9309 1.54601 10.891C1.35785 10.7951 1.20487 10.6422 1.10899 10.454C1.06915 10.3758 1.03669 10.2637 1.01878 10.0445C1.00039 9.81944 1 9.52829 1 9.1V1H9.1ZM10.908 0.217988C10.6653 0.0943423 10.407 0.0450601 10.1259 0.0220975C9.85532 -1.10025e-05 9.52314 -5.93566e-06 9.12066 2.03705e-07H9.12065H9.1H0.500001H2.03704e-07V0.500001V9.1V9.12065V9.12066C-5.93566e-06 9.52314 -1.1002e-05 9.85532 0.0220975 10.1259C0.0450601 10.407 0.0943423 10.6653 0.217988 10.908C0.409734 11.2843 0.715695 11.5903 1.09202 11.782C1.33469 11.9057 1.59304 11.9549 1.87409 11.9779C2.14468 12 2.47686 12 2.87934 12H2.9H11.5H12V11.5V2.9V2.87934C12 2.47686 12 2.14468 11.9779 1.87409C11.9549 1.59304 11.9057 1.33469 11.782 1.09202C11.5903 0.715695 11.2843 0.409734 10.908 0.217988ZM14 13.5V3H13V13H3V14H13.5H14V13.5Z" fill="currentColor"/>
</svg>
