<svg width="36" height="36" viewBox="0 0 36 36" fill="none" xmlns="http://www.w3.org/2000/svg">
<g clip-path="url(#clip0_1104_44406)">
<path fill-rule="evenodd" clip-rule="evenodd" d="M19.8031 0.25546L19.0642 9.37353L19.0653 9.3746C18.7156 9.33183 18.3617 9.30777 18.0008 9.30777C17.5517 9.30777 17.1095 9.34199 16.6786 9.40775L16.2589 4.98612C16.246 4.84818 16.3551 4.72735 16.4947 4.72948H17.2501L16.886 0.255994C16.8737 0.119121 16.9823 0.000427246 17.1207 0.000427246H19.5684C19.7053 0.000427246 19.8138 0.118587 19.8031 0.255994V0.25546ZM13.6257 0.708316C13.5893 0.57572 13.4471 0.501937 13.3177 0.549522L11.0176 1.38733C10.8882 1.43438 10.8267 1.58248 10.884 1.70759L12.7553 5.78651L12.0447 6.04314C11.9142 6.09019 11.8517 6.24043 11.9121 6.36661L13.8187 10.3782C14.5105 9.99748 15.2591 9.71037 16.0493 9.52965L13.6257 0.70885V0.708316ZM7.97648 3.24741L13.2701 10.7064L13.2712 10.7075C12.6002 11.1438 11.9928 11.6704 11.4667 12.2698L8.30048 9.15058C8.2005 9.05327 8.20852 8.89073 8.31492 8.80198L8.89395 8.31758L5.74107 5.1246C5.64483 5.02729 5.65232 4.86689 5.75764 4.77814L7.63216 3.20357C7.73855 3.11482 7.89628 3.13567 7.97648 3.24741ZM3.5356 7.56532C3.42279 7.48726 3.26613 7.52254 3.19663 7.6407L1.97333 9.76116C1.90436 9.88092 1.95248 10.0333 2.07652 10.0921L6.13137 12.0142L5.7523 12.6676C5.68226 12.7884 5.73144 12.9429 5.85869 13.0007L9.89857 14.8479C10.191 14.0967 10.5824 13.3963 11.0604 12.7638L3.5356 7.56478V7.56532ZM0.548463 13.3289C0.572523 13.1931 0.706187 13.1065 0.839852 13.1413L9.68792 15.4526C9.45855 16.2001 9.33077 16.9908 9.31312 17.8099L4.88294 17.4544C4.74393 17.4431 4.64502 17.3148 4.66908 17.1779L4.80167 16.4348L0.334599 16.0161C0.197727 16.0028 0.099884 15.8755 0.123944 15.7397L0.547929 13.3284L0.548463 13.3289ZM0.214301 19.3043C0.0774285 19.3176 -0.0204142 19.4449 0.0036454 19.5807L0.429234 21.992C0.453294 22.1278 0.588028 22.2144 0.720623 22.1797L5.06205 21.0451L5.19144 21.7883C5.2155 21.9252 5.35237 22.0118 5.48657 21.9749L9.76865 20.7928C9.51629 20.0507 9.36071 19.2658 9.31901 18.4488L0.214835 19.3054L0.214301 19.3043ZM1.63061 25.6405C1.56164 25.5208 1.60869 25.3684 1.7338 25.309L9.99535 21.3916C10.3097 22.1326 10.7257 22.8202 11.2229 23.4388L7.60222 26.0143C7.4894 26.0955 7.33007 26.0602 7.2611 25.9399L6.88524 25.2855L3.19395 27.8369C3.08007 27.916 2.92449 27.8807 2.85498 27.7615L1.63061 25.6411V25.6405ZM11.6405 23.9227L5.21443 30.4332C5.11819 30.5305 5.12568 30.6909 5.231 30.7797L7.10659 32.3532C7.21191 32.4419 7.37071 32.4211 7.45091 32.3093L10.0467 28.6496L10.6246 29.1367C10.731 29.2265 10.892 29.2046 10.9711 29.0907L13.4915 25.4341C12.8077 25.0177 12.1858 24.5076 11.6421 23.9253L11.641 23.9232L11.6405 23.9227ZM10.3712 34.3769C10.2418 34.3298 10.1803 34.1817 10.2375 34.0566H10.2386L14.0502 25.7416C14.7517 26.1003 15.5082 26.3677 16.3043 26.5254L15.1864 30.8246C15.1511 30.9593 15.0078 31.0352 14.8773 30.9871L14.1678 30.7273L12.9793 35.0548C12.9429 35.1874 12.8007 35.2612 12.6713 35.2136L10.3712 34.3769ZM16.9352 26.6254H16.9342H16.9352ZM16.9352 26.6254L16.1963 35.744C16.1856 35.8808 16.2936 35.9995 16.431 35.9995H18.8787C19.0172 35.9995 19.1252 35.8808 19.1134 35.744L18.7493 31.2705H19.5048C19.6438 31.2726 19.7534 31.1518 19.7406 31.0138L19.3209 26.5922C18.8899 26.658 18.4483 26.6917 17.9987 26.6917C17.6383 26.6917 17.2844 26.6676 16.9352 26.6248V26.6254ZM25.7624 1.94124C25.8196 1.81613 25.7582 1.66803 25.6288 1.62098L23.3287 0.784237C23.1993 0.737187 23.0571 0.810436 23.0207 0.943031L21.8322 5.27056L21.1227 5.01072C20.9922 4.9626 20.8484 5.03798 20.8136 5.17272L19.6957 9.47191C20.4918 9.62963 21.2478 9.8975 21.9498 10.2557L25.7624 1.9407V1.94124ZM30.7856 5.56516L24.3595 12.0757L24.3584 12.0736C23.8147 11.4913 23.1934 10.9818 22.509 10.5648L25.0294 6.90822C25.1086 6.79434 25.2695 6.77242 25.3759 6.86224L25.9538 7.34878L28.5496 3.68904C28.6298 3.5773 28.7886 3.55644 28.8939 3.6452L30.7695 5.2187C30.8748 5.30745 30.8823 5.46785 30.7861 5.56516H30.7856ZM34.2662 10.6888C34.3913 10.6294 34.4383 10.4771 34.3694 10.3578L33.145 8.23738C33.076 8.11762 32.9204 8.08286 32.806 8.16146L29.1147 10.7129L28.7389 10.0584C28.6699 9.9376 28.5111 9.90284 28.3978 9.98411L24.7771 12.5596C25.2748 13.1782 25.6903 13.8652 26.0052 14.6068L34.2662 10.6893V10.6888ZM35.5697 14.0074L35.9953 16.4187L35.9963 16.4198C36.0204 16.5556 35.9231 16.6829 35.7857 16.6962L26.6804 17.5517C26.6387 16.7347 26.4832 15.9498 26.2313 15.2077L30.5134 14.0256C30.6471 13.9882 30.784 14.0748 30.8085 14.2122L30.9379 14.9554L35.2794 13.8208C35.412 13.7855 35.5467 13.8722 35.5708 14.0085L35.5697 14.0074ZM35.1585 22.8566C35.2922 22.8918 35.4259 22.8052 35.4499 22.6689L35.8744 20.2581C35.8985 20.1223 35.8012 19.9951 35.6638 19.9817L31.1967 19.5631L31.3293 18.8199C31.3534 18.683 31.255 18.5547 31.1154 18.5435L26.6858 18.1879C26.6681 19.007 26.5388 19.7978 26.311 20.5452L35.1591 22.8555V22.8566H35.1585ZM32.8018 28.3571C32.7328 28.4758 32.5761 28.5106 32.4633 28.4325L32.4644 28.4314L24.9385 23.2335C25.4165 22.601 25.8079 21.9006 26.1003 21.1494L30.1402 22.9972C30.2675 23.0555 30.3167 23.21 30.2466 23.3303L29.867 23.9836L33.9224 25.9057C34.0464 25.9651 34.0946 26.1174 34.0256 26.2367L32.8023 28.3571H32.8018ZM22.7282 25.2914L28.0219 32.7515C28.1021 32.8632 28.2598 32.8841 28.3662 32.7953L30.2407 31.2208C30.3461 31.132 30.3535 30.9716 30.2573 30.8743L27.1044 27.6819L27.6835 27.1975C27.7899 27.1087 27.7973 26.9462 27.6979 26.8489L24.5322 23.7297C24.0061 24.3295 23.3987 24.8556 22.7277 25.2919H22.7288L22.7282 25.2914ZM22.6823 35.4488C22.5529 35.4959 22.4101 35.4226 22.3743 35.2901L19.9507 26.4692C20.7409 26.2885 21.49 26.0009 22.1818 25.6207L24.0879 29.6323C24.1483 29.7585 24.0857 29.9087 23.9553 29.9558L23.2447 30.2124L25.116 34.2913C25.1732 34.4164 25.1118 34.5645 24.9824 34.6116L22.6823 35.4494V35.4488Z" fill="black"/>
</g>
<defs>
<clipPath id="clip0_1104_44406">
<rect width="36" height="35.9991" fill="white" transform="translate(0 0.000427246)"/>
</clipPath>
</defs>
</svg>
