<svg width="36" height="36" viewBox="0 0 36 36" fill="none" xmlns="http://www.w3.org/2000/svg">
<path d="M23.358 20.367C23.2228 19.9675 22.9655 19.6206 22.6224 19.3753C22.2793 19.13 21.8678 18.9987 21.446 19H14.554C14.1322 18.9987 13.7207 19.13 13.3776 19.3753C13.0345 19.6206 12.7772 19.9675 12.642 20.367L10.75 26H25.25L23.358 20.367ZM13.598 20.684C13.6647 20.4837 13.7932 20.3096 13.9649 20.1867C14.1366 20.0638 14.3428 19.9985 14.554 20H21.446C21.6572 19.9985 21.8634 20.0638 22.0351 20.1867C22.2068 20.3096 22.3353 20.4837 22.402 20.684L23.852 25H12.148L13.598 20.684Z" fill="white"/>
<path d="M18.0001 17.9996C18.7986 18.0017 19.5654 17.6871 20.1322 17.1247C20.6991 16.5623 21.0198 15.7981 21.0241 14.9996V12.9996C21.0241 12.1976 20.7055 11.4284 20.1384 10.8613C19.5713 10.2942 18.8021 9.97559 18.0001 9.97559C17.1981 9.97559 16.4289 10.2942 15.8618 10.8613C15.2947 11.4284 14.9761 12.1976 14.9761 12.9996V14.9996C14.9803 15.7981 15.301 16.5623 15.8679 17.1247C16.4348 17.6871 17.2016 18.0017 18.0001 17.9996V17.9996ZM15.9841 12.9996C15.9841 12.4649 16.1965 11.9521 16.5745 11.5741C16.9526 11.196 17.4654 10.9836 18.0001 10.9836C18.5348 10.9836 19.0475 11.196 19.4256 11.5741C19.8037 11.9521 20.0161 12.4649 20.0161 12.9996V14.9996C20.0161 15.5343 19.8037 16.047 19.4256 16.4251C19.0475 16.8032 18.5348 17.0156 18.0001 17.0156C17.4654 17.0156 16.9526 16.8032 16.5745 16.4251C16.1965 16.047 15.9841 15.5343 15.9841 14.9996V12.9996Z" fill="white"/>
</svg>
