<svg width="185" height="130" viewBox="0 0 710 500" fill="none" xmlns="http://www.w3.org/2000/svg">
<g clip-path="url(#clip0_550_280)">
<rect x="-0.103455" y="-26.1929" width="675.286" height="526.53" fill="url(#paint0_radial_550_280)"/>
<path opacity="0.34" fill-rule="evenodd" clip-rule="evenodd" d="M149.704 -80.6225L269.858 458.466H243.156L82.9519 -80.6225H149.704ZM527.125 -78.7087L406.972 460.38H433.673L593.877 -78.7087H527.125ZM498.608 460.38L655.005 -78.7083L716.751 -78.7087V54.5494L525.309 460.38H498.608ZM39.8551 -78.7083L196.252 460.38H169.551L-21.8904 54.5494V-78.7087L39.8551 -78.7083ZM269.769 -80.6225L338.144 366.872L406.519 -80.6225H479.71L359.387 477.922L338.144 470.809L316.901 477.922L196.578 -80.6225H269.769Z" fill="url(#paint1_linear_550_280)"/>
<path fill-rule="evenodd" clip-rule="evenodd" d="M239.71 103.875C246.505 91.749 259.479 83.5534 274.368 83.5534C290.97 83.5534 305.192 93.7439 311.12 108.211C314.344 100.338 322.083 94.7918 331.117 94.7918C343.046 94.7918 352.716 104.462 352.716 116.391V116.392C376.466 116.393 396.608 131.835 403.653 153.226C404.536 153.152 405.43 153.115 406.332 153.115C423.921 153.115 438.18 167.373 438.18 184.963C438.18 187.459 437.893 189.888 437.35 192.219H303.896C300.813 185.452 299.095 177.932 299.095 170.01C299.095 163.441 300.277 157.148 302.439 151.331C298.171 155.597 292.937 158.897 287.093 160.873C287.871 165.21 288.276 169.675 288.276 174.235C288.276 180.433 287.527 186.456 286.113 192.219H83.9444C88.433 180.07 100.119 171.408 113.828 171.408C114.649 171.408 115.462 171.439 116.268 171.5C118.468 164.832 124.749 160.02 132.153 160.02C134.563 160.02 136.854 160.53 138.924 161.447C144.995 125.996 175.876 99.0169 213.059 99.0169C222.443 99.0169 231.426 100.735 239.71 103.875ZM315.548 131.363C314.863 130.651 314.226 129.892 313.643 129.091C313.364 130.989 312.95 132.844 312.412 134.644C313.411 133.507 314.457 132.412 315.548 131.363Z" fill="url(#paint2_linear_550_280)"/>
<path fill-rule="evenodd" clip-rule="evenodd" d="M415.557 240.895C451.189 218.397 474.855 178.67 474.855 133.415C474.855 63.2641 417.987 6.39548 347.836 6.39548C277.685 6.39548 220.816 63.2641 220.816 133.415C220.816 175.676 241.455 213.117 273.204 236.208C304.426 262.35 314.361 283.226 315.566 292.061H381.852C381.852 273.749 399.689 254.195 415.557 240.895Z" fill="#5E7CD1"/>
<path d="M304.77 268.827H389.731C389.731 268.827 380.604 285.553 381.987 292.121C383.37 298.689 315.268 295.439 315.683 292.328C316.097 289.217 304.77 268.827 304.77 268.827Z" fill="#69F8BB"/>
<path d="M444.06 132.01C444.06 78.5553 398.877 24.3015 380.111 10.6905C372.383 8.46401 364.027 7.63085 356.039 6.94363C371.871 24.8008 401.629 84.6649 401.629 132.01C401.629 213.006 356.404 224.494 356.404 268.829H371.871C371.871 223.793 444.06 219.899 444.06 132.01Z" fill="#69F8BB"/>
<path d="M251.586 126.228C251.586 72.7738 296.769 24.3015 315.536 10.6905C323.263 8.46401 331.619 7.63085 339.608 6.94363C323.775 24.8008 294.017 78.8834 294.017 126.228C294.017 207.224 339.243 224.494 339.243 268.829H323.775C323.775 223.793 251.586 214.117 251.586 126.228Z" fill="#69F8BB"/>
<path d="M315.852 337.165V292.062H382.034V337.165H377.473V296.254H370.554V337.165H366.52V296.254H330.605V337.165H326.214V296.254H319.868V337.165H315.852Z" fill="#4C6ABF"/>
<path d="M388.707 335.771H307.755L313.453 383.229C314.326 390.493 320.488 395.959 327.804 395.959H368.658C375.974 395.959 382.136 390.493 383.008 383.229L388.707 335.771Z" fill="#5E7CD1"/>
<path d="M349.726 345.951C349.726 345.951 348.385 345.111 347.572 345.951C343.165 348.206 338.683 357.102 338.683 361.721C338.683 367.674 344.065 371.718 348.385 371.718C352.705 371.718 358.083 367.674 358.083 361.721C358.086 357.286 353.858 348.585 349.726 345.951Z" fill="#61F7B7"/>
<path d="M389.003 342.109C389.284 339.861 389.003 339.853 387.969 339.385C387.969 339.385 387.75 345.559 386.929 353.515C386.109 361.472 385.212 359.411 384.659 366.114C384.387 369.4 386.223 372.222 390.12 372.818C394.017 373.414 399.939 371.299 399.939 366.114C399.939 350.737 387.408 354.871 389.003 342.109Z" fill="#69F8BB"/>
<path d="M307.556 342.109C307.275 339.861 307.556 339.853 308.59 339.385C308.59 339.385 308.81 345.559 309.63 353.515C310.45 361.472 311.348 359.411 311.901 366.114C312.172 369.4 310.336 372.222 306.439 372.818C302.542 373.414 296.62 371.299 296.62 366.114C296.62 350.737 309.151 354.871 307.556 342.109Z" fill="#69F8BB"/>
<mask id="mask0_550_280" style="mask-type:alpha" maskUnits="userSpaceOnUse" x="220" y="6" width="255" height="287">
<path fill-rule="evenodd" clip-rule="evenodd" d="M415.558 240.895C451.189 218.397 474.856 178.67 474.856 133.415C474.856 63.2641 417.987 6.39548 347.836 6.39548C277.685 6.39548 220.817 63.2641 220.817 133.415C220.817 175.676 241.456 213.117 273.204 236.208C304.426 262.35 314.361 283.226 315.566 292.061H381.852C381.852 273.749 399.69 254.195 415.558 240.895Z" fill="#5E7CD1"/>
</mask>
<g mask="url(#mask0_550_280)">
<g style="mix-blend-mode:multiply" opacity="0.3">
<path fill-rule="evenodd" clip-rule="evenodd" d="M658.714 240.07H333.805C329.971 233.9 327.758 226.618 327.758 218.82C327.758 196.55 345.811 178.497 368.081 178.497C368.272 178.497 368.463 178.498 368.653 178.501C371.461 130.856 410.989 93.0849 459.339 93.0849C492.113 93.0849 520.834 110.441 536.811 136.463C540.683 135.795 544.664 135.448 548.726 135.448C576.638 135.448 600.716 151.863 611.832 175.567C612.103 175.562 612.375 175.56 612.647 175.56C639.54 175.56 661.341 197.361 661.341 224.253C661.341 229.79 660.417 235.111 658.714 240.07Z" fill="#516EC6"/>
</g>
</g>
<path fill-rule="evenodd" clip-rule="evenodd" d="M672.916 212.645H378.926C377.06 208.378 376.024 203.665 376.024 198.71C376.024 179.494 391.602 163.916 410.819 163.916C414.919 163.916 418.854 164.625 422.507 165.928C422.494 165.354 422.488 164.779 422.488 164.202C422.488 120.909 457.584 85.8125 500.877 85.8125C529.158 85.8125 553.941 100.789 567.728 123.243C571.068 122.667 574.503 122.367 578.008 122.367C602.093 122.367 622.87 136.532 632.462 156.985C632.696 156.981 632.931 156.98 633.166 156.98C656.371 156.98 675.182 175.791 675.182 198.996C675.182 203.774 674.385 208.365 672.916 212.645Z" fill="url(#paint3_linear_550_280)"/>
<mask id="mask1_550_280" style="mask-type:alpha" maskUnits="userSpaceOnUse" x="-23" y="-80" width="739" height="559">
<path opacity="0.34" fill-rule="evenodd" clip-rule="evenodd" d="M148.594 -79.8169L268.748 459.272H242.047L81.8423 -79.8169H148.594ZM526.015 -77.9031L405.862 461.185H432.563L592.768 -77.9031H526.015ZM497.498 461.186L653.895 -77.9027L715.641 -77.9031V55.3551L524.2 461.186H497.498ZM38.7455 -77.9027L195.143 461.186H168.441L-23 55.3551V-77.9031L38.7455 -77.9027ZM268.659 -79.8169L337.034 367.678L405.41 -79.8169H478.6L358.277 478.727L337.034 471.614L315.791 478.727L195.469 -79.8169H268.659Z" fill="url(#paint4_linear_550_280)"/>
</mask>
<g mask="url(#mask1_550_280)">
</g>
<path d="M755.477 463.843C755.477 410.524 635.313 379.489 585.228 392.068C539.651 392.068 499.906 418.189 478.934 456.899C469.251 441.45 452.548 431.247 433.567 431.247C417.171 431.247 402.477 438.859 392.537 450.888C378.401 431.247 356.288 426.609 339.231 425.658C322.175 424.708 298.407 434.439 284.792 440.233C263.31 413.321 230.992 396.197 194.851 396.197C160.133 396.197 128.944 411.998 107.499 437.098C94.5318 428.698 -10.8703 373.918 -57.822 422.284V558.542H755.477V463.843Z" fill="url(#paint5_radial_550_280)"/>
</g>
<defs>
<radialGradient id="paint0_radial_550_280" cx="0" cy="0" r="1" gradientUnits="userSpaceOnUse" gradientTransform="translate(337.54 250.959) rotate(-90) scale(228.426 292.961)">
<stop stop-color="#9DB0DF"/>
<stop offset="1" stop-color="#DDE4F6" stop-opacity="0"/>
</radialGradient>
<linearGradient id="paint1_linear_550_280" x1="278.827" y1="487.528" x2="278.827" y2="-127.394" gradientUnits="userSpaceOnUse">
<stop stop-color="#F8FAFD"/>
<stop offset="1" stop-color="#F8FAFD" stop-opacity="0"/>
</linearGradient>
<linearGradient id="paint2_linear_550_280" x1="171.364" y1="178.473" x2="292.022" y2="141.609" gradientUnits="userSpaceOnUse">
<stop stop-color="white"/>
<stop offset="1" stop-color="#CBD9FF" stop-opacity="0"/>
</linearGradient>
<linearGradient id="paint3_linear_550_280" x1="489.822" y1="157.923" x2="619.789" y2="297.09" gradientUnits="userSpaceOnUse">
<stop stop-color="white"/>
<stop offset="1" stop-color="#CBD9FF" stop-opacity="0"/>
</linearGradient>
<linearGradient id="paint4_linear_550_280" x1="277.717" y1="488.334" x2="277.717" y2="-126.588" gradientUnits="userSpaceOnUse">
<stop stop-color="#F8FAFD"/>
<stop offset="1" stop-color="#F8FAFD" stop-opacity="0"/>
</linearGradient>
<radialGradient id="paint5_radial_550_280" cx="0" cy="0" r="1" gradientUnits="userSpaceOnUse" gradientTransform="translate(348.827 427.211) rotate(89.8462) scale(64.2895 308.908)">
<stop stop-color="white"/>
<stop offset="1" stop-color="white" stop-opacity="0"/>
</radialGradient>
<clipPath id="clip0_550_280">
<rect width="710" height="500" fill="white"/>
</clipPath>
</defs>
</svg>
