<svg width="36" height="36" viewBox="0 0 36 36" fill="none" xmlns="http://www.w3.org/2000/svg">
<path d="M21 14V12H15V14H10V22C10 22.5304 10.2107 23.0391 10.5858 23.4142C10.9609 23.7893 11.4696 24 12 24H24C24.5304 24 25.0391 23.7893 25.4142 23.4142C25.7893 23.0391 26 22.5304 26 22V14H21ZM16 13H20V14H16V13ZM15 15H25V17.268C20.4753 18.896 15.5247 18.896 11 17.268V15H15ZM24 23H12C11.7348 23 11.4804 22.8946 11.2929 22.7071C11.1054 22.5196 11 22.2652 11 22V18.318C13.2514 19.0983 15.6172 19.4978 18 19.5C20.3829 19.4976 22.7487 19.0978 25 18.317V22C25 22.2652 24.8946 22.5196 24.7071 22.7071C24.5196 22.8946 24.2652 23 24 23Z" fill="white"/>
</svg>
