<svg xmlns="http://www.w3.org/2000/svg" width="300" height="150" viewBox="0 0 300 150">
  <path fill="#212121" fill-rule="nonzero" d="M153.5,108.5 L153.5,105.5 L140.74675,105.5 C140.332536,105.5 139.99675,105.164214 139.99675,104.75 C139.99675,104.335786 140.332536,104 140.74675,104 L160.245514,104 L161,104 L161,108.5 C161,110.571068 159.321068,112.25 157.25,112.25 C155.178932,112.25 153.5,110.571068 153.5,108.5 Z M155,108.5 C155,109.742641 156.007359,110.75 157.25,110.75 C158.492641,110.75 159.5,109.742641 159.5,108.5 L159.5,105.5 L155,105.5 L155,108.5 Z M177.5,64.4334499 L177.5,65 L164,65 L164,63.5 L164,51.5 L164.685649,51.5 L125,51.5 C124.171573,51.5 123.5,52.1715729 123.5,53 L123.5,119 C123.5,119.828427 124.171573,120.5 125,120.5 L176,120.5 C176.828427,120.5 177.5,119.828427 177.5,119 L177.5,64.4334499 Z M177.174175,63.5 C177.140565,63.4577252 177.104543,63.4171056 177.066199,63.3783574 L165.751847,51.9449075 C165.674932,51.8671829 165.590403,51.7987377 165.5,51.740298 L165.5,63.5 L177.174175,63.5 Z M125,50 L164.685649,50 C165.486742,50 166.254561,50.3203983 166.818046,50.889815 L178.132398,62.3232648 C178.688226,62.8849442 179,63.6432417 179,64.4334499 L179,119 C179,120.656854 177.656854,122 176,122 L125,122 C123.343146,122 122,120.656854 122,119 L122,53 C122,51.3431458 123.343146,50 125,50 Z M138.5,93.900745 L140.224693,92.1760518 C140.486375,91.91437 140.944587,91.9483116 141.248137,92.2518625 C141.551688,92.5554134 141.58563,93.013625 141.323948,93.2753068 L139.599255,95 L141.323948,96.7246932 C141.58563,96.986375 141.551688,97.4445866 141.248137,97.7481375 C140.944587,98.0516884 140.486375,98.08563 140.224693,97.8239482 L138.5,96.099255 L136.775307,97.8239482 C136.513625,98.08563 136.055413,98.0516884 135.751863,97.7481375 C135.448312,97.4445866 135.41437,96.986375 135.676052,96.7246932 L137.400745,95 L135.676052,93.2753068 C135.41437,93.013625 135.448312,92.5554134 135.751863,92.2518625 C136.055413,91.9483116 136.513625,91.91437 136.775307,92.1760518 L138.5,93.900745 Z M162.5,93.900745 L164.224693,92.1760518 C164.486375,91.91437 164.944587,91.9483116 165.248137,92.2518625 C165.551688,92.5554134 165.58563,93.013625 165.323948,93.2753068 L163.599255,95 L165.323948,96.7246932 C165.58563,96.986375 165.551688,97.4445866 165.248137,97.7481375 C164.944587,98.0516884 164.486375,98.08563 164.224693,97.8239482 L162.5,96.099255 L160.775307,97.8239482 C160.513625,98.08563 160.055413,98.0516884 159.751863,97.7481375 C159.448312,97.4445866 159.41437,96.986375 159.676052,96.7246932 L161.400745,95 L159.676052,93.2753068 C159.41437,93.013625 159.448312,92.5554134 159.751863,92.2518625 C160.055413,91.9483116 160.513625,91.91437 160.775307,92.1760518 L162.5,93.900745 Z"/>
  <path fill="#212121" fill-rule="nonzero" d="M137 38L133 42 129 38 99 38 99 20 146 20 146 38 137 38zM199 85L195 81 199 77 199 72 240 72 240 90 199 90 199 85zM108 91L112 95 108 99 108 104 76 104 76 86 108 86 108 91z"/>
  <path fill="#FFFFFF" d="M109.03125,24.8828125 L108.791016,27.0390625 L110.976562,26.4296875 L111.169922,27.90625 L109.177734,28.046875 L110.484375,29.7871094 L109.154297,30.4960938 L108.240234,28.6621094 L107.4375,30.484375 L106.054688,29.7871094 L107.349609,28.046875 L105.369141,27.8945312 L105.597656,26.4296875 L107.736328,27.0390625 L107.496094,24.8828125 L109.03125,24.8828125 Z M113.15625,31.1582031 L113.15625,30.7246094 C113.15625,30.3496075 113.236327,30.0234389 113.396484,29.7460938 C113.556641,29.4687486 113.849607,29.1738297 114.275391,28.8613281 C114.685549,28.5683579 114.956054,28.330079 115.086914,28.1464844 C115.217774,27.9628897 115.283203,27.7578136 115.283203,27.53125 C115.283203,27.2773425 115.189454,27.083985 115.001953,26.9511719 C114.814452,26.8183587 114.552736,26.7519531 114.216797,26.7519531 C113.630856,26.7519531 112.962894,26.9433575 112.212891,27.3261719 L111.574219,26.0429688 C112.445317,25.5546851 113.369136,25.3105469 114.345703,25.3105469 C115.150395,25.3105469 115.790037,25.5039043 116.264648,25.890625 C116.73926,26.2773457 116.976562,26.7929655 116.976562,27.4375 C116.976562,27.8671896 116.878907,28.2382797 116.683594,28.5507812 C116.48828,28.8632828 116.11719,29.2148418 115.570312,29.6054688 C115.195311,29.8828139 114.958008,30.0937493 114.858398,30.2382812 C114.758789,30.3828132 114.708984,30.5722645 114.708984,30.8066406 L114.708984,31.1582031 L113.15625,31.1582031 Z M112.96875,33.1621094 C112.96875,32.8339827 113.05664,32.5859383 113.232422,32.4179688 C113.408204,32.2499992 113.664061,32.1660156 114,32.1660156 C114.32422,32.1660156 114.575194,32.2519523 114.75293,32.4238281 C114.930665,32.595704 115.019531,32.8417953 115.019531,33.1621094 C115.019531,33.4707047 114.929688,33.7138663 114.75,33.8916016 C114.570312,34.0693368 114.320314,34.1582031 114,34.1582031 C113.671873,34.1582031 113.41797,34.0712899 113.238281,33.8974609 C113.058593,33.7236319 112.96875,33.4785172 112.96875,33.1621094 Z M123.117188,29.0546875 L122.841797,30.4140625 L124.353516,30.4140625 L124.353516,31.6210938 L122.613281,31.6210938 L122.162109,34 L120.873047,34 L121.330078,31.6210938 L120.193359,31.6210938 L119.748047,34 L118.488281,34 L118.921875,31.6210938 L117.527344,31.6210938 L117.527344,30.4140625 L119.150391,30.4140625 L119.425781,29.0546875 L117.949219,29.0546875 L117.949219,27.8300781 L119.642578,27.8300781 L120.09375,25.4335938 L121.376953,25.4335938 L120.925781,27.8300781 L122.085938,27.8300781 L122.542969,25.4335938 L123.802734,25.4335938 L123.345703,27.8300781 L124.751953,27.8300781 L124.751953,29.0546875 L123.117188,29.0546875 Z M120.421875,30.4140625 L121.570312,30.4140625 L121.845703,29.0546875 L120.697266,29.0546875 L120.421875,30.4140625 Z M126.861328,28 C126.861328,28.4960962 126.905273,28.8662097 126.993164,29.1103516 C127.081055,29.3544934 127.222655,29.4765625 127.417969,29.4765625 C127.792971,29.4765625 127.980469,28.9843799 127.980469,28 C127.980469,27.0234326 127.792971,26.5351562 127.417969,26.5351562 C127.222655,26.5351562 127.081055,26.6552722 126.993164,26.8955078 C126.905273,27.1357434 126.861328,27.5039038 126.861328,28 Z M129.457031,27.9882812 C129.457031,28.8867232 129.283205,29.5615212 128.935547,30.0126953 C128.587889,30.4638694 128.078128,30.6894531 127.40625,30.6894531 C126.761716,30.6894531 126.263674,30.4580101 125.912109,29.9951172 C125.560545,29.5322242 125.384766,28.8632856 125.384766,27.9882812 C125.384766,26.2031161 126.058587,25.3105469 127.40625,25.3105469 C128.06641,25.3105469 128.57324,25.5419899 128.926758,26.0048828 C129.280275,26.4677758 129.457031,27.128902 129.457031,27.9882812 Z M133.488281,25.4335938 L128.736328,34 L127.330078,34 L132.082031,25.4335938 L133.488281,25.4335938 Z M132.861328,31.421875 C132.861328,31.9179712 132.905273,32.2880847 132.993164,32.5322266 C133.081055,32.7763684 133.222655,32.8984375 133.417969,32.8984375 C133.792971,32.8984375 133.980469,32.4062549 133.980469,31.421875 C133.980469,30.4453076 133.792971,29.9570312 133.417969,29.9570312 C133.222655,29.9570312 133.081055,30.0771472 132.993164,30.3173828 C132.905273,30.5576184 132.861328,30.9257788 132.861328,31.421875 Z M135.457031,31.4101562 C135.457031,32.304692 135.283205,32.9775368 134.935547,33.4287109 C134.587889,33.8798851 134.078128,34.1054688 133.40625,34.1054688 C132.761716,34.1054688 132.263674,33.8740258 131.912109,33.4111328 C131.560545,32.9482399 131.384766,32.2812544 131.384766,31.4101562 C131.384766,29.6249911 132.058587,28.7324219 133.40625,28.7324219 C134.06641,28.7324219 134.57324,28.9638649 134.926758,29.4267578 C135.280275,29.8896508 135.457031,30.550777 135.457031,31.4101562 Z M138.263672,31.1582031 L136.833984,31.1582031 L136.535156,25.4335938 L138.5625,25.4335938 L138.263672,31.1582031 Z M136.511719,33.1621094 C136.511719,32.8339827 136.599608,32.5859383 136.775391,32.4179688 C136.951173,32.2499992 137.20703,32.1660156 137.542969,32.1660156 C137.867189,32.1660156 138.118163,32.2519523 138.295898,32.4238281 C138.473634,32.595704 138.5625,32.8417953 138.5625,33.1621094 C138.5625,33.4707047 138.472657,33.7138663 138.292969,33.8916016 C138.11328,34.0693368 137.863283,34.1582031 137.542969,34.1582031 C137.214842,34.1582031 136.960938,34.0712899 136.78125,33.8974609 C136.601562,33.7236319 136.511719,33.4785172 136.511719,33.1621094 Z"/>
  <path fill="#F20000" d="M187.081543,32.9892578 C187.081543,33.6455111 186.976726,34.2470676 186.76709,34.7939453 C186.557453,35.340823 186.261232,35.7669256 185.878418,36.0722656 C185.495604,36.3776057 185.051272,36.5302734 184.54541,36.5302734 C184.208169,36.5302734 183.90853,36.4493823 183.646484,36.2875977 C183.384439,36.125813 183.198731,35.9127617 183.089355,35.6484375 L182.97998,35.6484375 C182.756672,35.9218764 182.485516,36.1372062 182.166504,36.2944336 C181.847492,36.4516609 181.492027,36.5302734 181.100098,36.5302734 C180.293453,36.5302734 179.657717,36.2876001 179.192871,35.8022461 C178.728025,35.3168921 178.495605,34.6549521 178.495605,33.8164062 C178.495605,32.8639275 178.797523,32.0914743 179.401367,31.4990234 C180.005211,30.9065726 180.806147,30.6103516 181.804199,30.6103516 C182.173342,30.6103516 182.599444,30.6456702 183.08252,30.7163086 C183.565595,30.786947 183.959797,30.8769526 184.265137,30.9863281 L184.10791,34.3291016 C184.10791,34.9671256 184.281086,35.2861328 184.627441,35.2861328 C184.91911,35.2861328 185.151529,35.0730816 185.324707,34.6469727 C185.497885,34.2208638 185.584473,33.6637404 185.584473,32.9755859 C185.584473,32.2418583 185.432944,31.5935901 185.129883,31.0307617 C184.826821,30.4679334 184.39844,30.0372736 183.844727,29.7387695 C183.291013,29.4402654 182.656416,29.2910156 181.940918,29.2910156 C181.024898,29.2910156 180.225101,29.48242 179.541504,29.8652344 C178.857907,30.2480488 178.336102,30.7949183 177.976074,31.5058594 C177.616046,32.2168004 177.436035,33.0371047 177.436035,33.9667969 C177.436035,35.229173 177.772132,36.1964485 178.444336,36.8686523 C179.11654,37.5408562 180.090651,37.8769531 181.366699,37.8769531 C181.877118,37.8769531 182.423988,37.8199875 183.007324,37.7060547 C183.59066,37.5921218 184.144366,37.4371755 184.668457,37.2412109 L184.668457,38.5605469 C183.702306,38.9707052 182.61996,39.1757812 181.421387,39.1757812 C179.689607,39.1757812 178.339523,38.7200566 177.371094,37.8085938 C176.402664,36.8971309 175.918457,35.6302164 175.918457,34.0078125 C175.918457,32.8821558 176.167966,31.8590541 176.666992,30.9384766 C177.166018,30.017899 177.873531,29.2989935 178.789551,28.7817383 C179.705571,28.2644831 180.751459,28.0058594 181.927246,28.0058594 C182.929855,28.0058594 183.825354,28.2109354 184.61377,28.6210938 C185.402185,29.0312521 186.010577,29.6145796 186.438965,30.3710938 C186.867352,31.1276079 187.081543,32.0003206 187.081543,32.9892578 Z M180.081543,33.84375 C180.081543,34.8053433 180.473466,35.2861328 181.257324,35.2861328 C181.662925,35.2861328 181.973957,35.1414402 182.19043,34.8520508 C182.406902,34.5626613 182.537923,34.089847 182.583496,33.4335938 L182.672363,31.9228516 C182.462727,31.8772784 182.200685,31.8544922 181.88623,31.8544922 C181.316566,31.8544922 180.873374,32.0322248 180.556641,32.3876953 C180.239907,32.7431658 180.081543,33.2285125 180.081543,33.84375 Z"/>
  <polygon fill="#F20000" points="205.889 49.363 205.608 51.879 208.158 51.168 208.384 52.891 206.06 53.055 207.584 55.085 206.032 55.912 204.966 53.772 204.029 55.898 202.416 55.085 203.927 53.055 201.616 52.877 201.883 51.168 204.378 51.879 204.098 49.363"/>
  <polygon fill="#F20000" points="99.889 60.363 99.608 62.879 102.158 62.168 102.384 63.891 100.06 64.055 101.584 66.085 100.032 66.912 98.966 64.772 98.029 66.898 96.416 66.085 97.927 64.055 95.616 63.877 95.883 62.168 98.378 62.879 98.098 60.363"/>
  <path fill="#FFFFFF" d="M214,86 L211.791016,86 L211.117188,85.3378906 C210.37109,85.8574245 209.527348,86.1171875 208.585938,86.1171875 C207.632808,86.1171875 206.876956,85.8984397 206.318359,85.4609375 C205.759763,85.0234353 205.480469,84.4316444 205.480469,83.6855469 C205.480469,83.1503879 205.598632,82.6943378 205.834961,82.3173828 C206.07129,81.9404278 206.47656,81.5878923 207.050781,81.2597656 C206.757811,80.9238264 206.544923,80.6025406 206.412109,80.2958984 C206.279296,79.9892563 206.212891,79.6542987 206.212891,79.2910156 C206.212891,78.6972627 206.440427,78.2187518 206.895508,77.8554688 C207.350588,77.4921857 207.958981,77.3105469 208.720703,77.3105469 C209.447269,77.3105469 210.028318,77.4794905 210.463867,77.8173828 C210.899416,78.1552751 211.117188,78.607419 211.117188,79.1738281 C211.117188,79.6386742 210.982423,80.0634746 210.712891,80.4482422 C210.443358,80.8330097 210.007816,81.199217 209.40625,81.546875 L211.070312,83.1699219 C211.347658,82.7128883 211.58789,82.1250036 211.791016,81.40625 L213.654297,81.40625 C213.513671,81.9335964 213.320314,82.4482397 213.074219,82.9501953 C212.828124,83.4521509 212.54883,83.8964824 212.236328,84.2832031 L214,86 Z M207.361328,83.515625 C207.361328,83.8515642 207.487303,84.1191396 207.739258,84.3183594 C207.991212,84.5175791 208.314451,84.6171875 208.708984,84.6171875 C209.201174,84.6171875 209.644529,84.4980481 210.039062,84.2597656 L208.09375,82.3261719 C207.867186,82.4980477 207.688477,82.6777334 207.557617,82.8652344 C207.426757,83.0527353 207.361328,83.26953 207.361328,83.515625 Z M209.464844,79.3613281 C209.464844,79.1542958 209.394532,78.9912115 209.253906,78.8720703 C209.113281,78.7529291 208.931642,78.6933594 208.708984,78.6933594 C208.447264,78.6933594 208.241212,78.7558588 208.09082,78.8808594 C207.940429,79.00586 207.865234,79.1835926 207.865234,79.4140625 C207.865234,79.7578142 208.050779,80.1367167 208.421875,80.5507812 C208.757814,80.3632803 209.015624,80.1787118 209.195312,79.9970703 C209.375001,79.8154288 209.464844,79.6035168 209.464844,79.3613281 Z M215.617188,83.1582031 L215.617188,82.7246094 C215.617188,82.3496075 215.697265,82.0234389 215.857422,81.7460938 C216.017579,81.4687486 216.310545,81.1738297 216.736328,80.8613281 C217.146486,80.5683579 217.416992,80.330079 217.547852,80.1464844 C217.678712,79.9628897 217.744141,79.7578136 217.744141,79.53125 C217.744141,79.2773425 217.650392,79.083985 217.462891,78.9511719 C217.27539,78.8183587 217.013674,78.7519531 216.677734,78.7519531 C216.091794,78.7519531 215.423832,78.9433575 214.673828,79.3261719 L214.035156,78.0429688 C214.906254,77.5546851 215.830073,77.3105469 216.806641,77.3105469 C217.611332,77.3105469 218.250974,77.5039043 218.725586,77.890625 C219.200198,78.2773457 219.4375,78.7929655 219.4375,79.4375 C219.4375,79.8671896 219.339845,80.2382797 219.144531,80.5507812 C218.949218,80.8632828 218.578128,81.2148418 218.03125,81.6054688 C217.656248,81.8828139 217.418946,82.0937493 217.319336,82.2382812 C217.219726,82.3828132 217.169922,82.5722645 217.169922,82.8066406 L217.169922,83.1582031 L215.617188,83.1582031 Z M215.429688,85.1621094 C215.429688,84.8339827 215.517577,84.5859383 215.693359,84.4179688 C215.869142,84.2499992 216.124998,84.1660156 216.460938,84.1660156 C216.785158,84.1660156 217.036132,84.2519523 217.213867,84.4238281 C217.391602,84.595704 217.480469,84.8417953 217.480469,85.1621094 C217.480469,85.4707047 217.390626,85.7138663 217.210938,85.8916016 C217.031249,86.0693368 216.781252,86.1582031 216.460938,86.1582031 C216.132811,86.1582031 215.878907,86.0712899 215.699219,85.8974609 C215.51953,85.7236319 215.429688,85.4785172 215.429688,85.1621094 Z M226.123047,83.3222656 C226.123047,83.9433625 225.89844,84.4423809 225.449219,84.8193359 C224.999998,85.1962909 224.371098,85.4218746 223.5625,85.4960938 L223.5625,86.6972656 L222.759766,86.6972656 L222.759766,85.5195312 C221.806636,85.4999999 220.970707,85.3320328 220.251953,85.015625 L220.251953,83.46875 C220.591799,83.6367196 221.000974,83.7851556 221.479492,83.9140625 C221.95801,84.0429694 222.384764,84.1191405 222.759766,84.1425781 L222.759766,82.3261719 L222.367188,82.1738281 C221.593746,81.8691391 221.0459,81.5380877 220.723633,81.1806641 C220.401366,80.8232404 220.240234,80.380862 220.240234,79.8535156 C220.240234,79.2871065 220.461912,78.8212909 220.905273,78.4560547 C221.348635,78.0908185 221.966793,77.869141 222.759766,77.7910156 L222.759766,76.8945312 L223.5625,76.8945312 L223.5625,77.7675781 C224.457036,77.8066408 225.265621,77.9863265 225.988281,78.3066406 L225.4375,79.6777344 C224.828122,79.4277331 224.203128,79.2753909 223.5625,79.2207031 L223.5625,80.9492188 C224.324223,81.242189 224.866209,81.4960927 225.188477,81.7109375 C225.510744,81.9257823 225.74707,82.1621081 225.897461,82.4199219 C226.047852,82.6777357 226.123047,82.9785139 226.123047,83.3222656 Z M224.359375,83.4101562 C224.359375,83.2460929 224.292969,83.1074224 224.160156,82.9941406 C224.027343,82.8808588 223.828126,82.7636725 223.5625,82.6425781 L223.5625,84.1015625 C224.093753,84.0117183 224.359375,83.7812519 224.359375,83.4101562 Z M222.003906,79.8535156 C222.003906,80.0253915 222.063476,80.1669916 222.182617,80.2783203 C222.301758,80.389649 222.494139,80.5039057 222.759766,80.6210938 L222.759766,79.2441406 C222.255857,79.3183597 222.003906,79.5214827 222.003906,79.8535156 Z M230.617188,76.8828125 L230.376953,79.0390625 L232.5625,78.4296875 L232.755859,79.90625 L230.763672,80.046875 L232.070312,81.7871094 L230.740234,82.4960938 L229.826172,80.6621094 L229.023438,82.484375 L227.640625,81.7871094 L228.935547,80.046875 L226.955078,79.8945312 L227.183594,78.4296875 L229.322266,79.0390625 L229.082031,76.8828125 L230.617188,76.8828125 Z"/>
  <path fill="#FFFFFF" d="M82.6855469,99.1621094 C82.6855469,98.8339827 82.7734366,98.5859383 82.9492188,98.4179688 C83.1250009,98.2499992 83.3808577,98.1660156 83.7167969,98.1660156 C84.0410172,98.1660156 84.2919913,98.2519523 84.4697266,98.4238281 C84.6474618,98.595704 84.7363281,98.8417953 84.7363281,99.1621094 C84.7363281,99.4707047 84.6464853,99.7138663 84.4667969,99.8916016 C84.2871085,100.069337 84.037111,100.158203 83.7167969,100.158203 C83.3886702,100.158203 83.1347665,100.07129 82.9550781,99.8974609 C82.7753897,99.7236319 82.6855469,99.4785172 82.6855469,99.1621094 Z M86.1015625,99.1621094 C86.1015625,98.8339827 86.1894522,98.5859383 86.3652344,98.4179688 C86.5410165,98.2499992 86.7988264,98.1660156 87.1386719,98.1660156 C87.4628922,98.1660156 87.7138663,98.2519523 87.8916016,98.4238281 C88.0693368,98.595704 88.1582031,98.8417953 88.1582031,99.1621094 C88.1582031,99.4707047 88.0683603,99.7138663 87.8886719,99.8916016 C87.7089835,100.069337 87.458986,100.158203 87.1386719,100.158203 C86.806639,100.158203 86.5507821,100.07129 86.3710938,99.8974609 C86.1914054,99.7236319 86.1015625,99.4785172 86.1015625,99.1621094 Z M89.5234375,99.1621094 C89.5234375,98.8339827 89.6113272,98.5859383 89.7871094,98.4179688 C89.9628915,98.2499992 90.2187483,98.1660156 90.5546875,98.1660156 C90.8789079,98.1660156 91.1298819,98.2519523 91.3076172,98.4238281 C91.4853525,98.595704 91.5742188,98.8417953 91.5742188,99.1621094 C91.5742188,99.4707047 91.4843759,99.7138663 91.3046875,99.8916016 C91.1249991,100.069337 90.8750016,100.158203 90.5546875,100.158203 C90.2265609,100.158203 89.9726571,100.07129 89.7929688,99.8974609 C89.6132804,99.7236319 89.5234375,99.4785172 89.5234375,99.1621094 Z M94.6972656,97.1582031 L93.2675781,97.1582031 L92.96875,91.4335938 L94.9960938,91.4335938 L94.6972656,97.1582031 Z M92.9453125,99.1621094 C92.9453125,98.8339827 93.0332022,98.5859383 93.2089844,98.4179688 C93.3847665,98.2499992 93.6406233,98.1660156 93.9765625,98.1660156 C94.3007829,98.1660156 94.5517569,98.2519523 94.7294922,98.4238281 C94.9072275,98.595704 94.9960938,98.8417953 94.9960938,99.1621094 C94.9960938,99.4707047 94.9062509,99.7138663 94.7265625,99.8916016 C94.5468741,100.069337 94.2968766,100.158203 93.9765625,100.158203 C93.6484359,100.158203 93.3945321,100.07129 93.2148438,99.8974609 C93.0351554,99.7236319 92.9453125,99.4785172 92.9453125,99.1621094 Z M97.3105469,97.1582031 L97.3105469,96.7246094 C97.3105469,96.3496075 97.3906242,96.0234389 97.5507813,95.7460938 C97.7109383,95.4687486 98.0039041,95.1738297 98.4296875,94.8613281 C98.8398458,94.5683579 99.1103509,94.330079 99.2412109,94.1464844 C99.372071,93.9628897 99.4375,93.7578136 99.4375,93.53125 C99.4375,93.2773425 99.3437509,93.083985 99.15625,92.9511719 C98.9687491,92.8183587 98.7070329,92.7519531 98.3710938,92.7519531 C97.7851533,92.7519531 97.1171913,92.9433575 96.3671875,93.3261719 L95.7285156,92.0429688 C96.5996137,91.5546851 97.5234326,91.3105469 98.5,91.3105469 C99.3046915,91.3105469 99.9443336,91.5039043 100.418945,91.890625 C100.893557,92.2773457 101.130859,92.7929655 101.130859,93.4375 C101.130859,93.8671896 101.033204,94.2382797 100.837891,94.5507812 C100.642577,94.8632828 100.271487,95.2148418 99.7246094,95.6054688 C99.3496075,95.8828139 99.1123052,96.0937493 99.0126953,96.2382812 C98.9130854,96.3828132 98.8632813,96.5722645 98.8632813,96.8066406 L98.8632813,97.1582031 L97.3105469,97.1582031 Z M97.1230469,99.1621094 C97.1230469,98.8339827 97.2109366,98.5859383 97.3867188,98.4179688 C97.5625009,98.2499992 97.8183577,98.1660156 98.1542969,98.1660156 C98.4785172,98.1660156 98.7294913,98.2519523 98.9072266,98.4238281 C99.0849618,98.595704 99.1738281,98.8417953 99.1738281,99.1621094 C99.1738281,99.4707047 99.0839853,99.7138663 98.9042969,99.8916016 C98.7246085,100.069337 98.474611,100.158203 98.1542969,100.158203 C97.8261702,100.158203 97.5722665,100.07129 97.3925781,99.8974609 C97.2128897,99.7236319 97.1230469,99.4785172 97.1230469,99.1621094 Z"/>
  <path fill="#F20000" fill-rule="nonzero" d="M185.753905,104.348614 L198.180945,127.0393 C198.711525,128.008092 198.356284,129.223574 197.387491,129.754154 C197.092974,129.915452 196.762585,130 196.426791,130 L171.57271,130 C170.468141,130 169.57271,129.104569 169.57271,128 C169.57271,127.664206 169.657258,127.333817 169.818557,127.0393 L182.245597,104.348614 C182.776177,103.379822 183.991658,103.02458 184.960451,103.55516 C185.295232,103.738511 185.570555,104.013833 185.753905,104.348614 Z"/>
  <path fill="#FFFFFF" d="M185.417143,121.186031 L182.628571,121.186031 L182.045714,112 L186,112 L185.417143,121.186031 Z M182,124.401612 C182,123.875081 182.171427,123.477055 182.514286,123.207522 C182.857145,122.937988 183.356187,122.803224 184.011429,122.803224 C184.643813,122.803224 185.133332,122.941122 185.48,123.216924 C185.826668,123.492726 186,123.887618 186,124.401612 C186,124.896801 185.824764,125.286992 185.474286,125.572196 C185.123808,125.8574 184.636194,126 184.011429,126 C183.371425,126 182.876192,125.860534 182.525714,125.581598 C182.175236,125.302663 182,124.909338 182,124.401612 Z"/>
</svg>
