<svg xmlns="http://www.w3.org/2000/svg" viewBox="0 0 178 60"><path d="M55.8.4H40.9l-3.7 3.7V19L18.6.5H3.7L0 4.2l.1 52.1L3.9 60h14.9l3.7-3.8-.1-14.8 18.7 18.5 14.8-.1 3.7-3.7-.1-52z" style="fill:#78bb43"/><path d="m82 59.8 14.8-.1 3.7-3.7V44.9l18.6-18.7-.1-22.3-3.7-3.7h-14.9L96.7 4v7.4l-7.4 7.5-7.5-7.5V4L78.1.3H63.2l-3.7 3.8.1 22.3 18.6 18.5v11.2z" style="fill:#f9a11e"/><path d="m167.3.1-37.2.1L119 11.3l.1 37.2 11.2 11.1 37.2-.1 11.1-11.1V37.2l-3.8-3.7h-18.5v3.8h-14.9V22.4h14.8v3.7l18.6-.1 3.7-3.7V11.2zM175.9 0l.8 2.3.8-2.3h.9v3.2h-.6V.6l-.8 2.6h-.5l-.9-2.5v2.5h-.6V0h.9zm-4.1.6V0h2.7v.5h-1v2.6h-.6V.5l-1.1.1z" style="fill:#789dd2"/></svg>