<?xml version="1.0" encoding="UTF-8"?>
<svg width="153px" height="44px" viewBox="0 0 153 44" version="1.1" xmlns="http://www.w3.org/2000/svg" xmlns:xlink="http://www.w3.org/1999/xlink">
    <!-- Generator: Sketch 46.2 (44496) - http://www.bohemiancoding.com/sketch -->
    <title>Bitmoji Logo</title>
    <desc>Created with Sketch.</desc>
    <defs></defs>
    <g id="Page-1" stroke="none" stroke-width="1" fill="none" fill-rule="evenodd">
        <g id="Artboard" transform="translate(-303.000000, -120.000000)" fill="#FFFFFF">
            <g id="Extension" transform="translate(39.000000, 83.000000)">
                <g id="Top-Bar">
                    <g id="Bitmoji-Logo" transform="translate(264.000000, 37.000000)">
                        <ellipse id="Oval" fill-rule="nonzero" transform="translate(34.344875, 3.622857) rotate(-89.860000) translate(-34.344875, -3.622857) " cx="34.3448752" cy="3.62285709" rx="3.39453804" ry="3.38532495"></ellipse>
                        <path d="M22.1574793,15.6951782 C23.3084211,14.04587 23.9273761,12.0312788 23.9329272,9.88385744 C23.9431044,5.81224319 21.0648248,0.089475891 13.5485459,0.089475891 L3.68874984,0.089475891 C2.52115458,0.089475891 1.57468077,0.537777778 1.19072512,0.891991614 C0.495608971,1.48117639 0.0934298602,2.34378511 0.0897438512,3.25341719 C0.0897438512,4.18415094 0.0897438512,30.6680922 0.0897438512,31.598826 C0.0841926851,33.7859119 1.90590034,34.7111111 3.63971454,34.7111111 C6.8344106,34.719413 14.0018912,34.7111111 15.6080285,34.7111111 C22.2768294,34.7277149 26.155244,29.2207966 26.169122,24.3300629 C26.1820747,20.0730398 24.3779457,17.4477987 22.1574793,15.6951782 Z M6.60496241,6.55480084 L13.5892545,6.55480084 C16.1113343,6.55480084 17.1133197,8.69207547 17.1105442,9.86909853 C17.104993,12.2812579 15.1537581,13.3955556 13.6429158,13.3955556 L6.60496241,13.3955556 C6.61143877,10.7841509 6.60033643,8.35815514 6.60496241,6.55480084 Z M15.5663948,28.3324948 C14.1092137,28.3324948 9.78948133,28.3407966 6.60311202,28.3324948 C6.60866318,26.1509434 6.59478527,23.0746331 6.60311202,19.8378197 C8.83653116,19.8378197 14.9853728,19.8378197 15.5700956,19.8378197 C17.7220976,19.8378197 19.8722493,21.4161006 19.8657729,24.2239832 C19.8620721,26.4627254 18.0098331,28.3417191 15.5663948,28.3324948 Z" id="Shape"></path>
                        <path d="M37.7127718,12.2609644 C37.7127718,10.0757233 36.0409456,8.95865828 34.2895527,8.95865828 C32.6242029,8.95865828 30.9699554,10.1347589 30.9699554,12.1373585 L30.9699554,31.3719078 C30.9699554,35.6833543 37.713697,35.8650734 37.713697,31.3719078 L37.7127718,12.2609644 Z" id="Shape"></path>
                        <path d="M55.7031757,27.9238574 C53.6103861,27.9238574 51.9228317,26.1767715 51.9283828,24.0763941 C51.9283828,23.0976939 51.9117293,19.3867505 51.9283828,15.2348847 C52.7610577,15.2348847 53.4086938,15.2348847 53.7214095,15.2348847 C58.0392914,15.2459539 57.9264177,8.75203354 53.8453855,8.74280922 C53.5928074,8.74280922 52.8591283,8.74280922 51.9283828,8.74280922 C51.9367096,6.62121593 51.9283828,4.09928721 51.9283828,3.55689727 C51.933934,1.48696017 50.2204741,0.284109015 48.5292188,0.284109015 C46.8721957,0.284109015 45.2142475,1.53400419 45.2086963,3.64821803 C45.2086963,4.41383648 45.2086963,6.84813417 45.2086963,8.74280922 L44.4426354,8.74280922 C40.3616032,8.73266247 40.2163476,15.2247379 44.5351548,15.2348847 L45.2096215,15.2348847 C45.2096215,19.5924528 45.2096215,23.469434 45.2096215,24.274717 C45.192968,30.9236059 50.8264764,34.6981971 55.766089,34.6981971 C57.8116936,34.6981971 59.151375,33.1180713 59.151375,31.2971908 C59.1504499,29.6663312 58.0096852,27.9238574 55.7031757,27.9238574 Z" id="Shape"></path>
                        <path d="M115.712206,8.70683438 C108.507551,8.68902602 102.652541,14.4976694 102.634664,21.6808121 C102.616788,28.8639548 108.442815,34.7014951 115.647469,34.7193329 C122.852124,34.7371708 128.707158,28.9285514 128.725064,21.7454088 C128.733663,18.2959232 127.367498,14.984315 124.927111,12.5391056 C122.486725,10.0938963 119.172022,8.71538631 115.712206,8.70683438 Z M115.664096,28.0871279 C112.133304,28.0784567 109.27808,25.2177049 109.28677,21.6974553 C109.29546,18.1772057 112.164773,15.3305011 115.695565,15.3391581 C119.226357,15.3478151 122.081593,18.2085554 122.072917,21.728805 C122.068996,23.4193732 121.39152,25.0391194 120.189578,26.2315902 C118.987636,27.4240611 117.359726,28.0915368 115.664096,28.0871279 Z" id="Shape"></path>
                        <ellipse id="Oval" fill-rule="nonzero" transform="translate(149.435319, 3.622277) rotate(-89.860000) translate(-149.435319, -3.622277) " cx="149.435319" cy="3.62227721" rx="3.39453804" ry="3.38532495"></ellipse>
                        <path d="M87.5122824,9.00385744 C84.5359322,9.00385744 81.8982031,10.011153 80.0533656,11.6789099 C78.0762253,9.92628931 75.5411928,9.00385744 73.3309035,9.00385744 C71.6030588,8.99027038 69.8931373,9.35358666 68.3209762,10.0683438 C67.6799375,9.39149794 66.7833806,9.01400017 65.8497821,9.02784067 C64.1427985,9.03337526 62.4043584,10.248218 62.4043584,12.3937945 C62.4043584,13.3595807 62.4043584,30.4826834 62.4043584,31.449392 C62.3941812,35.6704403 69.1777061,35.8207966 69.1777061,31.3571488 L69.1777061,19.2483857 C69.1777061,17.0345493 70.7773671,15.5309853 72.9302944,15.5309853 C75.0832216,15.5309853 76.689359,17.1378616 76.6838078,19.312956 C76.6782567,21.4880503 76.6884338,29.4338784 76.6838078,31.4410901 C76.6736307,35.6621384 83.4062699,35.8124948 83.4173722,31.348847 C83.4247738,28.1738365 83.4173722,19.6625577 83.4173722,18.8286792 C83.4173722,16.8832704 85.0984504,15.5300629 87.1125984,15.5300629 C89.2646005,15.5300629 90.8781394,17.1369392 90.8725883,19.3120335 C90.8670371,21.4871279 90.8633363,29.432956 90.8587103,31.4401677 C90.8485332,35.6612159 97.588574,35.8115723 97.5996763,31.3479245 C97.6070779,28.172914 97.5996763,20.9677987 97.5996763,19.2714465 C97.6144794,12.6705241 91.9189831,9.00385744 87.5122824,9.00385744 Z" id="Shape"></path>
                        <ellipse id="Oval" fill-rule="nonzero" transform="translate(136.914602, 3.627788) rotate(-89.860000) translate(-136.914602, -3.627788) " cx="136.914602" cy="3.62778806" rx="3.41304193" ry="3.40285115"></ellipse>
                        <path d="M152.802322,12.2609644 C152.807873,10.0757233 151.136972,8.95865828 149.379103,8.95865828 C147.713753,8.95865828 146.098364,10.1347589 146.093738,12.1373585 C146.093738,13.0680922 146.093738,30.4402516 146.093738,31.3719078 C146.093738,35.6833543 152.798621,35.8650734 152.798621,31.3719078 C152.802322,30.1653669 152.799546,13.4684277 152.802322,12.2609644 Z" id="Shape"></path>
                        <path d="M133.603614,12.3956394 L133.603614,33.5709853 C133.603614,35.5127044 132.254681,37.2348847 129.96575,37.2348847 C127.587075,37.2348847 126.334362,38.9247799 126.334362,40.5897694 C126.334362,42.4078826 127.823,43.959413 129.987029,43.959413 C135.531719,43.959413 140.284442,40.0252411 140.284442,33.6281761 L140.284442,12.4122432 C140.282592,7.89878407 133.603614,7.87295597 133.603614,12.3956394 Z" id="Shape"></path>
                    </g>
                </g>
            </g>
        </g>
    </g>
</svg>