<?xml version="1.0" encoding="UTF-8"?>
<svg width="62px" height="72px" viewBox="0 0 62 72" version="1.1" xmlns="http://www.w3.org/2000/svg" xmlns:xlink="http://www.w3.org/1999/xlink">
    <!-- Generator: Sketch 46.2 (44496) - http://www.bohemiancoding.com/sketch -->
    <title>Loader</title>
    <desc>Created with Sketch.</desc>
    <defs></defs>
    <g id="Page-1" stroke="none" stroke-width="1" fill="none" fill-rule="evenodd">
        <g id="Loading" transform="translate(-614.000000, -752.000000)" fill-rule="nonzero" fill="#E1E3E6">
            <g id="Extension" transform="translate(39.000000, 83.000000)">
                <path d="M621.854194,700.889586 L590.195955,700.889586 C589.746951,700.889586 589.743694,701.431619 589.743694,701.431619 C589.743694,710.911046 596.533753,718.595985 606.025074,718.595985 C615.516395,718.595985 622.306455,710.911046 622.306455,701.431619 C622.306455,701.431619 622.304284,700.889586 621.854194,700.889586 L621.854194,700.889586 Z M615.070286,683.273526 C612.272783,683.273526 610.004967,685.743388 610.004967,689.235885 C610.004967,692.728381 612.272783,695.198243 615.070286,695.198243 C617.867788,695.198243 620.135604,692.728381 620.135604,689.235885 C620.135604,685.743388 617.867788,683.273526 615.070286,683.273526 L615.070286,683.273526 Z M601.954729,692.126725 C601.954729,688.634228 599.686914,685.803011 596.889411,685.803011 C594.091908,685.803011 591.824093,688.634228 591.824093,692.126725 L591.824093,692.307403 C591.824093,692.307403 591.948555,692.767046 592.169982,692.639488 C592.933036,692.200442 594.847364,691.404015 596.782316,691.404015 C598.790353,691.404015 600.821183,692.217787 601.611011,692.651413 C601.830991,692.772105 601.954729,692.307403 601.954729,692.307403 L601.954729,692.126725 Z M632.823864,726.164928 C631.501454,726.9787 629.943869,727.449184 628.276294,727.449184 L616.623167,727.538078 C616.617378,727.538078 617.336292,727.538801 617.330503,727.538801 C614.416498,727.538801 613.147274,728.29331 612.013366,729.554801 L603.040155,741 L603.040155,729.797993 C603.030748,728.260065 601.962327,727.54133 600.428621,727.538078 L583.592951,727.539523 C578.849642,727.539523 575,723.694705 575,718.95734 L575,677.672522 C575,677.516778 575.004704,677.362118 575.012663,677.208181 C575.195015,672.632703 578.965782,669 583.592951,669 L628.276294,669 C633.072065,669 636.959697,672.88276 636.959697,677.672522 L636.959697,718.95734 C636.959697,722.066801 635.303338,724.713365 632.823864,726.164928 L632.823864,726.164928 Z" id="Loader"></path>
            </g>
        </g>
    </g>
</svg>