<?xml version="1.0" encoding="UTF-8"?>
<svg width="27px" height="27px" viewBox="0 0 27 27" version="1.1" xmlns="http://www.w3.org/2000/svg" xmlns:xlink="http://www.w3.org/1999/xlink">
    <!-- Generator: Sketch 46.2 (44496) - http://www.bohemiancoding.com/sketch -->
    <title>Close</title>
    <desc>Created with Sketch.</desc>
    <defs></defs>
    <g id="Page-1" stroke="none" stroke-width="1" fill="none" fill-rule="evenodd">
        <g id="Artboard" transform="translate(-103.000000, -124.000000)" fill="#FFFFFF">
            <path d="M119.041631,135.541631 L119.041631,123.541631 C119.041631,122.160919 117.922342,121.041631 116.541631,121.041631 C115.160919,121.041631 114.041631,122.160919 114.041631,123.541631 L114.041631,123.541631 L114.041631,135.541631 L101.5,135.541631 C100.119288,135.541631 99,136.660919 99,138.041631 C99,139.422342 100.119288,140.541631 101.5,140.541631 L114.041631,140.541631 L114.041631,152.541631 C114.041631,153.922342 115.160919,155.041631 116.541631,155.041631 C117.922342,155.041631 119.041631,153.922342 119.041631,152.541631 L119.041631,140.541631 L130.5,140.541631 C131.880712,140.541631 133,139.422342 133,138.041631 C133,136.660919 131.880712,135.541631 130.5,135.541631 L119.041631,135.541631 Z" id="Close" transform="translate(116.000000, 138.041631) rotate(-45.000000) translate(-116.000000, -138.041631) "></path>
        </g>
    </g>
</svg>