<?xml version="1.0" encoding="UTF-8"?>
<svg width="46px" height="44px" viewBox="0 0 46 44" version="1.1" xmlns="http://www.w3.org/2000/svg" xmlns:xlink="http://www.w3.org/1999/xlink">
    <!-- Generator: Sketch 46.2 (44496) - http://www.bohemiancoding.com/sketch -->
    <title>Greetings</title>
    <desc>Created with Sketch.</desc>
    <defs>
        <polygon id="path-1" points="0 48 0 0 48 0 48 48"></polygon>
    </defs>
    <g id="Page-1" stroke="none" stroke-width="1" fill="none" fill-rule="evenodd">
        <g id="Search---Enter" transform="translate(-187.000000, -732.000000)">
            <g id="Extension" transform="translate(39.000000, 32.000000)">
                <g id="Tab-Bar" transform="translate(0.000000, 686.000000)">
                    <g id="Greetings" transform="translate(147.000000, 12.000000)">
                        <mask id="mask-2" fill="white">
                            <use xlink:href="#path-1"></use>
                        </mask>
                        <g id="Bounding-Box"></g>
                        <path d="M46.9937733,28.4250103 C46.9397937,27.468565 46.1390961,26.7389882 45.204449,26.7929569 C44.2688023,26.847925 43.5540722,27.6674497 43.6070522,28.623895 C43.6060526,28.604906 43.6060526,28.604906 43.6060526,28.6039065 C43.6090515,28.7008503 43.6030537,28.8747495 43.5760639,29.1166092 C43.5320805,29.5123796 43.4451134,29.9571217 43.3051662,30.4398417 C42.9063168,31.8160436 42.1585992,33.2402176 40.9660495,34.6513991 C40.5971888,35.0881458 40.2093353,35.4769203 39.8054878,35.8247186 C38.7438886,36.7351905 37.6163144,37.3168532 36.4947379,37.6366677 C35.8459829,37.8225599 35.3671637,37.8805262 35.1502457,37.8805262 L35.1512453,37.8805262 C34.2155986,37.8785274 33.4548858,38.6540776 33.4528866,39.6115223 C33.451887,40.568967 34.2096009,41.3455166 35.1462472,41.3475154 L35.1472468,41.3475154 C35.6570543,41.3485149 36.4397587,41.2525705 37.4083929,40.9757311 C38.9758011,40.5279908 40.5382111,39.7234574 41.9866641,38.479179 C42.5284595,38.0134491 43.0442647,37.4957494 43.5310809,36.9190839 C45.0475083,35.1281226 46.0241395,33.2642036 46.5569383,31.4252702 C46.9058065,30.2219681 47.0177643,29.2195495 46.9977718,28.5019657 C46.9957726,28.4529941 46.9957726,28.4529941 46.9937733,28.4250103 M39.4046391,20.7354701 C37.8182382,22.1536476 33.044041,26.8779076 32.191363,27.6704479 C31.3396846,28.4639877 30.3060749,27.3436375 31.5755955,25.9514449 L39.6755368,17.073594 C41.7477543,14.8019115 38.8198599,11.5158174 36.5057338,14.0523462 C34.190608,16.5888751 27.9809529,23.2120338 27.4181654,23.8276767 C26.8553779,24.4453185 25.4049257,23.9336152 26.2186184,22.6853392 C27.0323111,21.4360638 34.386534,12.7640934 35.8459829,10.7292736 C37.3054318,8.69445373 34.2535842,6.10395618 32.334309,8.4765801 C30.4160334,10.8502034 23.5146395,18.7516207 22.8528893,19.4762005 C22.1911392,20.2007802 21.2414978,19.3692625 22.3870653,17.7721888 C23.531633,16.1741156 27.9619601,9.68387988 29.3634309,7.77898469 C30.7669009,5.87508892 27.3341971,3.69635256 25.3409498,6.44975563 C25.3409498,6.44975563 15.9574932,17.8791268 14.0622089,19.9569217 C12.6097573,21.5489983 13.0076071,18.6316903 13.5933859,16.0741736 C13.6833519,15.6843997 14.3191119,13.2188297 13.969244,11.7896586 C13.6173768,10.3584886 12.276883,9.964717 11.5251669,10.5014057 C10.0227342,11.5757826 9.03210832,15.0177863 8.52629932,16.6858189 C7.5226783,19.9899025 5.90229019,25.5166971 5.15557216,29.125604 C4.03099682,34.5564542 4.04399192,40.1302215 7.06485119,43.0085521 C10.0847108,45.8878821 15.6506091,47.7977744 22.4960241,43.4053219 C31.6975495,37.4997471 41.1629751,24.3843538 42.0366452,23.2440152 C43.5340798,21.2921473 40.9900404,19.3182921 39.4046391,20.7354701 M7.39572624,8.34565603 C7.69061489,8.01584732 7.99450014,7.71602121 8.30638236,7.4451783 C9.36198375,6.52870983 10.4765629,5.96503676 11.5981393,5.67720369 C12.3288634,5.49031209 12.9466301,5.44533817 13.3824655,5.4763202 C13.4084557,5.47831904 13.4164527,5.47831904 13.4044572,5.47731962 C14.3341062,5.59725007 15.1837853,4.92464017 15.3007412,3.97519084 C15.417697,3.02474208 14.7599454,2.15724522 13.8302964,2.03731478 C13.7773164,2.03031883 13.7033444,2.02332289 13.6103795,2.01632695 C12.8396705,1.96335767 11.8710363,2.03331709 10.7744504,2.31415421 C9.16205924,2.72691482 7.57765754,3.52944936 6.1112113,4.80271089 C5.69037021,5.16749932 5.28352385,5.56826688 4.89267144,6.00501357 C3.21930333,7.87492905 2.12871516,9.77582655 1.51994504,11.6167588 C1.29602959,12.2913676 1.15208395,12.9180041 1.07111453,13.4876737 C1.01713491,13.8694523 0.998142082,14.1732761 1.00014133,14.3881515 C1.00014133,14.4001445 1.00014133,14.4001445 1.00114095,14.4101387 C1.0211334,15.3675834 1.79684048,16.1261435 2.73348679,16.1051556 C3.66913347,16.0851672 4.41185301,15.2916275 4.39186055,14.3351822 C4.39186055,14.344177 4.39186055,14.344177 4.39286018,14.3501735 C4.39186055,14.3091973 4.39985753,14.1842697 4.42784697,13.9843857 C4.47982734,13.6205966 4.5757911,13.1988413 4.73273184,12.7281143 C5.1925582,11.33892 6.04123772,9.85777902 7.39572624,8.34565603" id="Greetings-Icon" fill="#279DF9" mask="url(#mask-2)"></path>
                    </g>
                </g>
            </g>
        </g>
    </g>
</svg>