<?xml version="1.0" encoding="UTF-8"?>
<svg width="42px" height="44px" viewBox="0 0 42 44" version="1.1" xmlns="http://www.w3.org/2000/svg" xmlns:xlink="http://www.w3.org/1999/xlink">
    <!-- Generator: Sketch 46.2 (44496) - http://www.bohemiancoding.com/sketch -->
    <title>Happy</title>
    <desc>Created with Sketch.</desc>
    <defs>
        <polygon id="path-1" points="9.70395583e-16 0 48 0 48 48 0 48"></polygon>
    </defs>
    <g id="Page-1" stroke="none" stroke-width="1" fill="none" fill-rule="evenodd">
        <g id="Search---Enter" transform="translate(-414.000000, -732.000000)">
            <g id="Extension" transform="translate(39.000000, 32.000000)">
                <g id="Tab-Bar" transform="translate(0.000000, 686.000000)">
                    <g id="Happy" transform="translate(372.000000, 12.000000)">
                        <mask id="mask-2" fill="white">
                            <use xlink:href="#path-1"></use>
                        </mask>
                        <g id="Bounding-Box"></g>
                        <path d="M31.8745271,24.5473687 C28.8210728,24.5473687 27.9378092,21.2831856 27.9378092,19.26769 C27.9378092,17.2511946 28.8210728,13.9870115 31.8745271,13.9870115 C34.9279813,13.9870115 35.8122441,17.2511946 35.8122441,19.26769 C35.8122441,21.2831856 34.9279813,24.5473687 31.8745271,24.5473687 M23.9950964,38.0060006 C15.7519689,38.0060006 15.0025937,30.0080021 15.0025937,30.0080021 C14.9426437,29.5521162 15.5181639,29.0082523 16.0017607,29.0082523 L31.9884321,29.0082523 C32.4590398,29.0082523 33.0605383,29.5341207 32.9875991,30.0080021 C32.9875991,30.0080021 32.2382239,38.0060006 23.9950964,38.0060006 M12.1869412,19.26769 C12.1869412,17.2511946 13.0722031,13.9870115 16.1246582,13.9870115 C19.1781125,13.9870115 20.0623752,17.2511946 20.0623752,19.26769 C20.0623752,21.2831856 19.1781125,24.5473687 16.1246582,24.5473687 C13.0722031,24.5473687 12.1869412,21.2831856 12.1869412,19.26769 M43.0691937,23.4936324 C45.8049129,5.21920572 29.7273173,2.00700959 23.9990931,2.00001135 C18.2728672,1.99401285 2.06438069,4.36042064 4.92799321,23.4936324 C4.92799321,23.4936324 1.91750315,22.2909334 3.42025026,27.4576404 C4.92799321,32.6253471 6.68053207,32.2634377 6.68053207,32.2634377 C6.68053207,32.2634377 7.44389563,35.902527 8.58994014,37.3961532 C11.6334027,41.3621607 17.8831921,46 23.5244888,46 C28.7611228,46 36.06903,41.2181967 39.4032502,37.3961532 C40.4713596,36.1724594 41.3126582,32.2634377 41.3126582,32.2634377 C41.3126582,32.2634377 43.0691937,32.6253471 44.5779359,27.4576404 C46.0856788,22.2909334 43.0691937,23.4936324 43.0691937,23.4936324" id="Happy-Icon" fill="#26AB4E" mask="url(#mask-2)"></path>
                    </g>
                </g>
            </g>
        </g>
    </g>
</svg>