<?xml version="1.0" encoding="UTF-8"?>
<svg width="40px" height="42px" viewBox="0 0 40 42" version="1.1" xmlns="http://www.w3.org/2000/svg" xmlns:xlink="http://www.w3.org/1999/xlink">
    <!-- Generator: Sketch 46.2 (44496) - http://www.bohemiancoding.com/sketch -->
    <title>Fill 1</title>
    <desc>Created with Sketch.</desc>
    <defs></defs>
    <g id="Symbols" stroke="none" stroke-width="1" fill="none" fill-rule="evenodd">
        <g id="Top-Bar" transform="translate(-620.000000, -34.000000)" fill="#FFFFFF">
            <g id="Fill-1">
                <path d="M629.932525,48.7873008 L638.382411,48.7873008 C639.548495,48.7873008 640.494883,49.7336881 640.494883,50.8997724 C640.494883,52.0658566 639.548495,53.0122439 638.382411,53.0122439 L629.932525,53.0122439 L629.932525,56.1809512 C629.932525,56.9826342 630.036036,57.4347031 629.582911,57.9195153 C629.130842,58.4032713 628.396758,58.4032713 627.944689,57.9195153 C627.944689,57.9195153 622.818777,53.9163817 620.426403,51.9560081 C619.883498,51.4131029 619.832798,50.4371411 620.426403,49.8435366 C622.805046,47.8937253 627.944689,43.8673546 627.944689,43.8673546 C628.396758,43.3825424 629.130842,43.3825424 629.582911,43.8673546 C630.036036,44.3521668 629.932525,44.8095169 629.932525,45.6185935 L629.932525,48.7873008 Z M659.507127,65.6870732 C659.507127,66.8531575 658.560739,68.0794472 657.394655,68.4237801 L644.719826,75.909323 C643.553741,76.2536558 642.607354,75.5871711 642.607354,74.4210868 L642.607354,67.7995447 L634.157468,67.7995447 C632.991384,67.7995447 632.044996,66.8531575 632.044996,65.6870732 L632.044996,57.237187 C632.044996,56.0711027 632.991384,55.1247154 634.157468,55.1247154 C635.323552,55.1247154 636.26994,56.0711027 636.26994,57.237187 L636.26994,63.5746016 L642.607354,63.5746016 L642.607354,44.8464851 C642.607354,43.6793446 643.553741,42.4541111 644.719826,42.1097783 L651.297006,38.2249431 L636.26994,38.2249431 L636.26994,44.5623577 C636.26994,45.728442 635.323552,46.6748293 634.157468,46.6748293 C632.991384,46.6748293 632.044996,45.728442 632.044996,44.5623577 L632.044996,36.1124715 C632.044996,34.9463873 632.991384,34 634.157468,34 L657.394655,34 C658.560739,34 659.507127,34.9463873 659.507127,36.1124715 L659.507127,65.6870732 Z"></path>
            </g>
        </g>
    </g>
</svg>