<?xml version="1.0" encoding="UTF-8"?>
<svg width="42px" height="44px" viewBox="0 0 42 44" version="1.1" xmlns="http://www.w3.org/2000/svg" xmlns:xlink="http://www.w3.org/1999/xlink">
    <!-- Generator: Sketch 46.2 (44496) - http://www.bohemiancoding.com/sketch -->
    <title>Nuanced</title>
    <desc>Created with Sketch.</desc>
    <defs>
        <polygon id="path-1" points="0 1.54993689e-14 48 1.54993689e-14 48 48 0 48 0 0"></polygon>
    </defs>
    <g id="Page-1" stroke="none" stroke-width="1" fill="none" fill-rule="evenodd">
        <g id="Search---Enter" transform="translate(-528.000000, -732.000000)">
            <g id="Extension" transform="translate(39.000000, 32.000000)">
                <g id="Tab-Bar" transform="translate(0.000000, 686.000000)">
                    <g id="Nuanced" transform="translate(486.000000, 12.000000)">
                        <mask id="mask-2" fill="white">
                            <use xlink:href="#path-1"></use>
                        </mask>
                        <g id="Bounding-Box"></g>
                        <path d="M31.8745271,24.1939636 C29.4585414,24.1939636 27.4991749,22.421367 27.4991749,20.2348647 C27.4991749,18.0483624 29.4585414,18.0353654 31.8745271,18.0353654 C34.291512,18.0353654 36.2498792,18.0483624 36.2498792,20.2348647 C36.2498792,22.421367 34.291512,24.1939636 31.8745271,24.1939636 M32.041388,33.3528788 L17.0738668,35.4683972 C16.3045083,35.5773724 15.5941006,35.043494 15.4851914,34.265671 C15.3762822,33.4918471 15.9208282,32.7750103 16.6821934,32.6680347 L31.6497145,30.5525162 C32.4200722,30.443541 33.13048,30.9774195 33.23839,31.7552424 C33.3472992,32.5290663 32.8027532,33.2449034 32.041388,33.3528788 M11.7493061,20.2348647 C11.7493061,18.0483624 13.7086725,18.0353654 16.1246582,18.0353654 C18.5406439,18.0353654 20.5000104,18.0483624 20.5000104,20.2348647 C20.5000104,22.421367 18.5406439,24.1939636 16.1246582,24.1939636 C13.7086725,24.1939636 11.7493061,22.421367 11.7493061,20.2348647 M43.0691937,23.4931231 C45.8049129,5.21828287 29.7273173,2.00601406 23.9990931,2.00001542 C18.2728672,1.99301702 2.06438069,4.36047813 4.92799321,23.4931231 C4.92799321,23.4931231 1.91750315,22.2913966 3.42025026,27.4582205 C4.92799321,32.6250445 6.68053207,32.2641266 6.68053207,32.2641266 C6.68053207,32.2641266 7.44389563,35.9022985 8.58994014,37.3969583 C11.6334027,41.3620557 17.8831921,46 23.5244888,46 C28.7611228,46 36.06903,41.2190882 39.4032502,37.3969583 C40.4713596,36.1732368 41.3126582,32.2641266 41.3126582,32.2641266 C41.3126582,32.2641266 43.0691937,32.6250445 44.5779359,27.4582205 C46.0856788,22.2913966 43.0691937,23.4931231 43.0691937,23.4931231" id="Nuanced-Icon" fill="#B1BAC4" mask="url(#mask-2)"></path>
                    </g>
                </g>
            </g>
        </g>
    </g>
</svg>