<?xml version="1.0" encoding="UTF-8"?>
<svg width="46px" height="48px" viewBox="0 0 46 48" version="1.1" xmlns="http://www.w3.org/2000/svg" xmlns:xlink="http://www.w3.org/1999/xlink">
    <!-- Generator: Sketch 46.2 (44496) - http://www.bohemiancoding.com/sketch -->
    <title>Occasional</title>
    <desc>Created with Sketch.</desc>
    <defs>
        <polygon id="path-1" points="0 1.54993689e-14 48 1.54993689e-14 48 48 0 48 0 0"></polygon>
    </defs>
    <g id="Page-1" stroke="none" stroke-width="1" fill="none" fill-rule="evenodd">
        <g id="Search---Enter" transform="translate(-641.000000, -730.000000)">
            <g id="Extension" transform="translate(39.000000, 32.000000)">
                <g id="Tab-Bar" transform="translate(0.000000, 686.000000)">
                    <g id="Occasional" transform="translate(600.000000, 12.000000)">
                        <mask id="mask-2" fill="white">
                            <use xlink:href="#path-1"></use>
                        </mask>
                        <g id="Bounding-Box"></g>
                        <path d="M39.4140007,30.6914606 C38.3194866,30.6914606 37.4338492,31.597055 37.4338492,32.7144418 C37.4338492,33.8318285 38.3194866,34.737423 39.4140007,34.737423 C40.5085147,34.737423 41.3941521,33.8318285 41.3941521,32.7144418 C41.3941521,31.597055 40.5085147,30.6914606 39.4140007,30.6914606 M47.3147631,22.191601 C46.5534074,21.4602395 45.3554994,21.4988421 44.6400965,22.2771525 C44.6192089,22.2990621 44.4980604,22.4023499 44.3069382,22.5171142 C43.6761304,22.8906198 43.0119024,22.9386121 42.1481971,22.4367792 C40.0145213,21.197325 37.8683128,21.4310268 36.0207981,22.5411104 C35.4254994,22.8989662 34.9837251,23.2703852 34.7038303,23.5625124 C33.9738061,24.3262165 33.9884275,25.550021 34.7362062,26.2970321 C35.4839849,27.0419566 36.681893,27.0283936 37.4129615,26.2646895 C37.4756246,26.1989608 37.6657024,26.0382908 37.9403753,25.8734476 C38.7173967,25.4070873 39.4641311,25.3246657 40.2766616,25.7972859 C42.4040711,27.0325668 44.483439,26.8823299 46.2077164,25.8598846 C46.7487072,25.5385446 47.145573,25.1994683 47.3993582,24.9240341 C48.114761,24.1457236 48.0782076,22.9219191 47.3147631,22.191601 M29.6960106,33.2527906 C27.9038482,32.5506418 23.9519004,32.3691056 20.6453817,29.008599 C17.3399074,25.6460057 16.7007446,20.3762388 16.4605363,19.7961575 C16.4605363,19.7669448 16.4302492,19.7669448 16.4302492,19.7346022 C16.4584476,19.7346022 16.4584476,19.7669448 16.4897791,19.7669448 C18.2850746,20.4690935 21.302299,22.6047524 24.1096023,25.503072 C25.9926261,27.4258953 27.5456246,29.3810612 28.5889639,31.0566196 C29.0975787,31.8808358 29.4850451,32.6434966 29.7252533,33.2235778 C29.7252533,33.2527906 29.7565848,33.2527906 29.7565848,33.2840899 C29.7283865,33.2840899 29.7283865,33.2527906 29.6960106,33.2527906 M27.2761736,22.2761092 L27.2761736,22.2437666 C25.1853175,20.1049778 23.0338871,18.3365646 21.0631352,17.055378 C20.0751482,16.412698 19.1195371,15.8952155 18.1639261,15.5279698 C17.2375578,15.1325547 16.3728081,14.8873765 15.3848211,14.8873765 C14.309106,14.8873765 12.8751672,15.069956 12.1879627,16.5650215 L2.41879785,40.7030787 C2.1472581,41.3718414 2,42.0447774 2,42.7145834 C2.03028713,45.6431591 4.33001997,47.9624408 7.1999863,48 C7.85690363,48 8.54410809,47.8779325 9.17178267,47.6035416 L32.7456109,37.6868648 C34.0009601,37.1057403 34.5409064,35.4291385 34.5095749,34.3597442 C34.477199,33.3842478 34.2411683,32.4692635 33.880856,31.5219366 C32.7456109,28.7435978 30.4155909,25.4790758 27.2761736,22.2761092 M17.4057035,10.4606054 C18.5002176,10.4606054 19.385855,9.55501089 19.385855,8.43762417 C19.385855,7.32128076 18.5002176,6.41464298 17.4057035,6.41464298 C16.3111895,6.41464298 15.4245077,7.32128076 15.4245077,8.43762417 C15.4245077,9.55501089 16.3111895,10.4606054 17.4057035,10.4606054 M26.0803543,14.3219016 C26.4803533,14.0631603 27.0035895,13.630186 27.5289145,13.0094156 C29.0589366,11.2003133 29.6187262,8.8810316 28.5064576,6.34891435 C28.0061978,5.2106614 28.1242132,4.47095347 28.5889639,3.85644294 C28.7299557,3.66969016 28.8542374,3.55805582 28.8761694,3.54240615 C29.7471854,2.95084847 29.9832161,1.74999682 29.4025388,0.862138652 C28.8229058,-0.0267628305 27.6479742,-0.26776781 26.7780026,0.324833178 C26.4364892,0.557491665 26.0093362,0.940387022 25.5905384,1.49542879 C24.310124,3.19185345 23.9529448,5.42975683 25.0526808,7.93161805 C25.4965438,8.94258698 25.3085548,9.71985413 24.6641701,10.4814716 C24.4114292,10.780902 24.1649547,10.9843478 24.0563388,11.055293 C23.1727902,11.6270277 22.9096055,12.8205762 23.4683508,13.7230407 C24.0291848,14.6255053 25.1978501,14.892593 26.0803543,14.3219016 M45.5758643,15.8555696 C46.6703784,15.8555696 47.5570601,14.9499752 47.5570601,13.8325884 C47.5570601,12.7152017 46.6703784,11.8096073 45.5758643,11.8096073 C44.483439,11.8096073 43.5957129,12.7152017 43.5957129,13.8325884 C43.5957129,14.9499752 44.483439,15.8555696 45.5758643,15.8555696 M28.5336116,18.4106397 C28.3706877,18.860307 28.2766932,19.231726 28.2328291,19.4894239 C28.0521507,20.541082 28.7414439,21.5426612 29.7712062,21.726284 C30.8009685,21.9099068 31.7816448,21.2067148 31.9612788,20.1550567 C31.9685895,20.1164542 32.0051429,19.9703906 32.0824273,19.757555 C32.2202859,19.3777896 32.4176744,18.9990675 32.6766816,18.655818 C33.1236778,18.0653036 33.7106214,17.6354592 34.5001755,17.3986275 C36.2578732,16.8727984 37.6197495,15.6688169 38.6442899,14.0391641 C39.4536872,12.7538043 39.9090385,11.484094 40.1158265,10.5649365 C40.3497684,9.52371155 39.7137388,8.48665982 38.6954647,8.24774146 C37.6761462,8.00777979 36.6610053,8.65776292 36.4270634,9.69794458 C36.4019981,9.80436237 36.3351576,10.0422374 36.219231,10.365664 C36.0228869,10.9123593 35.770146,11.4569679 35.4599641,11.949411 C34.8886862,12.8581354 34.2119256,13.455953 33.4349041,13.6886114 C31.8463966,14.1643615 30.5983581,15.0803891 29.6813892,16.2927172 C29.1706856,16.9656532 28.7978406,17.6855382 28.5336116,18.4106397" id="Occasional-Icon" fill="#B1BAC4" mask="url(#mask-2)"></path>
                    </g>
                </g>
            </g>
        </g>
    </g>
</svg>