<?xml version="1.0" encoding="UTF-8"?>
<svg width="44px" height="42px" viewBox="0 0 44 42" version="1.1" xmlns="http://www.w3.org/2000/svg" xmlns:xlink="http://www.w3.org/1999/xlink">
    <!-- Generator: Sketch 46.2 (44496) - http://www.bohemiancoding.com/sketch -->
    <title>Popmoji</title>
    <desc>Created with Sketch.</desc>
    <defs>
        <polygon id="path-1" points="2.36654661e-19 0 48 2.43498401e-14 48 48 0 48 0 2.43498401e-14"></polygon>
    </defs>
    <g id="Page-1" stroke="none" stroke-width="1" fill="none" fill-rule="evenodd">
        <g id="Search---Enter" transform="translate(-74.000000, -733.000000)">
            <g id="Extension" transform="translate(39.000000, 32.000000)">
                <g id="Tab-Bar" transform="translate(0.000000, 686.000000)">
                    <g id="Popmoji" transform="translate(33.000000, 12.000000)">
                        <mask id="mask-2" fill="white">
                            <use xlink:href="#path-1"></use>
                        </mask>
                        <g id="Bounding-Box"></g>
                        <path d="M43.747059,17.3928757 L31.8879748,15.1729554 L26.1335077,4.62408614 C24.9489999,2.45514107 23.0411819,2.46213766 21.8616762,4.62408614 L16.1052083,15.1729554 L4.24712446,17.3928757 C1.86010108,17.8396584 1.27785146,19.6557751 2.96957674,21.4449049 L11.2281174,30.176658 L9.68145429,42.0918627 C9.36731961,44.5096867 10.9119818,45.6571286 13.1369357,44.601642 L23.997592,39.4491481 L34.8572478,44.601642 C37.0912055,45.6611267 38.6298652,44.5336751 38.3127292,42.0918627 L36.7650657,30.176658 L45.0246068,21.4449049 C46.7233351,19.649778 46.1440867,17.8416574 43.747059,17.3928757" id="Popmoji-Icon" fill="#B1BAC4" mask="url(#mask-2)"></path>
                    </g>
                </g>
            </g>
        </g>
    </g>
</svg>