<?xml version="1.0" encoding="UTF-8"?>
<svg width="42px" height="44px" viewBox="0 0 42 44" version="1.1" xmlns="http://www.w3.org/2000/svg" xmlns:xlink="http://www.w3.org/1999/xlink">
    <!-- Generator: Sketch 46.2 (44496) - http://www.bohemiancoding.com/sketch -->
    <title>Romantic</title>
    <desc>Created with Sketch.</desc>
    <defs>
        <polygon id="path-1" points="0 2.13117775e-14 44 0 44 44 1.13490703e-19 44 1.13490703e-19 0"></polygon>
    </defs>
    <g id="Page-1" stroke="none" stroke-width="1" fill="none" fill-rule="evenodd">
        <g id="Search---Enter" transform="translate(-301.000000, -732.000000)">
            <g id="Extension" transform="translate(39.000000, 32.000000)">
                <g id="Tab-Bar" transform="translate(0.000000, 686.000000)">
                    <g id="Romantic" transform="translate(261.000000, 14.000000)">
                        <mask id="mask-2" fill="white">
                            <use xlink:href="#path-1"></use>
                        </mask>
                        <g id="Bounding-Box"></g>
                        <path d="M31.9176884,22.7478355 C31.0304173,23.633634 29.5846051,23.6436317 28.6903398,22.7298396 C28.6903398,22.7298396 23.7493989,18.2138671 23.7493989,15.1445655 C23.7493989,13.4509508 25.2211898,12.0752639 27.0307032,12.0752639 C28.6773505,12.0752639 29.494679,13.8658564 30.3130067,15.4005073 C31.1303353,13.8658564 31.9586548,12.0752639 33.5933118,12.0752639 C35.4028253,12.0752639 36.8746162,13.4499511 36.8746162,15.1445655 C36.8746162,18.2138671 31.9176884,22.7478355 31.9176884,22.7478355 M31.2142663,29.6432666 C30.9454871,30.5360635 30.3499763,31.7877787 29.31083,33.0434929 C27.5542731,35.16601 25.1212719,36.4587159 21.9988371,36.4587159 C18.8764022,36.4587159 16.4453994,35.16601 14.6888424,33.0434929 C13.6496961,31.7877787 13.0531862,30.5360635 12.784407,29.6432666 C12.5605909,28.8994358 12.9792469,28.1136146 13.7186395,27.887666 C14.4580321,27.6627172 15.2403893,28.0836215 15.4642055,28.828452 C15.4991767,28.9444256 15.5940987,29.1963683 15.7559658,29.5362909 C16.0337376,30.1181585 16.3934421,30.7020257 16.8410743,31.2429026 C18.0930458,32.7555585 19.7626741,33.6433565 21.9988371,33.6433565 C24.2369983,33.6433565 25.9056275,32.7555585 27.157599,31.2429026 C27.6052312,30.7020257 27.9659349,30.1181585 28.2427075,29.5362909 C28.4045746,29.1963683 28.4994966,28.9444256 28.5344678,28.828452 C28.758284,28.0836215 29.5396421,27.6627172 30.2800338,27.887666 C31.0204256,28.1136146 31.4390816,28.8994358 31.2142663,29.6432666 M7.12505631,15.1445655 C7.12505631,13.4509508 8.59584801,12.0752639 10.4053614,12.0752639 C12.0510095,12.0752639 12.8693372,13.8658564 13.6866658,15.4005073 C14.5039943,13.8658564 15.3323138,12.0752639 16.9679701,12.0752639 C18.7784827,12.0752639 20.2492744,13.4499511 20.2492744,15.1445655 C20.2492744,18.2138671 15.2923466,22.7478355 15.2923466,22.7478355 C14.4060747,23.633634 12.9592633,23.6436317 12.064998,22.7298396 C12.064998,22.7298396 7.12505631,18.2138671 7.12505631,15.1445655 M41.0691702,21.4941208 C43.8049227,3.21827909 27.7271311,0.00700975414 21.9988371,1.1346495e-05 C16.2725414,-0.00598728863 0.0638572987,2.36047427 2.92750473,21.4941208 C2.92750473,21.4941208 -0.0830220356,20.2913944 1.42074258,25.4582188 C2.92750473,30.6250432 4.68006495,30.2641253 4.68006495,30.2641253 C4.68006495,30.2641253 5.44343781,33.9032973 6.58949629,35.3969575 C9.63299597,39.363055 15.8828615,44 21.524227,44 C26.7609249,44 34.0689211,39.2190878 37.4031819,35.3969575 C38.4713044,34.1732359 39.3126133,30.2641253 39.3126133,30.2641253 C39.3126133,30.2641253 41.0691702,30.6250432 42.5779307,25.4582188 C44.085692,20.2913944 41.0691702,21.4941208 41.0691702,21.4941208" id="Romantic-Icon" fill="#B1BAC4" mask="url(#mask-2)"></path>
                    </g>
                </g>
            </g>
        </g>
    </g>
</svg>