<?xml version="1.0" encoding="UTF-8"?>
<svg width="32px" height="32px" viewBox="0 0 32 32" version="1.1" xmlns="http://www.w3.org/2000/svg" xmlns:xlink="http://www.w3.org/1999/xlink">
    <!-- Generator: Sketch 46.2 (44496) - http://www.bohemiancoding.com/sketch -->
    <title>Clear Search Icon</title>
    <desc>Created with Sketch.</desc>
    <defs></defs>
    <g id="Page-1" stroke="none" stroke-width="1" fill="none" fill-rule="evenodd">
        <g id="Search---Results" transform="translate(-666.000000, -138.000000)">
            <g id="Extension" transform="translate(39.000000, 32.000000)">
                <g id="Search-Bar" transform="translate(0.000000, 86.000000)">
                    <g id="Clear-Search-Icon" transform="translate(627.000000, 20.000000)">
                        <path d="M1.5,16 C1.5,24.0093726 7.99117188,30.5 16,30.5 C24.0093726,30.5 30.5,24.0088281 30.5,16 C30.5,7.99062741 24.0088281,1.5 16,1.5 C7.99062741,1.5 1.5,7.99117188 1.5,16 Z" id="Path" stroke="#B1BAC4" stroke-width="3"></path>
                        <path d="M17.4601551,14.4601551 L17.4601551,9.95325146 C17.4601551,9.12404096 16.7885822,8.46015511 15.9601551,8.46015511 C15.1259523,8.46015511 14.4601551,9.12863712 14.4601551,9.95325146 L14.4601551,14.4601551 L9.95325146,14.4601551 C9.12404096,14.4601551 8.46015511,15.131728 8.46015511,15.9601551 C8.46015511,16.7943579 9.12863712,17.4601551 9.95325146,17.4601551 L14.4601551,17.4601551 L14.4601551,21.9670588 C14.4601551,22.7962693 15.131728,23.4601551 15.9601551,23.4601551 C16.7943579,23.4601551 17.4601551,22.7916731 17.4601551,21.9670588 L17.4601551,17.4601551 L21.9670588,17.4601551 C22.7962693,17.4601551 23.4601551,16.7885822 23.4601551,15.9601551 C23.4601551,15.1259523 22.7916731,14.4601551 21.9670588,14.4601551 L17.4601551,14.4601551 Z" id="Combined-Shape" fill="#B1BAC4" transform="translate(15.960155, 15.960155) rotate(-315.000000) translate(-15.960155, -15.960155) "></path>
                    </g>
                </g>
            </g>
        </g>
    </g>
</svg>