<?xml version="1.0" encoding="UTF-8"?>
<svg width="32px" height="33px" viewBox="0 0 32 33" version="1.1" xmlns="http://www.w3.org/2000/svg" xmlns:xlink="http://www.w3.org/1999/xlink">
    <!-- Generator: Sketch 46.2 (44496) - http://www.bohemiancoding.com/sketch -->
    <title>Search Icon</title>
    <desc>Created with Sketch.</desc>
    <defs></defs>
    <g id="Page-1" stroke="none" stroke-width="1" fill="none" fill-rule="evenodd">
        <g id="Search---Enter" transform="translate(-59.000000, -139.000000)" fill="#37CA8E">
            <g id="Extension" transform="translate(39.000000, 32.000000)">
                <g id="Search-Bar" transform="translate(0.000000, 86.000000)">
                    <path d="M44.8227448,43.2822572 L51.3676852,49.8271976 C52.2010013,50.6605137 52.2059111,52.0140413 51.3741089,52.8458436 C50.5365075,53.6834449 49.1908128,53.6747698 48.3554629,52.8394198 L41.7374605,46.2214175 C39.4986634,47.7774317 36.7784726,48.6895163 33.8447582,48.6895163 C26.1985094,48.6895163 20,42.4926882 20,34.8447582 C20,27.1985094 26.1968282,21 33.8447582,21 C41.491007,21 47.6895163,27.1968282 47.6895163,34.8447582 C47.6895163,38.020436 46.6205957,40.9463862 44.8227448,43.2822572 Z M24.2599256,34.8447582 C24.2599256,40.1394789 28.5512013,44.4295907 33.8447582,44.4295907 C39.1394789,44.4295907 43.4295907,40.138315 43.4295907,34.8447582 C43.4295907,29.5500374 39.138315,25.2599256 33.8447582,25.2599256 C28.5500374,25.2599256 24.2599256,29.5512013 24.2599256,34.8447582 Z" id="Search-Icon"></path>
                </g>
            </g>
        </g>
    </g>
</svg>