<svg width="138" height="92" viewBox="0 0 138 92" fill="none" xmlns="http://www.w3.org/2000/svg">
<path fill-rule="evenodd" clip-rule="evenodd" d="M22.2569 46L22.0742 47.6393L23.7359 47.1761L23.8829 48.2987L22.3682 48.4056L23.3617 49.7286L22.3504 50.2677L21.6555 48.8733L21.0452 50.2587L19.9939 49.7286L20.9784 48.4056L19.4727 48.2897L19.6464 47.1761L21.2724 47.6393L21.0897 46H22.2569Z" fill="#FF0040"/>
<path fill-rule="evenodd" clip-rule="evenodd" d="M120.659 40.1328L120.477 41.7722L122.138 41.3089L122.285 42.4315L120.771 42.5384L121.764 43.8614L120.753 44.4005L120.058 43.0061L119.448 44.3916L118.396 43.8614L119.381 42.5384L117.875 42.4226L118.049 41.3089L119.675 41.7722L119.492 40.1328H120.659Z" fill="#FF0040"/>
<path fill-rule="evenodd" clip-rule="evenodd" d="M117.077 83.8431L119.381 81.5391L119.842 81.9999L117.538 84.3038L119.842 86.6078L119.381 87.0686L117.077 84.7646L114.773 87.0686L114.312 86.6078L116.616 84.3038L114.312 81.9999L114.773 81.5391L117.077 83.8431Z" fill="#FF0040"/>
<path fill-rule="evenodd" clip-rule="evenodd" d="M128.297 74.9843C128.297 75.8774 127.569 76.6014 126.67 76.6014C125.771 76.6014 125.043 75.8774 125.043 74.9843C125.043 74.0912 125.771 73.3672 126.67 73.3672C127.569 73.3672 128.297 74.0912 128.297 74.9843ZM125.669 74.9849C125.669 75.5317 126.117 75.9765 126.671 75.9765C127.225 75.9765 127.672 75.5317 127.672 74.9849C127.672 74.4382 127.225 73.9934 126.671 73.9934C126.117 73.9934 125.669 74.4382 125.669 74.9849Z" fill="#FF0040"/>
<path fill-rule="evenodd" clip-rule="evenodd" d="M78.1176 4.6015C78.1176 5.49462 77.3891 6.21863 76.4904 6.21863C75.5918 6.21863 74.8633 5.49462 74.8633 4.6015C74.8633 3.70839 75.5918 2.98438 76.4904 2.98438C77.3891 2.98438 78.1176 3.70839 78.1176 4.6015ZM75.4895 4.60211C75.4895 5.14885 75.937 5.59364 76.491 5.59364C77.045 5.59364 77.4926 5.14885 77.4926 4.60211C77.4926 4.05538 77.045 3.61059 76.491 3.61059C75.937 3.61059 75.4895 4.05538 75.4895 4.60211Z" fill="#FF0040"/>
<path fill-rule="evenodd" clip-rule="evenodd" d="M23.3807 25.1445H2.52734V36.8745H23.3807V33.6162L25.9873 31.0095L23.3807 28.4029V25.1445ZM6.88288 33.7231C6.88288 33.5093 6.94016 33.3476 7.05471 33.2382C7.16926 33.1287 7.336 33.074 7.55492 33.074C7.7662 33.074 7.92975 33.13 8.04558 33.242C8.1614 33.354 8.21931 33.5144 8.21931 33.7231C8.21931 33.9242 8.16076 34.0827 8.04367 34.1985C7.92657 34.3143 7.76365 34.3722 7.55492 34.3722C7.34109 34.3722 7.17563 34.3156 7.05853 34.2023C6.94143 34.089 6.88288 33.9293 6.88288 33.7231ZM9.11026 33.7231C9.11026 33.5093 9.16754 33.3476 9.28209 33.2382C9.39664 33.1287 9.56464 33.074 9.78611 33.074C9.99739 33.074 10.1609 33.13 10.2768 33.242C10.3926 33.354 10.4505 33.5144 10.4505 33.7231C10.4505 33.9242 10.392 34.0827 10.2749 34.1985C10.1578 34.3143 9.99485 34.3722 9.78611 34.3722C9.56974 34.3722 9.403 34.3156 9.28591 34.2023C9.16881 34.089 9.11026 33.9293 9.11026 33.7231ZM11.3402 33.7231C11.3402 33.5093 11.3975 33.3476 11.512 33.2382C11.6266 33.1287 11.7933 33.074 12.0122 33.074C12.2235 33.074 12.387 33.13 12.5029 33.242C12.6187 33.354 12.6766 33.5144 12.6766 33.7231C12.6766 33.9242 12.6181 34.0827 12.501 34.1985C12.3839 34.3143 12.221 34.3722 12.0122 34.3722C11.7984 34.3722 11.6329 34.3156 11.5158 34.2023C11.3987 34.089 11.3402 33.9293 11.3402 33.7231ZM14.7118 32.4185H13.7801L13.5854 28.688H14.9065L14.7118 32.4185ZM13.5701 33.7231C13.5701 33.5093 13.6274 33.3476 13.7419 33.2382C13.8565 33.1287 14.0232 33.074 14.2421 33.074C14.4534 33.074 14.617 33.13 14.7328 33.242C14.8486 33.354 14.9065 33.5144 14.9065 33.7231C14.9065 33.9242 14.848 34.0827 14.7309 34.1985C14.6138 34.3143 14.4509 34.3722 14.2421 34.3722C14.0283 34.3722 13.8628 34.3156 13.7457 34.2023C13.6287 34.089 13.5701 33.9293 13.5701 33.7231ZM16.4135 32.4172V32.1347C16.4135 31.8903 16.4657 31.6777 16.5701 31.497C16.6744 31.3163 16.8653 31.1241 17.1428 30.9204C17.4101 30.7295 17.5864 30.5742 17.6717 30.4546C17.7569 30.335 17.7996 30.2013 17.7996 30.0537C17.7996 29.8882 17.7385 29.7622 17.6163 29.6757C17.4941 29.5891 17.3236 29.5458 17.1046 29.5458C16.7228 29.5458 16.2875 29.6706 15.7988 29.92L15.3826 29.0838C15.9502 28.7656 16.5522 28.6065 17.1886 28.6065C17.713 28.6065 18.1299 28.7325 18.4391 28.9845C18.7484 29.2365 18.9031 29.5726 18.9031 29.9926C18.9031 30.2726 18.8394 30.5144 18.7122 30.7181C18.5849 30.9217 18.3431 31.1508 17.9867 31.4054C17.7423 31.5861 17.5877 31.7236 17.5227 31.8178C17.4578 31.9119 17.4254 32.0354 17.4254 32.1881V32.4172H16.4135ZM16.2913 33.7231C16.2913 33.5093 16.3486 33.3476 16.4631 33.2382C16.5777 33.1287 16.7444 33.074 16.9634 33.074C17.1746 33.074 17.3382 33.13 17.454 33.242C17.5698 33.354 17.6277 33.5144 17.6277 33.7231C17.6277 33.9242 17.5692 34.0827 17.4521 34.1985C17.335 34.3143 17.1721 34.3722 16.9634 34.3722C16.7495 34.3722 16.5841 34.3156 16.467 34.2023C16.3499 34.089 16.2913 33.9293 16.2913 33.7231Z" fill="#212121"/>
<path fill-rule="evenodd" clip-rule="evenodd" d="M114.618 54.4688H135.472V66.1988H114.618V62.9404L112.012 60.3338L114.618 57.7271V54.4688ZM119.624 63.0448C119.624 62.831 119.682 62.6693 119.796 62.5599C119.911 62.4504 120.077 62.3957 120.296 62.3957C120.508 62.3957 120.671 62.4517 120.787 62.5637C120.903 62.6757 120.961 62.836 120.961 63.0448C120.961 63.2459 120.902 63.4043 120.785 63.5202C120.668 63.636 120.505 63.6939 120.296 63.6939C120.083 63.6939 119.917 63.6373 119.8 63.524C119.683 63.4107 119.624 63.251 119.624 63.0448ZM121.849 63.0448C121.849 62.831 121.906 62.6693 122.021 62.5599C122.136 62.4504 122.304 62.3957 122.525 62.3957C122.736 62.3957 122.9 62.4517 123.016 62.5637C123.132 62.6757 123.189 62.836 123.189 63.0448C123.189 63.2459 123.131 63.4043 123.014 63.5202C122.897 63.636 122.734 63.6939 122.525 63.6939C122.309 63.6939 122.142 63.6373 122.025 63.524C121.908 63.4107 121.849 63.251 121.849 63.0448ZM124.079 63.0448C124.079 62.831 124.136 62.6693 124.251 62.5599C124.365 62.4504 124.532 62.3957 124.751 62.3957C124.962 62.3957 125.126 62.4517 125.242 62.5637C125.358 62.6757 125.416 62.836 125.416 63.0448C125.416 63.2459 125.357 63.4043 125.24 63.5202C125.123 63.636 124.96 63.6939 124.751 63.6939C124.537 63.6939 124.372 63.6373 124.255 63.524C124.138 63.4107 124.079 63.251 124.079 63.0448ZM127.451 61.7402H126.519L126.324 58.0096H127.645L127.451 61.7402ZM126.309 63.0448C126.309 62.831 126.366 62.6693 126.481 62.5599C126.595 62.4504 126.762 62.3957 126.981 62.3957C127.192 62.3957 127.356 62.4517 127.472 62.5637C127.588 62.6757 127.645 62.836 127.645 63.0448C127.645 63.2459 127.587 63.4043 127.47 63.5202C127.353 63.636 127.19 63.6939 126.981 63.6939C126.767 63.6939 126.602 63.6373 126.485 63.524C126.368 63.4107 126.309 63.251 126.309 63.0448ZM129.155 61.7389V61.4563C129.155 61.212 129.207 60.9994 129.312 60.8187C129.416 60.6379 129.607 60.4458 129.884 60.2421C130.152 60.0512 130.328 59.8959 130.413 59.7763C130.498 59.6566 130.541 59.523 130.541 59.3753C130.541 59.2099 130.48 59.0839 130.358 58.9973C130.236 58.9108 130.065 58.8675 129.846 58.8675C129.464 58.8675 129.029 58.9922 128.54 59.2417L128.124 58.4055C128.692 58.0873 129.294 57.9282 129.93 57.9282C130.454 57.9282 130.871 58.0542 131.181 58.3062C131.49 58.5582 131.645 58.8942 131.645 59.3142C131.645 59.5943 131.581 59.8361 131.454 60.0397C131.326 60.2434 131.085 60.4725 130.728 60.727C130.484 60.9078 130.329 61.0452 130.264 61.1394C130.199 61.2336 130.167 61.3571 130.167 61.5098V61.7389H129.155ZM129.033 63.0448C129.033 62.831 129.09 62.6693 129.205 62.5599C129.319 62.4504 129.486 62.3957 129.705 62.3957C129.916 62.3957 130.08 62.4517 130.195 62.5637C130.311 62.6757 130.369 62.836 130.369 63.0448C130.369 63.2459 130.311 63.4043 130.194 63.5202C130.076 63.636 129.914 63.6939 129.705 63.6939C129.491 63.6939 129.326 63.6373 129.208 63.524C129.091 63.4107 129.033 63.251 129.033 63.0448Z" fill="#212121"/>
<path fill-rule="evenodd" clip-rule="evenodd" d="M84.8155 12.1133L84.6328 13.7526L86.2944 13.2893L86.4415 14.4119L84.9268 14.5188L85.9202 15.8419L84.909 16.3809L84.2141 14.9866L83.6038 16.372L82.5525 15.8419L83.537 14.5188L82.0312 14.403L82.205 13.2893L83.831 13.7526L83.6483 12.1133H84.8155Z" fill="#FF0040"/>
<path fill-rule="evenodd" clip-rule="evenodd" d="M71.3573 24.2288L98.5588 26.3893L110.464 40.8973L106.657 80.3973C106.483 82.2027 104.907 83.5523 103.136 83.4117L65.9385 80.4573C64.1675 80.3166 62.8729 78.739 63.0469 76.9335L67.8356 27.2432C68.0096 25.4378 69.5863 24.0882 71.3573 24.2288ZM71.2326 25.5397C70.1702 25.4553 69.2243 26.265 69.1199 27.3482L64.3319 77.0342C64.2275 78.1174 65.0042 79.0639 66.0666 79.1483L103.258 82.1024C104.321 82.1868 105.267 81.3771 105.371 80.2939L109.062 41.9963L96.2274 40.94L96.2327 40.8822L96.2278 40.8818L97.4569 27.6227L71.2326 25.5397ZM98.609 28.5231L97.5756 39.6703L108.493 40.5688L98.609 28.5231Z" fill="#212121"/>
<path fill-rule="evenodd" clip-rule="evenodd" d="M85.2192 75.3816C93.7398 76.058 101.326 69.5686 102.163 60.8873C103 52.2059 96.7713 44.62 88.2507 43.9437C79.7302 43.2673 72.1442 49.7567 71.3071 58.438C70.47 67.1193 76.6987 74.7053 85.2192 75.3816ZM80.5781 51.2712L79.5421 52.1346L85.8107 59.6145L78.3397 65.885L79.1436 66.8509L86.6178 60.5776L92.8838 68.0544L93.9199 67.191L87.6509 59.7106L95.123 53.4391L94.3192 52.4732L86.8437 58.7475L80.5781 51.2712Z" fill="#FF0040"/>
<path fill-rule="evenodd" clip-rule="evenodd" d="M27.1851 11.7074C27.0807 10.6241 27.8574 9.67753 28.92 9.59313L55.5528 7.47781L56.6424 19.2316L56.5818 19.2365L56.7092 20.6068L56.7694 20.6018L56.7699 20.6071L57.9961 20.5058L57.9956 20.5009L69.3021 19.5703L69.8484 25.2389L71.131 25.1371L70.4949 18.5358L70.2179 18.2987L70.2008 18.1157L70.0213 18.1304L55.9955 6.125L28.794 8.28549C27.023 8.42615 25.7284 10.0038 25.9024 11.8093L30.6911 61.4995C30.8651 63.305 32.4418 64.6546 34.2128 64.5139L34.0867 63.2063C33.0241 63.2907 32.0781 62.4809 31.9737 61.3977L27.1851 11.7074ZM57.8686 19.1306L56.8913 8.58852L68.2129 18.2793L57.8686 19.1306ZM65.0902 61.8272L64.9627 60.442L45.1323 62.0914L45.2597 63.4766L65.0902 61.8272ZM41.4628 37.1271L42.6547 35.7066C42.8356 35.491 43.1849 35.4864 43.4349 35.6962C43.6849 35.9059 43.741 36.2507 43.5601 36.4663L42.3682 37.8868L43.7887 39.0788C44.0042 39.2596 44.0089 39.6089 43.7991 39.8589C43.5893 40.109 43.2445 40.165 43.029 39.9842L41.6084 38.7922L40.4165 40.2127C40.2356 40.4283 39.8863 40.4329 39.6363 40.2231C39.3863 40.0134 39.3302 39.6686 39.5111 39.453L40.703 38.0325L39.2825 36.8405C39.067 36.6597 39.0623 36.3104 39.2721 36.0604C39.4819 35.8103 39.8267 35.7543 40.0422 35.9351L41.4628 37.1271ZM60.181 34.1741L58.989 35.5947L57.5685 34.4027C57.353 34.2218 57.0082 34.2779 56.7984 34.5279C56.5886 34.7779 56.5932 35.1272 56.8088 35.3081L58.2293 36.5001L57.0373 37.9206C56.8565 38.1361 56.9126 38.4809 57.1626 38.6907C57.4126 38.9005 57.7619 38.8958 57.9427 38.6803L59.1347 37.2598L60.5553 38.4517C60.7708 38.6326 61.1156 38.5765 61.3254 38.3265C61.5352 38.0765 61.5305 37.7272 61.315 37.5463L59.8944 36.3544L61.0864 34.9338C61.2673 34.7183 61.2112 34.3735 60.9612 34.1637C60.7112 33.9539 60.3619 33.9586 60.181 34.1741ZM52.9773 45.1824L53.2184 47.6843L53.184 47.6871C53.3243 49.1475 54.7399 50.2277 56.3459 50.0997C57.9337 49.9731 59.1132 48.7131 59.0042 47.2732L59.0264 47.2714L58.7306 44.2014C58.7385 44.1411 58.7399 44.0782 58.7339 44.0138C58.7277 43.9472 58.7141 43.8835 58.6942 43.8238L58.6463 43.3262L52.8429 43.7873L52.8449 43.8073L43.6595 44.5661C43.3525 44.5915 43.1321 44.9199 43.1673 45.2998C43.2025 45.6796 43.4799 45.967 43.787 45.9416L52.9773 45.1824ZM56.2444 49.0419C55.2986 49.1173 54.4628 48.4944 54.3527 47.6427L54.3837 47.6403L54.1377 45.0865L57.6186 44.799L57.861 47.3143L57.8368 47.3162C57.9209 48.1925 57.208 48.9651 56.2444 49.0419Z" fill="#212121"/>
<path fill-rule="evenodd" clip-rule="evenodd" d="M40.6279 53.2014C40.1348 52.2922 38.8299 52.2922 38.3367 53.2014L28.7572 70.8609C28.2861 71.7293 28.9148 72.7857 29.9028 72.7857H49.0618C50.0498 72.7857 50.6785 71.7293 50.2074 70.8609L40.6279 53.2014ZM38.5857 65.7365H40.4029L40.7828 59.7503H38.2059L38.5857 65.7365ZM38.5105 67.0548C38.287 67.2304 38.1753 67.4898 38.1753 67.8329C38.1753 68.1638 38.2895 68.4201 38.5179 68.6019C38.7463 68.7837 39.069 68.8745 39.4861 68.8745C39.8933 68.8745 40.211 68.7816 40.4394 68.5958C40.6678 68.4099 40.782 68.1556 40.782 67.8329C40.782 67.498 40.669 67.2406 40.4431 67.0609C40.2172 66.8812 39.8982 66.7913 39.4861 66.7913C39.0591 66.7913 38.7339 66.8791 38.5105 67.0548Z" fill="#FF0040"/>
</svg>
