<svg width="96" height="88" viewBox="0 0 96 88" fill="none" xmlns="http://www.w3.org/2000/svg">
<g clip-path="url(#clip0_771_27518)">
<path d="M90.0089 34.3544L87.3965 37.4069L86.5962 33.3043L82.926 31.5566L86.3922 29.6214L86.7363 25.4888L89.6788 28.3953L93.5616 27.5889L91.914 31.3204L93.9697 34.9547L90.0089 34.3544Z" fill="#FFE299"/>
<path d="M19.1418 83.5376L16.2739 84.4442L17.3793 81.5098L15.7274 78.9346L18.6997 79.0802L20.5466 76.5821L21.2782 79.6066L24.0716 80.6378L21.5514 82.3614L21.4309 85.4969L19.1418 83.5376Z" fill="#FFD500"/>
<path d="M11.5104 71.6657L9.59843 72.2701L10.3354 70.3138L9.2341 68.597L11.2156 68.6941L12.447 67.0287L12.9346 69.045L14.7969 69.7325L13.1168 70.8816L13.0365 72.9719L11.5104 71.6657Z" fill="#FFD500"/>
<path d="M17.6928 20.9985C25.5535 16.9005 40.3495 10.2311 47.6883 10.7442C55.5698 11.2953 62.2669 16.5913 64.6303 19.1704C70.9386 26.9862 80.5687 49.4268 69.4624 77.3879C69.1671 78.1313 68.3789 78.5585 67.5945 78.4052L23.7163 69.8304C22.5798 69.6083 21.9845 68.3291 22.4485 67.2673C25.989 59.1653 28.6547 42.0627 17.0704 23.4231C16.5458 22.5788 16.8146 21.4564 17.6928 20.9985Z" fill="white"/>
<path d="M47.6883 10.7442C40.3495 10.2311 25.5535 16.9005 17.6928 20.9985C16.8146 21.4564 16.5458 22.5788 17.0704 23.4231C28.6547 42.0627 25.989 59.1653 22.4485 67.2672C21.9845 68.3291 22.5798 69.6083 23.7163 69.8304L67.5945 78.4052C68.3789 78.5585 69.1671 78.1313 69.4624 77.3879C80.5687 49.4268 70.9386 26.9862 64.6303 19.1704M47.6883 10.7442C55.5698 11.2953 62.2669 16.5913 64.6303 19.1704M47.6883 10.7442L50.7252 20.4354C50.9846 21.2631 51.8256 21.762 52.6727 21.5905L64.6303 19.1704" stroke="white" stroke-width="8"/>
<mask id="path-6-outside-1_771_27518" maskUnits="userSpaceOnUse" x="10.5337" y="8.57581" width="66.6171" height="56.5287" fill="black">
<rect fill="white" x="10.5337" y="8.57581" width="66.6171" height="56.5287"/>
<path fill-rule="evenodd" clip-rule="evenodd" d="M68.4367 22.4199C52.8978 28.5865 32.2181 34.1084 22.2637 35.8899C21.7537 35.9811 21.4403 36.5031 21.6036 36.9961L21.813 37.6282C20.1076 38.3683 18.456 39.386 17.0002 40.764C14.2978 43.3221 16.4873 43.1301 20.3629 41.8325C18.7478 43.9663 17.4195 46.5412 16.9163 49.4916C15.8934 55.4895 20.8841 47.7752 25.052 40.4575C47.5506 36.9112 64.9808 32.0915 71.5808 29.4007C72.0167 29.223 72.2017 28.7187 72.0052 28.2897L69.5162 22.8559C69.3282 22.4454 68.8553 22.2537 68.4367 22.4199Z"/>
</mask>
<path fill-rule="evenodd" clip-rule="evenodd" d="M68.4367 22.4199C52.8978 28.5865 32.2181 34.1084 22.2637 35.8899C21.7537 35.9811 21.4403 36.5031 21.6036 36.9961L21.813 37.6282C20.1076 38.3683 18.456 39.386 17.0002 40.764C14.2978 43.3221 16.4873 43.1301 20.3629 41.8325C18.7478 43.9663 17.4195 46.5412 16.9163 49.4916C15.8934 55.4895 20.8841 47.7752 25.052 40.4575C47.5506 36.9112 64.9808 32.0915 71.5808 29.4007C72.0167 29.223 72.2017 28.7187 72.0052 28.2897L69.5162 22.8559C69.3282 22.4454 68.8553 22.2537 68.4367 22.4199Z" fill="#1A1A1A"/>
<path d="M22.2637 35.8899L22.7942 38.8463L22.7942 38.8463L22.2637 35.8899ZM68.4367 22.4199L67.3302 19.6275L67.3302 19.6275L68.4367 22.4199ZM21.6036 36.9961L24.4477 36.0533L24.4477 36.0533L21.6036 36.9961ZM21.813 37.6282L23.0068 40.3843L25.5209 39.2933L24.6571 36.6854L21.813 37.6282ZM17.0002 40.764L14.9409 38.5796L17.0002 40.764ZM20.3629 41.8325L22.7514 43.6494L28.6154 35.9021L19.4101 38.984L20.3629 41.8325ZM16.9163 49.4916L13.9623 48.982L16.9163 49.4916ZM25.052 40.4575L24.5826 37.4908L23.1616 37.7147L22.4488 38.9663L25.052 40.4575ZM71.5808 29.4007L72.7131 32.1827L72.7131 32.1827L71.5808 29.4007ZM72.0052 28.2897L74.7284 27.0397L74.7284 27.0397L72.0052 28.2897ZM69.5162 22.8559L66.7929 24.1059L66.7929 24.1059L69.5162 22.8559ZM22.7942 38.8463C32.943 37.03 53.8158 31.4537 69.5431 25.2123L67.3302 19.6275C51.9797 25.7194 31.4932 31.1867 21.7333 32.9334L22.7942 38.8463ZM24.4477 36.0533C24.866 37.3161 24.0595 38.6199 22.7942 38.8463L21.7333 32.9334C19.448 33.3424 18.0146 35.69 18.7595 37.9389L24.4477 36.0533ZM24.6571 36.6854L24.4477 36.0533L18.7595 37.9389L18.9689 38.5711L24.6571 36.6854ZM20.6192 34.8721C18.643 35.7297 16.6857 36.928 14.9409 38.5796L19.0594 42.9485C20.2263 41.844 21.5722 41.0069 23.0068 40.3843L20.6192 34.8721ZM14.9409 38.5796C14.5456 38.9538 14.182 39.3313 13.8783 39.7079C13.6019 40.0505 13.2398 40.5556 13.0172 41.1822C12.7907 41.8196 12.5535 43.0953 13.4133 44.3068C14.1762 45.3819 15.2858 45.6371 15.7522 45.7107C16.7187 45.8633 17.7703 45.6644 18.4871 45.5019C19.3322 45.3104 20.3008 45.0209 21.3157 44.6811L19.4101 38.984C18.4873 39.2929 17.7288 39.514 17.1578 39.6435C16.8726 39.7081 16.6751 39.7404 16.5532 39.7538C16.4024 39.7703 16.4759 39.7457 16.6775 39.7775C16.7968 39.7964 17.6621 39.9365 18.2962 40.8299C19.027 41.8598 18.7761 42.8871 18.6639 43.2031C18.5555 43.5082 18.4354 43.6187 18.5414 43.4873C18.62 43.3898 18.7792 43.2138 19.0594 42.9485L14.9409 38.5796ZM19.8703 50.0012C20.2739 47.6341 21.3524 45.4976 22.7514 43.6494L17.9745 40.0156C16.1432 42.435 14.565 45.4482 13.9623 48.982L19.8703 50.0012ZM22.4488 38.9663C20.3603 42.6332 18.1681 46.2122 16.68 48.111C16.3111 48.5817 16.06 48.8517 15.9242 48.9755C15.855 49.0386 15.8874 48.9972 16.0116 48.9255C16.0951 48.8772 16.5349 48.6263 17.2114 48.6366C18.0848 48.6498 18.8692 49.0885 19.3437 49.7352C19.709 50.233 19.7645 50.678 19.7714 50.7298C19.7877 50.8519 19.7531 50.6881 19.8703 50.0012L13.9623 48.982C13.8238 49.7945 13.7213 50.7018 13.8311 51.5214C13.8848 51.922 14.0273 52.6224 14.5165 53.2893C15.115 54.1049 16.0603 54.6261 17.1283 54.6423C17.9994 54.6555 18.6674 54.328 19.0094 54.1304C19.3921 53.9094 19.7134 53.6461 19.9599 53.4214C20.4555 52.9697 20.9438 52.4009 21.3953 51.8248C23.1887 49.5365 25.5758 45.5995 27.6551 41.9487L22.4488 38.9663ZM70.4485 26.6187C64.1542 29.1848 46.9803 33.9604 24.5826 37.4908L25.5213 43.4242C48.1209 39.862 65.8073 34.9981 72.7131 32.1827L70.4485 26.6187ZM69.2819 29.5396C68.8032 28.4946 69.2247 27.1176 70.4485 26.6187L72.7131 32.1827C74.8087 31.3284 75.6001 28.9427 74.7284 27.0397L69.2819 29.5396ZM66.7929 24.1059L69.2819 29.5396L74.7284 27.0397L72.2395 21.6059L66.7929 24.1059ZM69.5431 25.2123C68.4735 25.6368 67.2672 25.1412 66.7929 24.1059L72.2395 21.6059C71.3892 19.7496 69.2372 18.8707 67.3302 19.6275L69.5431 25.2123Z" fill="white" mask="url(#path-6-outside-1_771_27518)"/>
<path d="M17.6928 20.9985C25.5535 16.9005 40.3495 10.2311 47.6883 10.7442C55.5698 11.2953 62.2669 16.5913 64.6303 19.1704C70.9386 26.9862 80.5687 49.4268 69.4624 77.3879C69.1671 78.1313 68.3789 78.5585 67.5945 78.4052L23.7163 69.8304C22.5798 69.6083 21.9845 68.3291 22.4485 67.2673C25.989 59.1653 28.6547 42.0627 17.0704 23.4231C16.5458 22.5788 16.8146 21.4564 17.6928 20.9985Z" fill="white"/>
<path d="M47.6883 10.7442C40.3495 10.2311 25.5535 16.9005 17.6928 20.9985C16.8146 21.4564 16.5458 22.5788 17.0704 23.4231C28.6547 42.0627 25.989 59.1653 22.4485 67.2672C21.9845 68.3291 22.5798 69.6083 23.7163 69.8304L67.5945 78.4052C68.3789 78.5585 69.1671 78.1313 69.4624 77.3879C80.5687 49.4268 70.9386 26.9862 64.6303 19.1704M47.6883 10.7442C55.5698 11.2953 62.2669 16.5913 64.6303 19.1704M47.6883 10.7442L50.7252 20.4354C50.9846 21.2631 51.8256 21.762 52.6727 21.5905L64.6303 19.1704" stroke="black" stroke-width="2"/>
<path d="M56.8149 43.0896C56.8387 42.3376 57.4387 41.7625 58.1804 41.6533C58.7864 41.564 59.4064 41.7994 59.669 42.3547C59.8493 42.7362 60.0162 43.2187 60.0508 43.7429C60.0827 44.226 60.0552 44.6933 60.01 45.0829C59.9373 45.7088 59.4255 46.1625 58.8043 46.254C58.0984 46.358 57.4062 45.9744 57.1803 45.2953C57.0631 44.9428 56.9497 44.5543 56.882 44.2016C56.8156 43.8558 56.8032 43.4586 56.8149 43.0896Z" fill="#1A1A1A"/>
<path d="M40.1484 45.1683C39.9363 44.3518 39.1374 43.8727 38.2988 43.9387C37.6135 43.9926 36.9933 44.4053 36.8435 45.0784C36.7406 45.541 36.6773 46.111 36.7692 46.6933C36.8539 47.2302 36.9998 47.7348 37.1458 48.1499C37.3801 48.8164 38.0525 49.1847 38.7549 49.1294C39.5532 49.0666 40.2156 48.4739 40.2947 47.6746C40.3358 47.2594 40.3637 46.8057 40.3505 46.4026C40.3375 46.0074 40.2526 45.5693 40.1484 45.1683Z" fill="#1A1A1A"/>
<path d="M52.4226 52.3141L46.4406 53.2697C45.947 53.3485 45.6323 53.8413 45.8636 54.2864C46.4859 55.4836 47.8348 56.9019 50.1583 56.692C52.5687 56.4743 53.2489 54.5133 53.314 53.0461C53.3352 52.5697 52.8921 52.2391 52.4226 52.3141Z" fill="#1A1A1A" stroke="#1A1A1A" stroke-width="0.844749"/>
<path fill-rule="evenodd" clip-rule="evenodd" d="M68.4367 22.4238C52.8978 28.5905 32.2181 34.1123 22.2637 35.8938C21.7537 35.9851 21.4403 36.507 21.6036 37L21.813 37.6321C20.1076 38.3722 18.456 39.3899 17.0002 40.7679C14.2978 43.326 16.4873 43.134 20.3629 41.8365C18.7478 43.9702 17.4195 46.5451 16.9163 49.4955C15.8934 55.4934 20.8841 47.7791 25.052 40.4614C47.5506 36.9151 64.9808 32.0954 71.5808 29.4046C72.0167 29.2269 72.2017 28.7226 72.0052 28.2936L69.5162 22.8598C69.3282 22.4493 68.8553 22.2576 68.4367 22.4238Z" fill="#1A1A1A"/>
<rect x="52" y="65" width="34" height="17" fill="white"/>
<path fill-rule="evenodd" clip-rule="evenodd" d="M47 61C45.8954 61 45 61.8954 45 63V83C45 84.1046 45.8954 85 47 85H91C92.1046 85 93 84.1046 93 83V63C93 61.8954 92.1046 61 91 61H47ZM73.7297 72.6112C73.7297 76.2064 75.7793 78.3232 78.8033 78.3232C81.8273 78.3232 83.8769 76.2064 83.8769 72.6112C83.8769 69.0328 81.8273 67 78.8033 67C75.7793 67 73.7297 69.016 73.7297 72.6112ZM53.4023 78.1197V67.1997H57.4007C59.7863 67.1997 61.8359 68.0733 61.8359 70.8285C61.8359 73.4997 59.7527 74.6589 57.4679 74.6589H56.2919V78.1197H53.4023ZM56.2912 72.376H57.3328C58.4752 72.376 59.0128 71.8048 59.0128 70.8304C59.0128 69.856 58.3744 69.4864 57.2656 69.4864H56.2912V72.376ZM63.617 67.1997V78.1197H66.5066V74.4573H67.6154L69.497 78.1197H72.7226L70.3538 73.8861C71.4122 73.3149 72.1178 72.2901 72.1178 70.7277C72.1178 68.0061 70.1018 67.1997 67.7498 67.1997H63.617ZM66.5059 72.1744H67.5475C68.6899 72.1744 69.2947 71.6704 69.2947 70.7296C69.2947 69.7888 68.6899 69.4864 67.5475 69.4864H66.5059V72.1744ZM78.8027 75.8368C80.1131 75.8368 80.9195 74.5936 80.9195 72.6112C80.9195 70.6288 80.1131 69.4864 78.8027 69.4864C77.4923 69.4864 76.6859 70.6288 76.6859 72.6112C76.6859 74.5936 77.4923 75.8368 78.8027 75.8368Z" fill="#2BD982"/>
</g>
<defs>
<clipPath id="clip0_771_27518">
<rect width="96.0008" height="87.8245" fill="white"/>
</clipPath>
</defs>
</svg>
