<svg width="279" height="96" viewBox="0 0 279 96" fill="none" xmlns="http://www.w3.org/2000/svg">
<path d="M54.0314 84.0801L62.5174 88.5684L66.4895 82.0369L57.8152 78.3962L54.0314 84.0801Z" fill="#FF5555"/>
<path d="M40.1173 64.6323L36.6653 67.3561L38.1318 69.5156L41.5967 66.7697L40.1173 64.6323Z" fill="#FF5555"/>
<path d="M209.9 21.0152L215.636 22.3537L216.675 19.0169L210.905 17.6835L209.9 21.0152Z" fill="#FF5555"/>
<path d="M29.4067 1.60096L35.245 1.48078L35.4241 -1.97911L29.5546 -1.84578L29.4067 1.60096Z" fill="#FF5555"/>
<path d="M13.9594 17.2557L7.47681 10.7079L3.3176 14.2631L9.84917 20.8324L13.9594 17.2557Z" fill="#FF5555"/>
<path d="M186.427 11.259L190.745 -0.31421L183.305 -3.48153L178.905 8.17077L186.427 11.259Z" fill="#2BA1E3"/>
<path d="M25.9247 15.3957L22.8019 27.3466L30.5251 29.7443L33.7202 17.7065L25.9247 15.3957Z" fill="#2BA1E3"/>
<path d="M-13.7698 44.0062L-8.50398 57.5802L0.0153407 55.1733L-4.53632 42.4079L-13.7698 44.0062Z" fill="#82EAE7"/>
<path d="M222.246 57.4025L215.833 62.8168L218.768 66.8438L225.204 61.3865L222.246 57.4025Z" fill="#2BA1E3"/>
<path d="M162.49 -4.22772L160.93 -0.614018L163.006 0.463865L164.566 -3.17267L162.49 -4.22772Z" fill="#FF5555"/>
<path d="M41.6748 37.3564L42.86 33.6034L40.6862 32.7412L39.5026 36.517L41.6748 37.3564Z" fill="#FF5555"/>
<path d="M73.9168 38.7268L72.2145 33.1962L68.8632 33.9664L70.5865 39.5231L73.9168 38.7268Z" fill="#FF5555"/>
<path d="M207.541 81.3953L207.588 75.6093L204.161 75.3334L204.126 81.1507L207.541 81.3953Z" fill="#82EAE7"/>
<path d="M207.541 81.3953L207.588 75.6093L204.161 75.3334L204.126 81.1507L207.541 81.3953Z" fill="#82EAE7"/>
<path d="M56.2195 55.9572L63.188 67.2212L70.1635 63.5806L63.1333 52.2709L56.2195 55.9572Z" fill="#2BA1E3"/>
<path d="M84.8436 25.871L97.3926 21.6113L95.4057 14.003L82.7982 18.3125L84.8436 25.871Z" fill="#FF5555"/>
<path d="M243.152 30.9508L231.099 36.459L233.848 43.8271L245.953 38.2633L243.152 30.9508Z" fill="#FF5555"/>
<path d="M146.888 27.3218L154.048 15.2424L147.194 10.4882L140.022 22.648L146.888 27.3218Z" fill="#82EAE7"/>
<path d="M46.8185 1.9988L51.2629 20.0158L62.1331 18.1584L57.6261 0.0537438L46.8185 1.9988Z" fill="#82EAE7"/>
<path d="M7.35651 0.687316L0.679638 -5.45236L-3.24596 -1.76467L3.48009 4.39382L7.35651 0.687316Z" fill="#2BA1E3"/>
<path d="M3.97452 69.9958L11.2397 75.4279L14.7711 71.3617L7.45508 65.9159L3.97452 69.9958Z" fill="#2BA1E3"/>
<path d="M266.886 68.5821L256.571 63.7021L253.236 69.5965L263.617 74.4808L266.886 68.5821Z" fill="#FF5555"/>
</svg>
