<svg width="279" height="71" viewBox="0 0 279 71" fill="none" xmlns="http://www.w3.org/2000/svg">
<path d="M54.0314 59.08L62.5174 63.5683L66.4895 57.0368L57.8152 53.3961L54.0314 59.08Z" fill="#FF5555"/>
<path d="M40.1172 39.6323L36.6651 42.3561L38.1317 44.5156L41.5965 41.7697L40.1172 39.6323Z" fill="#FF5555"/>
<path d="M25.9246 -9.60407L22.8018 2.3468L30.525 4.74452L33.7202 -7.29324L25.9246 -9.60407Z" fill="#2BA1E3"/>
<path d="M-13.77 19.0065L-8.5041 32.5804L0.0152186 30.1735L-4.53645 17.4082L-13.77 19.0065Z" fill="#82EAE7"/>
<path d="M222.246 32.4025L215.833 37.8168L218.768 41.8438L225.204 36.3865L222.246 32.4025Z" fill="#2BA1E3"/>
<path d="M41.6748 12.3565L42.86 8.60346L40.6862 7.74122L39.5026 11.517L41.6748 12.3565Z" fill="#FF5555"/>
<path d="M73.9169 13.7268L72.2146 8.19621L68.8634 8.96636L70.5867 14.5231L73.9169 13.7268Z" fill="#FF5555"/>
<path d="M207.541 56.3952L207.588 50.6092L204.161 50.3333L204.126 56.1506L207.541 56.3952Z" fill="#82EAE7"/>
<path d="M207.541 56.3952L207.588 50.6092L204.161 50.3333L204.126 56.1506L207.541 56.3952Z" fill="#82EAE7"/>
<path d="M56.2195 30.9571L63.188 42.221L70.1635 38.5805L63.1333 27.2708L56.2195 30.9571Z" fill="#2BA1E3"/>
<path d="M243.152 5.95085L231.099 11.4591L233.848 18.8271L245.953 13.2634L243.152 5.95085Z" fill="#FF5555"/>
<path d="M3.9744 44.9957L11.2396 50.4278L14.771 46.3616L7.45496 40.9158L3.9744 44.9957Z" fill="#2BA1E3"/>
<path d="M266.886 43.582L256.571 38.7019L253.236 44.5963L263.617 49.4806L266.886 43.582Z" fill="#FF5555"/>
<path d="M180.083 11.4061L187.509 19.5049L192.618 15.4536L185.135 7.32708L180.083 11.4061Z" fill="#FF5555"/>
<path d="M127.314 11.1511L123.651 5.25605L120 7.17407L123.695 13.093L127.314 11.1511Z" fill="#FF5555"/>
<path d="M169.406 38.9999L163.255 42.227L164.901 46.0052L171.078 42.7475L169.406 38.9999Z" fill="#82EAE7"/>
<path d="M139.152 20.903L140.515 14.0975L136.539 13.0001L135.184 19.8452L139.152 20.903Z" fill="#2BA1E3"/>
</svg>
