<svg width="302" height="236" viewBox="0 0 302 236" fill="none" xmlns="http://www.w3.org/2000/svg">
<mask id="mask0_245_3494" style="mask-type:alpha" maskUnits="userSpaceOnUse" x="-70" y="-64" width="480" height="373">
<path d="M-19.131 176.881C-5.50032 152.077 23.953 135.746 55.2833 127.258C73.0463 122.445 91.6246 119.791 110.229 118.115C129.524 116.376 149.089 115.711 168.416 117.53C201.26 120.62 234.709 132.022 254.235 154.191C264.723 166.099 269.801 180.334 271.911 194.656C273.841 207.267 273.704 220.025 271.505 232.609C267.201 256.332 254.133 280.167 228.127 293.577C213.251 301.249 195.687 305.045 178.19 306.43C160.414 307.837 142.007 306.957 125.145 301.966C109.718 297.4 96.1256 289.109 87.6745 277.741C79.6237 266.912 77.4176 254.118 82.3351 242.089C87.1944 230.205 97.8818 220.355 109.817 212.536C122.869 203.984 138.052 197.656 153.518 192.373C187.25 180.851 223.567 175.052 259.733 170.909C299.023 166.408 338.717 162.88 378.423 162.14C388.304 161.955 398.184 161.972 408.065 162.19C409.474 162.223 409.471 160.478 408.065 160.446C365.95 159.484 323.914 162.617 282.169 166.779C244.761 170.509 207.146 175.112 171.408 185.007C154.436 189.707 137.622 195.51 122.404 203.183C109.003 209.94 96.4843 218.446 87.7974 229.132C79.4138 239.446 75.4175 251.804 78.5649 263.983C81.7166 276.181 91.3121 286.981 103.557 294.513C117.678 303.199 135.378 307.335 152.965 308.449C170.831 309.581 189.484 308.026 206.539 303.576C222.416 299.433 236.808 292.328 247.735 282.181C257.585 273.034 264.414 262.048 268.788 250.551C273.298 238.699 275.3 226.252 275.421 213.884C275.56 199.703 273.639 185.095 267.761 171.652C262.211 158.942 252.497 147.651 239.629 138.95C227.402 130.647 212.913 124.576 197.645 120.694C178.877 115.92 158.975 114.434 139.352 114.746C119.87 115.078 100.465 116.807 81.3711 119.912C47.0227 125.476 12.8511 137.283 -9.0636 159.963C-13.8519 164.901 -17.8676 170.286 -21.0217 176C-21.5815 177.019 -19.698 177.908 -19.1334 176.881L-19.131 176.881Z" fill="#DFEEFC"/>
<path d="M375.533 -62.7721C361.507 -51.0924 349.202 -38.1702 338.858 -24.2579C328.511 -10.344 320.159 4.45465 313.96 19.8588C307.583 35.7124 303.242 52.3631 302.132 69.0119C301.534 77.9842 302.177 87.0057 304.767 95.7659C307.113 103.486 310.646 110.945 315.286 117.973C324.572 132.245 337.535 144.836 351.533 156.318C353.289 157.758 355.064 159.184 356.859 160.594C357.861 161.384 359.409 160.151 358.405 159.36C344.216 148.188 330.902 136.092 320.795 122.322C315.76 115.564 311.724 108.362 308.768 100.862C305.642 92.632 304.07 84.0762 304.103 75.4763C304.086 66.5381 305.395 57.6042 307.298 48.8056C308.994 40.9699 311.247 33.2175 314.047 25.5861C319.671 10.2633 327.434 -4.50726 337.189 -18.448C346.928 -32.395 358.626 -45.4116 372.056 -57.2464C373.704 -58.696 375.378 -60.1267 377.078 -61.5383C378.05 -62.3487 376.508 -63.5844 375.532 -62.7721L375.533 -62.7721Z" fill="#DFEEFC"/>
<path d="M-67.9799 148.073C-52.4459 140.184 -38.6544 130.325 -26.0821 119.631C-13.3437 108.796 -1.6781 97.151 9.60747 85.3458C21.1418 73.2782 32.1111 60.8593 42.1901 47.9879C52.3367 35.1204 61.4298 21.7429 69.4125 7.93895C77.7321 -6.44483 84.4735 -21.377 89.5608 -36.6899C90.1935 -38.6196 90.797 -40.5553 91.3714 -42.4971C91.6955 -43.589 89.5876 -44.0551 89.263 -42.9624C84.6231 -27.4635 78.2481 -12.3284 70.2147 2.2605C62.6201 16.0156 53.894 29.3549 44.0935 42.1911C34.3206 55.0773 23.6273 67.5106 12.3393 79.579C1.19808 91.4907 -10.3917 103.207 -22.8605 114.256C-35.0771 125.081 -48.3656 135.249 -63.4069 143.56C-65.2735 144.591 -67.165 145.593 -69.0815 146.564C-70.2657 147.166 -69.1699 148.676 -67.978 148.071L-67.9799 148.073Z" fill="#DFEEFC"/>
<path d="M147.672 -42.6131C147.043 -35.2458 146.959 -27.8553 147.422 -20.4801C147.648 -16.892 147.992 -13.3069 148.491 -9.73469C148.885 -6.6322 149.539 -3.5542 150.447 -0.521206C152.294 5.36043 155.704 10.9513 161.545 14.9551C167.015 18.7041 173.861 20.9193 180.842 22.1573C188.406 23.4985 196.294 23.8448 204.02 23.5586C212.318 23.2993 220.522 22.0653 228.369 19.8964C235.516 17.8965 242.184 14.9391 248.086 11.1513C253.453 7.65693 258.123 3.5315 261.935 -1.08342C265.766 -5.69877 268.728 -10.7378 270.725 -16.0393C272.731 -21.3306 273.688 -26.8398 273.56 -32.3671C273.525 -33.7172 273.418 -35.0643 273.241 -36.4085C273.233 -36.6379 273.116 -36.8562 272.912 -37.0184C272.709 -37.1807 272.435 -37.2746 272.148 -37.2809C271.859 -37.2794 271.582 -37.187 271.377 -37.0237C271.172 -36.8604 271.056 -36.6394 271.055 -36.4085C271.741 -31.063 271.349 -25.6643 269.894 -20.4177C268.444 -15.1859 266.035 -10.1533 262.744 -5.48272C259.45 -0.787127 255.294 3.48887 250.414 7.20336C245.373 11.0224 239.574 14.1477 233.251 16.4521C225.882 19.0871 218.035 20.7704 210.004 21.4392C202.251 22.1495 194.417 22.0803 186.686 21.2333C179.772 20.449 172.837 18.9193 166.881 15.9349C163.988 14.4983 161.415 12.6878 159.266 10.5775C156.992 8.25948 155.217 5.65583 154.013 2.87307C151.353 -3.04229 150.589 -9.40705 149.994 -15.633C149.304 -22.8345 149.138 -30.0618 149.497 -37.2786C149.586 -39.0578 149.706 -40.836 149.859 -42.6131C149.956 -43.7341 147.77 -43.7294 147.672 -42.6131V-42.6131Z" fill="#DFEEFC"/>
</mask>
<g mask="url(#mask0_245_3494)">
<rect x="435.74" y="-196.568" width="682.477" height="505.853" transform="rotate(90 435.74 -196.568)" fill="#9154cf"/>
</g>
</svg>
