<svg width="6" height="17" viewBox="0 0 6 17" fill="none" xmlns="http://www.w3.org/2000/svg">
<path d="M5.85603 3.84501C5.85603 3.69322 5.79353 3.55036 5.68638 3.44322L3.40067 1.15751C3.29353 1.05036 3.15067 0.987862 2.99888 0.987862C2.8471 0.987862 2.70424 1.05036 2.5971 1.15751L0.311384 3.44322C0.204241 3.55036 0.141741 3.69322 0.141741 3.84501C0.141741 4.15751 0.40067 4.41643 0.71317 4.41643H1.85603V13.5593H0.71317C0.40067 13.5593 0.141741 13.8182 0.141741 14.1307C0.141741 14.2825 0.204241 14.4254 0.311384 14.5325L2.5971 16.8182C2.70424 16.9254 2.8471 16.9879 2.99888 16.9879C3.15067 16.9879 3.29353 16.9254 3.40067 16.8182L5.68638 14.5325C5.79353 14.4254 5.85603 14.2825 5.85603 14.1307C5.85603 13.8182 5.5971 13.5593 5.2846 13.5593H4.14174V4.41643H5.2846C5.5971 4.41643 5.85603 4.15751 5.85603 3.84501Z" fill="white"/>
</svg>
