<svg width="510" height="94" viewBox="0 0 510 94" fill="none" xmlns="http://www.w3.org/2000/svg">
	<g clip-path="url(#clip0_453_17607)">
		<rect width="510" height="94" fill="#FFCF45"/>
		<path d="M-8.8168 17.1072C-0.989754 8.40807 5.72914 -1.49812 10.3348 -12.2642C12.5723 -17.3079 14.1155 -22.6292 14.9225 -28.084C15.3987 -31.6276 16.2433 -37.2881 12.7657 -39.7258C10.0501 -41.6278 6.81219 -39.7751 5.07006 -37.4794C3.60266 -35.5459 2.98915 -33.212 2.34262 -30.9129C1.36231 -27.4354 0.563264 -23.9097 -0.051329 -20.35C-2.1646 -8.08164 -2.7834 5.47724 0.393779 17.6305C3.04924 27.7859 10.455 36.4837 21.9135 34.5325C32.9092 32.6601 41.4362 23.598 47.3072 14.751C53.8928 4.63287 58.0272 -6.86991 59.3845 -18.8504C60.1235 -25.0394 60.313 -31.6867 57.9138 -37.5675C56.4609 -41.1334 52.4682 -44.6533 48.9232 -41.1715C45.3781 -37.6898 45.8193 -30.6855 45.6984 -26.2031C45.5287 -19.5541 45.9941 -12.9041 47.0886 -6.34274C48.9833 5.11433 52.4477 17.9336 59.9558 27.1087C65.8663 34.3313 74.7758 36.9341 83.3953 32.954C90.1465 29.8371 94.6458 23.3476 97.5661 16.7561C100.946 9.12993 102.703 0.846286 103.504 -7.42947C103.872 -11.0938 103.998 -14.7784 103.878 -18.4592C103.721 -22.7726 103.444 -28.132 99.7131 -31.0083C96.3272 -33.6189 91.6727 -32.5454 88.8535 -29.6237C84.8145 -25.4385 85.1764 -18.8957 85.9008 -13.5955C87.4878 -1.99755 92.197 8.95698 99.5295 18.1072C102.859 22.2444 107.063 26.3132 112.468 27.4256C117.859 28.5354 122.722 26.2048 126.845 22.9051C134.988 16.386 140.178 5.84606 142.012 -4.2738C143.126 -10.4195 143.12 -17.0339 142.601 -23.2322C142.226 -27.7185 141.548 -36.674 135.783 -37.7358C130.265 -38.7522 128.192 -31.8353 127.45 -27.7724C126.107 -20.419 126.343 -12.7474 126.885 -5.32569C127.305 0.428817 127.622 6.6593 129.872 12.0516C133.153 19.9151 140.324 24.6374 148.895 24.3988C158.36 24.1358 166.672 18.8718 173.587 12.8464C182.599 4.99337 189.706 -5.05877 194.696 -15.863C196.965 -20.7767 199.28 -26.119 200.207 -31.4744C200.835 -35.0903 200.868 -40.1301 197.566 -42.5699C193.282 -45.738 188.261 -41.8908 185.907 -38.2164C182.684 -33.1857 181.594 -26.6133 180.514 -20.8536C179.247 -14.1221 178.537 -7.29855 178.39 -0.451489C178.274 5.2136 178.386 11.1752 180.458 16.5333C183.46 24.2969 191.271 29.7003 199.717 28.5814C207.679 27.5262 214.55 21.9946 220.038 16.5103C226.001 10.4699 231.196 3.72293 235.506 -3.57889C239.041 -9.54773 241.92 -15.8791 244.091 -22.463C246.264 -28.9972 248.997 -38.4254 244.798 -44.744C242.817 -47.7287 239.31 -49.4486 235.823 -48.0075C231.216 -46.1009 229.888 -40.8934 229.067 -36.4676C227.704 -28.8283 227.213 -21.06 227.603 -13.3109C228.239 0.942929 231.509 20.6422 246.101 27.4499C249.189 28.8763 252.55 29.624 255.955 29.6423C259.359 29.6606 262.728 28.9489 265.832 27.5558C272.416 24.5809 277.41 18.8856 281.17 12.8819C289.378 -0.226643 293.711 -16.7584 293.894 -32.1581C293.932 -35.3861 294.006 -39.2019 292.898 -42.276C291.338 -46.6045 286.149 -46.9648 282.962 -44.1576C280.895 -42.3365 279.726 -39.7061 278.609 -37.2545C274.455 -28.194 271.815 -18.5187 270.795 -8.61087C269.64 2.24465 269.984 14.8391 276.784 23.982C283.252 32.6792 294.968 35.3937 305.005 31.6877C315.109 27.9562 321.734 18.5437 325.784 9.00633C328.346 3.07006 329.722 -3.30646 329.834 -9.76664C330.002 -15.8808 329.995 -22.8443 327.49 -28.5488C325.279 -33.5834 320.482 -34.6268 316.216 -31.0576C310.848 -26.5647 310.483 -17.12 310.171 -10.7429C309.802 -3.20415 309.918 4.76392 311.534 12.1745C313.581 21.5561 319.04 31.0323 327.663 35.8131C336.692 40.8201 347.44 38.9741 355.466 32.9033C365.026 25.6716 369.961 14.1751 371.544 2.58585C372.356 -2.68552 372.448 -8.04191 371.818 -13.3378C371.233 -17.5618 369.819 -21.9009 365.742 -23.9521C357.802 -27.9499 354.667 -16.6999 354.101 -11.0933C353.023 -0.413352 353.788 12.7215 361.494 20.9894C378.095 38.7933 398.452 12.9641 404.96 -1.44289C409.429 -11.3366 412.369 -24.0086 409.858 -34.8273C409.165 -37.8127 407.52 -41.5331 403.932 -41.6127C400.599 -41.6876 398.741 -38.6036 397.589 -35.9173C394.758 -29.3167 393.565 -21.4209 393.342 -14.2628C393.048 -5.75437 394.201 2.7423 396.752 10.8682C399.101 18.1788 403.06 26.0549 410.141 29.8298C413.069 31.3445 416.32 32.1385 419.62 32.1453C422.92 32.1522 426.174 31.3717 429.109 29.8693C442.275 23.1595 448.211 5.79412 450.83 -7.66023C452.18 -14.6034 452.933 -21.8772 452.039 -28.9268C451.422 -33.7918 449.483 -45.5789 442.06 -42.7618C437.445 -41.0111 435.609 -34.3467 434.19 -30.1293C432.171 -24.0538 431.088 -17.7088 430.978 -11.3103C430.809 -1.0676 432.99 9.07833 437.356 18.355C440.817 25.7235 446.541 33.7527 455.28 34.8868C465.238 36.1787 475.425 29.6214 482.045 22.8558C489.904 14.8253 495.643 4.52462 499.377 -5.99496C502.263 -14.1248 504.588 -22.6937 505.212 -31.3324C505.507 -35.4262 506.355 -43.986 501.711 -46.2561C499.197 -47.4842 496.51 -45.8564 494.568 -44.3068C490.767 -41.2747 489.356 -36.6806 488.062 -32.1864C483.774 -17.287 480.528 0.0212049 484.694 15.2901C486.528 22.009 490.288 28.2533 496.459 31.8159C504.309 36.3476 514.752 35.873 520.633 28.3973C521.799 26.9148 519.709 24.8071 518.532 26.3053C512.806 33.5864 502.55 33.1111 495.677 27.7412C490.699 23.8518 488.149 17.8462 486.925 11.8188C484.208 -1.56781 486.777 -16.0655 490.281 -29.0735C491.267 -32.7288 492.13 -36.8831 494.411 -39.9684C495.336 -41.2175 498.645 -44.7473 500.591 -43.485C502.041 -42.5449 502.18 -39.5365 502.295 -38.0494C502.466 -35.3731 502.41 -32.6872 502.13 -30.0202C501.461 -22.7332 499.442 -15.5159 497.134 -8.59838C493.959 0.919918 489.114 10.2042 482.575 17.8764C476.598 24.8932 468.595 30.8712 459.165 31.9606C450.883 32.9178 445.061 26.4151 441.419 19.8099C432.157 3.01252 431.275 -18.7347 439.783 -35.9725C440.627 -37.6819 442.012 -40.6804 444.466 -40.2071C446.081 -39.8954 446.887 -37.5609 447.344 -36.2454C448.25 -33.6057 448.86 -30.8747 449.164 -28.1018C449.706 -22.1803 449.419 -16.2126 448.313 -10.3695C446.215 1.85873 441.768 15.8745 432.063 24.2949C427.791 28.0015 422.308 29.9344 416.65 28.9338C409.851 27.7307 405.314 22.6934 402.324 16.7818C396.303 4.877 395.049 -9.96782 397.252 -22.9843C397.648 -25.3432 400.615 -42.1031 405.219 -38.0329C407.404 -36.1021 407.523 -31.5493 407.603 -28.8874C407.743 -23.3621 407.108 -17.8443 405.717 -12.4937C403.288 -3.25301 398.805 5.32643 392.598 12.611C387.438 18.6929 378.994 26.2685 370.27 23.3758C359.422 19.7797 357.012 6.75331 356.877 -3.09963C356.822 -7.09024 356.787 -11.1288 357.788 -15.0202C358.406 -17.4238 359.814 -22.2191 363.114 -21.7727C367.655 -21.158 368.712 -15.1602 369.049 -11.5509C369.434 -6.90173 369.279 -2.22385 368.587 2.38994C367.104 12.8911 362.754 23.3153 354.278 30.0974C346.954 35.9578 336.889 37.8518 328.568 32.9204C320.82 28.3289 316.114 19.6068 314.319 11.0319C313.054 4.98351 312.929 -1.42974 313.037 -7.57936C313.146 -13.8085 313.144 -22.0928 316.894 -27.4338C317.902 -28.8703 320.081 -30.6914 322.009 -30.3403C323.655 -30.0399 324.519 -28.0998 325.042 -26.7179C326.924 -21.7214 326.971 -15.9406 326.881 -10.6765C326.795 -5.72146 326.305 -1.19044 324.712 3.52006C321.74 12.3073 316.709 21.4824 308.66 26.5992C300.248 31.9468 288.346 31.8192 281.106 24.4994C274.139 17.4563 272.944 6.50743 273.34 -2.89516C273.826 -14.5672 276.624 -26.0287 281.572 -36.6214C282.624 -38.86 283.9 -41.9782 286.453 -42.8322C289.743 -43.9334 290.407 -40.6068 290.672 -38.1434C290.933 -35.5102 290.999 -32.8615 290.87 -30.2187C290.332 -16.9478 286.745 -3.14959 280.304 8.50405C274.55 18.9066 264.723 29.0317 251.696 26.2199C237.88 23.2384 233.046 7.61061 231.35 -4.60383C230.413 -11.6457 230.207 -18.7649 230.735 -25.8487C231.082 -30.8387 231.424 -45.8833 238.6 -45.6243C241.889 -45.506 243.438 -41.4825 243.766 -38.8008C244.17 -35.5005 243.605 -32.095 242.847 -28.89C241.201 -22.339 238.791 -16.0023 235.665 -10.0092C229.773 1.6431 221.042 13.5669 210.163 21.0176C204.994 24.5572 198.425 27.329 192.216 24.811C182.409 20.8322 181.237 9.7637 181.35 0.555701C181.419 -5.52422 181.953 -11.5901 182.946 -17.5894C183.833 -22.91 184.844 -28.4837 186.857 -33.5151C187.797 -35.8621 189.13 -38.2413 191.259 -39.7068C194.13 -41.683 196.639 -40.5299 197.334 -37.3499C198.279 -33.0253 196.459 -28.4305 195.023 -24.4234C191.54 -14.6503 186.345 -5.56879 179.679 2.3998C173.802 9.36464 166.383 16.3117 157.703 19.5851C151.104 22.0735 142.993 22.5698 137.335 17.6785C132.844 13.7997 131.391 8.13984 130.647 2.53063C129.845 -3.53326 129.455 -9.6442 129.48 -15.7604C129.504 -21.062 129.454 -27.3497 131.849 -32.2311C132.485 -33.5269 133.592 -35.1679 135.279 -34.8312C137.261 -34.4368 138.073 -31.5868 138.527 -29.9603C140.14 -24.1881 140.052 -17.8504 139.772 -11.9138C139.538 -5.48377 138.04 0.838288 135.363 6.6948C131.774 14.4643 123.386 26.6025 113.261 24.5724C107.919 23.5014 103.956 19.0913 100.81 14.962C97.7107 10.8828 95.1371 6.43306 93.1494 1.71673C91.1437 -3.04103 89.7325 -8.02594 88.9473 -13.1261C88.1977 -17.9911 87.3399 -25.4056 92.174 -28.5653C101.412 -34.6038 101.099 -16.621 100.84 -11.5877C100.517 -4.60571 99.3285 2.3098 97.302 9.00173C95.3426 15.3486 92.4441 21.8046 87.5802 26.4894C82.6774 31.2091 74.9244 33.758 68.5126 30.5234C59.6632 26.0608 55.6467 14.6182 52.978 5.83093C49.5995 -5.31368 48.1731 -16.9541 48.7614 -28.5804C48.7803 -31.0083 49.0253 -33.4292 49.4931 -35.8121C49.6874 -36.8838 50.1279 -37.8963 50.7802 -38.7706C52.239 -40.4661 53.8524 -39.023 54.701 -37.4754C57.4192 -32.5204 57.126 -25.9842 56.5963 -20.5498C55.5822 -10.0703 52.3798 0.082606 47.1942 9.25813C42.2954 17.8639 35.2357 26.6801 25.7174 30.3946C20.9163 32.2683 15.5347 32.6081 11.0863 29.6569C7.09418 27.0088 4.8726 22.4252 3.57096 17.9757C0.508029 7.50541 0.789359 -4.35663 2.13723 -15.0787C2.88811 -21.0508 4.01937 -27.2675 6.04613 -32.9549C6.73889 -34.8917 10.2119 -40.138 11.9006 -36.0495C13.4855 -32.2114 11.8008 -26.3583 10.7911 -22.5419C9.48214 -17.7459 7.6757 -13.0985 5.40092 -8.67465C1.03413 -0.0956835 -4.45411 7.87013 -10.9208 15.0153C-12.1934 16.4294 -10.0986 18.5286 -8.81944 17.1072H-8.8168Z" fill="#CFC0FF"/>
		<path d="M-25.6771 126.719C-6.1485 118.633 10.1547 103.586 22.4382 86.6461C27.0847 80.2375 30.5762 73.3199 31.7372 65.4656C32.5079 60.2515 32.8817 52.8153 28.074 49.2691C20.2245 43.4791 14.1145 53.3951 11.395 59.4705C6.9764 69.3962 4.37386 80.0276 3.70992 90.8642C3.10434 100.503 3.44576 111.669 7.67694 120.56C9.32793 124.028 11.9973 127.364 15.8322 128.5C20.4728 129.875 25.367 127.829 29.4978 125.814C46.0131 117.757 57.3587 100.872 61.3951 83.3215C62.9285 76.6531 66.216 61.951 57.3547 58.8143C53.0767 57.3022 50.3743 60.8208 49.0654 64.4104C47.22 69.7104 46.0412 75.2176 45.5561 80.8061C44.9925 86.483 45.0887 92.2057 45.8427 97.8606C46.5156 102.915 47.5729 108.275 51.1391 112.166C56.7571 118.296 65.7999 117.031 72.6212 113.866C81.213 109.879 88.4628 102.404 94.2195 95.0691C100.482 87.0684 105.386 78.1009 108.737 68.5227C110.214 64.3151 111.556 59.218 108.592 55.3083C107.558 54.013 106.202 53.0096 104.659 52.3976C103.115 51.7856 101.438 51.5865 99.7926 51.8199C90.4282 53.0151 87.0238 65.6701 85.6112 73.2746C83.669 83.7278 84.128 95.2986 88.2687 105.201C91.603 113.174 98.2044 120.411 107.653 119.002C117.191 117.581 125.421 109.482 131.23 102.333C137.456 94.6232 142.165 85.8128 145.109 76.3645C147.024 70.2826 152.406 54.3859 142.666 52.0231C132.867 49.6465 128.955 64.294 127.271 70.9571C124.533 81.7384 124.22 92.9886 126.354 103.904C127.97 111.984 132.054 121.902 141.345 123.224C150.752 124.562 160.1 117.081 166.472 111.043C173.439 104.36 179.054 96.4089 183.012 87.6198C185.103 83.0487 186.768 78.2964 187.987 73.4225C189.043 69.165 190.066 64.6517 189.525 60.2469C189.141 57.1182 187.888 53.4444 184.555 52.384C180.818 51.1954 177.824 54.1591 176.133 57.1287C173.648 61.4947 172.492 66.8094 171.37 71.6527C169.956 77.4999 169.225 83.4899 169.191 89.504C169.234 99.4411 171.791 109.729 177.986 117.686C183.449 124.701 191.676 128.76 200.638 128.324C209.771 127.88 218.343 123.496 225.188 117.657C239.387 105.547 247.82 85.017 244.631 66.505C243.926 62.4085 242.762 57.1412 239.662 54.1144C236.86 51.3788 233.19 52.3327 230.951 55.1945C227.995 58.9748 226.805 64.5169 225.74 69.0775C224.456 74.6021 223.743 80.2432 223.614 85.9124C223.224 102.574 227.631 129.177 248.577 130.908C256.674 131.577 264.701 128.029 270.722 122.828C277.903 116.624 282.028 107.575 284.351 98.5542C286.992 88.3048 287.471 77.5919 287.323 67.0572C287.272 63.5564 287.661 58.1109 284.037 56.0597C280.414 54.0085 277.086 57.56 275.5 60.4993C272.99 65.1441 271.792 70.8421 270.907 75.9957C269.926 81.6641 269.574 87.4228 269.858 93.1678C270.32 102.334 272.019 112.708 278.082 120.002C293.528 138.583 313.017 108.623 319.267 96.3755C323.991 87.1175 327.853 76.7695 329.276 66.4412C329.753 62.9831 329.624 58.2174 325.943 56.4706C322.612 54.8928 319.429 57.5225 317.56 60.0773C314.439 64.3506 312.954 70.1557 311.738 75.2147C310.423 80.6996 309.701 86.309 309.585 91.947C309.4 100.938 310.9 110.546 315.837 118.255C320.434 125.434 328.044 129.421 336.619 127.381C346.099 125.124 354.357 117.628 360.357 110.295C366.583 102.634 371.245 93.8343 374.077 84.3918C375.801 78.6951 380.897 63.0482 370.685 62.2626C366.459 61.9378 363.397 65.1796 361.37 68.4858C358.61 73.0902 356.357 77.9773 354.649 83.0624C351.381 92.5709 350.582 103.186 355.19 112.405C359.326 120.68 367.573 125.068 376.745 122.796C386.075 120.485 393.915 113.183 399.692 105.851C405.784 98.0499 410.244 89.1129 412.809 79.5675C414.968 71.6264 417.479 60.7465 413.281 53.0368C411.836 50.3828 409.143 48.3809 405.981 49.0133C401.601 49.8904 399.287 54.687 397.741 58.3732C393.61 68.2255 392.544 79.2434 393.741 89.7985C394.765 98.8421 397.158 109.521 404.457 115.728C412.157 122.273 421.876 119.536 429.185 113.876C437.331 107.568 443.596 98.3399 448.265 89.2831C452.328 81.4018 458.484 69.4161 452.299 61.0733C449.592 57.4199 444.145 55.7481 440.533 59.0892C437.142 62.2258 436.125 67.5944 435.475 71.9328C434.652 77.861 434.393 83.8534 434.702 89.83C434.876 94.0613 435.043 98.5667 436.198 102.671C438.629 111.31 444.962 120.113 454.265 121.945C464.428 123.946 473.846 118.111 480.488 110.966C487.932 102.961 493.671 93.1987 497.974 83.211C501.02 76.1397 504.49 67.4826 502.432 59.6749C500.645 52.8968 493.161 48.7911 486.659 52.0336C480.139 55.2846 476.255 63.1442 473.931 69.6613C470.227 80.0423 468.733 91.0774 469.547 102.064C470.297 111.047 473.897 120.152 483.022 123.47C490.172 126.07 498.013 123.693 504.586 120.6C512.049 117.089 518.687 112.174 525.5 107.597C527.077 106.537 525.591 103.973 524 105.042C518.438 108.779 513.013 112.726 507.135 115.97C501.257 119.213 494.332 122.32 487.437 121.492C467.524 119.092 471.588 89.9188 474.956 76.6748C476.621 70.1242 479.071 63.3618 483.647 58.2246C485.661 55.9631 488.324 53.783 491.518 53.7949C493.178 53.8587 494.783 54.4018 496.138 55.358C497.493 56.3142 498.539 57.6421 499.149 59.1799C501.526 65.0725 499.066 72.3719 496.921 77.9825C493.565 86.7742 489.042 95.0797 483.475 102.678C478.219 109.832 471.407 117.076 462.335 118.965C452.693 120.973 445.042 115.144 440.993 106.84C437.198 99.0532 437.341 89.5382 437.641 81.0803C437.806 76.4401 438.2 71.7158 439.49 67.2348C440.217 64.7214 441.538 60.6492 444.628 60.2094C447.114 59.8557 449.499 61.853 450.567 63.8661C452.802 68.0776 451.787 73.0182 450.297 77.2908C447.276 85.7588 442.955 93.7097 437.488 100.86C432.376 107.612 425.139 115.862 416.071 116.677C407.044 117.49 401.691 109.109 399.209 101.631C396.436 93.2684 395.715 84.0453 396.568 75.308C396.998 70.8229 397.965 66.405 399.448 62.1482C400.552 59.005 403.036 51.4195 407.478 51.8922C411.067 52.2722 412.035 57.6119 412.31 60.4507C412.69 64.3815 412.084 68.4918 411.389 72.3502C409.935 80.5224 407.103 88.391 403.013 95.6234C399.03 102.799 393.649 109.113 387.186 114.195C380.573 119.257 370.874 123.392 363.294 117.819C356.669 112.948 354.466 103.666 354.952 95.8843C355.517 86.84 359.269 77.2172 364.159 69.6166C365.312 67.8232 366.866 65.8108 369.077 65.3164C371.885 64.6872 373.691 66.7042 373.867 69.3569C374.139 73.4396 372.781 78.0226 371.696 81.9303C369.47 89.9969 365.876 97.626 361.071 104.489C353.207 115.677 333.873 134.122 320.733 119.832C315.731 114.392 313.545 106.521 312.809 99.3438C311.97 90.0237 312.98 80.6304 315.781 71.6981C316.99 67.7212 318.342 62.3987 321.883 59.7985C327.313 55.8119 326.406 66.054 325.895 68.5424C324.088 77.3936 321.138 85.9747 317.118 94.0718C312.066 104.196 295.101 133.458 281.15 119.003C275.371 113.016 273.672 103.593 273.002 95.649C272.177 86.0696 273.221 76.4219 276.077 67.2374C276.626 65.1534 277.438 63.147 278.492 61.2659C279.039 60.3928 279.861 59.0681 280.885 58.6855C282.699 58.0077 283.566 59.5632 283.947 61.024C284.957 64.8949 284.42 69.5857 284.349 73.5546C284.194 82.2854 283.424 91.0818 281.02 99.5101C276.992 113.64 266.294 128.414 249.923 128.03C231.359 127.594 226.967 104.342 226.593 89.8379C226.332 80.3682 227.793 70.9294 230.903 61.9766C231.552 60.1272 232.261 58.0379 233.641 56.5811C236.178 53.9053 238.33 56.7323 239.415 59.1293C241.028 62.9017 241.976 66.923 242.216 71.0163C243.386 86.9571 236.101 103.725 224.342 114.467C212.918 124.907 194.325 130.706 182.202 118.057C168.895 104.173 171.041 82.2926 176.114 65.4478C177.039 62.3849 178.426 56.1656 182.138 55.1794C186.282 54.0775 186.771 60.8471 186.708 63.3644C186.506 71.4213 183.334 80.0941 179.906 87.2989C176.507 94.5333 171.948 101.169 166.408 106.946C160.934 112.596 153.521 118.999 145.474 120.261C135.924 121.76 131.383 112.465 129.561 104.716C127.461 95.2961 127.333 85.547 129.184 76.0759C130.16 70.9151 133.798 51.958 142.352 55.0505C147.016 56.7362 144.968 64.3913 144.238 67.9126C143.375 72.0755 142.178 76.1629 140.659 80.1356C137.706 87.9299 133.442 95.1672 128.05 101.538C122.856 107.613 115.888 114.484 107.719 116.014C98.2968 117.777 92.4893 109.056 89.9659 101.287C87.1031 92.4703 86.8052 82.6548 88.5665 73.5888C89.7995 67.2466 93.2382 53.2163 102.299 54.7863C112.589 56.5725 104.435 72.0379 101.873 77.2862C98.1768 84.9185 93.3832 91.9739 87.6433 98.2301C82.4479 103.852 76.3372 109.506 69.02 112.175C65.7524 113.366 62.1116 114.077 58.6683 113.258C54.3017 112.22 51.602 108.727 50.2522 104.629C47.2883 95.6464 47.6013 84.9059 49.2299 75.6985C49.6386 73.3896 50.1584 71.0965 50.7924 68.8409C51.3722 66.7745 51.8728 63.9469 53.43 62.3566C55.9237 59.809 58.7621 63.014 59.5103 65.3808C60.2011 67.5654 60.1482 69.925 60.0208 72.1872C59.5271 80.3671 57.4688 88.3779 53.9563 95.789C50.7381 102.699 46.2744 108.963 40.7867 114.27C38.0126 116.937 34.9481 119.288 31.6501 121.278C28.2127 123.339 24.0733 125.599 20.0138 125.946C10.9948 126.713 8.40536 115.333 7.3857 108.547C6.02097 99.1879 6.22181 89.6689 7.98006 80.3755C9.55511 71.9203 12.1577 62.8917 16.7317 55.5246C18.6561 52.4248 21.9884 49.1113 25.8346 51.3282C27.866 52.4984 28.6618 54.9158 28.9999 57.0985C31.1132 70.7362 21.8676 83.4687 13.46 93.0824C2.23327 105.915 -10.5038 117.26 -26.4663 123.869C-28.2065 124.592 -27.443 127.454 -25.6738 126.722L-25.6771 126.719Z" fill="#CFC0FF"/>
	</g>
	<defs>
		<clipPath id="clip0_453_17607">
			<rect width="510" height="94" fill="white"/>
		</clipPath>
	</defs>
</svg>
